<svg width="25" height="26" viewBox="0 0 25 26" fill="none" xmlns="http://www.w3.org/2000/svg">
<rect y="0.5" width="25" height="25" fill="#D9D9D9"/>
<path d="M2.5 9.12012H4.5894V17H2.5V9.12012Z" fill="black"/>
<path d="M8.53771 12.7497C8.35821 11.5487 8.25839 10.8812 8.2387 10.748C8.15124 10.1051 8.06791 9.54568 7.98823 9.06836C7.80736 9.06836 6.90484 9.06836 5.2793 9.06836V16.9482H7.10952L7.11593 11.7452L7.88612 16.9482H9.18976L9.92011 11.6295L9.92698 16.9482H11.7513V9.06836H9.02171L8.53771 12.7497Z" fill="black"/>
<path d="M15.2005 10.7076C15.2234 10.8081 15.2353 11.036 15.2353 11.3922C15.2353 11.6977 15.2353 14.1417 15.2353 14.4472C15.2353 14.9716 15.2005 15.2928 15.1313 15.4113C15.0617 15.5297 14.8767 15.5885 14.5768 15.5885C14.5768 15.0712 14.5768 10.9332 14.5768 10.416C14.8044 10.416 14.9596 10.4398 15.042 10.4864C15.1245 10.5335 15.1776 10.6071 15.2005 10.7076ZM16.1442 16.8679C16.3929 16.8145 16.6017 16.7203 16.7711 16.5862C16.94 16.4516 17.0586 16.2654 17.1264 16.0272C17.1946 15.7894 17.2349 15.3171 17.2349 14.6105C17.2349 14.3342 17.2349 12.1203 17.2349 11.8435C17.2349 11.0979 17.2052 10.5981 17.1589 10.3442C17.1122 10.0898 16.9964 9.85881 16.8109 9.65155C16.625 9.4443 16.3539 9.29536 15.9977 9.20474C15.641 9.11412 15.0594 9.06836 14.0479 9.06836C13.944 9.06836 13.4247 9.06836 12.4893 9.06836V16.9482H15.0205C15.6039 16.9303 15.9785 16.9038 16.1442 16.8679Z" fill="black"/>
<path d="M20.6058 15.6906C20.5673 15.7906 20.3988 15.8413 20.2715 15.8413C20.147 15.8413 20.0641 15.7929 20.0219 15.6955C19.9798 15.5986 19.9592 15.3775 19.9592 15.0311C19.9592 14.823 19.9592 13.1568 19.9592 12.9487C19.9592 12.5898 19.9775 12.3659 20.0146 12.2767C20.0513 12.1883 20.1318 12.1434 20.2564 12.1434C20.3837 12.1434 20.5545 12.1941 20.5984 12.2959C20.6419 12.3978 20.6639 12.6154 20.6639 12.9487C20.6639 13.0833 20.6639 13.7562 20.6639 14.9679C20.6506 15.3828 20.6314 15.6237 20.6058 15.6906ZM17.9463 16.8799H19.8273C19.9056 16.5788 19.9487 16.4115 19.9574 16.3779C20.1277 16.5797 20.315 16.7314 20.5206 16.8319C20.7253 16.9328 21.0316 16.983 21.2688 16.983C21.599 16.983 21.8838 16.8982 22.1242 16.7282C22.3641 16.5586 22.517 16.3577 22.5821 16.1266C22.6471 15.8952 22.6796 15.5434 22.6796 15.0706C22.6796 14.8494 22.6796 13.081 22.6796 12.8598C22.6796 12.3843 22.6686 12.0739 22.6471 11.9281C22.6256 11.7823 22.5615 11.6338 22.4548 11.4817C22.3481 11.3296 22.1929 11.2117 21.9895 11.1273C21.7862 11.043 21.5463 11.0008 21.2697 11.0008C21.0293 11.0008 20.7216 11.0479 20.5165 11.1408C20.3118 11.2336 20.1259 11.3745 19.9592 11.5634C19.9592 11.3924 19.9592 10.5383 19.9592 9H17.9463V16.8799Z" fill="black"/>
</svg>
