<svg width="25" height="26" viewBox="0 0 25 26" fill="none" xmlns="http://www.w3.org/2000/svg">
<rect y="0.5" width="25" height="25" fill="#D9D9D9"/>
<path d="M8.37831 18.4916H5.22571V8.83097H8.37831V18.4916ZM6.79983 7.49223C6.44222 7.49029 6.09322 7.38619 5.79687 7.19309C5.50053 6.99998 5.27013 6.72652 5.13473 6.4072C4.99934 6.08789 4.96504 5.73705 5.03614 5.39894C5.10725 5.06084 5.28058 4.75063 5.53426 4.50747C5.78794 4.26431 6.1106 4.09909 6.46153 4.03267C6.81245 3.96625 7.17591 4.0016 7.50603 4.13426C7.83614 4.26692 8.11813 4.49094 8.3164 4.77806C8.51466 5.06517 8.62032 5.40251 8.62004 5.74751C8.62341 5.97848 8.57855 6.20774 8.48812 6.42163C8.39769 6.63552 8.26355 6.82966 8.09369 6.99247C7.92384 7.15528 7.72174 7.28344 7.49945 7.3693C7.27716 7.45516 7.03922 7.49697 6.79983 7.49223ZM19.9985 18.5H16.8474V13.2223C16.8474 11.6658 16.1615 11.1854 15.2762 11.1854C14.3413 11.1854 13.4239 11.8653 13.4239 13.2616V18.5H10.2713V8.838H13.3031V10.1767H13.3439C13.6482 9.58253 14.7141 8.56688 16.3406 8.56688C18.0997 8.56688 20 9.5741 20 12.5241L19.9985 18.5Z" fill="black"/>
</svg>
