<svg width="25" height="26" viewBox="0 0 25 26" fill="none" xmlns="http://www.w3.org/2000/svg">
<rect y="0.5" width="25" height="25" fill="#D9D9D9"/>
<g clip-path="url(#clip0_2021_474)">
<path d="M12.5 6.85059C14.5039 6.85059 14.7412 6.85937 15.5293 6.89453C16.2617 6.92676 16.6572 7.0498 16.9209 7.15234C17.2695 7.28711 17.5215 7.45117 17.7822 7.71191C18.0459 7.97559 18.207 8.22461 18.3418 8.57324C18.4443 8.83691 18.5674 9.23535 18.5996 9.96484C18.6348 10.7559 18.6436 10.9932 18.6436 12.9941C18.6436 14.998 18.6348 15.2354 18.5996 16.0234C18.5674 16.7559 18.4443 17.1514 18.3418 17.415C18.207 17.7637 18.043 18.0156 17.7822 18.2764C17.5186 18.54 17.2695 18.7012 16.9209 18.8359C16.6572 18.9385 16.2588 19.0615 15.5293 19.0938C14.7383 19.1289 14.501 19.1377 12.5 19.1377C10.4961 19.1377 10.2588 19.1289 9.4707 19.0938C8.73828 19.0615 8.34277 18.9385 8.0791 18.8359C7.73047 18.7012 7.47852 18.5371 7.21777 18.2764C6.9541 18.0127 6.79297 17.7637 6.6582 17.415C6.55566 17.1514 6.43262 16.7529 6.40039 16.0234C6.36523 15.2324 6.35645 14.9951 6.35645 12.9941C6.35645 10.9902 6.36523 10.7529 6.40039 9.96484C6.43262 9.23242 6.55566 8.83691 6.6582 8.57324C6.79297 8.22461 6.95703 7.97266 7.21777 7.71191C7.48145 7.44824 7.73047 7.28711 8.0791 7.15234C8.34277 7.0498 8.74121 6.92676 9.4707 6.89453C10.2588 6.85937 10.4961 6.85059 12.5 6.85059ZM12.5 5.5C10.4639 5.5 10.209 5.50879 9.40918 5.54395C8.6123 5.5791 8.06445 5.70801 7.58984 5.89258C7.09473 6.08594 6.67578 6.34082 6.25977 6.75977C5.84082 7.17578 5.58594 7.59473 5.39258 8.08691C5.20801 8.56445 5.0791 9.10937 5.04395 9.90625C5.00879 10.709 5 10.9639 5 13C5 15.0361 5.00879 15.291 5.04395 16.0908C5.0791 16.8877 5.20801 17.4355 5.39258 17.9102C5.58594 18.4053 5.84082 18.8242 6.25977 19.2402C6.67578 19.6562 7.09473 19.9141 7.58691 20.1045C8.06445 20.2891 8.60938 20.418 9.40625 20.4531C10.2061 20.4883 10.4609 20.4971 12.4971 20.4971C14.5332 20.4971 14.7881 20.4883 15.5879 20.4531C16.3848 20.418 16.9326 20.2891 17.4072 20.1045C17.8994 19.9141 18.3184 19.6562 18.7344 19.2402C19.1504 18.8242 19.4082 18.4053 19.5986 17.9131C19.7832 17.4355 19.9121 16.8906 19.9473 16.0938C19.9824 15.2939 19.9912 15.0391 19.9912 13.0029C19.9912 10.9668 19.9824 10.7119 19.9473 9.91211C19.9121 9.11523 19.7832 8.56738 19.5986 8.09277C19.4141 7.59473 19.1592 7.17578 18.7402 6.75977C18.3242 6.34375 17.9053 6.08594 17.4131 5.89551C16.9355 5.71094 16.3906 5.58203 15.5938 5.54688C14.791 5.50879 14.5361 5.5 12.5 5.5Z" fill="#000100"/>
<path d="M12.5 9.14746C10.373 9.14746 8.64746 10.873 8.64746 13C8.64746 15.127 10.373 16.8525 12.5 16.8525C14.627 16.8525 16.3525 15.127 16.3525 13C16.3525 10.873 14.627 9.14746 12.5 9.14746ZM12.5 15.499C11.1201 15.499 10.001 14.3799 10.001 13C10.001 11.6201 11.1201 10.501 12.5 10.501C13.8799 10.501 14.999 11.6201 14.999 13C14.999 14.3799 13.8799 15.499 12.5 15.499Z" fill="#000100"/>
<path d="M17.4043 8.99512C17.4043 9.49317 17 9.89453 16.5049 9.89453C16.0068 9.89453 15.6055 9.49024 15.6055 8.99512C15.6055 8.49707 16.0098 8.0957 16.5049 8.0957C17 8.0957 17.4043 8.5 17.4043 8.99512Z" fill="#000100"/>
</g>
<defs>
<clipPath id="clip0_2021_474">
<rect width="15" height="15" fill="white" transform="translate(5 5.5)"/>
</clipPath>
</defs>
</svg>
