<svg
            xmlns="http://www.w3.org/2000/svg"
            width="104"
            height="75"
            viewBox="0 0 104 75"
            fill="none"
          >
            <path
              d="M66.6669 9.78893C65.7446 10.2343 64.933 10.8763 64.29 11.6691C64.2033 11.785 64.1575 11.926 64.1597 12.0703C64.1619 12.2147 64.2119 12.3542 64.3021 12.4675C64.3923 12.5808 64.5176 12.6614 64.6587 12.6969C64.7997 12.7324 64.9486 12.7208 65.0824 12.664C65.9535 12.1505 66.9014 11.7778 67.8905 11.5597C67.73 11.1916 67.5796 10.8235 67.4292 10.4455C66.326 11.5597 64.9921 12.1765 64.4204 13.7085C64.1998 14.2855 64.9119 14.7033 65.4233 14.4347C66.326 13.997 67.1684 13.4399 68.1011 13.0221L67.4693 11.9377C66.1454 13.1216 64.6009 14.0069 63.2771 15.1908C63.1876 15.3072 63.14 15.45 63.1417 15.5965C63.1434 15.7429 63.1945 15.8845 63.2867 15.9989C63.3789 16.1132 63.507 16.1937 63.6507 16.2276C63.7943 16.2614 63.9452 16.2466 64.0794 16.1856C65.5749 15.1058 67.2383 14.2758 69.0037 13.7284L68.2616 12.7336C67.5896 13.8179 66.2056 14.2855 65.2027 15.0217C63.9559 15.975 62.81 17.0516 61.7828 18.2349C61.6889 18.3398 61.6309 18.4715 61.6169 18.6111C61.6029 18.7506 61.6336 18.891 61.7047 19.0123C61.7758 19.1335 61.8837 19.2294 62.013 19.2863C62.1422 19.3432 62.2863 19.3582 62.4246 19.3292C64.9219 18.9511 67.0681 17.25 68.9937 15.7478C69.5152 15.34 68.9937 14.4645 68.3518 14.6635C66.7613 15.2798 65.3118 16.2067 64.0895 17.3893C62.6252 18.6229 61.0807 19.4983 59.8873 21.0403C59.4961 21.5476 60.2684 22.3136 60.7899 21.9257C63.5178 19.936 67.0581 19.4983 69.7358 17.3794C70.3476 16.9018 69.5754 16.0364 68.9436 16.3845C65.7443 18.026 61.0205 19.5182 59.8271 23.2985C59.7973 23.4091 59.7972 23.5255 59.8268 23.6361C59.8563 23.7468 59.9146 23.8478 59.9957 23.9292C60.0767 24.0107 60.1779 24.0697 60.289 24.1004C60.4002 24.1311 60.5176 24.1325 60.6294 24.1043C62.2855 23.5319 63.8444 22.7134 65.2528 21.677C66.8475 20.6324 68.6728 19.9758 70.2072 18.8417C70.8691 18.3543 70.2874 17.2898 69.5453 17.7275C67.1201 19.0493 64.8236 20.5913 62.6854 22.3335C60.6796 24.0347 58.2425 25.318 56.4072 27.1683C56.3121 27.2713 56.2526 27.4017 56.2373 27.5405C56.222 27.6793 56.2518 27.8194 56.3222 27.9403C56.3927 28.0612 56.5002 28.1567 56.6291 28.2128C56.758 28.269 56.9015 28.283 57.039 28.2526C58.9646 27.9741 60.7698 26.7405 62.5149 25.9447C64.6912 24.9499 66.2758 23.1194 68.412 22.1047L67.5094 21.2193C64.9921 25.2682 57.8313 25.1986 56.5375 30.2721C56.4473 30.6402 56.7281 31.1476 57.1694 31.0978C57.6992 31.0795 58.2062 30.879 58.6035 30.5308C59.9061 29.4892 61.2989 28.5637 62.7656 27.7652C65.3431 26.263 67.7802 24.3629 70.6485 23.3582L69.8361 22.5623C69.5453 24.5519 65.8245 25.4771 64.3101 26.4719C62.0034 28.0139 59.456 29.5359 58.1021 32.0429C58.0287 32.1664 57.9988 32.3105 58.017 32.4527C58.0352 32.5949 58.1006 32.7271 58.2028 32.8284C58.3049 32.9298 58.4382 32.9946 58.5815 33.0126C58.7249 33.0307 58.8702 33.001 58.9947 32.9283C63.2539 30.2163 67.8137 27.9999 72.5841 26.3227L71.9523 25.2384C69.1341 27.4071 65.7844 28.8495 62.7957 30.7795C60.6294 32.1822 58.2826 33.5649 57.2797 36.052C57.2513 36.1629 57.2527 36.2793 57.2836 36.3896C57.3146 36.4999 57.374 36.6002 57.4561 36.6806C57.5383 36.7611 57.6401 36.8188 57.7517 36.8481C57.8632 36.8775 57.9806 36.8774 58.0921 36.8478C60.469 36.1017 62.8158 34.2514 64.9219 32.9183C67.4292 31.3366 69.9364 29.715 72.4437 28.183L71.6514 27.1882C69.1696 29.3913 66.4832 31.3565 63.6281 33.0576C61.6223 34.331 59.7469 35.7237 58.9345 38.0317C58.9061 38.1426 58.9075 38.259 58.9384 38.3693C58.9694 38.4795 59.0288 38.5799 59.1109 38.6603C59.193 38.7408 59.2949 38.7985 59.4065 38.8278C59.518 38.8571 59.6354 38.857 59.7469 38.8275C61.8831 38.2704 63.8387 36.1515 65.6039 34.8483C68.2642 32.9745 71.1692 31.4685 74.2389 30.3716L73.6071 29.2773C70.8892 31.9434 67.1082 32.8586 64.0494 35.0273C62.0435 36.4897 59.095 38.3201 58.6336 40.9962C58.5634 41.4538 58.9245 41.991 59.446 41.7921C61.6412 40.9504 63.7072 39.8086 65.5838 38.3997C68.1713 36.6887 71.0597 35.4153 73.6071 33.7241C73.3463 33.3859 73.0856 33.0377 72.8148 32.7293C69.3347 35.7834 63.578 37.9919 61.502 42.3491C61.4303 42.4742 61.4019 42.619 61.4213 42.7615C61.4407 42.9041 61.5067 43.0363 61.6093 43.138C61.7118 43.2397 61.8451 43.3052 61.9888 43.3244C62.1325 43.3437 62.2785 43.3156 62.4046 43.2445C66.677 41.3444 69.8161 37.3751 74.4997 36.1913L73.8678 35.1069C71.4408 38.0914 67.389 39.0862 65.5437 42.6476C65.4689 42.7594 65.4304 42.8912 65.4334 43.0253C65.4364 43.1595 65.4808 43.2895 65.5605 43.3979C65.6403 43.5063 65.7516 43.5878 65.8795 43.6315C66.0074 43.6752 66.1457 43.679 66.2758 43.6424C67.2674 43.4358 68.2081 43.0368 69.0438 42.4685C70.6622 41.5672 72.3372 40.7698 74.0584 40.081C73.8378 39.7228 73.6272 39.3647 73.4165 38.9966C72.0325 40.658 69.9766 41.5533 68.8332 43.4335C68.7731 43.5327 68.7405 43.6459 68.7387 43.7616C68.7369 43.8774 68.766 43.9916 68.823 44.0926C68.88 44.1936 68.963 44.2778 69.0634 44.3368C69.1638 44.3957 69.2782 44.4273 69.3949 44.4283C71.2202 44.4283 72.534 43.4335 74.1988 42.7769C73.9381 42.6177 73.6673 42.4685 73.3965 42.3193C73.6171 43.3937 71.5712 44.2094 71.3906 45.4132C71.2904 46.2388 72.6042 46.2289 72.7045 45.4132C72.8048 44.5974 74.0383 44.2293 74.3693 43.6324C74.5259 43.3883 74.6291 43.1143 74.6723 42.8282C74.7155 42.542 74.6977 42.25 74.62 41.9711C74.5733 41.8064 74.4626 41.6667 74.3122 41.5828C74.1618 41.4989 73.9839 41.4775 73.8177 41.5234C72.3234 42.0706 70.9895 43.0754 69.3547 43.1251L69.9264 44.1199C70.9995 42.3591 72.9953 41.5135 74.2991 39.9516C74.6702 39.5139 74.2991 38.5788 73.6673 38.8573C72.4237 39.3746 71.2101 39.9616 69.9966 40.5485C68.7831 41.1355 67.3289 42.2099 65.8947 42.4188L66.6369 43.4136C68.402 40.0213 72.4136 39.0165 74.7504 36.1316C74.8471 36.0281 74.9077 35.8965 74.923 35.7562C74.9384 35.6159 74.9078 35.4744 74.8358 35.3528C74.7638 35.2311 74.6541 35.1357 74.5232 35.0806C74.3922 35.0256 74.2468 35.0139 74.1086 35.0472C69.2946 36.2609 66.0853 40.2799 61.7025 42.2298L62.5951 43.1151C63.6682 40.8669 65.8546 39.5836 67.7802 38.1411C69.7058 36.6986 71.852 35.4053 73.7074 33.7838C74.259 33.2963 73.5269 32.3513 72.9151 32.789C70.7488 34.2215 68.4922 35.475 66.1956 36.6887C63.8989 37.9023 61.6925 39.882 59.0147 40.7276L59.8171 41.5334C60.2684 38.9071 63.8287 36.7682 65.9348 35.4949C68.8132 33.7639 72.0024 32.789 74.4495 30.4014C74.9009 29.9637 74.4495 29.0783 73.8177 29.3171C71.1316 30.2929 68.5566 31.5466 66.1354 33.0576C65.1325 33.7241 64.1296 34.4901 63.1267 35.2362C62.1238 35.9824 60.4489 37.4746 59.3357 37.763L60.138 38.5589C61.0206 36.1017 63.6181 34.8284 65.6841 33.4655C68.117 31.961 70.4064 30.2394 72.5239 28.3223C72.6107 28.2064 72.6565 28.0654 72.6543 27.9211C72.6521 27.7767 72.6021 27.6372 72.5119 27.5239C72.4217 27.4107 72.2964 27.33 72.1553 27.2945C72.0143 27.259 71.8654 27.2706 71.7317 27.3275C69.4149 28.7302 67.1484 30.2025 64.8617 31.635C63.7385 32.3314 62.6353 33.0377 61.4819 33.6843C60.2949 34.5345 59.0249 35.2644 57.6909 35.863L58.4932 36.6687C59.4961 34.0822 62.7155 32.6 64.952 31.1674C67.5495 29.5061 70.3777 28.3024 72.8248 26.4222C73.3564 26.0243 72.8248 25.1389 72.193 25.3379C67.308 27.0429 62.6397 29.3064 58.2826 32.0827C58.5835 32.3712 58.8843 32.6696 59.1752 32.9681C60.5893 30.3716 63.6381 28.4616 66.1956 27.1186C67.8002 26.2829 70.7087 25.2483 71.0096 23.1393C71.0798 22.7016 70.7287 22.1445 70.2072 22.3435C68.0276 23.2082 65.9494 24.3056 64.0092 25.6164C62.9261 26.2829 61.8129 26.8997 60.7197 27.5364C59.8873 28.0338 58.082 29.7847 57.1293 29.904L57.7611 30.7198C58.9144 26.1934 66.2056 25.8253 68.6026 21.9853C68.9736 21.3885 68.2716 20.8314 67.71 21.09C65.985 21.9058 64.7012 23.2885 63.0765 24.2734C61.4518 25.2583 58.6437 26.8201 56.6579 27.1086L57.2897 28.193C58.9044 26.5714 61.171 25.308 62.9762 23.8556C65.2369 22.0324 67.6416 20.3923 70.1671 18.9511L69.5052 17.837C68.1613 18.8318 66.5867 19.4088 65.1626 20.2743C63.6504 21.3825 61.9939 22.2827 60.2383 22.9503L61.0506 23.7561C62.0535 20.4533 66.7572 19.0606 69.5654 17.6181L68.7731 16.6233C66.1956 18.6129 62.7556 18.991 60.0878 20.9607L60.9804 21.856C62.0166 20.7235 63.1887 19.7213 64.4706 18.8716C65.6813 17.6902 67.1029 16.7424 68.6628 16.0762C68.4521 15.718 68.2415 15.3499 68.0209 14.9918C66.2758 16.3547 64.29 17.8867 62.0034 18.2349C62.214 18.593 62.4347 18.9512 62.6453 19.3193C63.8058 17.9469 65.1564 16.7445 66.6569 15.7478C67.717 15.2341 68.6409 14.4811 69.3547 13.5493C69.4311 13.4368 69.4705 13.3036 69.4675 13.168C69.4645 13.0324 69.4192 12.901 69.3378 12.7919C69.2565 12.6829 69.1431 12.6015 69.0132 12.559C68.8834 12.5165 68.7434 12.5149 68.6126 12.5545C66.7364 13.1262 64.9677 14 63.3774 15.141L64.1697 16.1358C65.4835 14.952 67.038 14.0567 68.3518 12.8729C68.8132 12.455 68.3519 11.5299 67.72 11.7885C66.667 12.2262 65.7142 12.843 64.7113 13.3305L65.7142 14.0666C66.1755 12.843 67.5094 12.276 68.3819 11.3906C68.743 11.0225 68.5223 10.2067 67.9206 10.2764C66.7018 10.5159 65.53 10.9493 64.4505 11.5597L65.2428 12.5545C65.8165 11.8547 66.5346 11.2848 67.3489 10.8832C67.4992 10.7975 67.609 10.656 67.6542 10.49C67.6993 10.3239 67.6761 10.1469 67.5896 9.99784C67.5032 9.84877 67.3606 9.73987 67.1932 9.69509C67.0258 9.65032 66.8473 9.67334 66.697 9.75909"
              fill="white"
            />
            <path
              d="M5.12825 24.4525C5.18843 24.3729 5.25864 24.3033 5.32885 24.2237C5.82028 23.6964 5.18843 22.7912 4.53654 23.2289C3.38804 23.8993 2.45842 24.8836 1.85877 26.0641C1.59801 26.5317 2.01923 27.2181 2.59089 27.0589C4.80732 26.273 6.52231 24.3232 8.86913 23.9451L8.23729 22.8608C6.34178 24.8504 3.46343 25.8452 2.30005 28.4715C2.23632 28.5968 2.21408 28.7388 2.23648 28.8774C2.25888 29.0159 2.32478 29.1439 2.4248 29.2431C2.52483 29.3423 2.65386 29.4077 2.79353 29.4299C2.9332 29.4522 3.07638 29.4301 3.20266 29.3668C4.75773 28.579 6.25568 27.6848 7.68568 26.6908C9.19229 25.9205 10.7389 25.2298 12.3191 24.6216L11.5168 23.6268C10.3133 24.9499 8.50807 25.7258 7.12405 26.85C5.62109 27.9633 4.38193 29.3894 3.49352 31.0282C3.43296 31.1281 3.40032 31.2423 3.39896 31.3588C3.3976 31.4754 3.42756 31.5903 3.48577 31.6916C3.54398 31.7929 3.62834 31.877 3.73017 31.9352C3.832 31.9935 3.94762 32.0238 4.06517 32.023C5.79018 31.9633 7.1742 30.7099 8.43787 29.6653C10.8419 27.7021 13.504 26.0722 16.3508 24.8206L15.6889 23.6964C12.9249 25.4167 10.2843 27.3246 7.78598 29.4066C6.2415 30.7994 4.42622 32.8089 4.02506 34.908C3.99667 35.0189 3.99803 35.1353 4.02898 35.2456C4.05993 35.3558 4.1194 35.4562 4.20151 35.5366C4.28361 35.617 4.38549 35.6748 4.49704 35.7041C4.60859 35.7335 4.72592 35.7334 4.83742 35.7038C6.68277 35.2263 8.22726 33.2466 9.6514 32.0628C12.0641 30.1891 14.6575 28.5562 17.3939 27.1882C18.1561 26.7803 17.4942 25.7159 16.732 26.0641C13.6186 27.6725 10.8091 29.8029 8.42784 32.3612C6.51228 34.2215 4.16546 36.6389 3.73421 39.3249C3.6943 39.4547 3.69589 39.5935 3.73875 39.7223C3.78161 39.8511 3.86365 39.9636 3.97358 40.0443C4.08351 40.125 4.21595 40.17 4.35267 40.173C4.4894 40.176 4.62369 40.1369 4.73712 40.0611C6.51765 38.834 8.17358 37.438 9.68148 35.8928C11.9571 34.0415 14.4052 32.4092 16.9927 31.0182L16.1904 30.0234C11.8377 33.4356 7.49514 36.7981 5.02797 41.8617C4.96644 41.9948 4.95154 42.1445 4.98564 42.287C5.01974 42.4295 5.10089 42.5565 5.21617 42.648C5.33145 42.7395 5.47425 42.7901 5.62187 42.7919C5.7695 42.7936 5.91346 42.7463 6.03088 42.6576C9.53668 39.3803 13.3443 36.436 17.4039 33.8634C17.1431 33.5252 16.8824 33.177 16.6116 32.8686C14.2232 34.7883 11.9557 36.8514 9.82189 39.0464C8.25735 40.658 6.37187 42.3094 5.81024 44.5775C5.68989 45.0849 6.27158 45.6619 6.81315 45.3038C10.1729 42.9759 13.3822 40.4491 16.6818 38.0416C16.421 37.7034 16.1503 37.3651 15.8895 37.0468C13.3822 39.315 10.5039 41.3344 8.43787 44.0105C7.82609 44.8163 6.14121 47.4426 7.50517 48.2782C8.21723 48.716 8.87915 47.5918 8.15705 47.1541C8.30749 47.2337 9.15996 45.1645 9.15996 45.2242C9.82958 44.2647 10.6143 43.3895 11.4968 42.6178C13.1816 40.9664 15.0771 39.5239 16.8222 37.9422C17.3638 37.4447 16.6317 36.4798 16.0299 36.9473C12.7303 39.3548 9.51099 41.9214 6.16127 44.2095L7.16418 44.9456C7.68569 42.767 9.67146 41.1753 11.1758 39.6333C13.1955 37.5631 15.3461 35.6226 17.6145 33.8236C18.1962 33.3561 17.434 32.3911 16.8122 32.8288C12.6614 35.447 8.76652 38.4445 5.1784 41.7821L6.18131 42.578C8.60836 37.6039 12.8808 34.3409 17.1432 30.9884C17.7349 30.5308 16.9726 29.5857 16.3508 29.9936C14.0936 31.2598 11.9165 32.6618 9.83191 34.1917C7.82609 35.7535 6.25152 37.7133 4.09526 39.0364L5.09817 39.7726C5.53945 37.017 8.03671 34.7289 9.95227 32.8089C12.1243 30.5273 14.6754 28.6328 17.4942 27.2081C17.2835 26.84 17.0529 26.462 16.8323 26.084C14.5671 27.2838 12.3738 28.6125 10.2632 30.0632C9.54108 30.5606 8.85909 31.058 8.18714 31.6649C7.18423 32.4707 5.8303 34.1121 4.58669 34.4404L5.39904 35.2462C5.78015 33.1969 7.61548 31.3963 9.10982 30.0433C11.4347 28.1363 13.8875 26.388 16.4511 24.8106C16.5256 24.7675 16.5907 24.7103 16.6428 24.6422C16.6949 24.5741 16.733 24.4965 16.7549 24.4139C16.7768 24.3312 16.782 24.245 16.7703 24.1604C16.7587 24.0757 16.7303 23.9941 16.6868 23.9203C16.6434 23.8465 16.5857 23.7819 16.517 23.7302C16.4484 23.6785 16.3702 23.6407 16.2868 23.619C16.2035 23.5973 16.1166 23.592 16.0312 23.6036C15.9459 23.6152 15.8636 23.6434 15.7892 23.6865C13.5741 24.5713 11.476 25.7205 9.54108 27.1086C8.03671 28.3024 6.21141 30.6303 4.16547 30.7099L4.72709 31.7047C6.44207 28.2129 10.0927 27.2479 12.5498 24.5719C12.6365 24.456 12.6824 24.315 12.6802 24.1706C12.678 24.0263 12.6279 23.8867 12.5377 23.7735C12.4475 23.6602 12.3222 23.5796 12.1812 23.5441C12.0401 23.5086 11.8912 23.5202 11.7575 23.5771C10.213 24.2933 8.60836 24.8305 7.12405 25.6463C5.63974 26.462 4.26575 27.6359 2.64104 28.3223L3.53363 29.2077C4.63683 26.7007 7.45502 25.7756 9.26026 23.8556C9.35534 23.7526 9.41484 23.6222 9.43011 23.4834C9.44538 23.3446 9.41563 23.2045 9.34518 23.0836C9.27473 22.9627 9.16725 22.8672 9.03835 22.8111C8.90945 22.7549 8.76585 22.741 8.62842 22.7713C6.22143 23.1592 4.61677 25.0892 2.34016 25.885L3.08232 26.8798C3.58328 25.9005 4.35119 25.0802 5.29876 24.5122L4.50645 23.5174L4.29585 23.7362C3.72419 24.353 4.65689 25.2782 5.22855 24.6614"
              fill="white"
            />
            <path
              d="M10.9049 9.78894C11.0062 9.6512 11.081 9.49606 11.1255 9.33133C11.1561 9.19501 11.142 9.05256 11.0854 8.9247C11.0287 8.79684 10.9325 8.69023 10.8106 8.62035C10.6887 8.55047 10.5475 8.52095 10.4075 8.5361C10.2676 8.55125 10.1361 8.61028 10.0323 8.7046C8.71907 9.86878 7.57488 11.2079 6.63244 12.6838C6.57091 12.817 6.55602 12.9667 6.59012 13.1091C6.62422 13.2516 6.70536 13.3787 6.82064 13.4702C6.93592 13.5617 7.07873 13.6123 7.22636 13.614C7.37398 13.6157 7.51793 13.5684 7.63535 13.4797C8.37736 12.7533 9.23886 12.1579 10.1828 11.7189L9.38042 10.9131C8.83885 12.2362 7.4448 13.1116 6.56224 14.186C5.74225 15.2584 5.00789 16.3926 4.36586 17.5783C3.9647 18.2648 4.83723 18.8019 5.36877 18.3642C7.69553 16.5636 10.1025 14.8625 12.3892 13.032L11.3862 12.2461C9.30019 15.2306 5.89029 17.071 4.36586 20.5429C4.28946 20.6554 4.25006 20.7886 4.25309 20.9242C4.25612 21.0598 4.30142 21.1912 4.38277 21.3002C4.46412 21.4093 4.57752 21.4907 4.70738 21.5332C4.83725 21.5757 4.97722 21.5773 5.10802 21.5377C8.20702 20.8314 10.3031 17.5584 13.031 16.1358L12.2387 15.141C10.5137 16.9615 8.63826 18.5831 7.35454 20.7617C7.0336 21.2989 7.69552 22.0351 8.24713 21.657C10.0223 20.4533 11.7172 19.1402 13.4823 17.9464L12.4794 17.2102C12.0281 18.4836 10.9349 19.3093 10.1125 20.334C9.66123 20.8811 10.2128 21.7565 10.9049 21.3288C11.8498 20.6636 12.8574 20.0906 13.9136 19.6177L13.1714 18.6229C12.8806 19.2496 12.4192 19.757 12.1685 20.3936C12.0921 20.5061 12.0527 20.6394 12.0557 20.775C12.0588 20.9106 12.1041 21.042 12.1854 21.151C12.2668 21.2601 12.3802 21.3414 12.51 21.384C12.6399 21.4265 12.7799 21.428 12.9107 21.3885C13.352 21.3288 14.2345 20.8711 14.1944 21.1895C14.1702 21.2854 14.1682 21.3856 14.1885 21.4824C14.2088 21.5793 14.2509 21.6703 14.3117 21.7488C14.3724 21.8272 14.4503 21.891 14.5394 21.9354C14.6285 21.9798 14.7265 22.0037 14.8262 22.0052H16.0097C16.5813 22.622 17.504 21.7068 16.9324 21.09C16.3607 20.4732 15.6988 20.7518 14.8262 20.7518L15.4581 21.5675C15.8091 19.1402 14.1643 19.9659 12.5597 20.1748L13.3018 21.1696C13.5927 20.5329 14.054 20.0255 14.3047 19.3889C14.5254 18.9213 14.1643 18.2349 13.5626 18.4438C12.4062 18.9455 11.304 19.5621 10.273 20.2842L11.0653 21.279C12.0682 20.0455 13.2316 19.1004 13.7732 17.5783C13.8131 17.4486 13.8115 17.3097 13.7686 17.1809C13.7258 17.0521 13.6437 16.9396 13.5338 16.8589C13.4239 16.7782 13.2914 16.7333 13.1547 16.7303C13.018 16.7273 12.8837 16.7664 12.7703 16.8422C11.0051 18.0459 9.31022 19.3491 7.53507 20.5528L8.43768 21.4382C9.66123 19.3491 11.4464 17.8171 13.1213 16.0861C13.2108 15.9696 13.2584 15.8268 13.2567 15.6804C13.255 15.534 13.2039 15.3923 13.1117 15.278C13.0195 15.1636 12.8914 15.0831 12.7477 15.0493C12.6041 15.0155 12.4532 15.0303 12.319 15.0913C9.70136 16.4741 7.64538 19.6873 4.70685 20.3638L5.44901 21.3586C6.97343 17.8867 10.3833 16.0762 12.4694 13.0619C12.9307 12.4053 11.978 11.8382 11.4665 12.266C9.17984 14.0965 6.76282 15.8076 4.4461 17.6082L5.44901 18.3941C6.3061 16.7917 7.37903 15.3124 8.63826 13.997C9.46711 13.2856 10.1338 12.4072 10.594 11.4204C10.6248 11.3102 10.6255 11.1937 10.5961 11.083C10.5668 10.9724 10.5083 10.8714 10.4267 10.7905C10.3451 10.7096 10.2433 10.6516 10.1317 10.6224C10.0202 10.5933 9.90281 10.594 9.79162 10.6246C8.63658 11.1397 7.57842 11.8461 6.66254 12.7137L7.66545 13.4996C8.54978 12.1189 9.62311 10.8668 10.8547 9.77898L9.76153 9.14232L9.67128 9.29153C9.21996 9.99785 10.3532 10.6544 10.8046 9.94811"
              fill="white"
            />
            <path
              d="M18.9487 25.0294C18.9487 25.8054 17.8555 26.3625 17.5446 27.019C17.4682 27.1315 17.4288 27.2647 17.4318 27.4004C17.4348 27.536 17.4801 27.6674 17.5615 27.7764C17.6428 27.8854 17.7562 27.9668 17.8861 28.0093C18.016 28.0519 18.1559 28.0534 18.2867 28.0138C19.6908 27.6358 20.5232 26.4022 21.8772 25.9347C21.6665 25.5766 21.4459 25.2184 21.2353 24.8503C20.0571 26.1352 19.0679 27.5787 18.2968 29.138C18.2234 29.2615 18.1935 29.4056 18.2117 29.5478C18.2299 29.69 18.2953 29.8221 18.3974 29.9235C18.4996 30.0248 18.6328 30.0896 18.7762 30.1077C18.9195 30.1258 19.0649 30.0961 19.1893 30.0233C21.0648 29.0285 22.6594 27.6358 24.4245 26.4619L23.532 25.5765C22.6394 27.0887 21.2754 28.2128 20.3828 29.7249C20.3111 29.8499 20.2828 29.9948 20.3022 30.1373C20.3216 30.2798 20.3876 30.4121 20.4901 30.5138C20.5927 30.6155 20.726 30.681 20.8697 30.7002C21.0134 30.7194 21.1594 30.6913 21.2854 30.6202C22.9703 29.5657 24.1538 27.6358 26.0593 26.9792L25.257 26.1734C24.7257 27.3073 23.9683 28.3225 23.0305 29.1579C22.6093 29.5956 23.0305 30.5009 23.6724 30.2522C25.0464 29.705 25.9289 28.5411 27.2628 27.9641L26.2599 27.3971C26.2415 27.8217 26.1174 28.2352 25.8988 28.6008C25.8387 28.7 25.8061 28.8132 25.8043 28.929C25.8025 29.0447 25.8316 29.1588 25.8886 29.2598C25.9456 29.3608 26.0286 29.4451 26.129 29.5041C26.2294 29.563 26.3438 29.5946 26.4605 29.5956C27.0936 29.558 27.7135 29.3993 28.2858 29.128L27.4734 28.6803C27.5088 29.1695 27.6904 29.637 27.9949 30.0233C28.4362 30.7297 29.5695 30.083 29.1282 29.3668L28.7371 28.372C28.7162 28.2888 28.6786 28.2106 28.6266 28.1422C28.5745 28.0737 28.5091 28.0164 28.4341 27.9737C28.3592 27.931 28.2764 27.9037 28.1905 27.8935C28.1047 27.8833 28.0177 27.8904 27.9347 27.9144C27.4663 28.1257 26.9699 28.2697 26.4605 28.3421L27.0321 29.3369C27.3519 28.7833 27.5374 28.1634 27.5737 27.5264C27.5697 27.4118 27.5361 27.3002 27.476 27.2023C27.4158 27.1045 27.3313 27.0236 27.2305 26.9676C27.1296 26.9116 27.016 26.8823 26.9004 26.8826C26.7848 26.8829 26.6713 26.9127 26.5708 26.9693C25.3372 27.5065 24.565 28.6306 23.2913 29.128L23.9331 30.2124C25.0174 29.2109 25.8871 28.003 26.4905 26.6609C26.5214 26.5506 26.5221 26.4342 26.4927 26.3235C26.4633 26.2128 26.4049 26.1119 26.3233 26.031C26.2417 25.95 26.1399 25.892 26.0284 25.8629C25.9168 25.8337 25.7994 25.8345 25.6882 25.865C23.5921 26.5913 22.4187 28.5013 20.5934 29.6354L21.496 30.5208C22.3786 29.0186 23.7426 27.8845 24.6352 26.3724C24.9461 25.8253 24.2942 25.109 23.7325 25.477C21.9674 26.6509 20.3728 28.0337 18.4973 29.0385L19.4 29.9338C20.1128 28.4825 21.0352 27.142 22.1379 25.9546C22.529 25.497 22.1379 24.6315 21.496 24.8603C20.1622 25.3179 19.2495 26.5813 17.9156 26.9394L18.6478 27.9342C19.1091 26.8797 20.1421 26.4619 20.2324 25.2383C20.2926 24.4027 18.9888 24.4027 18.9186 25.2383"
              fill="white"
            />
            <path
              d="M23.5219 34.699C23.5944 34.6819 23.6698 34.6811 23.7427 34.6966C23.8156 34.7121 23.884 34.7435 23.9431 34.7885C23.9431 34.7885 24.0033 34.9477 23.9933 34.888C23.9933 35.1665 23.9331 35.4053 23.6222 35.4451C23.5543 35.4681 23.48 35.4644 23.4147 35.4348C23.3495 35.4052 23.2981 35.3519 23.2712 35.2859C23.2712 35.2262 23.211 35.1268 23.2712 35.077C23.3507 35.0366 23.4248 34.9864 23.4918 34.9278C23.3113 35.0074 23.2812 35.0372 23.3915 34.9974C23.2912 34.9974 23.5821 34.9974 23.552 34.9974C23.6505 35.0091 23.7459 35.0395 23.8328 35.0869C23.7325 35.0372 23.8328 34.699 23.7425 34.878C23.7182 34.9597 23.7107 35.0453 23.7203 35.1299C23.73 35.2145 23.7566 35.2964 23.7987 35.3706C23.8408 35.4448 23.8974 35.5098 23.9653 35.5619C24.0332 35.614 24.1109 35.6521 24.1939 35.6739C24.3625 35.7145 24.5405 35.6897 24.6914 35.6047C24.8424 35.5197 24.9549 35.3808 25.0062 35.2163C25.4876 34.0523 23.6222 33.356 22.7797 33.8335C22.5223 33.9628 22.3061 34.1606 22.1556 34.4048C22.005 34.6491 21.9259 34.93 21.9273 35.2163C21.9469 35.5377 22.0608 35.8465 22.255 36.1046C22.4492 36.3626 22.7153 36.5587 23.0204 36.6687C23.2785 36.7438 23.5503 36.7604 23.8158 36.7173C24.0812 36.6742 24.3335 36.5725 24.554 36.4197C24.7744 36.2669 24.9575 36.0669 25.0896 35.8345C25.2217 35.6021 25.2994 35.3432 25.3171 35.077C25.3276 34.8403 25.2885 34.604 25.2022 34.3831C25.1159 34.1622 24.9842 33.9615 24.8157 33.7937C24.5921 33.5971 24.3239 33.4573 24.0339 33.3863C23.7439 33.3152 23.4409 33.3151 23.1508 33.3858C22.9843 33.4324 22.8428 33.5417 22.7566 33.6905C22.6704 33.8392 22.6463 34.0155 22.6895 34.1817C22.7428 34.3448 22.8557 34.4823 23.0061 34.567C23.1564 34.6517 23.3333 34.6775 23.5018 34.6393"
              fill="white"
            />
            <path
              d="M32.919 38.2605L33.4907 38.1311L32.919 37.1363C32.2719 37.8935 31.7474 38.746 31.3645 39.6632C31.3337 39.7735 31.3329 39.8899 31.3623 40.0005C31.3917 40.1112 31.4502 40.2122 31.5318 40.2931C31.6133 40.374 31.7151 40.432 31.8267 40.4612C31.9383 40.4903 32.0556 40.4896 32.1668 40.459C33.3202 40.1208 34.1025 39.2652 35.1756 38.7579L34.1727 38.0317C33.952 38.5191 33.7214 39.0265 33.4907 39.504C33.3302 39.8422 33.4305 40.3894 33.8818 40.4988C34.3331 40.6082 36.3891 40.3993 36.3991 40.1705C36.3991 40.342 36.4678 40.5065 36.5901 40.6278C36.7123 40.749 36.8781 40.8172 37.051 40.8172C38.1542 40.9365 38.9666 40.3098 39.9193 39.8223L39.0167 39.5836C39.0748 39.6789 39.1251 39.7787 39.1672 39.882C39.257 40.0302 39.4014 40.1379 39.5698 40.1824C39.7382 40.227 39.9175 40.2049 40.0698 40.1208C40.894 39.6998 41.7411 39.3246 42.6072 38.9967L41.7948 38.2008C41.6573 38.8574 41.4592 39.5001 41.2031 40.1208C41.1565 40.287 41.1778 40.4647 41.2622 40.6154C41.3467 40.7662 41.4875 40.878 41.6544 40.9266C44.1917 41.6528 46.6689 40.459 48.9255 39.4045C49.5874 39.0862 49.106 37.9421 48.414 38.2107C47.4565 38.6303 46.54 39.1365 45.6761 39.7229C45.5423 39.8057 45.4428 39.9332 45.3954 40.0824C45.348 40.2315 45.3559 40.3926 45.4175 40.5365C45.4792 40.6805 45.5907 40.7979 45.7318 40.8675C45.873 40.9372 46.0346 40.9546 46.1876 40.9166C47.5916 40.5386 48.765 39.703 50.129 39.1956C49.9084 38.8375 49.6977 38.4793 49.4871 38.1113C48.6728 38.7218 47.9413 39.434 47.3108 40.2302C46.9397 40.7177 47.5515 41.3046 48.053 41.225C49.1114 40.9249 50.1236 40.4831 51.0617 39.9119C50.8009 39.5637 50.5402 39.2254 50.2694 38.9171C49.8388 39.3025 49.4552 39.7366 49.1261 40.2103C49.0655 40.3103 49.0329 40.4244 49.0315 40.541C49.0302 40.6576 49.0601 40.7724 49.1183 40.8737C49.1765 40.975 49.2609 41.0591 49.3627 41.1173C49.4646 41.1756 49.5802 41.2059 49.6978 41.2051C50.1173 41.1873 50.5376 41.214 50.9514 41.2847C51.7738 41.4737 52.1148 40.2203 51.2924 40.0312C50.7675 39.928 50.2325 39.8846 49.6978 39.9019C49.8783 40.2302 50.0688 40.5585 50.2594 40.8967C50.5322 40.5288 50.8488 40.1948 51.2021 39.9019C51.7537 39.3846 51.0416 38.5291 50.3998 38.9071C49.5461 39.4243 48.6249 39.8227 47.6618 40.0909L48.404 41.0857C48.986 40.3826 49.6607 39.7603 50.4098 39.2354C50.9213 38.8375 50.3596 37.9222 49.7679 38.1411C48.414 38.6485 47.2306 39.4841 45.8265 39.8621L46.3279 41.046C47.0931 40.5159 47.9055 40.0564 48.755 39.6731C48.5845 39.2752 48.414 38.8773 48.2536 38.4793C46.338 39.3747 44.1617 40.469 41.9954 39.8721L42.4567 40.6679C42.7142 40.0443 42.9123 39.3982 43.0484 38.738C43.0761 38.6281 43.0745 38.5129 43.044 38.4037C43.0135 38.2946 42.955 38.1951 42.8742 38.115C42.7934 38.0349 42.6932 37.9768 42.5831 37.9466C42.473 37.9163 42.3569 37.9148 42.2461 37.9422C41.2729 38.3047 40.3219 38.7232 39.3978 39.1956L40.2904 39.4244C40.2904 39.3249 40.1901 39.2254 40.15 39.126C40.0586 38.9795 39.9135 38.8739 39.7452 38.8312C39.5769 38.7886 39.3985 38.8122 39.2474 38.8972C38.6004 39.3615 37.8371 39.6402 37.041 39.703L37.6929 40.3496C37.7531 38.1212 35.3862 39.5935 34.2228 39.4244L34.6139 40.4192C34.9335 39.8453 35.2052 39.2464 35.4263 38.6286C35.4632 38.4995 35.4594 38.3623 35.4153 38.2354C35.3712 38.1086 35.2891 37.9981 35.1798 37.919C35.0705 37.8399 34.9395 37.7959 34.8042 37.7929C34.669 37.79 34.5361 37.8281 34.4234 37.9024C33.5718 38.4892 32.6766 39.0113 31.7456 39.4642L32.5479 40.2601C32.9122 39.4593 33.392 38.7154 33.9721 38.0516C34.0322 37.9524 34.0648 37.8391 34.0666 37.7234C34.0684 37.6076 34.0393 37.4935 33.9823 37.3925C33.9253 37.2915 33.8423 37.2073 33.7419 37.1483C33.6415 37.0893 33.5271 37.0578 33.4105 37.0568C33.0952 37.058 32.7827 37.1153 32.4878 37.2259C31.6955 37.5044 32.0365 38.7678 32.8388 38.4893"
              fill="white"
            />
            <path
              d="M11.0557 27.606L12.7105 27.417L12.871 30.9486H11.9383L11.0557 27.606ZM11.5772 31.8738H14.7164L15.1877 31.4559L15.5889 26.7306L15.0674 26.2332L10.4139 26.7405L10.0127 27.3175L11.1259 31.5355L11.5772 31.8738Z"
              fill="white"
            />
            <path
              d="M6.73307 38.9966L10.2533 38.6882L10.7748 34.9775L5.89062 36.0818L5.9508 36.3802L6.73307 38.9966Z"
              fill="white"
            />
            <path
              d="M67.9606 12.5247C67.9606 10.8833 66.6267 10.7141 65.6338 11.2115C65.6338 11.2115 64.1495 13.3504 65.6338 14.196C67.1181 15.0416 67.9606 14.196 67.9606 12.5545"
              fill="white"
            />
            <path
              d="M65.6037 19.6475L65.4934 23.9849H65.012L65.1323 19.8067L65.6037 19.6475ZM63.7884 19.2098C63.7884 19.6375 63.628 24.5519 63.628 24.5519C63.6106 24.6411 63.6143 24.733 63.6388 24.8205C63.6632 24.908 63.7078 24.9887 63.7691 25.0562C63.8303 25.1237 63.9065 25.1762 63.9917 25.2095C64.0768 25.2428 64.1686 25.2561 64.2598 25.2483C64.8772 25.2658 65.4931 25.3156 66.1052 25.3975C66.2 25.4186 66.2986 25.417 66.3927 25.3927C66.4868 25.3685 66.5737 25.3224 66.6462 25.2582C66.7188 25.1941 66.7749 25.1137 66.8098 25.0237C66.8448 24.9337 66.8576 24.8368 66.8473 24.7409C66.8473 23.955 66.9978 19.6574 66.9978 18.7721C67.0057 18.6657 66.9873 18.5591 66.9444 18.4614C66.9014 18.3636 66.8351 18.2777 66.7511 18.2111C66.6672 18.1445 66.5682 18.0992 66.4626 18.0791C66.3571 18.0589 66.2482 18.0646 66.1453 18.0956L64.2999 18.5532C64.2999 18.5532 63.7884 18.7621 63.7884 19.1899"
              fill="white"
            />
            <path
              d="M59.5464 29.0187C59.5464 29.0187 60.0077 34.51 60.4691 34.6592C60.9304 34.8085 63.6985 33.5948 63.6985 33.5948L63.3976 28.561L59.5464 29.0187Z"
              fill="white"
            />
            <path
              d="M70.0269 34.5101L69.5957 34.4504L69.8464 31.068H70.6788L70.0269 34.5101ZM67.8807 31.068H68.4724L68.2317 34.2713L67.8807 34.2215V31.068ZM67.1987 29.715C67.1075 29.7109 67.0165 29.7255 66.9313 29.7579C66.8461 29.7902 66.7686 29.8398 66.7037 29.9033C66.6387 29.9668 66.5876 30.043 66.5537 30.127C66.5198 30.211 66.5038 30.3011 66.5067 30.3915V34.8184C66.5067 34.8184 66.6371 35.485 67.1084 35.485C67.5798 35.485 69.8564 35.9426 70.4882 35.9426C70.66 35.9496 70.8292 35.8997 70.9691 35.8006C71.109 35.7015 71.2115 35.5589 71.2605 35.3954C71.2605 35.3954 72.1732 31.257 72.1732 30.5109C72.1847 30.3183 72.1215 30.1285 71.9966 29.9805C71.8717 29.8325 71.6944 29.7376 71.5012 29.715H67.1987Z"
              fill="white"
            />
            <path
              d="M78.3809 23.5074L79.5442 25.9944L80.5471 25.8253L80.8781 22.8508L78.3809 23.5074Z"
              fill="white"
            />
            <path
              d="M81.3897 35.7535C81.6194 35.7515 81.8433 35.6822 82.0333 35.5542C82.2233 35.4262 82.3708 35.2453 82.4574 35.0343C82.5439 34.8233 82.5655 34.5915 82.5195 34.3683C82.4735 34.1452 82.3619 33.9405 82.1988 33.7801C82.0357 33.6197 81.8284 33.5107 81.603 33.467C81.3776 33.4233 81.1442 33.4467 80.9322 33.5343C80.7202 33.622 80.5391 33.7699 80.4117 33.9594C80.2843 34.149 80.2163 34.3717 80.2163 34.5995C80.2163 34.7519 80.2467 34.9028 80.3058 35.0434C80.3649 35.1841 80.4515 35.3117 80.5606 35.419C80.6697 35.5263 80.7991 35.6111 80.9414 35.6685C81.0837 35.7259 81.2361 35.7548 81.3897 35.7535Z"
              fill="white"
            />
            <path
              d="M83.9473 34.7587C83.9453 35.0759 84.0383 35.3865 84.2145 35.6512C84.3907 35.9159 84.6422 36.1228 84.9371 36.2455C85.2319 36.3683 85.5569 36.4014 85.8708 36.3407C86.1847 36.28 86.4733 36.1283 86.7001 35.9047C86.927 35.6811 87.0818 35.3957 87.1449 35.0848C87.208 34.7738 87.1766 34.4513 87.0547 34.158C86.9328 33.8648 86.7258 33.614 86.4601 33.4376C86.1943 33.2612 85.8818 33.167 85.562 33.167C85.1355 33.167 84.7263 33.3344 84.4237 33.6326C84.1212 33.9308 83.9499 34.3356 83.9473 34.7587Z"
              fill="white"
            />
            <path
              d="M89.2925 35.1766C89.2925 35.3733 89.3513 35.5657 89.4615 35.7293C89.5717 35.8929 89.7284 36.0204 89.9116 36.0957C90.0949 36.171 90.2965 36.1907 90.4911 36.1523C90.6856 36.1139 90.8643 36.0192 91.0046 35.88C91.1448 35.7409 91.2404 35.5636 91.2791 35.3707C91.3178 35.1777 91.2979 34.9777 91.222 34.7959C91.1461 34.6141 91.0175 34.4587 90.8526 34.3494C90.6877 34.2401 90.4938 34.1818 90.2954 34.1818C90.0294 34.1818 89.7743 34.2866 89.5862 34.4732C89.3982 34.6597 89.2925 34.9127 89.2925 35.1766Z"
              fill="white"
            />
            <path
              d="M5.53951 67.0006H5.40914H4.85754C3.85462 67.0006 2.2299 66.8712 2.19981 65.4387C2.14966 62.3349 5.29881 61.6584 6.98371 61.6286C7.11053 61.6183 7.23799 61.6183 7.36482 61.6286C7.71584 64.7821 7.78603 65.757 7.79606 66.2345V66.5032C7.07895 66.7885 6.31209 66.9304 5.53951 66.921V67.0006ZM9.4609 59.0918V58.9127C9.4609 58.5148 8.91933 58.1268 8.33764 58.1268C7.75595 58.1268 7.15421 58.4253 7.16424 59.0023V59.4599C6.75999 59.4396 6.35496 59.4396 5.95071 59.4599C5.15538 59.4514 4.36657 59.6028 3.63187 59.905C2.89717 60.2073 2.23182 60.654 1.67601 61.2184C1.1202 61.7827 0.685446 62.4529 0.397978 63.1885C0.110509 63.9242 -0.0237162 64.7099 0.00342974 65.4984C0.0535754 68.7017 2.31013 69.408 4.50651 69.3682C5.68533 69.2672 6.85516 69.081 8.00668 68.8111C8.117 69.3881 8.62849 69.4279 9.00959 69.418C10.2031 69.418 10.3435 68.8708 10.3334 68.4928C10.2804 66.8267 10.123 65.1655 9.86206 63.5187C9.58124 60.2657 9.47093 59.3902 9.4609 59.0918Z"
              fill="white"
            />
            <path
              d="M18.1162 58.1169H17.8153C17.2836 58.1134 16.7641 58.2758 16.3304 58.5811C15.8967 58.8863 15.5707 59.319 15.3983 59.818C15.3491 59.572 15.3189 59.3225 15.3081 59.0719C15.3081 58.8133 15.3081 58.5645 15.3081 58.3158C15.3029 58.1058 15.2828 57.8963 15.2479 57.6891V57.6394C15.2353 57.4954 15.1941 57.3554 15.1267 57.2274C15.0593 57.0993 14.9669 56.9858 14.8551 56.8933C14.7432 56.8008 14.6139 56.7312 14.4748 56.6885C14.3357 56.6458 14.1894 56.6309 14.0444 56.6446C13.8887 56.6403 13.7339 56.6679 13.5894 56.7256C13.445 56.7834 13.3142 56.8701 13.205 56.9802C13.0958 57.0904 13.0107 57.2216 12.955 57.3658C12.8992 57.5101 12.8741 57.6641 12.881 57.8184C12.9913 59.5991 13.2019 63.5287 13.2521 65.7769C13.2521 66.3539 13.2521 66.7718 13.2521 67.1V67.2293C13.2517 67.3661 13.2798 67.5014 13.3346 67.6269C13.3893 67.7523 13.4695 67.8653 13.5702 67.9586C13.6709 68.052 13.7899 68.1237 13.9198 68.1694C14.0497 68.2151 14.1877 68.2337 14.3252 68.2242C15.5889 68.2242 15.7092 66.921 15.6892 65.3989C15.6892 64.9512 15.6892 64.4737 15.639 63.9962C15.639 62.2453 15.7794 60.594 17.5445 60.5641C17.6448 60.5641 17.7451 60.5641 17.8755 60.5641C17.9155 60.5676 17.9558 60.5676 17.9959 60.5641C21.1049 60.5144 18.6778 67.7964 20.7739 67.7566C20.944 67.7772 21.1166 67.7594 21.2787 67.7043C21.4408 67.6493 21.5882 67.5585 21.7098 67.4389C21.8314 67.3192 21.9241 67.1737 21.9809 67.0133C22.0377 66.853 22.0571 66.6819 22.0376 66.5131C21.6665 61.0615 21.7969 58.3258 18.1062 58.1666"
              fill="white"
            />
            <path
              d="M26.9617 54.1774C26.9114 53.8649 26.7616 53.5766 26.5342 53.3546C26.3068 53.1327 26.0138 52.9887 25.698 52.9438C25.0461 52.9438 24.3441 53.1428 24.3541 53.9387C24.3541 54.273 24.4866 54.5939 24.723 54.8321C24.9594 55.0703 25.2808 55.2068 25.6178 55.212C25.8384 55.212 26.9717 55.0728 26.9617 54.1675"
              fill="white"
            />
            <path
              d="M27.4129 59.7485V59.5495C27.4129 58.9227 27.0619 58.1369 26.2797 58.1468C24.9959 58.1468 24.9959 59.3903 25.006 60.3652L25.1163 66.3341C25.1163 66.4137 25.1163 66.4634 25.1163 66.5132V66.6624C25.1163 67.5179 25.2968 68.2839 26.3298 68.274C26.5304 68.274 26.6808 68.085 26.7811 68.085C27.433 67.7965 27.5433 67.0902 27.5333 66.3441L27.443 61.5889C27.443 60.5941 27.443 60.1862 27.443 59.7584"
              fill="white"
            />
            <path
              d="M46.0574 63.7873C46.0574 61.8872 45.4456 57.6394 42.5171 57.6991C40.9525 57.6991 40.3909 58.3557 39.7791 59.6887C39.5347 60.2975 39.3598 60.9315 39.2576 61.5788C39.1573 60.0767 38.355 57.3708 36.3291 57.4006C34.8147 57.4006 33.882 59.052 33.2602 60.3851L32.9894 58.1666C32.8992 57.4902 32.4779 55.2916 31.4449 55.3115C31.181 55.3354 30.9328 55.4463 30.7401 55.6267C30.5473 55.8071 30.4212 56.0464 30.3818 56.3063C30.4075 56.8433 30.5019 57.3748 30.6627 57.8881C31.0804 60.0199 31.3884 62.1715 31.5853 64.3345L31.6455 64.9015C31.7658 65.956 31.8461 67.6273 32.6986 67.6174C32.977 67.6399 33.2558 67.5777 33.4977 67.4391C33.7396 67.3004 33.9331 67.0919 34.0525 66.8414C34.2431 64.802 34.4135 59.9971 35.8678 59.9772C35.9433 59.9569 36.0229 59.9569 36.0984 59.9772H36.1486C37.1515 59.9772 37.2016 62.4443 37.2217 63.8172V64.0161C37.2217 65.2 37.3521 67.299 38.6157 67.2692C39.8794 67.2393 39.9797 65.9958 40.3207 64.8418L40.411 64.5135C40.7921 63.2302 41.5142 60.017 42.4769 59.9971C42.4769 59.9971 42.5572 59.9971 42.6073 59.9971C43.427 61.0363 43.8498 62.3295 43.8008 63.6481V64.0261C43.8008 64.225 43.8008 64.4339 43.8008 64.6528C43.8008 65.5282 43.9613 66.5529 44.8037 66.543C46.1376 66.543 46.1175 65.3591 46.0975 64.036L46.0574 63.7873Z"
              fill="white"
            />
            <path
              d="M53.4488 64.3544H53.3184C53.198 64.3544 52.9874 64.3544 52.7668 64.3544C51.7639 64.3544 50.1392 64.2251 50.1091 62.8025C50.0589 59.6987 53.1981 59.0222 54.893 58.9924C55.0192 58.9723 55.1479 58.9723 55.2741 58.9924C55.6251 62.1459 55.6953 63.1209 55.7053 63.5885V63.867C54.9866 64.1467 54.2208 64.2885 53.4488 64.2848V64.3544ZM57.3702 56.4457V56.2766C57.3702 55.8786 56.8286 55.4807 56.2469 55.4907C55.6652 55.5006 55.0635 55.7891 55.0735 56.3661V56.8137C54.8127 56.8137 54.4617 56.8137 53.86 56.8137C53.0646 56.8067 52.276 56.959 51.5414 57.2616C50.8068 57.5643 50.1414 58.0109 49.5851 58.5748C49.0288 59.1387 48.593 59.8082 48.3039 60.5433C48.0148 61.2783 47.8783 62.0637 47.9027 62.8523C47.9628 66.0556 50.2194 66.7718 52.4158 66.732C53.5943 66.6235 54.7638 66.4341 55.9159 66.165C56.0263 66.742 56.5277 66.7818 56.9188 66.7818C58.1023 66.7818 58.2527 66.2347 58.2427 65.8566C58.1906 64.1905 58.0331 62.5292 57.7713 60.8826C57.4905 57.6295 57.3802 56.7541 57.3702 56.4457Z"
              fill="white"
            />
            <path
              d="M65.283 73.0092H65.2028C64.6504 73.0163 64.1033 72.9022 63.6005 72.6752C63.0977 72.4482 62.6517 72.1139 62.2943 71.6961C62.2516 71.6104 62.1939 71.5329 62.1238 71.4672L62.0235 71.2683C61.863 70.8952 61.7648 70.4987 61.7327 70.0944C61.723 69.878 61.7678 69.6626 61.863 69.4677C62.9362 67.3686 64.5408 66.155 66.2859 66.1251H66.3661C67.2231 66.0778 68.0651 66.3627 68.7144 66.9195C69.3637 67.4763 69.7696 68.2616 69.8463 69.1095C69.8463 70.6515 68.1112 72.9296 65.283 72.9893V73.0092ZM64.1898 58.863C64.1607 57.9882 64.453 57.1326 65.0122 56.4555C65.1562 56.3021 65.3299 56.179 65.5228 56.0935C65.7158 56.0081 65.9242 55.962 66.1355 55.9581C66.8375 55.9581 67.369 57.0723 67.3791 57.7985C67.2847 58.3183 67.0329 58.7973 66.657 59.1714C66.3616 59.5975 65.9193 59.9018 65.4134 60.0269C65.2584 60.0322 65.104 60.007 64.9589 59.9528C64.8139 59.8985 64.6811 59.8163 64.5682 59.7108C64.4554 59.6054 64.3648 59.4788 64.3015 59.3384C64.2383 59.198 64.2037 59.0466 64.1999 58.8928L64.1898 58.863ZM66.7071 63.6779V62.0464C68.8534 60.7432 69.8964 59.3703 69.8663 57.8582C69.8317 57.0491 69.5826 56.2633 69.1442 55.5801L69.4551 55.3314C69.6878 55.2063 69.8863 55.0268 70.0331 54.8083C70.1799 54.5898 70.2707 54.3391 70.2975 54.0779C70.2975 53.6601 69.9164 52.8444 69.2946 52.8444C68.7167 52.952 68.1833 53.2252 67.7602 53.6303C67.6143 53.7502 67.4601 53.8599 67.2988 53.9585C67.152 53.9463 67.0089 53.9058 66.8776 53.8392C66.5618 53.6994 66.2205 53.625 65.8747 53.6203C63.5479 53.6701 62.0135 55.61 61.7628 58.8331C61.8116 59.5374 62.0407 60.2177 62.4286 60.8096C62.8165 61.4014 63.3502 61.8854 63.9792 62.2155H64.0494C64.1798 62.2155 64.2299 62.2155 64.26 63.0113V64.0062C62.4457 64.6009 60.9262 65.8558 60.0077 67.5178L59.6968 68.1147C59.4994 68.7081 59.4045 69.3304 59.416 69.9551C59.5019 71.287 60.0826 72.5399 61.0459 73.4715C62.0093 74.4032 63.2867 74.9474 64.6311 74.9988H64.7013C65.9314 75.0196 67.1484 74.7466 68.2498 74.2029C69.3511 73.6593 70.3046 72.8609 71.0297 71.8751C71.6732 70.9131 72.0215 69.7865 72.0326 68.632C71.9874 67.3204 71.4214 66.0796 70.458 65.18C69.9695 64.688 69.3848 64.3002 68.7398 64.0402C68.0949 63.7801 67.4032 63.6535 66.7071 63.6679"
              fill="white"
            />
            <path
              d="M82.0615 58.2164C82.0615 56.764 80.7477 56.7142 79.7347 56.7242C78.8791 56.7932 78.0344 56.9601 77.2174 57.2216L76.8664 57.4504V56.6247C76.8664 55.6299 76.7862 54.8241 75.7933 54.844H75.5927C75.4366 54.8299 75.2793 54.8487 75.131 54.8992C74.9827 54.9496 74.8469 55.0306 74.7323 55.1367C74.6178 55.2428 74.5271 55.3717 74.4663 55.515C74.4054 55.6583 74.3757 55.8127 74.3792 55.9681C74.3792 56.0676 74.3792 56.3163 74.4394 56.5451C74.4493 56.7207 74.4493 56.8968 74.4394 57.0724C74.4394 57.9478 74.4394 58.7039 74.4394 59.3803C74.4394 61.2108 74.7202 62.6831 74.7503 64.434C74.7655 64.699 74.7655 64.9648 74.7503 65.2298C74.7344 65.4717 74.7344 65.7142 74.7503 65.956C74.7567 66.1479 74.8049 66.3361 74.8914 66.5078C74.978 66.6795 75.1008 66.8306 75.2517 66.9508H75.7331C77.2676 66.9508 77.2575 65.8964 77.2274 64.6628C77.1974 63.4292 76.9567 62.1658 76.9366 60.8626C76.9166 59.5594 78.7218 59.1117 79.9454 59.0918C80.2071 59.0948 80.4685 59.1148 80.7276 59.1515C81.2592 59.1515 82.0916 58.9227 82.0815 58.2761"
              fill="white"
            />
            <path
              d="M86.7351 65.5979H86.6047H86.0631C85.0602 65.5979 83.4254 65.4686 83.4054 64.0361C83.3452 60.9322 86.4944 60.2558 88.1792 60.2259C88.3058 60.2097 88.4339 60.2097 88.5604 60.2259C88.9214 63.3795 88.9916 64.3544 89.0016 64.8319V65.1005C88.2796 65.381 87.5104 65.5228 86.7351 65.5183V65.5979ZM90.6664 57.6892V57.5101C90.6664 57.1122 90.1149 56.7142 89.5332 56.7242C88.9515 56.7341 88.3598 57.0226 88.3698 57.5996V58.0572C87.9657 58.0316 87.5604 58.0316 87.1563 58.0572C86.3609 58.0487 85.5721 58.2002 84.8374 58.5024C84.1027 58.8046 83.4374 59.2514 82.8816 59.8157C82.3258 60.3801 81.891 61.0503 81.6035 61.7859C81.3161 62.5215 81.1819 63.3073 81.209 64.0957C81.2692 67.2891 83.5257 68.0054 85.7221 67.9656C86.8971 67.8605 88.0633 67.6744 89.2122 67.4085C89.3326 67.9755 89.8341 68.0253 90.2152 68.0153C91.3986 68.0153 91.539 67.4682 91.539 67.0901C91.4818 65.4243 91.3244 63.7633 91.0676 62.1161C90.7868 58.863 90.6765 57.9876 90.6664 57.6892Z"
              fill="white"
            />
            <path
              d="M101.729 65.3094L99.0111 65.5382C98.6657 65.5697 98.3174 65.5305 97.9879 65.4231C97.6583 65.3158 97.3544 65.1426 97.095 64.9141C96.8356 64.6857 96.6262 64.407 96.4796 64.0951C96.3331 63.7833 96.2526 63.4449 96.2431 63.1009C96.2431 61.7281 97.3061 60.3055 99.8535 60.2558H99.9538C100.564 60.242 101.172 60.3364 101.749 60.5343C101.834 62.1249 101.834 63.7188 101.749 65.3094H101.729ZM103.976 53.879C103.976 52.9539 103.845 52.357 102.882 52.3669C101.92 52.3769 101.769 53.3617 101.789 54.466V55.1226C101.789 56.1174 101.789 57.1122 101.789 58.107L101.709 58.0572C101.13 57.8708 100.52 57.8031 99.9137 57.8583C97.4466 57.8583 93.9865 59.5594 94.0567 63.4392C94.1169 66.6723 97.0655 67.7964 99.5025 67.7567C100.222 67.7601 100.937 67.6459 101.619 67.4184C101.538 68.7216 101.559 69.5473 101.569 70.2238C101.579 70.9003 101.94 71.1191 102.371 71.1092C103.454 71.1092 103.855 71.0296 103.825 69.0599C103.715 63.4491 104.076 58.8133 103.986 53.879"
              fill="white"
            />
            <path
              d="M65.4937 1.91996C64.6412 3.03415 63.4879 3.90957 63.0566 5.33216C63.0226 5.46099 63.0282 5.59699 63.0729 5.72261C63.1175 5.84822 63.199 5.95769 63.3069 6.03692C63.4148 6.11614 63.5442 6.16147 63.6784 6.16707C63.8125 6.17267 63.9453 6.13828 64.0595 6.06834C65.0624 5.56098 65.6341 4.58607 66.6069 4.07871L65.604 3.34253C65.4435 4.22791 64.7014 4.84472 64.3002 5.63062C64.2238 5.74313 64.1844 5.87634 64.1875 6.01196C64.1905 6.14758 64.2358 6.27895 64.3171 6.38799C64.3985 6.49703 64.5119 6.57842 64.6417 6.62094C64.7716 6.66345 64.9116 6.66502 65.0424 6.62543C66.3361 6.41652 67.3491 5.42171 68.342 4.63581L67.4093 3.72056C66.8504 4.16635 66.4412 4.77 66.2359 5.45156C66.1953 5.61759 66.2205 5.79273 66.3064 5.94083C66.3922 6.08893 66.5321 6.19866 66.6972 6.2474C67.4393 6.55579 68.1213 5.93902 68.7532 5.64058L67.7503 5.08345L67.65 5.29239C67.2087 6.00865 68.342 6.66523 68.7833 5.94896C68.9361 5.68279 69.0317 5.38808 69.0641 5.08345C69.1343 4.54625 68.4623 4.33737 68.0612 4.51643C67.8405 4.62586 67.2689 5.10335 67.0582 4.99392C67.2087 5.26252 67.3591 5.53112 67.5196 5.79972C67.6629 5.33269 67.955 4.92433 68.352 4.63581C68.9938 4.07871 68.0712 3.21321 67.4193 3.72056C66.6652 4.48365 65.731 5.04789 64.7014 5.36203L65.4435 6.35684C65.8949 5.46151 66.6871 4.77507 66.8777 3.76037C66.9176 3.63062 66.916 3.49178 66.8732 3.36296C66.8303 3.23414 66.7483 3.12167 66.6384 3.04097C66.5284 2.96028 66.396 2.91534 66.2593 2.91234C66.1225 2.90934 65.9882 2.94843 65.8748 3.02421C64.8719 3.53157 64.3002 4.50648 63.3174 5.01384C63.6483 5.25259 63.9693 5.50129 64.3203 5.74999C64.6914 4.51642 65.8648 3.64099 66.627 2.64618C67.1385 1.97966 66.0052 1.33303 65.4937 1.9896"
              fill="white"
            />
            <path
              d="M19.0085 32.6498C19.1815 32.6508 19.3519 32.6073 19.5031 32.5236C19.6542 32.4399 19.781 32.3189 19.871 32.1722L18.7477 31.5157C18.3401 32.2358 17.8879 32.9301 17.3938 33.5948C17.0427 34.1221 17.7548 34.8582 18.2964 34.4802C19.3906 33.7826 20.433 33.008 21.4154 32.1623C22.0473 31.5753 21.1346 30.7198 20.4928 31.2371C19.5444 31.9031 18.7453 32.7567 18.146 33.7441C18.0695 33.8566 18.0301 33.9898 18.0332 34.1254C18.0362 34.261 18.0815 34.3924 18.1628 34.5014C18.2442 34.6105 18.3576 34.6918 18.4875 34.7344C18.6173 34.7769 18.7573 34.7785 18.8881 34.7389C20.6231 34.331 21.7163 32.799 23.0602 31.7544L22.0573 30.9685C21.1747 32.7691 19.6002 34.0723 18.4669 35.7138C18.0156 36.3505 18.9683 36.9573 19.4698 36.4997C20.934 35.2263 22.4785 34.0524 23.8124 32.6398L22.8797 31.7246C21.4455 33.2765 19.871 34.709 19.2792 36.7583C19.2484 36.8686 19.2477 36.9851 19.277 37.0957C19.3064 37.2064 19.3649 37.3073 19.4465 37.3883C19.5281 37.4692 19.6299 37.5272 19.7414 37.5564C19.853 37.5855 19.9704 37.5848 20.0816 37.5542C22.8295 36.5594 24.0932 33.9828 26.099 32.0529L25.0059 31.4162C24.003 33.8734 21.2249 35.0472 20.1417 37.4845C20.0729 37.6086 20.0463 37.7514 20.066 37.8917C20.0857 38.032 20.1505 38.1622 20.2509 38.2629C20.3513 38.3636 20.4819 38.4294 20.623 38.4505C20.7642 38.4716 20.9085 38.4468 21.0343 38.3799C23.662 37.0966 25.4271 34.6991 26.8011 32.212C26.8445 32.1382 26.8729 32.0567 26.8846 31.972C26.8963 31.8873 26.891 31.8011 26.8691 31.7184C26.8473 31.6358 26.8092 31.5582 26.757 31.4901C26.7049 31.422 26.6398 31.3648 26.5654 31.3217C26.491 31.2786 26.4087 31.2504 26.3234 31.2388C26.238 31.2273 26.1511 31.2325 26.0678 31.2542C25.9844 31.2759 25.9062 31.3137 25.8376 31.3654C25.769 31.417 25.7113 31.4816 25.6678 31.5555C24.8956 32.7194 24.354 34.0126 23.4915 35.1169C22.7183 35.9233 22.045 36.8183 21.4857 37.783C21.275 38.2307 21.626 38.9867 22.2278 38.7778C24.7852 37.7233 25.8583 35.4153 27.7438 33.5749L26.6506 32.9382C26.079 34.5896 24.8354 35.9227 24.2637 37.5343C24.0531 38.1312 24.7451 38.5291 25.2666 38.2704C26.6607 37.6338 27.122 36.2808 28.0848 35.2064L26.9916 34.5697C26.634 35.6919 26.1846 36.7832 25.6477 37.8327C25.618 37.9433 25.6179 38.0597 25.6474 38.1704C25.677 38.281 25.7352 38.3821 25.8163 38.4635C25.8974 38.5449 25.9985 38.6039 26.1097 38.6346C26.2209 38.6653 26.3382 38.6667 26.4501 38.6385C27.1741 38.3059 27.8303 37.844 28.3857 37.2756L27.2022 36.5594C27.102 37.1165 26.8713 37.6338 26.7509 38.1909C26.5704 39.0066 27.8341 39.3548 28.0146 38.5291C28.135 37.982 28.3656 37.4647 28.4659 36.9076C28.5029 36.7686 28.4929 36.6214 28.4374 36.4885C28.382 36.3557 28.2841 36.2446 28.1588 36.1723C28.0336 36.1001 27.8878 36.0705 27.744 36.0883C27.6002 36.1061 27.4662 36.1703 27.3627 36.2709C26.9737 36.6787 26.5154 37.0154 26.0088 37.2657L26.8211 38.0715C27.3605 37.0231 27.81 35.9316 28.165 34.8085C28.3054 34.2116 27.5232 33.6545 27.0719 34.1718C26.2094 35.1666 25.738 36.4798 24.5144 37.0369L25.5173 37.773C26.089 36.1217 27.3326 34.7886 27.9043 33.177C27.9379 33.0399 27.9261 32.8957 27.8706 32.7658C27.8151 32.6358 27.7189 32.5271 27.5963 32.4556C27.4736 32.3842 27.331 32.3538 27.1896 32.3691C27.0481 32.3843 26.9154 32.4444 26.8111 32.5403C25.1463 34.1718 24.1233 36.5196 21.8667 37.4149L22.6089 38.4097C23.2085 37.3862 23.9254 36.4348 24.7451 35.5745C25.5575 34.5797 26.069 33.2864 26.7509 32.1822L25.6176 31.5256C24.3439 33.8336 22.7593 36.0421 20.3223 37.2259L21.2249 38.1212C22.3481 35.5845 25.1262 34.331 26.2394 31.7345C26.5102 31.0978 25.5775 30.68 25.1463 31.0979C23.3811 32.8089 22.1977 35.3954 19.7506 36.2709L20.563 37.0667C21.1146 35.2263 22.5688 33.9828 23.8325 32.61C24.3941 31.9932 23.4814 31.0779 22.8997 31.6947C21.5759 33.1074 20.0214 34.2713 18.5672 35.5447L19.5701 36.3405C20.7134 34.6891 22.2679 33.4058 23.1505 31.5953C23.212 31.4621 23.2269 31.3124 23.1928 31.17C23.1587 31.0275 23.0776 30.9004 22.9623 30.8089C22.847 30.7174 22.7042 30.6668 22.5566 30.6651C22.4089 30.6634 22.265 30.7106 22.1476 30.7994C20.9942 31.7047 20.0314 33.1074 18.5471 33.4556L19.2893 34.4504C19.8336 33.5627 20.5617 32.7998 21.4255 32.212L20.5028 31.2869C19.6004 32.0577 18.6454 32.7657 17.6445 33.4058L18.5371 34.3012C19.0315 33.6387 19.4805 32.9441 19.881 32.222C19.9688 32.0742 19.9938 31.898 19.9505 31.7319C19.9072 31.5659 19.7993 31.4237 19.6503 31.3366C19.5014 31.2495 19.3236 31.2247 19.1562 31.2676C18.9888 31.3105 18.8455 31.4177 18.7577 31.5654L19.0185 31.3963C18.1861 31.4659 18.176 32.7691 19.0185 32.6995"
              fill="white"
            />
            <path
              d="M79.2837 20.4633C79.4342 20.6723 77.3983 24.552 77.3983 25.4374C77.4005 25.5528 77.433 25.6657 77.4924 25.7649C77.5519 25.8641 77.6362 25.9464 77.7373 26.0035C77.8384 26.0607 77.9528 26.0908 78.0691 26.091C78.1855 26.0911 78.2999 26.0613 78.4012 26.0045C79.7451 25.2385 80.6377 23.9452 81.9816 23.1891L81.089 22.2938C80.0861 24.2834 77.8195 25.2782 77.4284 27.6359C77.4042 27.7332 77.4025 27.8347 77.4233 27.9327C77.4442 28.0307 77.487 28.1228 77.5487 28.2022C77.6104 28.2815 77.6893 28.3461 77.7796 28.391C77.8699 28.4359 77.9692 28.46 78.0702 28.4616C79.7651 28.382 81.0789 27.0092 82.4329 26.1537C82.5832 26.0666 82.6924 25.9239 82.7366 25.7569C82.7808 25.5899 82.7564 25.4124 82.6686 25.2633C82.5808 25.1142 82.4369 25.0059 82.2686 24.962C82.1002 24.9182 81.9212 24.9425 81.771 25.0295C80.5649 25.6824 79.514 26.5841 78.6888 27.6738C77.8636 28.7634 77.2833 30.0158 76.9871 31.3466C76.9563 31.4569 76.9555 31.5733 76.9849 31.684C77.0143 31.7947 77.0727 31.8956 77.1543 31.9765C77.2359 32.0575 77.3377 32.1155 77.4493 32.1446C77.5608 32.1738 77.6782 32.173 77.7894 32.1424C79.5244 31.844 80.7981 30.2225 82.132 29.2674L81.4701 28.1433C79.4132 29.5726 77.8901 31.636 77.1375 34.0127C77.1077 34.1233 77.1076 34.2397 77.1372 34.3503C77.1668 34.461 77.225 34.562 77.3061 34.6435C77.3872 34.7249 77.4883 34.7839 77.5995 34.8146C77.7106 34.8453 77.828 34.8466 77.9398 34.8185C80.1362 34.1022 81.3197 32.0529 83.3255 31.0481L82.3226 30.312C81.44 32.9283 78.5115 33.9132 78.1204 36.8578C78.1181 36.9748 78.1479 37.0903 78.2066 37.1918C78.2653 37.2933 78.3507 37.3771 78.4536 37.4343C78.5565 37.4915 78.6732 37.5199 78.7911 37.5165C78.9091 37.5131 79.0239 37.478 79.1233 37.4149C81.242 35.8489 83.1028 33.9662 84.6393 31.834L83.6364 31.0382C82.0418 33.8137 79.364 36.1018 78.7923 39.3548C78.7524 39.4846 78.754 39.6234 78.7969 39.7522C78.8397 39.881 78.9217 39.9935 79.0317 40.0742C79.1416 40.1549 79.274 40.1998 79.4108 40.2028C79.5475 40.2058 79.6818 40.1668 79.7952 40.091C81.801 38.9967 82.804 37.0071 84.4086 35.5347L83.3154 34.908C82.804 37.4149 80.6678 39.1161 80.4471 41.7523C80.4497 41.8803 80.4899 42.0047 80.5628 42.1102C80.6357 42.2158 80.7381 42.298 80.8574 42.3466C80.9768 42.3952 81.1078 42.4082 81.2345 42.3839C81.3611 42.3596 81.4779 42.2991 81.5704 42.2099C84.7496 39.2255 84.7296 34.2514 88.1495 31.5356L87.0463 30.8989C86.4044 33.6645 84.0375 35.7337 83.4659 38.6087C83.426 38.7385 83.4275 38.8773 83.4704 39.0061C83.5133 39.1349 83.5953 39.2474 83.7052 39.3281C83.8152 39.4088 83.9476 39.4537 84.0843 39.4567C84.2211 39.4597 84.3554 39.4206 84.4688 39.3449C85.7663 38.5419 86.8828 37.4818 87.7483 36.2311C89.0922 34.5797 90.7571 33.177 92.0709 31.5356C92.6024 30.8989 91.7198 29.9837 91.1482 30.6104C89.4131 32.5105 87.2067 34.6394 86.7956 37.2757C86.7688 37.3859 86.7709 37.5011 86.8015 37.6103C86.8322 37.7195 86.8904 37.8192 86.9708 37.8999C87.0511 37.9806 87.1509 38.0396 87.2606 38.0714C87.3703 38.1031 87.4864 38.1066 87.5979 38.0815C90.3559 37.5741 91.9104 34.3609 93.5652 32.421L92.472 31.7942C91.8201 33.5352 90.3058 34.729 89.7842 36.5395C89.7603 36.636 89.7583 36.7366 89.7786 36.8339C89.7989 36.9312 89.8409 37.0228 89.9014 37.1019C89.962 37.1811 90.0396 37.2458 90.1287 37.2914C90.2177 37.3369 90.3159 37.3621 90.416 37.3652C92.3216 37.3652 93.0838 35.3756 94.6283 34.5996L93.7357 33.7143C93.154 34.918 92.2514 35.7735 92.1511 37.1563C92.1511 37.7034 92.7228 37.8925 93.154 37.7134C93.9563 37.3751 95.3905 35.9824 95.22 37.594C95.1498 38.3401 95.9822 38.7579 96.5338 38.9669C97.3261 39.2653 97.6671 37.972 96.8848 37.7134C96.1026 37.4547 97.0353 35.6342 95.8819 35.3258C94.7286 35.0175 93.6254 36.1217 92.5021 36.5892L93.505 37.1563C93.5752 36.1615 94.5079 35.2562 94.9091 34.3708C94.9808 34.2458 95.0091 34.1009 94.9897 33.9584C94.9703 33.8159 94.9043 33.6836 94.8018 33.5819C94.6993 33.4802 94.5659 33.4147 94.4223 33.3955C94.2786 33.3763 94.1325 33.4044 94.0065 33.4755C92.8632 34.0226 91.7499 36.0918 90.4562 36.062L91.088 36.8877C91.5995 35.107 93.0938 33.9032 93.7758 32.1325C93.8064 31.9962 93.7923 31.8537 93.7357 31.7259C93.6791 31.598 93.5828 31.4914 93.4609 31.4215C93.339 31.3516 93.1978 31.3221 93.0579 31.3373C92.9179 31.3524 92.7865 31.4115 92.6826 31.5058C91.1883 33.2467 89.7341 36.3704 87.287 36.8181L88.0993 37.6239C88.4804 35.1965 90.5163 33.2865 92.111 31.5356L91.1883 30.6104C90.0651 31.9733 88.7913 33.177 87.5979 34.4703C86.4044 35.7635 85.4516 37.3951 83.847 38.2207L84.8499 38.9569C85.4115 36.062 87.7784 34.0425 88.4303 31.2471C88.4639 31.11 88.4521 30.9658 88.3966 30.8359C88.3412 30.7059 88.245 30.5972 88.1223 30.5257C87.9996 30.4543 87.857 30.4239 87.7156 30.4392C87.5742 30.4544 87.4415 30.5145 87.3371 30.6104C83.8871 33.3959 83.9373 38.3401 80.758 41.2947L81.8813 41.7523C82.0819 39.315 84.2181 37.6238 84.6995 35.2462C84.73 35.1099 84.716 34.9675 84.6593 34.8396C84.6027 34.7118 84.5065 34.6052 84.3846 34.5353C84.2627 34.4654 84.1215 34.4359 83.9815 34.451C83.8416 34.4662 83.7101 34.5252 83.6063 34.6195C82.0618 36.0023 81.109 37.9422 79.2537 38.9669L80.2566 39.703C80.7981 36.5892 83.4358 34.3509 84.9702 31.6948C85.3313 31.078 84.4086 30.312 83.9673 30.9089C82.5101 32.964 80.7407 34.7828 78.7221 36.3007L79.725 36.8578C80.0761 34.2614 83.0647 33.0875 83.8871 30.6502C84.0877 30.0732 83.4057 29.6554 82.8842 29.924C81.0088 30.8691 79.8755 32.9084 77.8095 33.565L78.6218 34.3609C79.2674 32.3025 80.5786 30.5125 82.3527 29.2674C83.0246 28.77 82.3527 27.6558 81.6907 28.1433C80.417 29.0287 79.2436 30.6204 77.6791 30.889L78.4814 31.6948C78.7358 30.5272 79.2412 29.4278 79.9629 28.4715C80.6846 27.5153 81.6058 26.7247 82.6636 26.1537L82.0016 25.0295C80.9185 25.706 79.6348 27.0987 78.3009 27.1684C78.5015 27.437 78.7121 27.7155 78.9327 27.9841C79.2837 25.8552 81.5403 24.8306 82.453 22.9504C82.5204 22.8256 82.5454 22.6825 82.5241 22.5424C82.5029 22.4024 82.4365 22.2729 82.335 22.1733C82.2335 22.0737 82.1022 22.0094 81.9608 21.9898C81.8194 21.9703 81.6754 21.9967 81.5503 22.065C80.1964 22.821 79.3138 24.1143 77.9699 24.8803L78.9728 25.4374C78.9728 24.0546 81.5804 21.0105 80.6778 19.7769C80.1864 19.1004 79.043 19.7769 79.5445 20.4335"
              fill="white"
            />
            <path
              d="M88.6407 25.0593C87.357 25.8651 85.8425 28.7799 88.5404 28.3223L87.7381 27.8647C87.9687 28.78 87.3971 29.536 87.7381 30.4612C87.8918 30.8111 88.1335 31.1159 88.4401 31.3466C89.1722 31.9534 89.1622 32.1922 88.9014 33.3362C88.7109 34.1519 89.9745 34.5001 90.1651 33.6744C90.3556 32.8487 90.6866 31.2869 89.7439 30.6303C89.0318 30.1329 88.8011 29.7548 89.0117 28.9292C89.1373 28.4766 89.1373 27.9989 89.0117 27.5464C88.9606 27.3845 88.8491 27.248 88.7 27.1649C88.5509 27.0817 88.3755 27.058 88.2094 27.0987L88.3498 27.2977C88.4567 27.0913 88.5917 26.9005 88.751 26.7306C88.9043 26.5287 89.0907 26.3538 89.3026 26.2133C90.0147 25.7657 89.3628 24.6316 88.6507 25.0892"
              fill="white"
            />
            <path
              d="M82.9342 39.4045C82.8539 40.0711 82.0817 40.7575 81.9313 41.4638C81.9036 41.5737 81.9052 41.6889 81.9357 41.7981C81.9662 41.9072 82.0247 42.0067 82.1055 42.0868C82.1863 42.167 82.2865 42.225 82.3966 42.2552C82.5067 42.2855 82.6228 42.2871 82.7336 42.2597C84.1477 42.0607 85.1005 41.2052 86.324 40.5585L85.4314 39.6732C84.609 40.9266 83.7666 41.8717 83.6964 43.4137C83.699 43.5861 83.7699 43.7505 83.8938 43.8715C84.0176 43.9925 84.1845 44.0603 84.3583 44.0603C86.9358 44.12 88.1794 41.5235 90.5062 40.9266L89.764 39.9318C89.2124 41.0261 88.2697 41.822 87.678 42.9163C87.6181 43.0031 87.5805 43.1031 87.5685 43.2076C87.5564 43.3122 87.5703 43.418 87.6088 43.516C87.6474 43.614 87.7094 43.7013 87.7896 43.7701C87.8698 43.8389 87.9658 43.8873 88.0691 43.9111C90.3958 44.2394 92.0105 41.8717 94.0865 41.2449L93.3444 40.2501C92.6825 41.3245 91.7197 41.8916 91.7598 43.2346C91.761 43.3346 91.7852 43.433 91.8305 43.5223C91.8759 43.6116 91.9412 43.6894 92.0215 43.7499C92.1018 43.8103 92.1949 43.8518 92.2938 43.8711C92.3927 43.8904 92.4948 43.8871 92.5922 43.8613C93.8492 43.2528 95.0505 42.5372 96.1826 41.7225L95.1797 40.9863C95.0694 41.6429 94.8488 42.2497 94.7284 42.9163C94.7031 43.0268 94.7066 43.142 94.7386 43.2508C94.7706 43.3597 94.8301 43.4586 94.9115 43.5383C94.9928 43.6179 95.0933 43.6757 95.2034 43.7061C95.3135 43.7366 95.4296 43.7386 95.5408 43.7121C96.4824 43.4554 97.3885 43.0846 98.2386 42.6078L97.2357 42.0507C97.1708 42.3792 97.1708 42.7171 97.2357 43.0456C97.2409 43.2171 97.3125 43.3802 97.4358 43.5006C97.5592 43.6211 97.7246 43.6897 97.8976 43.6922H98.1985C98.3714 43.6922 98.5372 43.6241 98.6595 43.5028C98.7817 43.3815 98.8504 43.2171 98.8504 43.0456C98.8504 42.8741 98.7817 42.7096 98.6595 42.5883C98.5372 42.4671 98.3714 42.3989 98.1985 42.3989H97.8976C98.1183 42.6078 98.3289 42.8267 98.5495 43.0456C98.4846 42.7171 98.4846 42.3792 98.5495 42.0507C98.6097 41.5036 97.9678 41.3146 97.5466 41.4837C96.7941 41.9092 95.9927 42.2432 95.1597 42.4785L95.962 43.2744C96.0823 42.6178 96.303 42.011 96.4133 41.3544C96.4532 41.2246 96.4516 41.0858 96.4088 40.957C96.3659 40.8282 96.2839 40.7157 96.1739 40.635C96.064 40.5543 95.9316 40.5094 95.7948 40.5064C95.6581 40.5034 95.5238 40.5424 95.4104 40.6182C94.3763 41.3728 93.2792 42.0385 92.1309 42.6078L92.9633 43.2346C92.9633 42.4387 93.9662 41.5732 94.3674 40.8968C94.4438 40.7842 94.4832 40.651 94.4801 40.5154C94.4771 40.3798 94.4318 40.2484 94.3505 40.1394C94.2691 40.0303 94.1557 39.949 94.0259 39.9065C93.896 39.864 93.756 39.8624 93.6252 39.9019C92.0005 40.3894 89.9846 42.8068 88.2897 42.5681C88.4301 42.8864 88.5505 43.2047 88.6809 43.5629C89.2926 42.4885 90.2254 41.7026 90.777 40.5784C90.8534 40.4659 90.8928 40.3327 90.8897 40.1971C90.8867 40.0614 90.8414 39.9301 90.7601 39.8211C90.6787 39.712 90.5653 39.6306 90.4354 39.5881C90.3055 39.5456 90.1656 39.544 90.0348 39.5836C87.9086 40.1308 86.4745 42.7173 84.238 42.6676L84.8899 43.3241C84.94 42.0706 85.8025 41.2151 86.4444 40.2402C86.8154 39.6632 86.1034 39.0564 85.5418 39.3449C84.4386 39.9318 83.5359 40.7376 82.2622 40.9167L83.0746 41.7125C83.3053 40.7177 84.0274 40.2999 84.1377 39.315C84.238 38.4893 82.9241 38.4993 82.8339 39.315"
              fill="white"
            />
            <path
              d="M66.3862 2.10898C66.7106 2.49422 66.9898 2.91475 67.2186 3.36245C67.5095 3.95934 67.8304 4.75518 67.8304 4.75518L68.5324 6.0385L63.4176 6.38669L64.4205 4.93424C64.4205 4.93424 64.7214 4.30752 65.1526 3.61115C65.5132 3.07151 65.9263 2.56835 66.3862 2.10898ZM70.9093 6.91394L69.4852 4.30751C69.2784 3.70153 69.0096 3.11817 68.6829 2.56658C68.1513 1.71104 67.1585 0.0696253 67.1585 0.0696253C66.712 -0.0232084 66.251 -0.0232084 65.8045 0.0696253C65.4435 0.238743 64.8016 1.82048 64.3804 2.35768C64.1698 2.64618 63.5078 3.35249 63.5078 3.35249L63.0365 4.34731C63.0365 4.34731 61.1309 6.33693 61.0306 6.95371C60.9304 7.57049 61.7327 8.21714 61.7327 8.21714C61.7327 8.21714 69.9566 7.61029 70.5884 7.61029C71.2202 7.61029 70.9093 6.97363 70.9093 6.97363"
              fill="white"
            />
            <path
              d="M34.3533 43.7916L33.571 43.8812V43.2246L34.4436 43.1052L34.3533 43.7916ZM33.6814 45.3933L33.6112 44.4582L34.3032 44.3786L34.233 45.3734L33.6814 45.3933ZM31.9965 44.6472L32.9994 44.5278L33.0696 45.453L32.167 45.5525L31.9965 44.6472ZM30.8431 43.523L31.4549 46.1394C31.4787 46.2403 31.5386 46.3291 31.6234 46.3895C31.7083 46.4498 31.8123 46.4776 31.9162 46.4677L34.6843 46.1692C34.784 46.156 34.8762 46.1093 34.9455 46.0369C35.0148 45.9645 35.0571 45.8708 35.0654 45.7713L35.3061 42.6576C35.3113 42.5951 35.3023 42.5323 35.2797 42.4737C35.2572 42.4152 35.2216 42.3624 35.1757 42.3193C35.1269 42.2761 35.0697 42.2432 35.0076 42.2227C34.9455 42.2022 34.8799 42.1945 34.8146 42.2L31.144 42.7073C31.0311 42.7222 30.9287 42.7807 30.8592 42.8702C30.7897 42.9597 30.7587 43.0727 30.7729 43.1848C30.7823 43.2444 30.8027 43.3017 30.8331 43.3539C30.8182 43.4093 30.8182 43.4676 30.8331 43.523"
              fill="white"
            />
            <path
              d="M23.2007 33.6843L23.4013 34.9179L22.1677 35.0273C22.1858 34.7312 22.2902 34.4466 22.4683 34.2082C22.6463 33.9698 22.8903 33.7878 23.1706 33.6843H23.2007ZM25.1764 34.7488L23.983 34.8582L23.7824 33.5948C24.1083 33.615 24.4193 33.7378 24.67 33.9453C24.9207 34.1528 25.0981 34.4343 25.1764 34.7488ZM24.2738 36.5593L24.0933 35.465L25.2065 35.3655C25.1692 35.6278 25.0636 35.8759 24.9 36.0853C24.7364 36.2947 24.5206 36.458 24.2738 36.5593ZM22.2078 35.6441L23.4615 35.5247L23.652 36.6787C23.3375 36.6797 23.0303 36.5848 22.772 36.4068C22.5137 36.2289 22.3168 35.9765 22.2078 35.6839V35.6441ZM23.6721 37.6735C24.3113 37.6716 24.9253 37.4256 25.3865 36.9866C25.8478 36.5476 26.1209 35.9493 26.1493 35.3158C26.2035 35.2874 26.2483 35.2442 26.2785 35.1913C26.3087 35.1384 26.323 35.0781 26.3198 35.0174C26.3166 34.9592 26.2957 34.9034 26.2599 34.8572C26.2241 34.811 26.175 34.7767 26.1192 34.7587C26.0334 34.2978 25.8171 33.8705 25.4954 33.5271C25.1738 33.1837 24.7601 32.9383 24.303 32.8196C23.8458 32.701 23.364 32.7139 22.914 32.857C22.464 33.0001 22.0644 33.2674 21.762 33.6276C21.4596 33.9878 21.2669 34.426 21.2065 34.8909C21.146 35.3558 21.2204 35.8282 21.4208 36.2527C21.6212 36.6772 21.9394 37.0363 22.3381 37.2879C22.7368 37.5395 23.1995 37.6733 23.6721 37.6735Z"
              fill="white"
            />
            <path
              d="M37.8535 42.7471L38.1644 45.4928L46.7794 45.8011L46.629 43.6722L37.8535 42.7471Z"
              fill="white"
            />
            <path
              d="M54.2412 42.5879L53.6895 40.2104L53.509 39.8721L50.3699 36.261L49.367 36.0719L44.6433 38.5987L42.126 36.0222L41.1231 35.9128L37.2819 38.4794L33.8018 35.4949H32.6886L29.8303 38.4097C29.8303 38.3202 29.8303 38.2406 29.8303 38.171C29.8303 37.9422 29.8303 37.3751 29.8303 36.629C29.7801 34.7488 29.6999 31.7843 29.6698 30.879L29.8704 31.2272C29.9758 31.4128 30.1511 31.5495 30.3578 31.6073C30.5646 31.6651 30.786 31.6393 30.9736 31.5356C31.1588 31.4292 31.2948 31.2553 31.3529 31.051C31.411 30.8467 31.3864 30.628 31.2845 30.4413C31.2845 30.4413 30.3919 28.8794 29.4492 27.2877C28.9778 26.4919 28.4964 25.6861 28.0952 25.0693C27.8947 24.751 27.7242 24.4824 27.5737 24.2734L27.3531 23.9949L27.2327 23.8556C27.1587 23.791 27.078 23.7343 26.992 23.6865C26.7797 23.5852 26.5455 23.5374 26.3101 23.5473C26.1185 23.5485 25.9273 23.5652 25.7384 23.597C25.7384 23.5174 25.7384 23.4279 25.7384 23.3284C25.7986 22.5624 25.9089 21.1995 26.0393 19.6874C30.63 22.1246 35.7367 23.4506 40.9425 23.5572L40.7018 24.164C40.7018 24.164 40.6116 24.5321 40.9325 24.5321C41.2535 24.5321 41.1331 24.4227 41.103 24.353C41.137 24.4095 41.1857 24.4559 41.2439 24.4874C41.3021 24.5188 41.3677 24.5343 41.434 24.5321L41.5242 24.3033C41.5242 24.3033 41.6646 24.6614 41.9856 24.5719L41.7749 23.5771C43.2043 23.5648 44.6313 23.4618 46.0474 23.2687C46.0247 23.2985 46.0094 23.3332 46.0028 23.37C45.9961 23.4067 45.9982 23.4445 46.009 23.4803C46.0197 23.5161 46.0387 23.5489 46.0646 23.5761C46.0904 23.6033 46.1223 23.6241 46.1577 23.6368C46.3683 23.7164 46.3884 23.6368 46.3783 23.5273C46.3915 23.5913 46.4203 23.6511 46.4623 23.7014C46.5043 23.7517 46.5581 23.791 46.619 23.8158L46.7995 23.6368C46.7995 23.6368 46.7996 24.0248 47.1205 24.0645L47.311 23.0697C49.518 22.6885 51.6862 22.1126 53.7898 21.3487L54.4718 42.3094C54.4813 42.4107 54.5195 42.5073 54.5822 42.5879H54.2412ZM51.9946 40.5983L30.422 40.2999C30.3498 40.2799 30.2735 40.2799 30.2013 40.2999L33.2903 37.1463L36.6601 40.0611L37.663 40.1208L41.454 37.584L43.9212 40.1109L44.9241 40.2601L49.6177 37.7532L52.0548 40.5585L51.9946 40.5983ZM28.687 29.8245H28.4864C28.4162 29.6952 28.3359 29.5161 28.2457 29.3172L26.9018 26.6809L26.4204 25.6065L27.0322 26.6013C27.6038 27.5464 28.8374 29.6554 28.8374 29.6554L28.687 29.8245ZM19.049 39.1359C19.0693 39.0308 19.0693 38.9228 19.049 38.8176C18.9542 37.9952 18.904 37.1683 18.8985 36.3405C18.8985 35.4352 18.8283 33.7938 18.7581 32.3613C18.7581 32.1424 18.7581 31.9434 18.7581 31.7345C19.2479 31.6221 19.75 31.572 20.2525 31.5853H20.9044C21.8471 31.6351 22.5993 31.6351 23.2813 31.6351C23.9632 31.6351 24.575 31.6351 25.2871 31.6848H25.8487C26.5355 31.6972 27.2224 31.6639 27.9047 31.5853H28.025V31.7345C28.025 32.7294 28.0952 34.1619 28.1354 35.4651C28.1354 36.1117 28.1354 36.7185 28.1354 37.206C28.1354 37.6935 28.1354 38.0516 28.1354 38.2008C28.1354 38.35 28.1354 38.748 28.1354 39.1061L19.049 39.1359ZM18.6578 29.7549V28.4417C18.6578 27.815 18.6578 26.661 18.5977 25.5766H18.9386L19.1192 30.0931L18.6779 30.1528C18.6779 29.9737 18.6779 29.8444 18.6779 29.7947L18.6578 29.7549ZM21.135 30.0533H21.0147H20.2725H19.8814L19.6908 25.5369H20.2525H20.5233L21.0046 29.924C21.014 29.9804 21.0345 30.0345 21.0648 30.0831L21.135 30.0533ZM18.4773 23.4478C18.6563 23.4715 18.8383 23.4403 18.9988 23.3582C19.0923 23.3073 19.1748 23.2386 19.2416 23.156C19.3083 23.0734 19.358 22.9786 19.3878 22.877C19.4176 22.7754 19.4269 22.669 19.4153 22.5638C19.4036 22.4586 19.3711 22.3567 19.3198 22.2639V22.2043C19.2395 22.065 19.049 21.7068 18.8584 21.3288L18.6077 20.7916C18.5375 20.6225 18.4873 20.4832 18.4773 20.4434C18.4362 20.292 18.379 20.1452 18.3068 20.0057L19.049 14.8128C20.8467 16.5125 22.8513 17.9829 25.0163 19.19L25.2771 19.3292C25.1968 20.324 25.1266 21.2393 25.0564 22.0053C25.0564 22.5723 24.9762 23.0498 24.9461 23.398C24.9461 23.5671 24.9461 23.6965 24.9461 23.796C24.6708 23.8416 24.3927 23.8682 24.1137 23.8755C23.1108 23.8755 22.3185 24.0048 21.5863 23.9949C21.4093 24.005 21.2318 24.005 21.0548 23.9949C20.8141 23.9949 20.5734 23.9949 20.3227 23.9949C19.7361 24.0003 19.1502 24.0368 18.5676 24.1043C18.5676 23.8656 18.5676 23.6666 18.5676 23.5174L18.4773 23.4478ZM23.0907 25.9945C23.0907 25.8353 23.0907 25.696 23.0907 25.5866C23.3916 25.5866 23.6925 25.5369 23.9933 25.5369C24.0029 25.6341 24.0196 25.7305 24.0435 25.8254C24.1738 26.4521 24.4848 27.5762 24.7756 28.5611C24.9962 29.3171 25.1968 29.9737 25.2771 30.2423C24.8258 30.2423 24.3945 30.2423 23.9733 30.2423C23.9733 30.2423 23.9131 29.9837 23.8329 29.5857C23.7025 28.9789 23.5019 28.0537 23.3414 27.2181C23.2712 26.8003 23.191 26.3924 23.1409 26.0741L23.0907 25.9945ZM21.4861 25.7259H21.6565H22.2783C22.2741 25.7788 22.2741 25.8321 22.2783 25.885C22.3686 26.5615 22.5892 27.6857 22.7898 28.6606C22.9302 29.3868 23.0707 30.0235 23.1308 30.2921H21.8571C21.8881 30.2533 21.9104 30.2084 21.9225 30.1603C21.9346 30.1123 21.9363 30.0622 21.9273 30.0135L21.4861 25.7259ZM25.5779 25.4672C25.7484 25.8851 26.3401 27.1883 26.9018 28.392C27.2327 29.0983 27.5336 29.7747 27.7342 30.2025C27.1985 30.2727 26.6596 30.3159 26.1195 30.3319C26.1245 30.2889 26.1245 30.2455 26.1195 30.2025C26.1195 30.2025 26.0393 29.9339 25.9089 29.5261C25.7284 28.8993 25.4476 27.9642 25.2169 27.1286C25.1066 26.7107 24.9962 26.3128 24.926 26.0044C24.8897 25.8772 24.8629 25.7476 24.8458 25.6164C24.8411 25.6002 24.8411 25.583 24.8458 25.5667L25.618 25.4573L25.5779 25.4672ZM99.9238 44.2493L98.8106 39.4742L97.928 38.9867L95.0497 39.9219L93.094 38.1511H92.2215L90.4964 39.4443L88.7714 38.2307H87.9691L86.3644 39.4344L84.5191 38.1312L83.6265 38.2207L81.751 40.1606L81.5605 40.648C81.5605 40.648 81.5605 41.6429 81.6207 42.7968L80.0662 42.9361C80.016 42.6277 79.9458 42.2298 79.8656 41.7523C79.4343 39.0464 78.6721 33.8734 78.0002 29.3868C77.6692 27.1385 77.3583 25.0594 77.1276 23.5373C77.0474 23.0498 76.9872 22.6221 76.927 22.254L77.1677 22.2043H77.3282C78.4732 21.9857 79.605 21.7034 80.718 21.3587L82.2926 20.9707L82.4431 31.0183L83.1752 31.8141L86.6753 32.1424L87.5579 31.3366V25.2683L89.7643 25.8353L89.6139 31.4858L90.4162 32.3115H95.4307L96.1027 37.5542C96.1185 37.658 96.1551 37.7577 96.2103 37.8472C96.2656 37.9368 96.3383 38.0145 96.4243 38.0757C96.5103 38.1369 96.6078 38.1804 96.7111 38.2036C96.8143 38.2268 96.9212 38.2292 97.0254 38.2108C97.1304 38.195 97.2312 38.1588 97.3219 38.1041C97.4127 38.0495 97.4916 37.9775 97.5541 37.8924C97.6166 37.8072 97.6614 37.7107 97.686 37.6082C97.7106 37.5058 97.7145 37.3995 97.6973 37.2955L96.6944 31.1675L95.8921 30.491H91.0882L91.2185 25.8055L92.1011 26.0044L91.2587 19.379L86.9261 22.8111V11.8681H91.9406L89.2227 10.3262L91.9406 8.78421H86.9261V8.54547C86.9235 8.47333 86.8927 8.40501 86.8403 8.3549C86.788 8.3048 86.718 8.27683 86.6453 8.27688C86.5734 8.27688 86.5046 8.30517 86.4538 8.35554C86.403 8.40591 86.3745 8.47423 86.3745 8.54547V23.1891L84.8601 24.5122L85.7827 24.7609V30.2622L83.8873 30.0831L83.7468 20.3937L84.4188 20.2246L83.4159 17.081L79.0833 15.5888L73.7478 19.7271L75.0416 21.6074C75.0416 21.8959 75.1619 22.3336 75.2522 22.8807C75.6533 25.4374 76.3855 30.4413 77.0474 34.908C77.3783 37.1364 77.6993 39.2354 77.95 40.8271C78.0704 41.623 78.1807 42.2895 78.2709 42.8168C78.2709 42.8168 78.2709 42.8864 78.2709 42.9262L75.533 43.155L74.1991 25.6164L73.8481 25.0196L71.3509 23.3184L72.1933 18.026L72.0128 17.3894L70.0771 15.0515C70.0771 15.0515 70.6588 9.89841 70.6588 9.1324C70.6588 8.3664 69.7963 8.24704 69.7963 8.24704L62.7759 8.70464C62.5693 8.74494 62.3826 8.85336 62.246 9.0123C62.1094 9.17125 62.0311 9.37137 62.0237 9.58008C62.0237 10.3063 62.5954 15.738 62.5954 15.738L60.1383 17.9067L59.8675 18.4239L59.2958 23.975L56.5178 25.6164L56.1267 26.3128L56.267 42.5681H55.3443C55.405 42.4879 55.4369 42.3898 55.4346 42.2895L54.5119 13.9174V13.8578C54.403 13.2031 54.1933 12.569 53.8901 11.9776C53.6154 11.4138 53.2571 10.894 52.8271 10.4356C52.3086 9.89284 51.6748 9.47145 50.9717 9.20205H50.9215C50.2861 8.62664 49.488 8.25856 48.6349 8.14755C48.2112 8.09295 47.7814 8.1835 47.4166 8.40421C47.0518 8.62491 46.774 8.96254 46.6291 9.36122C46.6525 9.86703 46.8764 10.3432 47.2521 10.686C47.6278 11.0288 48.1248 11.2106 48.6349 11.1917C49.0585 11.2342 49.4859 11.1646 49.8735 10.9898C50.2612 10.815 50.5951 10.5414 50.8413 10.1969C51.311 10.4165 51.736 10.72 52.0949 11.0922C52.6123 11.6418 53.0085 12.2923 53.2583 13.0022C53.3586 13.2907 53.4288 13.5394 53.4689 13.7085V13.9075L53.6895 20.7618C51.7098 21.496 49.6696 22.0585 47.5919 22.443C47.8277 22.1441 48.0108 21.8077 48.1334 21.4482C48.2016 21.4426 48.2673 21.4207 48.3249 21.3843C48.3826 21.3479 48.4304 21.2981 48.4644 21.2393H48.9658L48.5246 21.0105C48.5177 20.8809 48.4723 20.7563 48.3942 20.6523C48.3218 20.5828 48.2276 20.54 48.1272 20.5309C48.0269 20.5219 47.9264 20.5472 47.8426 20.6026C47.7757 20.5705 47.7049 20.5471 47.632 20.533H47.5116C46.5087 20.4235 46.6291 22.5226 46.6291 22.5226L46.5187 22.632C44.9557 22.8749 43.377 23.0046 41.795 23.02C41.9756 22.3734 42.2163 21.1299 41.3638 21.0901C41.2623 21.0703 41.1575 21.0737 41.0576 21.1001C40.9576 21.1264 40.865 21.175 40.7867 21.2421C40.7084 21.3092 40.6466 21.393 40.6058 21.4873C40.565 21.5817 40.5464 21.6839 40.5514 21.7864L39.9396 22.2142H40.5915C40.6465 22.4755 40.7237 22.7318 40.8222 22.9802C38.7546 22.9436 36.6956 22.707 34.6743 22.2739C35.0241 22.2292 35.3634 22.1248 35.6773 21.9655C35.9882 21.8759 36.279 21.6969 36.2489 21.3587L35.8477 21.5079C35.8477 21.5079 36.3592 21.1398 36.0182 21.0503C35.6773 20.9607 35.587 21.3487 35.587 21.3487C35.587 21.3487 35.7073 20.8712 35.4265 20.9508C35.1457 21.0304 35.1457 21.1895 35.0053 21.3288C34.832 20.8102 34.6208 20.3048 34.3735 19.8167C34.3324 19.7254 34.2656 19.6478 34.1811 19.5933C34.0965 19.5389 33.9979 19.5099 33.8971 19.5099C33.7963 19.5099 33.6976 19.5389 33.6131 19.5933C33.5285 19.6478 33.4617 19.7254 33.4207 19.8167C33.4207 19.8167 33.16 20.0853 33.0797 20.1848C33.2201 20.1848 33.5411 20.0853 33.6413 20.2942C33.852 20.7021 33.1399 21.0602 33.7115 21.8759C33.7693 21.963 33.8444 22.0375 33.9322 22.0948C31.1648 21.4471 28.4946 20.4439 25.9891 19.1104C26.0493 18.3643 26.1095 17.5784 26.1797 16.8323L27.4333 16.7029C27.4861 16.698 27.5374 16.6827 27.5841 16.6579C27.6309 16.6332 27.6723 16.5995 27.7059 16.5588C27.7395 16.5181 27.7646 16.4712 27.7797 16.4208C27.7949 16.3704 27.7999 16.3175 27.7944 16.2652C27.7818 16.1586 27.7273 16.0613 27.6428 15.9942C27.5584 15.9272 27.4507 15.8959 27.3431 15.9071L26.2398 16.0165V15.8076L27.3029 15.6982C27.3557 15.6932 27.407 15.6779 27.4538 15.6531C27.5006 15.6284 27.5419 15.5947 27.5755 15.554C27.6091 15.5133 27.6342 15.4664 27.6494 15.416C27.6646 15.3656 27.6695 15.3128 27.664 15.2605C27.6603 15.2076 27.6458 15.156 27.6213 15.1089C27.5968 15.0618 27.5628 15.0203 27.5214 14.9867C27.4801 14.9531 27.4323 14.9284 27.3809 14.9138C27.3295 14.8993 27.2757 14.8954 27.2227 14.9023L26.3101 14.9919C26.3101 14.8028 26.3101 14.6238 26.3101 14.4547L29.1282 13.8876C29.2256 13.8579 29.3085 13.7934 29.3606 13.7066C29.4128 13.6198 29.4306 13.5168 29.4107 13.4177C29.3907 13.3186 29.3343 13.2304 29.2525 13.1702C29.1707 13.11 29.0692 13.082 28.9678 13.0918L26.3803 13.619C26.3803 13.5494 26.3803 13.4897 26.3803 13.43C26.4505 12.5645 26.4906 12.0174 26.4906 12.0174C26.4952 11.9651 26.4894 11.9125 26.4735 11.8624C26.4576 11.8124 26.4319 11.766 26.3979 11.7258C26.3639 11.6856 26.3223 11.6525 26.2754 11.6282C26.2285 11.604 26.1772 11.5892 26.1245 11.5846C26.0718 11.58 26.0188 11.5858 25.9683 11.6016C25.9179 11.6174 25.8711 11.6428 25.8306 11.6765C25.7901 11.7103 25.7566 11.7516 25.7322 11.7981C25.7078 11.8446 25.6929 11.8955 25.6882 11.9477L25.5378 13.7881L23.9833 14.0965C23.8772 14.1181 23.7839 14.1804 23.7238 14.2698C23.6637 14.3592 23.6417 14.4685 23.6624 14.574C23.6731 14.6259 23.6941 14.6751 23.7242 14.7188C23.7543 14.7625 23.7929 14.7998 23.8377 14.8286C23.8826 14.8573 23.9327 14.8768 23.9853 14.8861C24.0378 14.8953 24.0917 14.8941 24.1438 14.8824L25.4676 14.6138C25.4676 14.7631 25.4676 14.9222 25.4676 15.0714L24.2641 15.2008C24.1577 15.2113 24.0599 15.2634 23.9922 15.3455C23.9245 15.4275 23.8924 15.5329 23.9031 15.6385C23.9137 15.744 23.9662 15.841 24.0489 15.9082C24.1317 15.9754 24.2379 16.0072 24.3443 15.9966L25.3974 15.8872C25.3974 15.9568 25.3974 16.0265 25.3974 16.0961L24.3945 16.2055C24.3417 16.2105 24.2904 16.2258 24.2437 16.2506C24.1969 16.2753 24.1555 16.309 24.1219 16.3497C24.0884 16.3904 24.0632 16.4373 24.0481 16.4877C24.0329 16.5381 24.0279 16.591 24.0334 16.6433C24.046 16.7498 24.1005 16.8472 24.185 16.9142C24.2694 16.9812 24.3772 17.0126 24.4848 17.0014L25.3473 16.9118C25.3473 17.2103 25.3473 17.5087 25.2771 17.8072C25.2069 18.1056 25.2269 18.3941 25.1968 18.6926C25.1804 18.6884 25.1631 18.6884 25.1467 18.6926C23.5979 17.8211 22.1251 16.8228 20.7439 15.7081C20.2424 15.2903 19.8613 14.9521 19.6006 14.7133L19.3097 14.4348L19.2395 14.3651C19.2127 14.3343 19.1783 14.3108 19.1397 14.2968C19.101 14.2829 19.0595 14.279 19.0189 14.2855C19.0829 13.8538 19.1197 13.4186 19.1292 12.9823C19.1445 12.8202 19.1445 12.657 19.1292 12.4949C19.1101 12.4097 19.0833 12.3265 19.049 12.2462C19.0047 12.1309 18.9237 12.0331 18.8183 11.9676L18.4372 11.6891L17.5847 11.0425L17.1234 10.6843L16.4013 10.8634C16.0424 11.7054 15.7604 12.5777 15.5588 13.4698L15.3282 14.7929C15.0072 14.2258 14.6462 13.6389 14.3253 13.0022C14.0587 12.5196 13.8468 12.0091 13.6934 11.4802C13.6232 11.2713 13.563 11.0624 13.4628 10.8236C13.3522 10.5697 13.2178 10.3265 13.0616 10.0974C12.8644 9.81944 12.6836 9.53047 12.52 9.23189C12.2191 8.69469 11.8982 8.06796 11.6475 7.5805L11.3566 6.97368L11.2363 6.74486C11.2363 6.74486 10.4139 5.79979 9.78205 6.74486C9.15022 7.68993 9.01985 8.19729 8.3479 9.20205C7.5414 10.3817 6.86871 11.6462 6.34207 12.9724C6.08313 13.5401 5.74557 14.0691 5.33916 14.5442C4.78412 15.194 4.28113 15.8858 3.83479 16.6134C3.3534 17.4292 3.1127 17.8669 2.83188 18.2548C2.52874 18.7754 2.19381 19.277 1.82897 19.757C1.44609 20.2664 1.11042 20.8092 0.826057 21.3785C0.698464 21.6005 0.626244 21.8495 0.615439 22.1048C0.59815 22.3158 0.666101 22.5251 0.804342 22.6864C0.942582 22.8478 1.13979 22.9481 1.35258 22.9653C1.56537 22.9824 1.77632 22.915 1.93901 22.7779C2.10171 22.6408 2.20282 22.4452 2.2201 22.2341C2.45051 21.6793 2.76505 21.1626 3.15282 20.7021C3.70442 19.956 3.98523 19.5282 4.25601 19.0905C4.5268 18.6528 4.75747 18.2151 5.25893 17.4192C5.66735 16.7607 6.12319 16.1323 6.62289 15.539C7.13757 14.9409 7.56004 14.2704 7.87653 13.5494C8.34617 12.3272 8.95522 11.1623 9.6918 10.0775C9.97261 9.64972 10.2334 9.22195 10.464 8.83397C10.6646 9.212 10.8853 9.62981 11.0959 10.0078C11.2895 10.3498 11.5003 10.6818 11.7277 11.0027C11.8175 11.131 11.8948 11.2676 11.9584 11.4105C12.0386 11.6194 12.1188 11.888 12.2492 12.276C12.4118 12.7841 12.6269 13.2742 12.8911 13.7384C13.3023 14.4944 13.7135 15.1709 14.0645 15.7777C14.3743 16.2897 14.6426 16.8253 14.8668 17.3794C15.0117 17.7429 15.1896 18.0925 15.3984 18.4239C15.7093 18.9611 16.0803 19.5083 16.4013 19.9659C16.5517 20.1947 16.6721 20.3937 16.7623 20.5529C16.7994 20.6139 16.8329 20.677 16.8626 20.7419V20.7916C16.9266 21.016 17.0071 21.2354 17.1033 21.4482C17.2237 21.7168 17.3641 22.0053 17.4945 22.254L16.7824 22.1545C16.2007 22.0948 15.4686 22.0152 14.7766 22.0152H13.8539C10.8452 22.1446 2.16996 22.6619 2.16996 22.6619C2.05649 22.6687 1.94574 22.6991 1.84487 22.7511C1.744 22.8031 1.65524 22.8755 1.58435 22.9636C1.51345 23.0517 1.462 23.1537 1.4333 23.2628C1.40461 23.3719 1.39932 23.4857 1.41777 23.597C1.42035 23.6301 1.42035 23.6634 1.41777 23.6965C1.498 24.174 1.81895 26.273 1.92927 28.3323C2.06967 30.7497 2.20004 32.3712 2.34045 33.4755C2.40062 33.9828 2.51095 35.0572 2.64133 36.4599C2.7717 37.8626 2.95224 39.514 3.15282 41.2649C3.3534 43.0157 3.5239 44.0503 3.68436 44.886C3.84483 45.7216 3.96517 46.3284 4.09555 47.3033C4.22592 48.2783 4.29614 49.1637 4.32623 49.8003C4.32623 50.1187 4.32623 50.3773 4.32623 50.5464V50.815C4.32623 51.0287 4.41181 51.2337 4.56416 51.3848C4.71651 51.536 4.92313 51.6209 5.13858 51.6209C5.35403 51.6209 5.56066 51.536 5.713 51.3848C5.86535 51.2337 5.95094 51.0287 5.95094 50.815C5.93347 49.5703 5.83969 48.3278 5.67013 47.0944C5.52972 46.0996 5.38931 45.4033 5.2489 44.5875C5.1085 43.7718 4.92797 42.8068 4.72739 41.0758C4.5268 39.3449 4.36634 37.6736 4.22593 36.3007C4.08552 34.9279 3.98523 33.8634 3.91503 33.3163C3.78465 32.2717 3.65426 30.68 3.51385 28.2825C3.43362 26.7207 3.23305 25.1787 3.10267 24.2536H4.00529L10.2635 23.8954L13.1518 23.7462H14.1548C14.4255 23.7462 14.6261 23.7462 14.7164 23.7462C15.3102 23.7543 15.9029 23.7975 16.4915 23.8755H16.7623C16.7623 25.0693 16.8727 27.5663 16.8727 28.5412V29.924C16.8727 29.924 16.8727 30.2224 16.9228 30.6999C16.9228 31.4162 17.0131 32.5403 17.0632 33.6346C17.1134 34.7289 17.1434 35.8133 17.1434 36.44C17.1501 37.321 17.2037 38.2009 17.3039 39.0763C17.3119 39.1552 17.3322 39.2324 17.3641 39.3051L17.2337 39.3648L8.71897 44.5179C8.59024 44.6029 8.48693 44.7208 8.41988 44.8591C8.35284 44.9973 8.32452 45.1509 8.33787 45.3038L8.84935 49.7208C8.8935 49.9142 9.008 50.0846 9.17094 50.1995C9.33387 50.3144 9.53381 50.3657 9.73247 50.3435C9.93114 50.3214 10.1146 50.2273 10.2477 50.0794C10.3808 49.9314 10.4543 49.74 10.454 49.5417L10.0127 45.6321L10.454 45.3535L28.3159 43.4236C28.3159 43.7519 28.366 44.0603 28.3861 44.3388C28.4463 44.886 28.4864 45.3336 28.4864 45.6122C28.4864 45.8259 28.572 46.0308 28.7243 46.182C28.8767 46.3331 29.0833 46.418 29.2987 46.418C29.5142 46.418 29.7208 46.3331 29.8732 46.182C30.0255 46.0308 30.1111 45.8259 30.1111 45.6122C30.1111 45.1844 30.0509 44.7268 30.0008 44.1896C29.9506 43.6524 29.9105 43.0654 29.9105 42.3989C29.9105 42.0209 29.9105 41.5931 29.9105 41.1753C29.9599 41.2684 30.0333 41.3468 30.1231 41.4027C30.2129 41.4586 30.316 41.49 30.422 41.4936L51.9946 41.7921C52.1375 41.7932 52.2762 41.7438 52.3858 41.6528L52.8371 43.5828L53.6495 44.1995L56.8387 44.1C56.9257 44.1309 57.0171 44.1477 57.1095 44.1498C57.3249 44.1498 57.5316 44.0649 57.6839 43.9138C57.8363 43.7627 57.9218 43.5577 57.9218 43.344L57.7714 26.7107L60.4492 25.119L60.8403 24.5122L61.422 18.8716L63.9494 16.6433L64.2201 15.9668L63.6786 10.2267L68.974 9.88847L68.4524 15.2008L68.6329 15.7877L70.5485 18.1056L69.686 23.5473L70.027 24.3331L72.6346 26.094L73.9885 44.0006C74.0113 44.2108 74.1145 44.4042 74.2768 44.5412C74.4392 44.6782 74.6482 44.7481 74.861 44.7367C75.6634 44.7367 81.4903 44.1796 81.4903 44.1796C81.4903 44.1796 81.4903 44.4781 81.4903 44.6174C81.4903 45.1247 81.4903 45.5127 81.4903 45.6122C81.4903 45.7916 81.5621 45.9637 81.69 46.0905C81.8179 46.2174 81.9914 46.2886 82.1722 46.2886C82.3531 46.2886 82.5266 46.2174 82.6545 46.0905C82.7824 45.9637 82.8543 45.7916 82.8543 45.6122C82.8543 45.4829 82.8543 45.1048 82.8543 44.6174C82.8543 44.1299 82.8543 43.7817 82.8543 43.3142C82.8543 42.3194 82.7941 41.2151 82.784 40.7177L84.0577 39.4045L85.7426 40.5983L85.6323 45.5724C85.631 45.6338 85.6419 45.6948 85.6643 45.7521C85.6868 45.8093 85.7204 45.8616 85.7632 45.9059C85.8061 45.9503 85.8573 45.9858 85.914 46.0105C85.9707 46.0352 86.0317 46.0486 86.0936 46.0499C86.1551 46.0512 86.2161 46.0404 86.2733 46.018C86.3304 45.9956 86.3825 45.962 86.4264 45.9194C86.4703 45.8768 86.5051 45.8259 86.529 45.7697C86.5528 45.7135 86.565 45.6532 86.565 45.5923L86.6854 40.6182L88.2399 39.4443L89.9549 40.658H90.0852L89.9749 45.5425C89.9651 45.609 89.9698 45.6767 89.9887 45.7412C90.0076 45.8057 90.0403 45.8653 90.0845 45.9162C90.1288 45.967 90.1836 46.0078 90.2451 46.0357C90.3067 46.0637 90.3736 46.0781 90.4413 46.0781C90.509 46.0781 90.5759 46.0637 90.6374 46.0357C90.699 46.0078 90.7538 45.967 90.798 45.9162C90.8423 45.8653 90.8749 45.8057 90.8939 45.7412C90.9128 45.6767 90.9175 45.609 90.9076 45.5425L91.028 40.4391L92.4421 39.3747L94.0969 40.8669L93.9765 46.1792C93.9752 46.2406 93.9861 46.3017 94.0086 46.3589C94.031 46.4162 94.0646 46.4684 94.1075 46.5128C94.1503 46.5571 94.2016 46.5926 94.2582 46.6173C94.3149 46.642 94.376 46.6554 94.4379 46.6567C94.4988 46.6594 94.5596 46.6498 94.6167 46.6285C94.6738 46.6073 94.726 46.5747 94.7701 46.5329C94.8141 46.491 94.8491 46.4408 94.8731 46.3851C94.897 46.3294 94.9093 46.2696 94.9092 46.2091L95.0296 41.1455L97.4867 40.3397L98.4896 44.3985C98.5097 44.4843 98.5467 44.5653 98.5984 44.6368C98.6502 44.7083 98.7157 44.7689 98.7913 44.8152C98.8668 44.8614 98.9509 44.8924 99.0385 44.9062C99.1262 44.9201 99.2157 44.9166 99.302 44.8959C99.3896 44.877 99.4726 44.8412 99.5463 44.7905C99.6199 44.7398 99.6828 44.6751 99.7312 44.6003C99.7797 44.5254 99.8128 44.4418 99.8286 44.3543C99.8444 44.2668 99.8427 44.177 99.8235 44.0901"
              fill="white"
            />
          </svg>