<svg width="64" height="64" viewBox="0 0 64 64" fill="none" xmlns="http://www.w3.org/2000/svg">
<path d="M64 32C64 49.6731 49.6731 64 32 64C14.3269 64 0 49.6731 0 32C0 14.3269 14.3269 0 32 0C49.6731 0 64 14.3269 64 32Z" fill="white"/>
<path d="M39.5214 18.5681C39.0485 18.776 38.6322 19.0756 38.3025 19.4456C38.258 19.4997 38.2345 19.5655 38.2357 19.6328C38.2368 19.7001 38.2625 19.7653 38.3087 19.8181C38.355 19.871 38.4192 19.9086 38.4915 19.9252C38.5639 19.9418 38.6402 19.9364 38.7088 19.9098C39.1556 19.6702 39.6416 19.4963 40.1489 19.3945C40.0666 19.2227 39.9895 19.051 39.9123 18.8745C39.3466 19.3945 38.6625 19.6823 38.3694 20.3973C38.2562 20.6665 38.6214 20.8615 38.8837 20.7362C39.3466 20.5319 39.7786 20.2719 40.2569 20.0769L39.9329 19.5709C39.254 20.1234 38.4619 20.5365 37.783 21.089C37.7372 21.1433 37.7127 21.21 37.7136 21.2783C37.7145 21.3467 37.7407 21.4128 37.788 21.4661C37.8353 21.5195 37.901 21.557 37.9746 21.5728C38.0483 21.5886 38.1257 21.5817 38.1945 21.5532C38.9614 21.0493 39.8144 20.662 40.7198 20.4066L40.3392 19.9423C39.9946 20.4483 39.2849 20.6665 38.7705 21.0101C38.1312 21.455 37.5435 21.9574 37.0167 22.5096C36.9686 22.5586 36.9388 22.62 36.9317 22.6851C36.9245 22.7503 36.9402 22.8158 36.9767 22.8724C37.0132 22.929 37.0685 22.9737 37.1348 23.0003C37.2011 23.0268 37.2749 23.0338 37.3459 23.0203C38.6265 22.8438 39.7272 22.05 40.7146 21.349C40.9821 21.1586 40.7146 20.7501 40.3855 20.8429C39.5698 21.1305 38.8265 21.5631 38.1996 22.115C37.4487 22.6907 36.6567 23.0992 36.0447 23.8188C35.8441 24.0555 36.2401 24.413 36.5076 24.2319C37.9065 23.3035 39.722 23.0992 41.0952 22.1103C41.409 21.8875 41.013 21.4836 40.6889 21.6461C39.0483 22.4121 36.6258 23.1085 36.0138 24.8726C35.9985 24.9242 35.9985 24.9785 36.0137 25.0302C36.0288 25.0818 36.0587 25.1289 36.1003 25.167C36.1418 25.205 36.1937 25.2325 36.2507 25.2468C36.3077 25.2612 36.3679 25.2618 36.4253 25.2486C37.2745 24.9815 38.074 24.5996 38.7962 24.1159C39.614 23.6284 40.5501 23.322 41.337 22.7928C41.6764 22.5653 41.3781 22.0686 40.9975 22.2728C39.7538 22.8897 38.5761 23.6092 37.4796 24.4223C36.451 25.2161 35.2012 25.815 34.26 26.6785C34.2113 26.7266 34.1807 26.7874 34.1729 26.8522C34.1651 26.917 34.1803 26.9823 34.2165 27.0388C34.2526 27.0952 34.3077 27.1398 34.3738 27.166C34.4399 27.1922 34.5135 27.1987 34.584 27.1845C35.5715 27.0546 36.4973 26.4789 37.3922 26.1075C38.5082 25.6432 39.3209 24.789 40.4163 24.3155L39.9535 23.9023C38.6625 25.7918 34.9903 25.7593 34.3269 28.127C34.2806 28.2987 34.4246 28.5355 34.6509 28.5123C34.9226 28.5037 35.1826 28.4102 35.3863 28.2477C36.0543 27.7616 36.7686 27.3297 37.5208 26.9571C38.8425 26.2561 40.0923 25.3694 41.5633 24.9005L41.1467 24.5291C40.9975 25.4575 39.0894 25.8893 38.3128 26.3535C37.1299 27.0731 35.8235 27.7834 35.1292 28.9533C35.0916 29.0109 35.0762 29.0782 35.0856 29.1446C35.0949 29.2109 35.1284 29.2726 35.1808 29.3199C35.2332 29.3672 35.3016 29.3974 35.3751 29.4059C35.4486 29.4143 35.5231 29.4005 35.5869 29.3665C37.7711 28.1009 40.1095 27.0666 42.5559 26.2839L42.2319 25.7779C40.7867 26.7899 39.0688 27.4631 37.5362 28.3637C36.4253 29.0183 35.2218 29.6636 34.7075 30.8242C34.6929 30.876 34.6936 30.9303 34.7095 30.9818C34.7253 31.0332 34.7558 31.0801 34.7979 31.1176C34.8401 31.1551 34.8923 31.1821 34.9495 31.1958C35.0067 31.2095 35.0669 31.2094 35.1241 31.1956C36.343 30.8474 37.5465 29.9839 38.6265 29.3619C39.9123 28.6237 41.1981 27.867 42.4839 27.152L42.0776 26.6878C40.8048 27.7159 39.4272 28.633 37.9631 29.4269C36.9344 30.0211 35.9727 30.671 35.5561 31.7481C35.5415 31.7999 35.5422 31.8542 35.5581 31.9056C35.574 31.9571 35.6045 32.0039 35.6466 32.0415C35.6887 32.079 35.7409 32.1059 35.7981 32.1196C35.8553 32.1333 35.9155 32.1333 35.9727 32.1195C37.0682 31.8595 38.0711 30.8707 38.9763 30.2625C40.3406 29.3881 41.8303 28.6853 43.4045 28.1734L43.0805 27.6627C41.6867 28.9069 39.7477 29.334 38.1791 30.3461C37.1505 31.0285 35.6384 31.8827 35.4018 33.1315C35.3658 33.3451 35.5509 33.5958 35.8184 33.5029C36.9442 33.1102 38.0036 32.5773 38.966 31.9199C40.2929 31.1214 41.7741 30.5271 43.0805 29.7379C42.9468 29.5801 42.813 29.4176 42.6742 29.2736C40.8895 30.6989 37.9373 31.7295 36.8727 33.7629C36.836 33.8212 36.8214 33.8889 36.8314 33.9554C36.8413 34.0219 36.8752 34.0836 36.9277 34.1311C36.9803 34.1785 37.0487 34.2091 37.1224 34.218C37.1961 34.227 37.271 34.2139 37.3356 34.1807C39.5266 33.294 41.1364 31.4417 43.5382 30.8892L43.2142 30.3832C41.9696 31.7759 39.8917 32.2402 38.9454 33.9022C38.907 33.9543 38.8873 34.0159 38.8888 34.0785C38.8904 34.1411 38.9131 34.2017 38.954 34.2523C38.9949 34.3029 39.052 34.3409 39.1176 34.3613C39.1832 34.3817 39.2541 34.3835 39.3209 34.3664C39.8294 34.27 40.3118 34.0838 40.7404 33.8186C41.5703 33.398 42.4292 33.0259 43.3119 32.7044C43.1988 32.5373 43.0908 32.3702 42.9828 32.1984C42.273 32.9737 41.2187 33.3915 40.6324 34.2689C40.6015 34.3152 40.5848 34.3681 40.5839 34.4221C40.583 34.4761 40.5979 34.5294 40.6271 34.5765C40.6564 34.6236 40.6989 34.663 40.7504 34.6905C40.8019 34.718 40.8605 34.7327 40.9204 34.7332C41.8564 34.7332 42.5302 34.2689 43.3839 33.9625C43.2502 33.8883 43.1113 33.8186 42.9725 33.749C43.0856 34.2504 42.0364 34.631 41.9438 35.1928C41.8924 35.5781 42.5662 35.5735 42.6176 35.1928C42.669 34.8121 43.3016 34.6403 43.4714 34.3618C43.5517 34.2478 43.6046 34.12 43.6267 33.9864C43.6489 33.8529 43.6397 33.7167 43.5999 33.5865C43.576 33.5096 43.5192 33.4444 43.4421 33.4053C43.3649 33.3661 43.2737 33.3562 43.1885 33.3776C42.4222 33.6329 41.7381 34.1018 40.8998 34.125L41.193 34.5893C41.7433 33.7676 42.7668 33.3729 43.4354 32.6441C43.6257 32.4398 43.4354 32.0034 43.1113 32.1334C42.4736 32.3748 41.8513 32.6487 41.229 32.9226C40.6066 33.1965 39.8609 33.6979 39.1254 33.7954L39.506 34.2597C40.4112 32.6766 42.4684 32.2077 43.6668 30.8614C43.7164 30.8131 43.7474 30.7517 43.7553 30.6862C43.7632 30.6207 43.7475 30.5547 43.7106 30.4979C43.6737 30.4411 43.6174 30.3966 43.5503 30.3709C43.4831 30.3453 43.4085 30.3398 43.3376 30.3553C40.8689 30.9217 39.2231 32.7973 36.9756 33.7072L37.4333 34.1204C37.9836 33.0712 39.1048 32.4723 40.0923 31.7991C41.0798 31.126 42.1804 30.5225 43.1319 29.7657C43.4148 29.5383 43.0393 29.0972 42.7256 29.3015C41.6147 29.97 40.4575 30.555 39.2797 31.1214C38.1019 31.6877 36.9704 32.6116 35.5972 33.0062L36.0087 33.3822C36.2401 32.1566 38.0659 31.1585 39.146 30.5643C40.6221 29.7565 42.2576 29.3015 43.5125 28.1873C43.744 27.983 43.5125 27.5699 43.1885 27.6813C41.811 28.1366 40.4905 28.7217 39.2488 29.4269C38.7345 29.7379 38.2202 30.0954 37.7059 30.4436C37.1916 30.7917 36.3327 31.4881 35.7618 31.6227L36.1733 31.9941C36.6259 30.8474 37.9579 30.2532 39.0174 29.6172C40.2651 28.9151 41.4391 28.1117 42.525 27.217C42.5695 27.163 42.593 27.0972 42.5919 27.0298C42.5908 26.9625 42.5651 26.8973 42.5188 26.8445C42.4726 26.7916 42.4083 26.754 42.336 26.7374C42.2637 26.7209 42.1873 26.7263 42.1187 26.7528C40.9307 27.4074 39.7683 28.0945 38.5957 28.763C38.0196 29.0879 37.4539 29.4176 36.8624 29.7193C36.2537 30.1161 35.6024 30.4567 34.9183 30.736L35.3298 31.1121C35.8441 29.905 37.495 29.2133 38.642 28.5448C39.974 27.7695 41.4244 27.2078 42.6793 26.3303C42.9519 26.1446 42.6793 25.7315 42.3553 25.8243C39.8502 26.62 37.4562 27.6763 35.2218 28.9719C35.3761 29.1065 35.5304 29.2458 35.6795 29.3851C36.4047 28.1734 37.9682 27.282 39.2797 26.6553C40.1026 26.2653 41.5941 25.7825 41.7484 24.7983C41.7844 24.5941 41.6044 24.3341 41.337 24.4269C40.2192 24.8305 39.1535 25.3426 38.1585 25.9543C37.603 26.2653 37.0322 26.5532 36.4716 26.8503C36.0447 27.0824 35.1189 27.8995 34.6303 27.9552L34.9543 28.3359C35.5458 26.2236 39.2848 26.0518 40.5141 24.2598C40.7044 23.9813 40.3443 23.7213 40.0563 23.842C39.1717 24.2227 38.5134 24.868 37.6802 25.3276C36.847 25.7872 35.4069 26.516 34.3886 26.6507L34.7126 27.1567C35.5406 26.4 36.703 25.8104 37.6288 25.1326C38.7881 24.2817 40.0213 23.5164 41.3164 22.8438L40.9769 22.3239C40.2878 22.7881 39.4803 23.0574 38.75 23.4613C37.9745 23.9785 37.125 24.3986 36.2247 24.7101L36.6413 25.0862C37.1556 23.5449 39.5677 22.8949 41.0078 22.2218L40.6015 21.7575C39.2797 22.686 37.5156 22.8624 36.1475 23.7816L36.6053 24.1994C37.1366 23.671 37.7377 23.2032 38.3951 22.8067C39.016 22.2554 39.745 21.8131 40.5449 21.5022C40.4369 21.3351 40.3289 21.1633 40.2158 20.9962C39.3209 21.6322 38.3025 22.3471 37.1299 22.5096C37.2379 22.6767 37.351 22.8439 37.459 23.0156C38.0542 22.3752 38.7468 21.8141 39.5163 21.349C40.0599 21.1092 40.5337 20.7578 40.8998 20.323C40.939 20.2705 40.9592 20.2083 40.9576 20.145C40.9561 20.0817 40.9328 20.0204 40.8911 19.9696C40.8494 19.9187 40.7913 19.8807 40.7247 19.8608C40.6581 19.841 40.5863 19.8403 40.5192 19.8587C39.557 20.1255 38.65 20.5333 37.8345 21.0658L38.2408 21.53C38.9145 20.9776 39.7117 20.5598 40.3855 20.0073C40.6221 19.8123 40.3855 19.3806 40.0615 19.5013C39.5214 19.7056 39.0328 19.9934 38.5185 20.2209L39.0328 20.5644C39.2694 19.9934 39.9535 19.7288 40.4009 19.3156C40.5861 19.1438 40.4729 18.7631 40.1643 18.7956C39.5393 18.9074 38.9384 19.1097 38.3848 19.3945L38.7911 19.8587C39.0853 19.5321 39.4536 19.2662 39.8712 19.0788C39.9482 19.0388 40.0045 18.9728 40.0277 18.8953C40.0508 18.8178 40.0389 18.7352 39.9946 18.6656C39.9503 18.5961 39.8771 18.5452 39.7913 18.5244C39.7055 18.5035 39.6139 18.5142 39.5369 18.5542" fill="black"/>
<path d="M7.96277 25.4111C7.99363 25.374 8.02964 25.3415 8.06564 25.3044C8.31765 25.0583 7.99363 24.6358 7.65933 24.8401C7.07035 25.153 6.59362 25.6123 6.28611 26.1632C6.15239 26.3814 6.3684 26.7017 6.66156 26.6275C7.79819 26.2607 8.67767 25.3508 9.88117 25.1744L9.55715 24.6683C8.58509 25.5968 7.10901 26.0611 6.51241 27.2867C6.47973 27.3451 6.46832 27.4114 6.47981 27.4761C6.4913 27.5407 6.52509 27.6005 6.57638 27.6468C6.62768 27.6931 6.69385 27.7236 6.76548 27.7339C6.8371 27.7443 6.91052 27.734 6.97529 27.7045C7.77275 27.3368 8.54094 26.9196 9.27427 26.4557C10.0469 26.0962 10.84 25.7739 11.6504 25.4901L11.239 25.0258C10.6218 25.6433 9.69601 26.0054 8.98626 26.53C8.21551 27.0495 7.58004 27.715 7.12444 28.4798C7.09339 28.5264 7.07665 28.5797 7.07595 28.6341C7.07525 28.6885 7.09062 28.7421 7.12047 28.7894C7.15032 28.8367 7.19358 28.8759 7.2458 28.9031C7.29802 28.9303 7.35732 28.9444 7.4176 28.944C8.30222 28.9162 9.01197 28.3312 9.66001 27.8438C10.8929 26.9276 12.258 26.167 13.7179 25.5829L13.3785 25.0583C11.9611 25.8611 10.6069 26.7515 9.32571 27.7231C8.53366 28.373 7.60275 29.3108 7.39703 30.2904C7.38247 30.3421 7.38316 30.3964 7.39904 30.4479C7.41491 30.4994 7.44541 30.5462 7.48751 30.5837C7.52962 30.6213 7.58187 30.6482 7.63907 30.6619C7.69627 30.6756 7.75645 30.6755 7.81362 30.6618C8.75996 30.4389 9.552 29.5151 10.2823 28.9626C11.5196 28.0882 12.8496 27.3262 14.2528 26.6878C14.6437 26.4975 14.3043 26.0007 13.9134 26.1632C12.3168 26.9138 10.876 27.908 9.65487 29.1019C8.67253 29.97 7.46903 31.0981 7.24787 32.3516C7.22741 32.4122 7.22822 32.4769 7.2502 32.5371C7.27218 32.5972 7.31425 32.6497 7.37063 32.6873C7.427 32.725 7.49492 32.746 7.56503 32.7474C7.63515 32.7488 7.70402 32.7305 7.76219 32.6951C8.67528 32.1225 9.52448 31.4711 10.2978 30.75C11.4647 29.886 12.7202 29.1243 14.0471 28.4752L13.6357 28.0109C11.4035 29.6033 9.17655 31.1724 7.91134 33.5354C7.87979 33.5976 7.87215 33.6674 7.88964 33.7339C7.90712 33.8004 7.94874 33.8597 8.00785 33.9024C8.06697 33.9451 8.1402 33.9687 8.21591 33.9695C8.29161 33.9703 8.36544 33.9483 8.42566 33.9068C10.2235 32.3774 12.1761 31.0035 14.258 29.8029C14.1243 29.6451 13.9905 29.4826 13.8517 29.3387C12.6269 30.2345 11.464 31.1973 10.3698 32.2216C9.56743 32.9737 8.60052 33.7443 8.31251 34.8028C8.25079 35.0396 8.54909 35.3089 8.82682 35.1417C10.5498 34.0554 12.1956 32.8762 13.8877 31.7527C13.7539 31.5949 13.6151 31.437 13.4814 31.2885C12.1956 32.347 10.7195 33.2894 9.66001 34.5382C9.34627 34.9142 8.48223 36.1399 9.1817 36.5298C9.54686 36.7341 9.88631 36.2095 9.516 36.0052C9.59315 36.0424 10.0303 35.0767 10.0303 35.1046C10.3737 34.6568 10.7761 34.2484 11.2287 33.8883C12.0927 33.1176 13.0648 32.4445 13.9597 31.7063C14.2374 31.4742 13.862 31.0239 13.5534 31.2421C11.8613 32.3655 10.2103 33.5633 8.49252 34.6311L9.00683 34.9746C9.27428 33.9579 10.2926 33.2151 11.0641 32.4955C12.0998 31.5294 13.2027 30.6238 14.366 29.7843C14.6643 29.5661 14.2734 29.1158 13.9545 29.3201C11.8259 30.5419 9.82855 31.9408 7.98849 33.4983L8.5028 33.8697C9.74744 31.5485 11.9384 30.0257 14.1243 28.4612C14.4277 28.2477 14.0368 27.8066 13.7179 27.997C12.5604 28.5879 11.4439 29.2421 10.3749 29.9561C9.34627 30.685 8.5388 31.5995 7.43303 32.217L7.94734 32.5605C8.17364 31.2746 9.45429 30.2068 10.4366 29.3108C11.5505 28.2461 12.8587 27.362 14.3043 26.6971C14.1963 26.5253 14.078 26.3489 13.9648 26.1725C12.8032 26.7324 11.6784 27.3525 10.5961 28.0295C10.2258 28.2616 9.87602 28.4937 9.53143 28.7769C9.01711 29.153 8.32279 29.919 7.68504 30.0722L8.10164 30.4482C8.29708 29.4919 9.23827 28.6516 10.0046 28.0202C11.1968 27.1302 12.4547 26.3144 13.7694 25.5783C13.8075 25.5581 13.8409 25.5314 13.8677 25.4997C13.8944 25.4679 13.9139 25.4317 13.9251 25.3931C13.9364 25.3545 13.9391 25.3143 13.9331 25.2748C13.9271 25.2353 13.9125 25.1972 13.8902 25.1628C13.868 25.1283 13.8384 25.0982 13.8032 25.0741C13.768 25.0499 13.7279 25.0323 13.6851 25.0222C13.6424 25.012 13.5978 25.0096 13.554 25.015C13.5103 25.0204 13.4681 25.0335 13.4299 25.0537C12.294 25.4666 11.218 26.0029 10.2258 26.6507C9.45428 27.2078 8.51823 28.2941 7.46903 28.3312L7.75705 28.7955C8.63652 27.166 10.5086 26.7157 11.7687 25.4669C11.8132 25.4128 11.8367 25.347 11.8355 25.2796C11.8344 25.2123 11.8088 25.1471 11.7625 25.0943C11.7162 25.0414 11.652 25.0038 11.5797 24.9872C11.5073 24.9707 11.431 24.9761 11.3624 25.0026C10.5703 25.3369 9.74744 25.5875 8.98626 25.9682C8.22507 26.3489 7.52046 26.8967 6.68727 27.2171L7.14501 27.6302C7.71076 26.4603 9.15598 26.0286 10.0817 25.1326C10.1305 25.0845 10.161 25.0237 10.1689 24.9589C10.1767 24.8941 10.1614 24.8288 10.1253 24.7723C10.0892 24.7159 10.034 24.6714 9.96795 24.6451C9.90185 24.6189 9.82821 24.6124 9.75773 24.6266C8.52337 24.8076 7.70047 25.7082 6.53298 26.0796L6.91357 26.5439C7.17047 26.0869 7.56428 25.7041 8.05021 25.439L7.6439 24.9748L7.5359 25.0769C7.24274 25.3647 7.72104 25.7965 8.0142 25.5086" fill="black"/>
<path d="M10.9254 18.5682C10.9774 18.5039 11.0157 18.4315 11.0386 18.3546C11.0542 18.291 11.047 18.2245 11.018 18.1648C10.9889 18.1052 10.9396 18.0554 10.8771 18.0228C10.8146 17.9902 10.7421 17.9764 10.6704 17.9835C10.5986 17.9906 10.5312 18.0181 10.4779 18.0621C9.80449 18.6054 9.21773 19.2304 8.73442 19.9191C8.70287 19.9812 8.69523 20.0511 8.71272 20.1176C8.73021 20.1841 8.77181 20.2434 8.83093 20.2861C8.89005 20.3288 8.96329 20.3524 9.03899 20.3532C9.1147 20.354 9.18852 20.3319 9.24873 20.2905C9.62925 19.9515 10.071 19.6737 10.5551 19.4688L10.1436 19.0928C9.86591 19.7102 9.15102 20.1187 8.69842 20.6201C8.27791 21.1206 7.90132 21.6499 7.57207 22.2032C7.36635 22.5235 7.8138 22.7742 8.08639 22.57C9.2796 21.7297 10.5139 20.9358 11.6866 20.0816L11.1723 19.7148C10.1025 21.1076 8.35383 21.9664 7.57207 23.5866C7.53289 23.6392 7.51269 23.7013 7.51424 23.7646C7.5158 23.8279 7.53903 23.8892 7.58075 23.9401C7.62246 23.991 7.68061 24.029 7.74721 24.0488C7.81381 24.0686 7.88559 24.0694 7.95267 24.0509C9.5419 23.7213 10.6168 22.1939 12.0157 21.53L11.6094 21.0658C10.7248 21.9154 9.76305 22.6721 9.10473 23.6888C8.94015 23.9395 9.27959 24.283 9.56247 24.1066C10.4728 23.5449 11.342 22.9321 12.2472 22.375L11.7329 22.0314C11.5014 22.6257 10.9408 23.011 10.5191 23.4892C10.2876 23.7445 10.5705 24.153 10.9254 23.9534C11.41 23.643 11.9267 23.3756 12.4683 23.1549L12.0877 22.6907C11.9386 22.9831 11.702 23.2199 11.5734 23.517C11.5343 23.5695 11.5141 23.6317 11.5156 23.695C11.5172 23.7583 11.5404 23.8196 11.5821 23.8705C11.6238 23.9213 11.682 23.9593 11.7486 23.9792C11.8152 23.999 11.887 23.9997 11.954 23.9813C12.1803 23.9534 12.6329 23.7398 12.6124 23.8884C12.5999 23.9332 12.5989 23.9799 12.6093 24.0251C12.6197 24.0703 12.6413 24.1128 12.6725 24.1494C12.7036 24.186 12.7436 24.2158 12.7892 24.2365C12.8349 24.2572 12.8852 24.2684 12.9364 24.2691H13.5433C13.8364 24.5569 14.3096 24.1298 14.0164 23.842C13.7233 23.5542 13.3838 23.6841 12.9364 23.6841L13.2604 24.0648C13.4404 22.9321 12.5969 23.3174 11.774 23.4149L12.1546 23.8791C12.3038 23.582 12.5403 23.3452 12.6689 23.0481C12.7821 22.8299 12.5969 22.5096 12.2883 22.6071C11.6953 22.8412 11.1301 23.129 10.6014 23.466L11.0077 23.9302C11.522 23.3545 12.1186 22.9135 12.3963 22.2032C12.4168 22.1427 12.416 22.0779 12.394 22.0178C12.372 21.9576 12.33 21.9051 12.2736 21.8675C12.2172 21.8298 12.1493 21.8089 12.0792 21.8075C12.0091 21.8061 11.9402 21.8243 11.882 21.8597C10.9768 22.4214 10.1076 23.0296 9.19731 23.5913L9.66019 24.0045C10.2876 23.0296 11.2031 22.3146 12.062 21.5068C12.1079 21.4525 12.1324 21.3858 12.1315 21.3175C12.1306 21.2492 12.1044 21.1831 12.0571 21.1297C12.0098 21.0763 11.9441 21.0388 11.8705 21.023C11.7968 21.0072 11.7194 21.0141 11.6506 21.0426C10.3082 21.6879 9.25388 23.1874 7.74694 23.5031L8.12753 23.9673C8.90929 22.3471 10.658 21.5022 11.7277 20.0955C11.9643 19.7891 11.4757 19.5245 11.2134 19.7241C10.0408 20.5783 8.80128 21.3768 7.61322 22.2171L8.12753 22.5839C8.56707 21.8361 9.11729 21.1458 9.76305 20.5319C10.1881 20.1999 10.53 19.79 10.766 19.3295C10.7818 19.2781 10.7822 19.2237 10.7671 19.1721C10.752 19.1204 10.722 19.0733 10.6802 19.0355C10.6384 18.9978 10.5862 18.9707 10.5289 18.9571C10.4717 18.9435 10.4115 18.9439 10.3545 18.9581C9.76218 19.1985 9.21954 19.5282 8.74986 19.933L9.26417 20.2998C9.71767 19.6555 10.2681 19.0711 10.8997 18.5635L10.3391 18.2664L10.2928 18.336C10.0614 18.6656 10.6425 18.972 10.874 18.6424" fill="black"/>
<path d="M15.0499 25.6804C15.0499 26.0425 14.4893 26.3025 14.3299 26.6089C14.2907 26.6614 14.2705 26.7236 14.2721 26.7869C14.2736 26.8501 14.2968 26.9114 14.3386 26.9623C14.3803 27.0132 14.4384 27.0512 14.505 27.071C14.5716 27.0909 14.6434 27.0916 14.7105 27.0731C15.4305 26.8967 15.8574 26.3211 16.5517 26.1029C16.4437 25.9357 16.3306 25.7686 16.2226 25.5968C15.6184 26.1964 15.1111 26.8701 14.7156 27.5977C14.678 27.6554 14.6627 27.7226 14.672 27.789C14.6813 27.8553 14.7149 27.917 14.7673 27.9643C14.8197 28.0116 14.888 28.0418 14.9615 28.0503C15.035 28.0587 15.1095 28.0449 15.1734 28.0109C16.1351 27.5467 16.9529 26.8967 17.8581 26.3489L17.4003 25.9357C16.9426 26.6414 16.2431 27.166 15.7854 27.8716C15.7486 27.93 15.7341 27.9976 15.7441 28.0641C15.754 28.1306 15.7879 28.1923 15.8404 28.2398C15.893 28.2872 15.9614 28.3178 16.0351 28.3268C16.1087 28.3358 16.1836 28.3226 16.2483 28.2895C17.1123 27.7974 17.7192 26.8967 18.6964 26.5903L18.285 26.2143C18.0125 26.7434 17.6241 27.2172 17.1432 27.607C16.9272 27.8113 17.1432 28.2338 17.4723 28.1177C18.177 27.8624 18.6296 27.3192 19.3136 27.0499L18.7993 26.7853C18.7898 26.9835 18.7262 27.1764 18.6141 27.347C18.5833 27.3933 18.5666 27.4462 18.5656 27.5002C18.5647 27.5542 18.5796 27.6075 18.6089 27.6546C18.6381 27.7017 18.6807 27.7411 18.7322 27.7686C18.7837 27.7961 18.8423 27.8108 18.9021 27.8113C19.2268 27.7938 19.5447 27.7197 19.8382 27.5931L19.4216 27.3842C19.4398 27.6124 19.5329 27.8306 19.689 28.0109C19.9153 28.3405 20.4965 28.0388 20.2702 27.7045L20.0696 27.2403C20.0589 27.2014 20.0397 27.165 20.013 27.133C19.9863 27.1011 19.9527 27.0743 19.9143 27.0544C19.8759 27.0345 19.8334 27.0217 19.7894 27.017C19.7454 27.0122 19.7007 27.0155 19.6582 27.0267C19.418 27.1253 19.1634 27.1926 18.9021 27.2263L19.1953 27.6906C19.3593 27.4322 19.4544 27.1429 19.473 26.8457C19.471 26.7922 19.4537 26.7401 19.4229 26.6944C19.3921 26.6488 19.3487 26.611 19.297 26.5849C19.2453 26.5588 19.187 26.5451 19.1277 26.5452C19.0685 26.5454 19.0103 26.5593 18.9587 26.5857C18.3261 26.8364 17.9301 27.361 17.2769 27.5931L17.6061 28.0991C18.1621 27.6318 18.6081 27.0681 18.9176 26.4418C18.9334 26.3903 18.9338 26.336 18.9187 26.2843C18.9036 26.2327 18.8736 26.1856 18.8318 26.1478C18.79 26.11 18.7378 26.0829 18.6805 26.0693C18.6233 26.0557 18.5631 26.0561 18.5061 26.0704C17.4312 26.4093 16.8295 27.3006 15.8934 27.8299L16.3563 28.243C16.8089 27.542 17.5083 27.0128 17.9661 26.3071C18.1255 26.0518 17.7912 25.7175 17.5032 25.8893C16.598 26.4371 15.7802 27.0824 14.8185 27.5513L15.2814 27.9691C15.647 27.2918 16.1199 26.6663 16.6854 26.1121C16.886 25.8986 16.6854 25.4947 16.3563 25.6015C15.6722 25.815 15.2042 26.4046 14.5202 26.5717L14.8956 27.036C15.1322 26.5439 15.662 26.3489 15.7083 25.7779C15.7391 25.3879 15.0705 25.3879 15.0345 25.7779" fill="black"/>
<path d="M17.3954 30.1929C17.4326 30.1849 17.4713 30.1845 17.5086 30.1918C17.546 30.199 17.5811 30.2136 17.6114 30.2347C17.6114 30.2347 17.6423 30.3089 17.6371 30.2811C17.6371 30.4111 17.6063 30.5225 17.4468 30.5411C17.412 30.5518 17.3739 30.5501 17.3405 30.5363C17.307 30.5224 17.2806 30.4976 17.2668 30.4668C17.2668 30.4389 17.236 30.3925 17.2668 30.3693C17.3076 30.3504 17.3456 30.327 17.38 30.2996C17.2874 30.3368 17.272 30.3507 17.3285 30.3321C17.2771 30.3321 17.4263 30.3321 17.4108 30.3321C17.4614 30.3376 17.5103 30.3518 17.5548 30.3739C17.5034 30.3507 17.5548 30.1929 17.5086 30.2764C17.4961 30.3145 17.4922 30.3545 17.4972 30.394C17.5021 30.4335 17.5158 30.4716 17.5373 30.5063C17.5589 30.5409 17.588 30.5713 17.6228 30.5956C17.6576 30.6199 17.6975 30.6377 17.74 30.6478C17.8265 30.6668 17.9178 30.6552 17.9952 30.6155C18.0726 30.5759 18.1303 30.511 18.1566 30.4343C18.4035 29.8911 17.4468 29.5661 17.0148 29.789C16.8828 29.8493 16.7719 29.9416 16.6947 30.0556C16.6175 30.1696 16.577 30.3007 16.5776 30.4343C16.5877 30.5843 16.6461 30.7284 16.7457 30.8488C16.8453 30.9692 16.9818 31.0607 17.1383 31.1121C17.2706 31.1471 17.41 31.1549 17.5461 31.1348C17.6822 31.1147 17.8116 31.0672 17.9247 30.9959C18.0377 30.9246 18.1316 30.8312 18.1994 30.7228C18.2671 30.6143 18.307 30.4935 18.316 30.3693C18.3214 30.2588 18.3014 30.1486 18.2571 30.0455C18.2128 29.9424 18.1453 29.8487 18.0589 29.7704C17.9443 29.6787 17.8067 29.6134 17.658 29.5803C17.5093 29.5471 17.3539 29.5471 17.2051 29.5801C17.1197 29.6018 17.0472 29.6528 17.003 29.7222C16.9587 29.7916 16.9464 29.8739 16.9685 29.9515C16.9959 30.0276 17.0538 30.0917 17.1309 30.1313C17.208 30.1708 17.2987 30.1828 17.3851 30.165" fill="black"/>
<path d="M22.2146 31.8549L22.5078 31.7945L22.2146 31.3303C21.8827 31.6836 21.6138 32.0815 21.4174 32.5095C21.4016 32.5609 21.4012 32.6153 21.4163 32.6669C21.4314 32.7186 21.4613 32.7657 21.5032 32.8035C21.545 32.8412 21.5972 32.8683 21.6544 32.8819C21.7117 32.8955 21.7719 32.8951 21.8289 32.8809C22.4203 32.723 22.8215 32.3238 23.3718 32.087L22.8575 31.7481C22.7443 31.9756 22.6261 32.2124 22.5078 32.4352C22.4255 32.593 22.4769 32.8484 22.7084 32.8994C22.9398 32.9505 23.9941 32.853 23.9993 32.7462C23.9993 32.8263 24.0345 32.903 24.0972 32.9596C24.1599 33.0162 24.2449 33.048 24.3336 33.048C24.8993 33.1037 25.3159 32.8112 25.8045 32.5838L25.3416 32.4723C25.3714 32.5168 25.3972 32.5634 25.4188 32.6116C25.4649 32.6807 25.5389 32.731 25.6253 32.7518C25.7116 32.7726 25.8036 32.7623 25.8817 32.723C26.3043 32.5266 26.7387 32.3515 27.1829 32.1984L26.7663 31.827C26.6958 32.1335 26.5942 32.4334 26.4628 32.723C26.439 32.8006 26.4499 32.8835 26.4932 32.9539C26.5365 33.0242 26.6087 33.0764 26.6943 33.0991C27.9955 33.438 29.2658 32.8809 30.4231 32.3888C30.7625 32.2402 30.5156 31.7063 30.1608 31.8317C29.6697 32.0275 29.1997 32.2637 28.7567 32.5373C28.6881 32.576 28.6371 32.6355 28.6128 32.7051C28.5884 32.7747 28.5925 32.8499 28.6241 32.917C28.6557 32.9842 28.7129 33.039 28.7853 33.0715C28.8577 33.104 28.9405 33.1122 29.019 33.0944C29.739 32.918 30.3408 32.528 31.0402 32.2913C30.9271 32.1241 30.8191 31.957 30.7111 31.7853C30.2935 32.0702 29.9184 32.4025 29.595 32.7741C29.4047 33.0016 29.7184 33.2755 29.9756 33.2383C30.5184 33.0983 31.0375 32.8921 31.5185 32.6255C31.3848 32.463 31.2511 32.3052 31.1122 32.1613C30.8914 32.3412 30.6947 32.5437 30.5259 32.7648C30.4949 32.8115 30.4781 32.8647 30.4774 32.9191C30.4767 32.9735 30.4921 33.0271 30.5219 33.0744C30.5518 33.1217 30.5951 33.1609 30.6473 33.1881C30.6995 33.2153 30.7588 33.2294 30.8191 33.2291C31.0342 33.2207 31.2498 33.2332 31.462 33.2662C31.8837 33.3544 32.0586 32.7694 31.6368 32.6812C31.3677 32.6331 31.0933 32.6128 30.8191 32.6209C30.9117 32.7741 31.0094 32.9273 31.1071 33.0851C31.247 32.9134 31.4093 32.7576 31.5906 32.6209C31.8734 32.3795 31.5083 31.9802 31.1791 32.1566C30.7413 32.398 30.2689 32.5839 29.775 32.7091L30.1556 33.1733C30.4541 32.8452 30.8001 32.5548 31.1842 32.3099C31.4465 32.1242 31.1585 31.697 30.8551 31.7992C30.1607 32.0359 29.5539 32.4259 28.8338 32.6023L29.091 33.1548C29.4834 32.9074 29.9 32.693 30.3356 32.5141C30.2482 32.3284 30.1608 32.1427 30.0785 31.957C29.0961 32.3748 27.9801 32.8855 26.8691 32.607L27.1057 32.9784C27.2378 32.6874 27.3394 32.3858 27.4092 32.0777C27.4233 32.0264 27.4226 31.9727 27.4069 31.9217C27.3912 31.8708 27.3612 31.8244 27.3198 31.787C27.2784 31.7496 27.227 31.7225 27.1705 31.7084C27.1141 31.6943 27.0546 31.6936 26.9977 31.7063C26.4986 31.8755 26.0109 32.0708 25.5371 32.2913L25.9948 32.3981C25.9948 32.3516 25.9434 32.3052 25.9228 32.2588C25.8759 32.1904 25.8015 32.1411 25.7152 32.1212C25.6289 32.1013 25.5374 32.1124 25.4599 32.152C25.1281 32.3687 24.7367 32.4988 24.3284 32.528L24.6627 32.8298C24.6936 31.7899 23.4798 32.477 22.8832 32.3981L23.0838 32.8623C23.2477 32.5945 23.387 32.315 23.5004 32.0267C23.5193 31.9664 23.5174 31.9024 23.4948 31.8432C23.4722 31.784 23.43 31.7325 23.374 31.6955C23.318 31.6586 23.2507 31.6381 23.1814 31.6367C23.112 31.6353 23.0439 31.6531 22.9861 31.6878C22.5493 31.9616 22.0903 32.2053 21.6129 32.4166L22.0243 32.788C22.2111 32.4143 22.4571 32.0672 22.7546 31.7574C22.7855 31.7111 22.8022 31.6583 22.8031 31.6042C22.804 31.5502 22.7891 31.497 22.7599 31.4498C22.7306 31.4027 22.6881 31.3634 22.6366 31.3359C22.5851 31.3084 22.5265 31.2936 22.4666 31.2932C22.3049 31.2937 22.1447 31.3205 21.9935 31.3721C21.5871 31.5021 21.762 32.0917 22.1735 31.9617" fill="black"/>
<path d="M11.0027 26.8828L11.8513 26.7946L11.9336 28.4426H11.4553L11.0027 26.8828ZM11.2701 28.8744H12.8799L13.1216 28.6794L13.3274 26.4742L13.0599 26.2421L10.6735 26.4789L10.4678 26.7482L11.0387 28.7166L11.2701 28.8744Z" fill="black"/>
<path d="M8.78603 32.1984L10.5913 32.0545L10.8587 30.3229L8.354 30.8382L8.38486 30.9775L8.78603 32.1984Z" fill="black"/>
<path d="M40.1848 19.8448C40.1848 19.0788 39.5008 18.9999 38.9916 19.232C38.9916 19.232 38.2304 20.2301 38.9916 20.6248C39.7528 21.0194 40.1848 20.6248 40.1848 19.8588" fill="black"/>
<path d="M38.9763 23.1688L38.9197 25.1929H38.6728L38.7345 23.2431L38.9763 23.1688ZM38.0453 22.9646C38.0453 23.1642 37.9631 25.4576 37.9631 25.4576C37.9541 25.4992 37.956 25.5421 37.9686 25.5829C37.9811 25.6237 38.004 25.6614 38.0354 25.6929C38.0668 25.7244 38.1059 25.7489 38.1496 25.7644C38.1932 25.78 38.2403 25.7862 38.2871 25.7825C38.6037 25.7907 38.9195 25.8139 39.2334 25.8522C39.2821 25.862 39.3326 25.8613 39.3808 25.85C39.4291 25.8387 39.4737 25.8171 39.5109 25.7872C39.5481 25.7572 39.5768 25.7197 39.5948 25.6777C39.6127 25.6357 39.6193 25.5905 39.614 25.5458C39.614 25.179 39.6912 23.1735 39.6912 22.7603C39.6952 22.7107 39.6858 22.6609 39.6638 22.6153C39.6417 22.5697 39.6077 22.5296 39.5647 22.4985C39.5216 22.4675 39.4709 22.4463 39.4167 22.4369C39.3626 22.4275 39.3067 22.4302 39.254 22.4446L38.3077 22.6582C38.3077 22.6582 38.0453 22.7557 38.0453 22.9553" fill="black"/>
<path d="M35.8696 27.5421C35.8696 27.5421 36.1062 30.1047 36.3428 30.1743C36.5794 30.244 37.9989 29.6776 37.9989 29.6776L37.8446 27.3285L35.8696 27.5421Z" fill="black"/>
<path d="M41.2444 30.1047L41.0232 30.0768L41.1518 28.4984H41.5787L41.2444 30.1047ZM40.1437 28.4984H40.4472L40.3238 29.9933L40.1437 29.9701V28.4984ZM39.794 27.867C39.7473 27.8651 39.7006 27.8719 39.6569 27.887C39.6132 27.9021 39.5735 27.9252 39.5401 27.9549C39.5068 27.9845 39.4807 28.0201 39.4633 28.0593C39.4459 28.0985 39.4377 28.1405 39.4391 28.1827V30.2486C39.4391 30.2486 39.506 30.5597 39.7477 30.5597C39.9895 30.5597 41.1569 30.7732 41.481 30.7732C41.569 30.7765 41.6558 30.7532 41.7276 30.7069C41.7993 30.6607 41.8519 30.5941 41.877 30.5179C41.877 30.5179 42.345 28.5866 42.345 28.2384C42.351 28.1485 42.3186 28.06 42.2545 27.9909C42.1904 27.9219 42.0995 27.8775 42.0004 27.867H39.794Z" fill="black"/>
<path d="M45.5283 24.9701L46.1249 26.1307L46.6392 26.0518L46.809 24.6637L45.5283 24.9701Z" fill="black"/>
<path d="M47.0715 30.685C47.1892 30.6841 47.3041 30.6517 47.4015 30.592C47.4989 30.5323 47.5746 30.4479 47.619 30.3494C47.6633 30.2509 47.6744 30.1428 47.6508 30.0386C47.6272 29.9345 47.57 29.8389 47.4864 29.7641C47.4027 29.6892 47.2964 29.6384 47.1808 29.618C47.0653 29.5976 46.9456 29.6085 46.8368 29.6494C46.7281 29.6903 46.6353 29.7593 46.5699 29.8478C46.5046 29.9362 46.4697 30.0402 46.4697 30.1465C46.4697 30.2176 46.4853 30.288 46.5156 30.3536C46.5459 30.4193 46.5903 30.4789 46.6463 30.5289C46.7022 30.579 46.7686 30.6186 46.8416 30.6454C46.9146 30.6721 46.9927 30.6856 47.0715 30.685Z" fill="black"/>
<path d="M48.3828 30.2208C48.3818 30.3688 48.4295 30.5138 48.5199 30.6373C48.6102 30.7608 48.7392 30.8573 48.8904 30.9146C49.0416 30.9719 49.2083 30.9874 49.3692 30.959C49.5302 30.9307 49.6782 30.8599 49.7945 30.7556C49.9109 30.6512 49.9902 30.5181 50.0226 30.3729C50.055 30.2278 50.0389 30.0773 49.9764 29.9405C49.9139 29.8036 49.8077 29.6866 49.6714 29.6043C49.5352 29.5219 49.3749 29.478 49.2109 29.478C48.9921 29.478 48.7823 29.5561 48.6272 29.6952C48.472 29.8344 48.3842 30.0233 48.3828 30.2208Z" fill="black"/>
<path d="M51.124 30.4157C51.124 30.5075 51.1542 30.5973 51.2107 30.6736C51.2672 30.75 51.3476 30.8095 51.4415 30.8446C51.5355 30.8798 51.6389 30.889 51.7387 30.8711C51.8384 30.8531 51.9301 30.8089 52.002 30.744C52.0739 30.6791 52.1229 30.5964 52.1428 30.5063C52.1626 30.4162 52.1524 30.3229 52.1135 30.2381C52.0746 30.1532 52.0087 30.0807 51.9241 30.0297C51.8395 29.9787 51.7401 29.9515 51.6383 29.9515C51.5019 29.9515 51.3711 30.0004 51.2747 30.0875C51.1782 30.1745 51.124 30.2926 51.124 30.4157Z" fill="black"/>
<path d="M8.17378 45.2669H8.10693H7.82405C7.30974 45.2669 6.47654 45.2066 6.46112 44.5381C6.4354 43.0896 8.05035 42.7739 8.9144 42.76C8.97943 42.7552 9.0448 42.7552 9.10984 42.76C9.28985 44.2317 9.32585 44.6866 9.33099 44.9095V45.0348C8.96324 45.168 8.56998 45.2342 8.17378 45.2298V45.2669ZM10.1848 41.5762V41.4926C10.1848 41.3069 9.90702 41.1259 9.60872 41.1259C9.31042 41.1259 9.00183 41.2651 9.00698 41.5344V41.7479C8.79967 41.7385 8.59196 41.7385 8.38465 41.7479C7.97679 41.744 7.57227 41.8146 7.19551 41.9557C6.81874 42.0967 6.47753 42.3052 6.1925 42.5686C5.90747 42.8319 5.68452 43.1447 5.5371 43.488C5.38968 43.8313 5.32085 44.198 5.33477 44.5659C5.36048 46.0608 6.51769 46.3904 7.64404 46.3718C8.24856 46.3247 8.84847 46.2378 9.439 46.1119C9.49557 46.3811 9.75787 46.3997 9.95331 46.395C10.5653 46.395 10.6373 46.1397 10.6322 45.9633C10.605 45.1858 10.5243 44.4105 10.3905 43.6421C10.2465 42.124 10.1899 41.7154 10.1848 41.5762Z" fill="black"/>
<path d="M14.6233 41.1212H14.469C14.1963 41.1196 13.9299 41.1954 13.7075 41.3378C13.4851 41.4803 13.3179 41.6822 13.2295 41.9151C13.2042 41.8002 13.1888 41.6838 13.1832 41.5669C13.1832 41.4462 13.1832 41.3301 13.1832 41.214C13.1806 41.116 13.1703 41.0183 13.1523 40.9216V40.8984C13.1459 40.8312 13.1248 40.7659 13.0902 40.7061C13.0556 40.6463 13.0083 40.5934 12.9509 40.5502C12.8935 40.507 12.8272 40.4746 12.7559 40.4546C12.6845 40.4347 12.6095 40.4277 12.5352 40.4341C12.4553 40.4321 12.3759 40.445 12.3019 40.472C12.2278 40.4989 12.1607 40.5394 12.1047 40.5908C12.0487 40.6422 12.0051 40.7034 11.9765 40.7707C11.9479 40.838 11.935 40.9099 11.9386 40.9819C11.9951 41.8129 12.1031 43.6467 12.1289 44.6959C12.1289 44.9651 12.1289 45.1601 12.1289 45.3133V45.3737C12.1287 45.4375 12.1431 45.5006 12.1712 45.5592C12.1992 45.6177 12.2404 45.6704 12.292 45.714C12.3436 45.7576 12.4047 45.7911 12.4713 45.8124C12.5379 45.8337 12.6087 45.8424 12.6792 45.8379C13.3272 45.8379 13.3889 45.2298 13.3786 44.5195C13.3786 44.3106 13.3786 44.0877 13.3529 43.8649C13.3529 43.0478 13.4249 42.2772 14.3301 42.2632C14.3816 42.2632 14.433 42.2632 14.4998 42.2632C14.5204 42.2649 14.541 42.2649 14.5616 42.2632C16.1559 42.24 14.9113 45.6383 15.9862 45.6197C16.0734 45.6294 16.1619 45.621 16.2451 45.5953C16.3282 45.5697 16.4038 45.5273 16.4661 45.4715C16.5285 45.4156 16.5761 45.3477 16.6052 45.2729C16.6343 45.198 16.6442 45.1182 16.6342 45.0394C16.444 42.4954 16.5108 41.2187 14.6181 41.1444" fill="black"/>
<path d="M19.1595 39.2828C19.1337 39.137 19.0569 39.0024 18.9403 38.8989C18.8237 38.7953 18.6734 38.7281 18.5115 38.7072C18.1772 38.7072 17.8172 38.8 17.8223 39.1714C17.8223 39.3274 17.8902 39.4772 18.0115 39.5883C18.1327 39.6995 18.2975 39.7632 18.4704 39.7656C18.5835 39.7656 19.1647 39.7006 19.1595 39.2782" fill="black"/>
<path d="M19.3909 41.8826V41.7897C19.3909 41.4973 19.2109 41.1305 18.8097 41.1352C18.1514 41.1352 18.1514 41.7155 18.1566 42.1704L18.2131 44.9559C18.2131 44.993 18.2131 45.0163 18.2131 45.0395V45.1091C18.2131 45.5084 18.3057 45.8658 18.8355 45.8612C18.9383 45.8612 19.0155 45.773 19.0669 45.773C19.4012 45.6384 19.4578 45.3087 19.4526 44.9606L19.4063 42.7415C19.4063 42.2772 19.4063 42.0869 19.4063 41.8873" fill="black"/>
<path d="M28.9523 43.7674C28.9523 42.8807 28.6386 40.8984 27.1368 40.9263C26.3344 40.9263 26.0464 41.2327 25.7327 41.8548C25.6073 42.1388 25.5176 42.4347 25.4653 42.7368C25.4138 42.0358 25.0024 40.7731 23.9635 40.787C23.1868 40.787 22.7085 41.5576 22.3897 42.1797L22.2508 41.1445C22.2045 40.8288 21.9885 39.8028 21.4587 39.8121C21.3234 39.8232 21.1961 39.875 21.0973 39.9591C20.9984 40.0433 20.9337 40.155 20.9136 40.2763C20.9268 40.5269 20.9751 40.7749 21.0576 41.0145C21.2718 42.0093 21.4297 43.0134 21.5307 44.0228L21.5616 44.2874C21.6233 44.7795 21.6645 45.5594 22.1016 45.5548C22.2444 45.5653 22.3874 45.5363 22.5114 45.4716C22.6355 45.4069 22.7347 45.3096 22.796 45.1927C22.8937 44.241 22.9811 41.9987 23.7269 41.9894C23.7656 41.9799 23.8064 41.9799 23.8452 41.9894H23.8709C24.3852 41.9894 24.4109 43.1407 24.4212 43.7814V43.8742C24.4212 44.4267 24.4881 45.4062 25.1361 45.3923C25.7841 45.3784 25.8356 44.7981 26.0104 44.2595L26.0567 44.1063C26.2522 43.5075 26.6225 42.008 27.1162 41.9987C27.1162 41.9987 27.1573 41.9987 27.1831 41.9987C27.6034 42.4836 27.8202 43.0871 27.7951 43.7025V43.8789C27.7951 43.9717 27.7951 44.0692 27.7951 44.1713C27.7951 44.5799 27.8774 45.0581 28.3094 45.0534C28.9934 45.0534 28.9832 44.501 28.9729 43.8835L28.9523 43.7674Z" fill="black"/>
<path d="M32.7425 44.032H32.6757C32.614 44.032 32.506 44.032 32.3928 44.032C31.8785 44.032 31.0453 43.9717 31.0299 43.3078C31.0042 41.8594 32.614 41.5437 33.4832 41.5297C33.5479 41.5204 33.6139 41.5204 33.6786 41.5297C33.8586 43.0014 33.8946 43.4564 33.8998 43.6746V43.8046C33.5312 43.9351 33.1385 44.0012 32.7425 43.9995V44.032ZM34.7535 40.3413V40.2624C34.7535 40.0767 34.4758 39.891 34.1775 39.8956C33.8792 39.9002 33.5706 40.0349 33.5757 40.3041V40.513C33.442 40.513 33.262 40.513 32.9534 40.513C32.5455 40.5097 32.1411 40.5808 31.7644 40.722C31.3877 40.8633 31.0465 41.0717 30.7612 41.3349C30.4759 41.598 30.2524 41.9105 30.1041 42.2535C29.9559 42.5965 29.8859 42.963 29.8984 43.331C29.9293 44.8259 31.0865 45.1601 32.2128 45.1416C32.8172 45.0909 33.4169 45.0025 34.0078 44.877C34.0643 45.1462 34.3215 45.1648 34.5221 45.1648C35.129 45.1648 35.2061 44.9095 35.201 44.733C35.1742 43.9555 35.0935 43.1802 34.9592 42.4118C34.8152 40.8937 34.7587 40.4852 34.7535 40.3413Z" fill="black"/>
<path d="M38.8115 48.071H38.7703C38.487 48.0743 38.2065 48.0211 37.9486 47.9151C37.6908 47.8092 37.4621 47.6531 37.2788 47.4582C37.2569 47.4182 37.2273 47.382 37.1914 47.3514L37.1399 47.2585C37.0576 47.0845 37.0073 46.8994 36.9908 46.7107C36.9858 46.6097 37.0088 46.5092 37.0576 46.4182C37.608 45.4387 38.4309 44.8723 39.3258 44.8584H39.3669C39.8064 44.8363 40.2382 44.9693 40.5712 45.2291C40.9041 45.489 41.1123 45.8554 41.1516 46.2511C41.1516 46.9707 40.2618 48.0338 38.8115 48.0617V48.071ZM38.2508 41.4694C38.2359 41.0611 38.3858 40.6619 38.6726 40.3459C38.7464 40.2743 38.8355 40.2169 38.9345 40.177C39.0334 40.1371 39.1403 40.1156 39.2486 40.1138C39.6086 40.1138 39.8812 40.6338 39.8864 40.9727C39.838 41.2152 39.7088 41.4387 39.5161 41.6133C39.3646 41.8122 39.1378 41.9542 38.8783 42.0126C38.7989 42.015 38.7197 42.0033 38.6453 41.978C38.5709 41.9526 38.5028 41.9143 38.4449 41.8651C38.387 41.8159 38.3406 41.7568 38.3081 41.6913C38.2757 41.6257 38.258 41.5551 38.256 41.4833L38.2508 41.4694ZM39.5418 43.7163V42.955C40.6424 42.3468 41.1773 41.7062 41.1619 41.0005C41.1441 40.6229 41.0164 40.2562 40.7916 39.9374L40.951 39.8213C41.0704 39.763 41.1721 39.6792 41.2474 39.5772C41.3227 39.4753 41.3692 39.3583 41.383 39.2364C41.383 39.0414 41.1876 38.6607 40.8687 38.6607C40.5723 38.7109 40.2988 38.8384 40.0818 39.0275C40.007 39.0834 39.9279 39.1346 39.8452 39.1807C39.7699 39.1749 39.6965 39.156 39.6292 39.125C39.4672 39.0597 39.2922 39.025 39.1149 39.0228C37.9217 39.046 37.1348 39.9513 37.0062 41.4555C37.0312 41.7841 37.1488 42.1016 37.3477 42.3778C37.5466 42.654 37.8203 42.8798 38.1428 43.0339H38.1789C38.2457 43.0339 38.2714 43.0339 38.2869 43.4053V43.8695C37.3564 44.1471 36.5772 44.7327 36.1062 45.5083L35.9467 45.7869C35.8455 46.0638 35.7968 46.3542 35.8027 46.6457C35.8468 47.2673 36.1446 47.8519 36.6386 48.2867C37.1326 48.7215 37.7877 48.9755 38.4771 48.9995H38.5132C39.1439 49.0091 39.7681 48.8818 40.3329 48.628C40.8977 48.3743 41.3866 48.0018 41.7585 47.5417C42.0885 47.0928 42.2671 46.567 42.2728 46.0283C42.2496 45.4162 41.9594 44.8371 41.4653 44.4174C41.2148 44.1878 40.9149 44.0067 40.5842 43.8854C40.2534 43.7641 39.8987 43.705 39.5418 43.7117" fill="black"/>
<path d="M47.4159 41.1676C47.4159 40.4898 46.7421 40.4666 46.2226 40.4713C45.7839 40.5035 45.3507 40.5814 44.9317 40.7034L44.7517 40.8102V40.4248C44.7517 39.9606 44.7106 39.5846 44.2014 39.5938H44.0985C44.0185 39.5873 43.9378 39.5961 43.8618 39.6196C43.7857 39.6431 43.7161 39.6809 43.6573 39.7304C43.5986 39.78 43.5521 39.8401 43.5209 39.907C43.4897 39.9738 43.4744 40.0459 43.4762 40.1184C43.4762 40.1649 43.4762 40.2809 43.5071 40.3877C43.5122 40.4697 43.5122 40.5518 43.5071 40.6337C43.5071 41.0423 43.5071 41.3951 43.5071 41.7108C43.5071 42.565 43.6511 43.2521 43.6665 44.0692C43.6744 44.1929 43.6744 44.3169 43.6665 44.4406C43.6584 44.5534 43.6584 44.6666 43.6665 44.7795C43.6698 44.869 43.6945 44.9568 43.7389 45.037C43.7833 45.1171 43.8463 45.1876 43.9237 45.2437H44.1705C44.9574 45.2437 44.9523 44.7516 44.9369 44.1759C44.9214 43.6003 44.798 43.0107 44.7877 42.4025C44.7774 41.7944 45.7032 41.5855 46.3307 41.5762C46.4649 41.5776 46.5989 41.5869 46.7318 41.604C47.0044 41.604 47.4313 41.4972 47.4261 41.1955" fill="black"/>
<path d="M49.8127 44.6124H49.7458H49.4681C48.9538 44.6124 48.1154 44.552 48.1052 43.8835C48.0743 42.435 49.6892 42.1194 50.5533 42.1054C50.6182 42.0978 50.6839 42.0978 50.7487 42.1054C50.9339 43.5771 50.9699 44.0321 50.975 44.2549V44.3802C50.6048 44.5111 50.2103 44.5773 49.8127 44.5752V44.6124ZM51.8288 40.9216V40.838C51.8288 40.6523 51.5459 40.4666 51.2476 40.4713C50.9493 40.4759 50.6459 40.6106 50.651 40.8798V41.0934C50.4438 41.0814 50.2359 41.0814 50.0287 41.0934C49.6208 41.0894 49.2163 41.1601 48.8395 41.3011C48.4628 41.4421 48.1216 41.6506 47.8365 41.914C47.5515 42.1774 47.3286 42.4901 47.1811 42.8334C47.0337 43.1767 46.9649 43.5434 46.9788 43.9113C47.0097 45.4016 48.1669 45.7358 49.2932 45.7173C49.8958 45.6682 50.4938 45.5814 51.083 45.4573C51.1448 45.7219 51.4019 45.7451 51.5974 45.7405C52.2042 45.7405 52.2762 45.4851 52.2762 45.3087C52.2469 44.5313 52.1662 43.7562 52.0345 42.9875C51.8905 41.4694 51.8339 41.0609 51.8288 40.9216Z" fill="black"/>
<path d="M57.5014 44.4777L56.1077 44.5845C55.9305 44.5992 55.7519 44.5809 55.5829 44.5308C55.4139 44.4807 55.2581 44.3999 55.125 44.2933C54.992 44.1867 54.8846 44.0566 54.8095 43.9111C54.7343 43.7655 54.693 43.6076 54.6882 43.4471C54.6882 42.8065 55.2333 42.1426 56.5397 42.1194H56.5911C56.9041 42.113 57.2159 42.157 57.5117 42.2494C57.5553 42.9916 57.5553 43.7355 57.5117 44.4777H57.5014ZM58.6535 39.1436C58.6535 38.7118 58.5867 38.4333 58.0929 38.4379C57.5992 38.4426 57.522 38.9022 57.5323 39.4175V39.7239C57.5323 40.1881 57.5323 40.6524 57.5323 41.1166L57.4912 41.0934C57.1944 41.0064 56.8812 40.9748 56.5705 41.0006C55.3053 41.0006 53.5309 41.7944 53.5669 43.605C53.5978 45.1138 55.1099 45.6384 56.3597 45.6198C56.7286 45.6214 57.0952 45.5681 57.4449 45.4619C57.4037 46.0701 57.414 46.4554 57.4192 46.7711C57.4243 47.0868 57.6095 47.189 57.8306 47.1843C58.3861 47.1843 58.5918 47.1472 58.5764 46.228C58.5198 43.6096 58.7049 41.4462 58.6586 39.1436" fill="black"/>
<path d="M38.9192 14.896C38.4821 15.4159 37.8906 15.8245 37.6695 16.4883C37.652 16.5485 37.6549 16.6119 37.6778 16.6706C37.7007 16.7292 37.7425 16.7803 37.7978 16.8172C37.8532 16.8542 37.9195 16.8754 37.9883 16.878C38.0571 16.8806 38.1252 16.8645 38.1838 16.8319C38.6981 16.5951 38.9912 16.1402 39.4901 15.9034L38.9758 15.5599C38.8935 15.973 38.5129 16.2609 38.3072 16.6276C38.268 16.6801 38.2478 16.7423 38.2494 16.8056C38.2509 16.8689 38.2742 16.9302 38.3159 16.9811C38.3576 17.032 38.4157 17.0699 38.4823 17.0898C38.5489 17.1096 38.6207 17.1103 38.6878 17.0919C39.3513 16.9944 39.8707 16.5301 40.3799 16.1634L39.9016 15.7363C39.615 15.9443 39.4051 16.226 39.2998 16.5441C39.279 16.6215 39.292 16.7033 39.336 16.7724C39.38 16.8415 39.4518 16.8927 39.5364 16.9155C39.917 17.0594 40.2667 16.7715 40.5908 16.6323L40.0765 16.3723L40.025 16.4698C39.7987 16.804 40.3799 17.1104 40.6062 16.7762C40.6846 16.652 40.7336 16.5144 40.7502 16.3723C40.7862 16.1216 40.4416 16.0241 40.2359 16.1077C40.1227 16.1587 39.8296 16.3816 39.7216 16.3305C39.7987 16.4558 39.8759 16.5812 39.9582 16.7065C40.0317 16.4886 40.1814 16.298 40.385 16.1634C40.7142 15.9034 40.241 15.4995 39.9067 15.7363C39.52 16.0924 39.0409 16.3557 38.5129 16.5023L38.8935 16.9665C39.125 16.5487 39.5313 16.2284 39.629 15.7548C39.6495 15.6943 39.6486 15.6295 39.6267 15.5694C39.6047 15.5093 39.5626 15.4568 39.5062 15.4191C39.4499 15.3815 39.382 15.3605 39.3118 15.3591C39.2417 15.3577 39.1728 15.3759 39.1147 15.4113C38.6004 15.6481 38.3072 16.103 37.8032 16.3398C37.9729 16.4512 38.1375 16.5673 38.3175 16.6833C38.5078 16.1077 39.1095 15.6991 39.5004 15.2349C39.7627 14.9238 39.1815 14.6221 38.9192 14.9285" fill="black"/>
<path d="M15.0811 29.2366C15.1698 29.237 15.2572 29.2167 15.3347 29.1777C15.4122 29.1387 15.4772 29.0822 15.5234 29.0137L14.9473 28.7073C14.7383 29.0434 14.5064 29.3674 14.253 29.6776C14.073 29.9236 14.4382 30.2672 14.7159 30.0908C15.2771 29.7652 15.8116 29.4037 16.3154 29.0091C16.6394 28.7352 16.1714 28.3359 15.8422 28.5773C15.3559 28.8881 14.9461 29.2865 14.6387 29.7472C14.5996 29.7997 14.5794 29.8619 14.5809 29.9252C14.5825 29.9885 14.6057 30.0498 14.6474 30.1007C14.6891 30.1516 14.7473 30.1895 14.8139 30.2094C14.8805 30.2292 14.9523 30.23 15.0193 30.2115C15.9091 30.0211 16.4697 29.3062 17.1589 28.8187L16.6446 28.452C16.192 29.2923 15.3845 29.9004 14.8033 30.6664C14.5719 30.9636 15.0605 31.2468 15.3176 31.0332C16.0685 30.439 16.8606 29.8911 17.5446 29.2319L17.0663 28.8048C16.3308 29.529 15.5234 30.1976 15.2199 31.1539C15.2041 31.2054 15.2037 31.2597 15.2188 31.3114C15.2339 31.363 15.2639 31.4101 15.3057 31.4479C15.3475 31.4856 15.3997 31.5127 15.4569 31.5263C15.5142 31.5399 15.5744 31.5396 15.6314 31.5253C17.0406 31.0611 17.6886 29.8587 18.7173 28.958L18.1567 28.6609C17.6423 29.8076 16.2177 30.3554 15.6622 31.4928C15.6269 31.5507 15.6133 31.6174 15.6234 31.6828C15.6335 31.7483 15.6667 31.809 15.7182 31.856C15.7697 31.903 15.8366 31.9337 15.9091 31.9436C15.9815 31.9534 16.0554 31.9418 16.12 31.9106C17.4675 31.3117 18.3727 30.1929 19.0773 29.0323C19.0996 28.9979 19.1141 28.9598 19.1201 28.9203C19.1261 28.8807 19.1234 28.8405 19.1122 28.8019C19.101 28.7634 19.0814 28.7272 19.0547 28.6954C19.028 28.6636 18.9946 28.6369 18.9564 28.6168C18.9182 28.5967 18.8761 28.5835 18.8323 28.5781C18.7885 28.5727 18.744 28.5752 18.7012 28.5853C18.6585 28.5954 18.6184 28.6131 18.5832 28.6372C18.548 28.6613 18.5184 28.6914 18.4961 28.7259C18.1001 29.2691 17.8224 29.8726 17.38 30.3879C16.9836 30.7642 16.6382 31.1819 16.3514 31.6321C16.2434 31.841 16.4234 32.1938 16.732 32.0963C18.0435 31.6042 18.5938 30.5272 19.5607 29.6683L19.0001 29.3712C18.707 30.1418 18.0692 30.7639 17.7761 31.516C17.6681 31.7946 18.0229 31.9803 18.2904 31.8596C19.0053 31.5624 19.2419 30.9311 19.7356 30.4297L19.175 30.1326C18.9916 30.6562 18.7611 31.1655 18.4858 31.6553C18.4705 31.7069 18.4705 31.7612 18.4857 31.8128C18.5008 31.8645 18.5307 31.9116 18.5723 31.9496C18.6138 31.9877 18.6657 32.0152 18.7227 32.0295C18.7797 32.0438 18.8399 32.0445 18.8973 32.0313C19.2686 31.8761 19.6051 31.6605 19.8899 31.3953L19.283 31.0611C19.2316 31.321 19.1133 31.5624 19.0516 31.8224C18.959 32.2031 19.607 32.3656 19.6996 31.9803C19.7613 31.7249 19.8796 31.4835 19.931 31.2235C19.95 31.1587 19.9449 31.09 19.9164 31.028C19.888 30.966 19.8378 30.9142 19.7736 30.8804C19.7093 30.8467 19.6346 30.8329 19.5608 30.8412C19.4871 30.8495 19.4184 30.8795 19.3653 30.9264C19.1658 31.1167 18.9308 31.2739 18.671 31.3907L19.0876 31.7667C19.3642 31.2775 19.5947 30.7681 19.7767 30.244C19.8487 29.9654 19.4476 29.7055 19.2161 29.9469C18.7738 30.4111 18.5321 31.0239 17.9046 31.2839L18.419 31.6274C18.7121 30.8568 19.3499 30.2347 19.643 29.4826C19.6603 29.4186 19.6542 29.3513 19.6258 29.2907C19.5973 29.2301 19.548 29.1793 19.4851 29.146C19.4222 29.1126 19.349 29.0985 19.2765 29.1056C19.204 29.1127 19.1359 29.1407 19.0824 29.1855C18.2287 29.9469 17.7041 31.0425 16.5468 31.4603L16.9274 31.9245C17.2349 31.4469 17.6025 31.0029 18.0229 30.6015C18.4395 30.1372 18.7018 29.5337 19.0516 29.0184L18.4704 28.712C17.8172 29.789 17.0046 30.8196 15.7548 31.3721L16.2177 31.7899C16.7937 30.6061 18.2184 30.0211 18.7893 28.8095C18.9281 28.5123 18.4498 28.3174 18.2287 28.5123C17.3235 29.3108 16.7166 30.5179 15.4616 30.9264L15.8782 31.2978C16.1611 30.439 16.9069 29.8587 17.5549 29.218C17.8429 28.9302 17.3749 28.503 17.0766 28.7909C16.3977 29.4501 15.6005 29.9933 14.8548 30.5875L15.3691 30.9589C15.9554 30.1883 16.7526 29.5894 17.2052 28.7445C17.2367 28.6823 17.2444 28.6125 17.2269 28.546C17.2094 28.4795 17.1678 28.4202 17.1087 28.3775C17.0495 28.3348 16.9763 28.3112 16.9006 28.3104C16.8249 28.3096 16.7511 28.3316 16.6909 28.3731C16.0994 28.7955 15.6057 29.4501 14.8445 29.6126L15.2251 30.0769C15.5042 29.6626 15.8776 29.3066 16.3206 29.0323L15.8474 28.6006C15.3846 28.9603 14.8949 29.2907 14.3816 29.5894L14.8393 30.0072C15.0929 29.6981 15.3231 29.3739 15.5285 29.0369C15.5735 28.968 15.5863 28.8857 15.5642 28.8082C15.542 28.7308 15.4866 28.6644 15.4102 28.6238C15.3338 28.5831 15.2427 28.5715 15.1568 28.5916C15.071 28.6116 14.9975 28.6616 14.9525 28.7305L15.0862 28.6516C14.6593 28.6841 14.6542 29.2923 15.0862 29.2598" fill="black"/>
<path d="M45.9912 23.5495C46.0683 23.647 45.0243 25.4576 45.0243 25.8708C45.0254 25.9246 45.0421 25.9773 45.0726 26.0236C45.103 26.0699 45.1463 26.1083 45.1982 26.1349C45.25 26.1616 45.3086 26.1757 45.3683 26.1758C45.428 26.1758 45.4867 26.1619 45.5386 26.1354C46.2278 25.7779 46.6855 25.1744 47.3747 24.8216L46.917 24.4037C46.4026 25.3322 45.2403 25.7965 45.0397 26.8967C45.0273 26.9421 45.0265 26.9895 45.0371 27.0352C45.0478 27.081 45.0698 27.124 45.1014 27.161C45.1331 27.198 45.1735 27.2281 45.2198 27.2491C45.2661 27.2701 45.3171 27.2813 45.3689 27.2821C46.2381 27.2449 46.9118 26.6043 47.6061 26.205C47.6832 26.1644 47.7392 26.0978 47.7619 26.0199C47.7846 25.9419 47.772 25.8591 47.727 25.7895C47.682 25.7199 47.6082 25.6694 47.5219 25.6489C47.4356 25.6284 47.3438 25.6398 47.2667 25.6804C46.6482 25.9851 46.1093 26.4059 45.6861 26.9144C45.2629 27.4229 44.9653 28.0073 44.8134 28.6284C44.7976 28.6798 44.7972 28.7342 44.8123 28.7858C44.8274 28.8375 44.8573 28.8846 44.8992 28.9224C44.941 28.9601 44.9932 28.9872 45.0504 29.0008C45.1077 29.0144 45.1678 29.014 45.2249 28.9998C46.1146 28.8605 46.7678 28.1038 47.4519 27.6581L47.1124 27.1335C46.0576 27.8005 45.2765 28.7635 44.8906 29.8726C44.8753 29.9242 44.8752 29.9785 44.8904 30.0301C44.9056 30.0817 44.9354 30.1289 44.977 30.1669C45.0186 30.2049 45.0705 30.2325 45.1275 30.2468C45.1845 30.2611 45.2447 30.2617 45.302 30.2486C46.4284 29.9143 47.0353 28.958 48.0639 28.4891L47.5496 28.1456C47.097 29.3665 45.5952 29.8261 45.3946 31.2003C45.3934 31.2549 45.4087 31.3088 45.4388 31.3561C45.4689 31.4035 45.5127 31.4426 45.5655 31.4693C45.6183 31.496 45.6781 31.5093 45.7386 31.5077C45.7991 31.5061 45.8579 31.4897 45.9089 31.4603C46.9954 30.7295 47.9497 29.8509 48.7376 28.8559L48.2233 28.4845C47.4056 29.7797 46.0323 30.8475 45.7392 32.3656C45.7187 32.4261 45.7195 32.4909 45.7415 32.551C45.7635 32.6111 45.8056 32.6636 45.8619 32.7013C45.9183 32.7389 45.9862 32.7599 46.0563 32.7613C46.1265 32.7627 46.1953 32.7445 46.2535 32.7091C47.2821 32.1984 47.7964 31.2699 48.6193 30.5829L48.0587 30.2904C47.7964 31.4603 46.701 32.2541 46.5878 33.4844C46.5891 33.5441 46.6097 33.6021 46.6471 33.6514C46.6845 33.7007 46.737 33.739 46.7982 33.7617C46.8594 33.7844 46.9266 33.7904 46.9916 33.7791C47.0565 33.7678 47.1164 33.7396 47.1638 33.6979C48.7942 32.3052 48.7839 29.984 50.5377 28.7166L49.972 28.4195C49.6428 29.7101 48.429 30.6757 48.1359 32.0174C48.1154 32.0779 48.1162 32.1427 48.1382 32.2028C48.1602 32.2629 48.2023 32.3154 48.2586 32.3531C48.315 32.3907 48.3829 32.4117 48.453 32.4131C48.5232 32.4145 48.592 32.3963 48.6502 32.3609C49.3156 31.9862 49.8882 31.4915 50.332 30.9078C51.0212 30.1372 51.875 29.4826 52.5487 28.7166C52.8213 28.4195 52.3687 27.9924 52.0755 28.2848C51.1858 29.1715 50.0543 30.165 49.8434 31.3953C49.8297 31.4467 49.8308 31.5005 49.8465 31.5515C49.8622 31.6024 49.8921 31.6489 49.9333 31.6866C49.9745 31.7242 50.0256 31.7518 50.0819 31.7666C50.1382 31.7814 50.1977 31.7831 50.2549 31.7713C51.6692 31.5346 52.4664 30.035 53.315 29.1298L52.7544 28.8373C52.4201 29.6497 51.6435 30.2068 51.3761 31.0517C51.3638 31.0968 51.3628 31.1437 51.3732 31.1891C51.3836 31.2345 51.4051 31.2773 51.4362 31.3142C51.4672 31.3512 51.507 31.3814 51.5527 31.4026C51.5984 31.4239 51.6487 31.4356 51.7001 31.4371C52.6773 31.4371 53.0682 30.5086 53.8602 30.1465L53.4025 29.7333C53.1042 30.295 52.6413 30.6943 52.5898 31.3396C52.5898 31.5949 52.883 31.6831 53.1042 31.5996C53.5156 31.4417 54.2511 30.7918 54.1636 31.5438C54.1276 31.892 54.5545 32.087 54.8374 32.1845C55.2437 32.3238 55.4186 31.7203 55.0174 31.5996C54.6162 31.4788 55.0945 30.6293 54.5031 30.4854C53.9116 30.3414 53.3459 30.8568 52.7699 31.075L53.2842 31.3396C53.3202 30.8753 53.7985 30.4529 54.0042 30.0397C54.041 29.9813 54.0555 29.9137 54.0455 29.8472C54.0356 29.7807 54.0017 29.719 53.9492 29.6715C53.8966 29.6241 53.8282 29.5935 53.7545 29.5845C53.6809 29.5756 53.606 29.5887 53.5413 29.6219C52.955 29.8772 52.3841 30.8428 51.7206 30.8289L52.0447 31.2142C52.307 30.3832 53.0733 29.8215 53.423 28.9951C53.4387 28.9315 53.4315 28.865 53.4024 28.8054C53.3734 28.7457 53.324 28.696 53.2615 28.6633C53.199 28.6307 53.1266 28.617 53.0549 28.624C52.9831 28.6311 52.9157 28.6586 52.8624 28.7027C52.0961 29.5151 51.3503 30.9728 50.0954 31.1817L50.512 31.5578C50.7074 30.425 51.7515 29.5337 52.5693 28.7166L52.0961 28.2848C51.5201 28.9208 50.8669 29.4826 50.2549 30.0861C49.6428 30.6896 49.1542 31.451 48.3313 31.8363L48.8456 32.1799C49.1337 30.8289 50.3474 29.8865 50.6817 28.582C50.699 28.518 50.6929 28.4507 50.6645 28.39C50.636 28.3294 50.5867 28.2787 50.5238 28.2453C50.4609 28.212 50.3877 28.1978 50.3152 28.2049C50.2427 28.212 50.1746 28.2401 50.1211 28.2848C48.3519 29.5847 48.3776 31.892 46.7472 33.2708L47.3233 33.4844C47.4261 32.347 48.5216 31.5578 48.7685 30.4482C48.7842 30.3846 48.777 30.3181 48.7479 30.2585C48.7189 30.1988 48.6695 30.149 48.607 30.1164C48.5445 30.0838 48.4721 30.0701 48.4003 30.0771C48.3285 30.0842 48.2611 30.1117 48.2079 30.1557C47.4158 30.801 46.9273 31.7063 45.9758 32.1845L46.4901 32.528C46.7678 31.075 48.1205 30.0304 48.9074 28.7909C49.0925 28.503 48.6193 28.1456 48.393 28.4241C47.6457 29.3832 46.7383 30.232 45.7032 30.9403L46.2175 31.2003C46.3975 29.9886 47.9302 29.4408 48.3519 28.3034C48.4548 28.0341 48.105 27.8392 47.8376 27.9645C46.8758 28.4055 46.2946 29.3572 45.2352 29.6636L45.6518 30.035C45.9828 29.0745 46.6552 28.2391 47.565 27.6581C47.9096 27.426 47.565 26.906 47.2256 27.1335C46.5724 27.5467 45.9706 28.2895 45.1683 28.4148L45.5797 28.7909C45.7102 28.246 45.9694 27.7329 46.3395 27.2867C46.7096 26.8404 47.182 26.4715 47.7244 26.205L47.385 25.6804C46.8295 25.9961 46.1712 26.646 45.4872 26.6785C45.59 26.8039 45.698 26.9339 45.8112 27.0592C45.9912 26.0657 47.1484 25.5876 47.6164 24.7101C47.651 24.6519 47.6638 24.5851 47.6529 24.5198C47.642 24.4544 47.608 24.394 47.5559 24.3475C47.5039 24.301 47.4366 24.271 47.364 24.2619C47.2915 24.2528 47.2177 24.2651 47.1535 24.297C46.4592 24.6498 46.0066 25.2533 45.3175 25.6108L45.8318 25.8708C45.8318 25.2255 47.169 23.8049 46.7061 23.2292C46.4541 22.9135 45.8678 23.2292 46.1249 23.5356" fill="black"/>
<path d="M50.7901 25.6943C50.1318 26.0704 49.3551 27.4306 50.7386 27.2171L50.3272 27.0035C50.4455 27.4306 50.1523 27.7834 50.3272 28.2152C50.406 28.3785 50.53 28.5208 50.6872 28.6284C51.0627 28.9116 51.0575 29.023 50.9238 29.5569C50.8261 29.9376 51.4741 30.1 51.5718 29.7147C51.6695 29.3294 51.8393 28.6005 51.3558 28.2941C50.9907 28.062 50.8724 27.8856 50.9804 27.5003C51.0447 27.2891 51.0447 27.0661 50.9804 26.855C50.9541 26.7794 50.897 26.7157 50.8205 26.6769C50.7441 26.6381 50.6541 26.6271 50.5689 26.646L50.6409 26.7389C50.6957 26.6426 50.765 26.5535 50.8467 26.4743C50.9252 26.38 51.0209 26.2984 51.1295 26.2329C51.4947 26.024 51.1604 25.4947 50.7952 25.7083" fill="black"/>
<path d="M47.8633 32.3888C47.8221 32.6998 47.4261 33.0202 47.3489 33.3498C47.3348 33.4011 47.3356 33.4548 47.3512 33.5058C47.3669 33.5567 47.3969 33.6031 47.4383 33.6405C47.4797 33.6779 47.5311 33.705 47.5876 33.7191C47.644 33.7332 47.7036 33.734 47.7604 33.7212C48.4856 33.6283 48.9742 33.2291 49.6016 32.9273L49.1439 32.5141C48.7222 33.0991 48.2901 33.5401 48.2541 34.2597C48.2555 34.3402 48.2918 34.4169 48.3554 34.4734C48.4189 34.5298 48.5044 34.5615 48.5936 34.5615C49.9154 34.5893 50.5531 33.3776 51.7463 33.0991L51.3657 32.6349C51.0829 33.1455 50.5994 33.5169 50.296 34.0276C50.2653 34.0681 50.246 34.1148 50.2398 34.1636C50.2336 34.2123 50.2407 34.2617 50.2605 34.3075C50.2803 34.3532 50.3121 34.3939 50.3532 34.4261C50.3944 34.4582 50.4436 34.4808 50.4965 34.4918C51.6897 34.645 52.5178 33.5401 53.5824 33.2476L53.2018 32.7834C52.8624 33.2848 52.3687 33.5494 52.3892 34.1761C52.3898 34.2228 52.4022 34.2687 52.4255 34.3104C52.4487 34.3521 52.4822 34.3884 52.5234 34.4166C52.5646 34.4448 52.6124 34.4642 52.6631 34.4732C52.7138 34.4822 52.7661 34.4806 52.8161 34.4686C53.4607 34.1847 54.0768 33.8507 54.6573 33.4705L54.143 33.127C54.0864 33.4334 53.9733 33.7165 53.9116 34.0276C53.8986 34.0792 53.9004 34.1329 53.9168 34.1837C53.9332 34.2345 53.9637 34.2807 54.0055 34.3179C54.0472 34.355 54.0987 34.382 54.1552 34.3962C54.2116 34.4104 54.2712 34.4114 54.3282 34.399C54.8111 34.2792 55.2758 34.1061 55.7117 33.8837L55.1974 33.6237C55.1641 33.777 55.1641 33.9346 55.1974 34.0879C55.2 34.168 55.2368 34.2441 55.3 34.3003C55.3632 34.3565 55.4481 34.3885 55.5368 34.3897H55.6911C55.7798 34.3897 55.8648 34.3579 55.9275 34.3013C55.9902 34.2447 56.0254 34.168 56.0254 34.0879C56.0254 34.0079 55.9902 33.9312 55.9275 33.8746C55.8648 33.818 55.7798 33.7862 55.6911 33.7862H55.5368C55.65 33.8837 55.758 33.9858 55.8711 34.0879C55.8378 33.9346 55.8378 33.777 55.8711 33.6237C55.902 33.3683 55.5728 33.2802 55.3568 33.3591C54.9709 33.5576 54.5599 33.7135 54.1327 33.8233L54.5442 34.1947C54.6059 33.8883 54.7191 33.6051 54.7756 33.2987C54.7961 33.2382 54.7953 33.1734 54.7733 33.1133C54.7513 33.0531 54.7093 33.0007 54.6529 32.963C54.5965 32.9253 54.5286 32.9044 54.4585 32.903C54.3884 32.9016 54.3195 32.9198 54.2613 32.9552C53.731 33.3073 53.1684 33.6179 52.5795 33.8837L53.0064 34.1761C53.0064 33.8047 53.5207 33.4008 53.7264 33.0852C53.7656 33.0327 53.7858 32.9705 53.7843 32.9072C53.7827 32.8439 53.7595 32.7826 53.7178 32.7317C53.676 32.6808 53.6179 32.6429 53.5513 32.623C53.4847 32.6032 53.4129 32.6024 53.3458 32.6209C52.5127 32.8484 51.4789 33.9765 50.6097 33.8651C50.6817 34.0137 50.7434 34.1622 50.8103 34.3293C51.124 33.828 51.6023 33.4612 51.8852 32.9366C51.9244 32.8841 51.9446 32.8219 51.943 32.7586C51.9415 32.6953 51.9182 32.6341 51.8765 32.5832C51.8348 32.5323 51.7766 32.4943 51.71 32.4745C51.6434 32.4546 51.5717 32.4539 51.5046 32.4724C50.4143 32.7277 49.6788 33.9347 48.5319 33.9115L48.8662 34.2179C48.8919 33.633 49.3342 33.2337 49.6634 32.7788C49.8536 32.5095 49.4885 32.2263 49.2005 32.3609C48.6347 32.6348 48.1719 33.0109 47.5187 33.0945L47.9353 33.4658C48.0536 33.0016 48.4239 32.8066 48.4804 32.347C48.5319 31.9617 47.8581 31.9663 47.8118 32.347" fill="black"/>
<path d="M39.3773 14.9842C39.5437 15.164 39.6869 15.3602 39.8042 15.5691C39.9534 15.8477 40.118 16.2191 40.118 16.2191L40.478 16.818L37.855 16.9805L38.3693 16.3026C38.3693 16.3026 38.5236 16.0102 38.7448 15.6852C38.9296 15.4334 39.1415 15.1986 39.3773 14.9842ZM41.6969 17.2265L40.9666 16.0102C40.8605 15.7274 40.7227 15.4551 40.5551 15.1977C40.2825 14.7985 39.7734 14.0325 39.7734 14.0325C39.5444 13.9892 39.308 13.9892 39.0791 14.0325C38.8939 14.1114 38.5647 14.8496 38.3487 15.1003C38.2407 15.2349 37.9013 15.5645 37.9013 15.5645L37.6595 16.0287C37.6595 16.0287 36.6823 16.9572 36.6309 17.2451C36.5795 17.5329 36.9909 17.8347 36.9909 17.8347C36.9909 17.8347 41.2083 17.5515 41.5323 17.5515C41.8563 17.5515 41.6969 17.2544 41.6969 17.2544" fill="black"/>
<path d="M22.9501 34.4361L22.549 34.4779V34.1715L22.9964 34.1158L22.9501 34.4361ZM22.6055 35.1835L22.5695 34.7471L22.9244 34.71L22.8884 35.1742L22.6055 35.1835ZM21.7415 34.8353L22.2558 34.7796L22.2918 35.2114L21.8289 35.2578L21.7415 34.8353ZM21.15 34.3107L21.4638 35.5317C21.476 35.5788 21.5067 35.6202 21.5502 35.6484C21.5937 35.6766 21.6471 35.6896 21.7004 35.6849L23.1199 35.5456C23.171 35.5394 23.2183 35.5176 23.2538 35.4839C23.2894 35.4501 23.3111 35.4064 23.3153 35.3599L23.4387 33.9069C23.4414 33.8777 23.4368 33.8484 23.4252 33.8211C23.4137 33.7937 23.3954 33.7691 23.3719 33.749C23.3468 33.7289 23.3175 33.7135 23.2857 33.7039C23.2538 33.6944 23.2202 33.6907 23.1867 33.6933L21.3043 33.9301C21.2464 33.937 21.194 33.9643 21.1583 34.0061C21.1227 34.0478 21.1067 34.1006 21.114 34.1529C21.1188 34.1807 21.1293 34.2075 21.1449 34.2318C21.1373 34.2577 21.1373 34.2849 21.1449 34.3107" fill="black"/>
<path d="M17.2309 29.7193L17.3338 30.295L16.7012 30.3461C16.7105 30.2079 16.764 30.0751 16.8553 29.9638C16.9466 29.8526 17.0717 29.7676 17.2155 29.7193H17.2309ZM18.2441 30.2161L17.6321 30.2672L17.5292 29.6776C17.6964 29.687 17.8558 29.7443 17.9844 29.8411C18.113 29.938 18.2039 30.0693 18.2441 30.2161ZM17.7812 31.061L17.6887 30.5503L18.2595 30.5039C18.2404 30.6263 18.1862 30.7421 18.1023 30.8398C18.0185 30.9375 17.9078 31.0138 17.7812 31.061ZM16.7218 30.6339L17.3646 30.5782L17.4624 31.1167C17.3011 31.1172 17.1436 31.0729 17.0111 30.9899C16.8786 30.9068 16.7776 30.789 16.7218 30.6525V30.6339ZM17.4726 31.581C17.8005 31.5801 18.1153 31.4653 18.3519 31.2604C18.5884 31.0555 18.7285 30.7763 18.743 30.4807C18.7708 30.4675 18.7938 30.4473 18.8093 30.4226C18.8248 30.3979 18.8321 30.3698 18.8304 30.3414C18.8288 30.3143 18.8181 30.2882 18.7997 30.2667C18.7814 30.2452 18.7562 30.2291 18.7276 30.2207C18.6836 30.0056 18.5726 29.8063 18.4077 29.646C18.2428 29.4857 18.0306 29.3712 17.7962 29.3158C17.5617 29.2604 17.3147 29.2665 17.0839 29.3333C16.8531 29.4 16.6482 29.5248 16.4931 29.6929C16.338 29.861 16.2392 30.0655 16.2082 30.2824C16.1772 30.4994 16.2154 30.7198 16.3181 30.9179C16.4209 31.116 16.5841 31.2836 16.7885 31.401C16.993 31.5185 17.2303 31.5809 17.4726 31.581Z" fill="black"/>
<path d="M24.7451 33.9486L24.9046 35.2299L29.3225 35.3738L29.2454 34.3804L24.7451 33.9486Z" fill="black"/>
<path d="M33.1487 33.8744L32.8658 32.7648L32.7733 32.607L31.1634 30.9218L30.6491 30.8336L28.2267 32.0128L26.9358 30.8104L26.4215 30.7593L24.4517 31.957L22.667 30.5643H22.0961L20.6303 31.9245C20.6303 31.8828 20.6303 31.8456 20.6303 31.8131C20.6303 31.7064 20.6303 31.4417 20.6303 31.0936C20.6046 30.2161 20.5634 28.8327 20.548 28.4102L20.6509 28.5727C20.7049 28.6593 20.7948 28.7231 20.9008 28.7501C21.0069 28.777 21.1204 28.765 21.2166 28.7166C21.3116 28.667 21.3814 28.5858 21.4111 28.4905C21.4409 28.3951 21.4283 28.2931 21.376 28.2059C21.376 28.2059 20.9183 27.4771 20.4349 26.7343C20.1931 26.3629 19.9463 25.9869 19.7405 25.699C19.6377 25.5505 19.5502 25.4251 19.4731 25.3276L19.3599 25.1976L19.2982 25.1326C19.2603 25.1025 19.2189 25.076 19.1748 25.0537C19.0659 25.0064 18.9458 24.9841 18.8251 24.9887C18.7268 24.9893 18.6288 24.9971 18.5319 25.0119C18.5319 24.9748 18.5319 24.933 18.5319 24.8866C18.5628 24.5291 18.6193 23.8931 18.6862 23.1875C21.0404 24.3248 23.6592 24.9436 26.3289 24.9934L26.2055 25.2766C26.2055 25.2766 26.1592 25.4483 26.3238 25.4483C26.4883 25.4483 26.4266 25.3973 26.4112 25.3648C26.4286 25.3911 26.4536 25.4128 26.4834 25.4274C26.5133 25.4421 26.5469 25.4494 26.5809 25.4483L26.6272 25.3415C26.6272 25.3415 26.6992 25.5087 26.8638 25.4669L26.7558 25.0027C27.4888 24.9969 28.2206 24.9489 28.9468 24.8587C28.9351 24.8727 28.9273 24.8889 28.9239 24.906C28.9205 24.9232 28.9216 24.9408 28.9271 24.9575C28.9326 24.9742 28.9423 24.9895 28.9556 25.0022C28.9688 25.0149 28.9852 25.0246 29.0033 25.0305C29.1113 25.0677 29.1216 25.0305 29.1165 24.9794C29.1232 25.0093 29.138 25.0372 29.1596 25.0607C29.1811 25.0842 29.2087 25.1025 29.2399 25.1141L29.3325 25.0305C29.3325 25.0305 29.3325 25.2116 29.4971 25.2301L29.5948 24.7659C30.7266 24.588 31.8385 24.3192 32.9173 23.9627L33.267 33.7444C33.2718 33.7917 33.2915 33.8368 33.3236 33.8744H33.1487ZM31.9966 32.9459L20.9337 32.8066C20.8967 32.7973 20.8576 32.7973 20.8206 32.8066L22.4047 31.335L24.1328 32.6952L24.6471 32.7231L26.5912 31.5392L27.8564 32.7184L28.3707 32.7881L30.7777 31.6182L32.0275 32.9273L31.9966 32.9459ZM20.044 27.9181H19.9411C19.9051 27.8578 19.864 27.7742 19.8177 27.6813L19.1285 26.4511L18.8816 25.9497L19.1954 26.414C19.4885 26.855 20.1211 27.8392 20.1211 27.8392L20.044 27.9181ZM15.1014 32.2635C15.1118 32.2144 15.1118 32.164 15.1014 32.1149C15.0528 31.7311 15.0271 31.3452 15.0243 30.9589C15.0243 30.5365 14.9883 29.7705 14.9523 29.1019C14.9523 28.9998 14.9523 28.907 14.9523 28.8095C15.2034 28.757 15.4609 28.7336 15.7186 28.7398H16.0529C16.5364 28.763 16.9221 28.763 17.2718 28.763C17.6216 28.763 17.9353 28.763 18.3005 28.7863H18.5885C18.9407 28.792 19.2929 28.7765 19.6428 28.7398H19.7045V28.8095C19.7045 29.2737 19.7405 29.9422 19.7611 30.5504C19.7611 30.8521 19.7611 31.1353 19.7611 31.3628C19.7611 31.5903 19.7611 31.7574 19.7611 31.8271C19.7611 31.8967 19.7611 32.0824 19.7611 32.2495L15.1014 32.2635ZM14.9008 27.8856V27.2728C14.9008 26.9803 14.9008 26.4418 14.87 25.9358H15.0448L15.1374 28.0435L14.9111 28.0713C14.9111 27.9878 14.9111 27.9274 14.9111 27.9042L14.9008 27.8856ZM16.1712 28.0249H16.1095H15.7289H15.5283L15.4306 25.9172H15.7186H15.8575L16.1043 27.9645C16.1091 27.9909 16.1196 28.0161 16.1352 28.0388L16.1712 28.0249ZM14.8083 24.9423C14.9001 24.9534 14.9934 24.9388 15.0757 24.9005C15.1237 24.8767 15.166 24.8447 15.2002 24.8061C15.2344 24.7676 15.2599 24.7234 15.2752 24.676C15.2905 24.6285 15.2952 24.5789 15.2893 24.5298C15.2833 24.4807 15.2666 24.4331 15.2403 24.3898V24.362C15.1991 24.297 15.1014 24.1299 15.0037 23.9535L14.8751 23.7028C14.8391 23.6238 14.8134 23.5588 14.8083 23.5403C14.7872 23.4696 14.7579 23.4011 14.7208 23.336L15.1014 20.9127C16.0233 21.7059 17.0513 22.3921 18.1616 22.9553L18.2953 23.0203C18.2542 23.4846 18.2182 23.9117 18.1822 24.2691C18.1822 24.5338 18.141 24.7566 18.1256 24.9191C18.1256 24.998 18.1256 25.0584 18.1256 25.1048C17.9844 25.1261 17.8418 25.1385 17.6987 25.1419C17.1844 25.1419 16.7781 25.2023 16.4026 25.1976C16.3118 25.2024 16.2208 25.2024 16.13 25.1976C16.0066 25.1976 15.8832 25.1976 15.7546 25.1976C15.4538 25.2002 15.1533 25.2172 14.8546 25.2487C14.8546 25.1373 14.8546 25.0444 14.8546 24.9748L14.8083 24.9423ZM17.1741 26.1308C17.1741 26.0565 17.1741 25.9915 17.1741 25.9404C17.3284 25.9404 17.4827 25.9172 17.637 25.9172C17.6419 25.9626 17.6505 26.0076 17.6627 26.0518C17.7296 26.3443 17.889 26.8689 18.0382 27.3285C18.1513 27.6813 18.2542 27.9877 18.2953 28.1131C18.0639 28.1131 17.8427 28.1131 17.6267 28.1131C17.6267 28.1131 17.5958 27.9924 17.5547 27.8067C17.4878 27.5235 17.385 27.0918 17.3027 26.7018C17.2667 26.5068 17.2255 26.3165 17.1998 26.1679L17.1741 26.1308ZM16.3512 26.0054H16.4386H16.7575C16.7553 26.0301 16.7553 26.055 16.7575 26.0797C16.8038 26.3954 16.9169 26.92 17.0198 27.3749C17.0918 27.7138 17.1638 28.011 17.1947 28.1363H16.5415C16.5574 28.1182 16.5688 28.0972 16.575 28.0748C16.5812 28.0524 16.5821 28.0291 16.5775 28.0063L16.3512 26.0054ZM18.4496 25.8847C18.537 26.0797 18.8405 26.6879 19.1285 27.2496C19.2982 27.5792 19.4525 27.8949 19.5554 28.0945C19.2807 28.1273 19.0043 28.1474 18.7273 28.1549C18.7299 28.1348 18.7299 28.1146 18.7273 28.0945C18.7273 28.0945 18.6862 27.9692 18.6193 27.7788C18.5268 27.4864 18.3827 27.05 18.2645 26.66C18.2079 26.465 18.1513 26.2793 18.1153 26.1354C18.0967 26.0761 18.0829 26.0155 18.0742 25.9544C18.0717 25.9468 18.0717 25.9387 18.0742 25.9311L18.4702 25.8801L18.4496 25.8847ZM56.5757 34.6497L56.0048 32.4213L55.5522 32.1938L54.0761 32.6302L53.0732 31.8039H52.6258L51.7411 32.4074L50.8565 31.841H50.4451L49.6222 32.4027L48.6758 31.7946L48.2181 31.8364L47.2563 32.7416L47.1586 32.9691C47.1586 32.9691 47.1586 33.4333 47.1895 33.9719L46.3923 34.0369C46.3666 33.893 46.3306 33.7073 46.2894 33.4844C46.0683 32.2217 45.6774 29.8076 45.3328 27.7139C45.1631 26.6647 45.0036 25.6944 44.8853 24.9841C44.8442 24.7566 44.8133 24.557 44.7825 24.3852L44.9059 24.362H44.9882C45.5754 24.26 46.1558 24.1282 46.7266 23.9674L47.5341 23.7863L47.6112 28.4752L47.9866 28.8466L49.7816 28.9998L50.2342 28.6238V25.7919L51.3657 26.0565L51.2886 28.6934L51.7 29.0787H54.2716L54.6162 31.5253C54.6243 31.5738 54.643 31.6203 54.6713 31.6621C54.6997 31.7038 54.737 31.7401 54.7811 31.7687C54.8252 31.7972 54.8752 31.8175 54.9281 31.8284C54.9811 31.8392 55.0359 31.8403 55.0893 31.8317C55.1432 31.8244 55.1949 31.8074 55.2414 31.7819C55.2879 31.7564 55.3284 31.7228 55.3605 31.6831C55.3925 31.6434 55.4155 31.5983 55.4281 31.5505C55.4407 31.5027 55.4427 31.4531 55.4339 31.4046L54.9196 28.5448L54.5082 28.2292H52.0446L52.1115 26.0426L52.5641 26.1354L52.132 23.0435L49.9102 24.6452V19.5385H52.4818L51.088 18.8189L52.4818 18.0993H49.9102V17.9879C49.9089 17.9542 49.8931 17.9223 49.8662 17.899C49.8394 17.8756 49.8035 17.8625 49.7662 17.8626C49.7294 17.8626 49.694 17.8758 49.668 17.8993C49.642 17.9228 49.6273 17.9547 49.6273 17.9879V24.8216L48.8507 25.439L49.3239 25.5551V28.1224L48.3518 28.0388L48.2798 23.5171L48.6244 23.4381L48.1101 21.9711L45.8883 21.2748L43.1521 23.206L43.8156 24.0834C43.8156 24.2181 43.8773 24.4223 43.9236 24.6777C44.1293 25.8708 44.5048 28.2059 44.8442 30.2904C45.0139 31.3303 45.1785 32.3099 45.3071 33.0527C45.3688 33.4241 45.4254 33.7351 45.4717 33.9812C45.4717 33.9812 45.4717 34.0137 45.4717 34.0322L44.0676 34.139L43.3835 25.9544L43.2035 25.6758L41.9229 24.8819L42.3549 22.4122L42.2623 22.115L41.2697 21.0241C41.2697 21.0241 41.568 18.6193 41.568 18.2618C41.568 17.9043 41.1257 17.8486 41.1257 17.8486L37.5255 18.0622C37.4196 18.081 37.3238 18.1316 37.2538 18.2058C37.1837 18.2799 37.1435 18.3733 37.1398 18.4707C37.1398 18.8096 37.4329 21.3444 37.4329 21.3444L36.1729 22.3565L36.034 22.5979L35.7408 25.1884L34.3162 25.9544L34.1156 26.2793L34.1876 33.8651H33.7144C33.7456 33.8277 33.7619 33.7819 33.7607 33.7351L33.2876 20.4948V20.467C33.2317 20.1615 33.1241 19.8656 32.9687 19.5896C32.8278 19.3265 32.644 19.0839 32.4235 18.87C32.1577 18.6167 31.8326 18.42 31.472 18.2943H31.4463C31.1205 18.0258 30.7112 17.854 30.2737 17.8022C30.0564 17.7767 29.836 17.819 29.6489 17.922C29.4619 18.025 29.3194 18.1825 29.2451 18.3686C29.2571 18.6046 29.3719 18.8268 29.5646 18.9868C29.7572 19.1468 30.0121 19.2316 30.2737 19.2228C30.4909 19.2427 30.7101 19.2101 30.9089 19.1286C31.1077 19.047 31.2789 18.9193 31.4052 18.7585C31.6461 18.861 31.864 19.0027 32.0481 19.1764C32.3134 19.4328 32.5166 19.7364 32.6447 20.0677C32.6961 20.2024 32.7321 20.3184 32.7527 20.3973V20.4902L32.8658 23.6888C31.8506 24.0315 30.8043 24.294 29.7388 24.4734C29.8597 24.3339 29.9537 24.177 30.0165 24.0092C30.0515 24.0066 30.0852 23.9963 30.1147 23.9793C30.1443 23.9624 30.1688 23.9391 30.1863 23.9117H30.4434L30.2171 23.8049C30.2136 23.7444 30.1903 23.6863 30.1502 23.6378C30.1131 23.6053 30.0648 23.5853 30.0133 23.5811C29.9619 23.5769 29.9104 23.5887 29.8674 23.6146C29.8331 23.5996 29.7968 23.5887 29.7594 23.5821H29.6976C29.1833 23.531 29.2451 24.5106 29.2451 24.5106L29.1885 24.5616C28.3869 24.675 27.5773 24.7355 26.7661 24.7427C26.8586 24.4409 26.9821 23.8606 26.5449 23.842C26.4929 23.8328 26.4392 23.8344 26.3879 23.8467C26.3366 23.859 26.2891 23.8817 26.249 23.913C26.2088 23.9443 26.1771 23.9834 26.1562 24.0274C26.1353 24.0715 26.1258 24.1192 26.1283 24.167L25.8146 24.3666H26.1489C26.1771 24.4886 26.2167 24.6082 26.2672 24.7241C25.2069 24.707 24.151 24.5966 23.1144 24.3945C23.2938 24.3736 23.4678 24.3249 23.6287 24.2506C23.7882 24.2088 23.9373 24.1252 23.9219 23.9674L23.7162 24.037C23.7162 24.037 23.9785 23.8653 23.8036 23.8235C23.6287 23.7817 23.5825 23.9627 23.5825 23.9627C23.5825 23.9627 23.6442 23.7399 23.5002 23.777C23.3562 23.8142 23.3562 23.8885 23.2842 23.9535C23.1953 23.7114 23.087 23.4756 22.9601 23.2478C22.9391 23.2052 22.9048 23.169 22.8615 23.1436C22.8181 23.1182 22.7675 23.1046 22.7158 23.1046C22.6642 23.1046 22.6136 23.1182 22.5702 23.1436C22.5268 23.169 22.4926 23.2052 22.4715 23.2478C22.4715 23.2478 22.3378 23.3732 22.2967 23.4196C22.3687 23.4196 22.5333 23.3731 22.5847 23.4706C22.6927 23.661 22.3275 23.8281 22.6207 24.2088C22.6503 24.2494 22.6888 24.2842 22.7338 24.3109C21.3147 24.0087 19.9453 23.5405 18.6605 22.9182C18.6913 22.57 18.7222 22.2033 18.7582 21.8551L19.4011 21.7947C19.4282 21.7924 19.4544 21.7853 19.4784 21.7737C19.5024 21.7622 19.5236 21.7464 19.5409 21.7274C19.5581 21.7084 19.571 21.6866 19.5787 21.663C19.5865 21.6395 19.5891 21.6149 19.5862 21.5904C19.5798 21.5407 19.5519 21.4953 19.5085 21.464C19.4652 21.4327 19.41 21.4181 19.3548 21.4233L18.7891 21.4744V21.3769L19.3342 21.3258C19.3613 21.3235 19.3876 21.3164 19.4116 21.3048C19.4356 21.2933 19.4568 21.2776 19.474 21.2586C19.4912 21.2396 19.5041 21.2177 19.5119 21.1942C19.5197 21.1706 19.5222 21.146 19.5194 21.1216C19.5175 21.0969 19.5101 21.0728 19.4975 21.0508C19.4849 21.0289 19.4675 21.0095 19.4463 20.9938C19.4251 20.9781 19.4005 20.9666 19.3742 20.9598C19.3479 20.953 19.3202 20.9512 19.2931 20.9544L18.8251 20.9962C18.8251 20.908 18.8251 20.8244 18.8251 20.7455L20.2703 20.4809C20.3202 20.467 20.3627 20.4369 20.3895 20.3964C20.4162 20.3559 20.4254 20.3079 20.4151 20.2616C20.4049 20.2154 20.376 20.1742 20.334 20.1461C20.292 20.118 20.24 20.105 20.188 20.1095L18.8611 20.3556C18.8611 20.3231 18.8611 20.2952 18.8611 20.2673C18.8971 19.8635 18.9176 19.6081 18.9176 19.6081C18.92 19.5837 18.917 19.5592 18.9089 19.5358C18.9007 19.5125 18.8875 19.4908 18.8701 19.472C18.8527 19.4533 18.8313 19.4378 18.8073 19.4265C18.7832 19.4152 18.7569 19.4083 18.7299 19.4062C18.7029 19.404 18.6757 19.4067 18.6498 19.4141C18.6239 19.4214 18.5999 19.4333 18.5792 19.4491C18.5584 19.4648 18.5413 19.4841 18.5287 19.5058C18.5162 19.5275 18.5085 19.5512 18.5062 19.5756L18.429 20.4345L17.6318 20.5784C17.5774 20.5885 17.5296 20.6175 17.4988 20.6593C17.468 20.701 17.4566 20.752 17.4673 20.8012C17.4728 20.8254 17.4835 20.8484 17.499 20.8688C17.5144 20.8892 17.5342 20.9066 17.5572 20.92C17.5802 20.9334 17.6059 20.9425 17.6329 20.9469C17.6598 20.9512 17.6874 20.9506 17.7141 20.9451L18.393 20.8198C18.393 20.8894 18.393 20.9637 18.393 21.0333L17.7759 21.0937C17.7213 21.0986 17.6711 21.1229 17.6364 21.1612C17.6017 21.1995 17.5852 21.2487 17.5907 21.298C17.5962 21.3472 17.6231 21.3925 17.6655 21.4238C17.7079 21.4552 17.7624 21.47 17.817 21.4651L18.357 21.414C18.357 21.4465 18.357 21.479 18.357 21.5115L17.8427 21.5626C17.8156 21.5649 17.7894 21.5721 17.7654 21.5836C17.7414 21.5952 17.7202 21.6109 17.7029 21.6299C17.6857 21.6489 17.6728 21.6708 17.6651 21.6943C17.6573 21.7178 17.6547 21.7425 17.6576 21.7669C17.664 21.8166 17.6919 21.862 17.7353 21.8933C17.7786 21.9246 17.8338 21.9392 17.889 21.934L18.3313 21.8922C18.3313 22.0315 18.3313 22.1708 18.2953 22.31C18.2593 22.4493 18.2696 22.5839 18.2542 22.7232C18.2457 22.7212 18.2369 22.7212 18.2285 22.7232C17.4342 22.3165 16.6789 21.8507 15.9706 21.3305C15.7135 21.1355 15.518 20.9776 15.3843 20.8662L15.2351 20.7362L15.1991 20.7037C15.1854 20.6893 15.1677 20.6784 15.1479 20.6719C15.1281 20.6654 15.1068 20.6635 15.086 20.6666C15.1188 20.4651 15.1377 20.262 15.1426 20.0584C15.1504 19.9828 15.1504 19.9066 15.1426 19.831C15.1328 19.7912 15.119 19.7524 15.1014 19.7149C15.0787 19.6611 15.0372 19.6155 14.9831 19.5849L14.7877 19.4549L14.3505 19.1532L14.1139 18.986L13.7436 19.0696C13.5596 19.4625 13.415 19.8696 13.3116 20.2859L13.1933 20.9034C13.0287 20.6387 12.8436 20.3648 12.679 20.0677C12.5423 19.8425 12.4336 19.6043 12.355 19.3574C12.319 19.2599 12.2881 19.1624 12.2367 19.051C12.18 18.9325 12.1111 18.8191 12.031 18.7121C11.9299 18.5824 11.8371 18.4476 11.7532 18.3082C11.5989 18.0575 11.4344 17.7651 11.3058 17.5376L11.1566 17.2544L11.0949 17.1476C11.0949 17.1476 10.6732 16.7066 10.3492 17.1476C10.0251 17.5886 9.95828 17.8254 9.61369 18.2943C9.2001 18.8448 8.85514 19.4349 8.58507 20.0538C8.45228 20.3187 8.27917 20.5656 8.07075 20.7873C7.78612 21.0905 7.52817 21.4134 7.29928 21.7529C7.05241 22.1336 6.92897 22.3379 6.78497 22.5189C6.62951 22.7619 6.45775 22.9959 6.27065 23.2199C6.07431 23.4577 5.90217 23.711 5.75634 23.9767C5.69091 24.0802 5.65387 24.1964 5.64833 24.3156C5.63946 24.4141 5.67431 24.5117 5.7452 24.587C5.8161 24.6623 5.91723 24.7091 6.02635 24.7171C6.13547 24.7251 6.24365 24.6937 6.32709 24.6297C6.41052 24.5657 6.46237 24.4744 6.47123 24.3759C6.58939 24.117 6.75069 23.8759 6.94955 23.661C7.23242 23.3128 7.37643 23.1132 7.51529 22.9089C7.65416 22.7046 7.77245 22.5004 8.02961 22.129C8.23905 21.8217 8.47282 21.5284 8.72907 21.2515C8.99301 20.9724 9.20966 20.6595 9.37197 20.3231C9.61281 19.7527 9.92514 19.2091 10.3029 18.7028C10.4469 18.5032 10.5806 18.3036 10.6989 18.1225C10.8018 18.2989 10.9149 18.4939 11.0229 18.6703C11.1222 18.8299 11.2303 18.9849 11.3469 19.1346C11.393 19.1945 11.4326 19.2582 11.4652 19.3249C11.5064 19.4224 11.5475 19.5478 11.6144 19.7288C11.6977 19.9659 11.808 20.1946 11.9435 20.4113C12.1544 20.7641 12.3653 21.0798 12.5453 21.363C12.7041 21.6019 12.8417 21.8518 12.9567 22.1104C13.031 22.28 13.1223 22.4432 13.2293 22.5979C13.3888 22.8485 13.5791 23.1039 13.7436 23.3174C13.8208 23.4242 13.8825 23.5171 13.9288 23.5913C13.9478 23.6198 13.965 23.6493 13.9802 23.6796V23.7028C14.013 23.8075 14.0543 23.9099 14.1037 24.0092C14.1654 24.1345 14.2374 24.2691 14.3042 24.3852L13.9391 24.3388C13.6408 24.3109 13.2653 24.2738 12.9104 24.2738H12.4373C10.8943 24.3341 6.44552 24.5755 6.44552 24.5755C6.38733 24.5787 6.33054 24.5929 6.27881 24.6172C6.22708 24.6414 6.18156 24.6752 6.14521 24.7164C6.10885 24.7575 6.08246 24.8051 6.06775 24.856C6.05303 24.9069 6.05032 24.96 6.05978 25.0119C6.0611 25.0274 6.0611 25.0429 6.05978 25.0584C6.10093 25.2812 6.26551 26.2608 6.32209 27.2218C6.39409 28.3499 6.46095 29.1066 6.53295 29.6219C6.56381 29.8587 6.62038 30.36 6.68725 31.0146C6.75411 31.6692 6.84669 32.4399 6.94955 33.2569C7.05241 34.074 7.13985 34.5568 7.22214 34.9468C7.30443 35.3368 7.36614 35.6199 7.433 36.0749C7.49986 36.5299 7.53587 36.9431 7.5513 37.2402C7.5513 37.3887 7.5513 37.5094 7.5513 37.5884V37.7137C7.5513 37.8134 7.59519 37.9091 7.67332 37.9796C7.75144 38.0501 7.8574 38.0897 7.96789 38.0897C8.07838 38.0897 8.18434 38.0501 8.26247 37.9796C8.34059 37.9091 8.38448 37.8134 8.38448 37.7137C8.37552 37.1328 8.32743 36.553 8.24048 35.9774C8.16847 35.5132 8.09647 35.1882 8.02447 34.8075C7.95246 34.4268 7.85988 33.9765 7.75702 33.1687C7.65416 32.361 7.57187 31.581 7.49986 30.9403C7.42786 30.2997 7.37643 29.8029 7.34043 29.5476C7.27357 29.0602 7.2067 28.3174 7.1347 27.1985C7.09355 26.4697 6.99069 25.7501 6.92383 25.3183H7.38671L10.596 25.1512L12.0773 25.0816H12.5916C12.7304 25.0816 12.8333 25.0816 12.8796 25.0816C13.1841 25.0853 13.4881 25.1055 13.7899 25.1419H13.9288C13.9288 25.699 13.9854 26.8643 13.9854 27.3192V27.9645C13.9854 27.9645 13.9854 28.1038 14.0111 28.3266C14.0111 28.6609 14.0574 29.1855 14.0831 29.6962C14.1088 30.2068 14.1242 30.7129 14.1242 31.0054C14.1276 31.4165 14.1551 31.8271 14.2065 32.2356C14.2106 32.2724 14.221 32.3084 14.2374 32.3424L14.1705 32.3702L9.80399 34.775C9.73797 34.8147 9.68499 34.8697 9.65061 34.9342C9.61623 34.9988 9.6017 35.0704 9.60855 35.1418L9.87085 37.203C9.89349 37.2933 9.95221 37.3728 10.0358 37.4265C10.1193 37.4801 10.2219 37.504 10.3237 37.4937C10.4256 37.4833 10.5197 37.4394 10.588 37.3704C10.6562 37.3013 10.6939 37.212 10.6938 37.1195L10.4675 35.295L10.6938 35.165L19.8537 34.2644C19.8537 34.4176 19.8794 34.5615 19.8897 34.6915C19.9205 34.9468 19.9411 35.1557 19.9411 35.2857C19.9411 35.3854 19.985 35.4811 20.0631 35.5516C20.1413 35.6221 20.2472 35.6617 20.3577 35.6617C20.4682 35.6617 20.5742 35.6221 20.6523 35.5516C20.7304 35.4811 20.7743 35.3854 20.7743 35.2857C20.7743 35.0861 20.7434 34.8725 20.7177 34.6218C20.692 34.3711 20.6714 34.0972 20.6714 33.7862C20.6714 33.6098 20.6714 33.4101 20.6714 33.2152C20.6968 33.2586 20.7344 33.2952 20.7805 33.3213C20.8265 33.3474 20.8794 33.362 20.9337 33.3637L31.9966 33.503C32.0699 33.5035 32.141 33.4805 32.1972 33.438L32.4287 34.3386L32.8453 34.6265L34.4808 34.58C34.5254 34.5944 34.5723 34.6023 34.6196 34.6033C34.7301 34.6033 34.8361 34.5636 34.9142 34.4931C34.9923 34.4226 35.0362 34.327 35.0362 34.2272L34.9591 26.465L36.3323 25.7222L36.5329 25.439L36.8312 22.8068L38.1273 21.7669L38.2661 21.4512L37.9884 18.7725L40.704 18.6146L40.4365 21.0937L40.5291 21.3676L41.5114 22.4493L41.0691 24.9887L41.244 25.3555L42.5812 26.1772L43.2755 34.5336C43.2872 34.6317 43.3402 34.722 43.4234 34.7859C43.5066 34.8498 43.6139 34.8825 43.723 34.8772C44.1344 34.8772 47.1226 34.6172 47.1226 34.6172C47.1226 34.6172 47.1226 34.7565 47.1226 34.8215C47.1226 35.0582 47.1226 35.2393 47.1226 35.2857C47.1226 35.3694 47.1595 35.4497 47.2251 35.5089C47.2906 35.5681 47.3796 35.6014 47.4723 35.6014C47.5651 35.6014 47.654 35.5681 47.7196 35.5089C47.7852 35.4497 47.8221 35.3694 47.8221 35.2857C47.8221 35.2253 47.8221 35.0489 47.8221 34.8215C47.8221 34.594 47.8221 34.4315 47.8221 34.2133C47.8221 33.749 47.7912 33.2337 47.7861 33.0016L48.4392 32.3888L49.3033 32.9459L49.2467 35.2671C49.246 35.2958 49.2516 35.3243 49.2631 35.351C49.2747 35.3777 49.2919 35.4021 49.3139 35.4228C49.3358 35.4435 49.3621 35.4601 49.3912 35.4716C49.4203 35.4831 49.4516 35.4894 49.4833 35.49C49.5148 35.4906 49.5461 35.4855 49.5754 35.4751C49.6047 35.4646 49.6314 35.449 49.6539 35.4291C49.6764 35.4092 49.6943 35.3854 49.7065 35.3592C49.7188 35.333 49.725 35.3048 49.725 35.2764L49.7867 32.9552L50.5839 32.4074L51.4634 32.9737H51.5303L51.4737 35.2532C51.4687 35.2842 51.4711 35.3158 51.4808 35.3459C51.4905 35.376 51.5072 35.4038 51.5299 35.4276C51.5526 35.4513 51.5807 35.4703 51.6123 35.4834C51.6438 35.4964 51.6782 35.5031 51.7129 35.5031C51.7476 35.5031 51.7819 35.4964 51.8135 35.4834C51.845 35.4703 51.8731 35.4513 51.8958 35.4276C51.9185 35.4038 51.9353 35.376 51.945 35.3459C51.9547 35.3158 51.9571 35.2842 51.952 35.2532L52.0137 32.8716L52.7389 32.3749L53.5875 33.0712L53.5258 35.5503C53.5251 35.579 53.5307 35.6075 53.5422 35.6342C53.5538 35.6609 53.571 35.6853 53.593 35.706C53.6149 35.7267 53.6412 35.7432 53.6703 35.7548C53.6994 35.7663 53.7307 35.7725 53.7624 35.7731C53.7936 35.7744 53.8248 35.7699 53.8541 35.76C53.8834 35.7501 53.9102 35.7349 53.9327 35.7153C53.9553 35.6958 53.9733 35.6724 53.9856 35.6464C53.9978 35.6204 54.0042 35.5925 54.0041 35.5642L54.0658 33.2012L55.3259 32.8252L55.8402 34.7193C55.8505 34.7593 55.8695 34.7971 55.896 34.8305C55.9226 34.8639 55.9562 34.8922 55.9949 34.9138C56.0336 34.9354 56.0767 34.9498 56.1217 34.9563C56.1667 34.9627 56.2126 34.9611 56.2568 34.9514C56.3018 34.9426 56.3443 34.9259 56.3821 34.9023C56.4199 34.8786 56.4521 34.8484 56.4769 34.8135C56.5018 34.7785 56.5187 34.7395 56.5269 34.6987C56.535 34.6578 56.5341 34.6159 56.5243 34.5754" fill="black"/>
</svg>
