<svg width="64" height="64" viewBox="0 0 64 64" xmlns="http://www.w3.org/2000/svg">
    <!-- Біле коло як фон -->
  <circle cx="32" cy="32" r="32" fill="white"/>
  
  <!-- Вставлений другий SVG, центрований у межах кола -->
  <g transform="translate(5, 15)">
<path d="M34.5214 4.56814C34.0485 4.77597 33.6322 5.0756 33.3025 5.44558C33.258 5.49966 33.2345 5.56545 33.2357 5.6328C33.2368 5.70015 33.2625 5.76529 33.3087 5.81814C33.355 5.87099 33.4192 5.90861 33.4915 5.92518C33.5639 5.94175 33.6402 5.93636 33.7088 5.90982C34.1556 5.67023 34.6416 5.49628 35.1489 5.3945C35.0666 5.22273 34.9895 5.05096 34.9123 4.87455C34.3466 5.3945 33.6625 5.68234 33.3694 6.39727C33.2562 6.66654 33.6214 6.86152 33.8837 6.73618C34.3466 6.53191 34.7786 6.27193 35.2569 6.07694L34.9329 5.57092C34.254 6.12337 33.4619 6.53654 32.783 7.089C32.7372 7.14335 32.7127 7.21 32.7136 7.27833C32.7145 7.34667 32.7407 7.41276 32.788 7.46612C32.8353 7.51949 32.901 7.55705 32.9746 7.57283C33.0483 7.58862 33.1257 7.58172 33.1945 7.55324C33.9614 7.04933 34.8144 6.66199 35.7198 6.40655L35.3392 5.94231C34.9946 6.44834 34.2849 6.66654 33.7705 7.01008C33.1312 7.45498 32.5435 7.95739 32.0167 8.50959C31.9686 8.55856 31.9388 8.62 31.9317 8.68514C31.9245 8.75027 31.9402 8.8158 31.9767 8.87238C32.0132 8.92896 32.0685 8.9737 32.1348 9.00025C32.2011 9.02681 32.2749 9.03381 32.3459 9.02026C33.6265 8.84385 34.7272 8.04998 35.7146 7.34897C35.9821 7.15863 35.7146 6.7501 35.3855 6.84295C34.5698 7.13053 33.8265 7.56311 33.1996 8.11499C32.4487 8.69065 31.6567 9.09918 31.0447 9.81876C30.8441 10.0555 31.2401 10.413 31.5076 10.2319C32.9065 9.30346 34.722 9.09918 36.0952 8.11034C36.409 7.8875 36.013 7.48361 35.6889 7.6461C34.0483 8.4121 31.6258 9.10848 31.0138 10.8726C30.9985 10.9242 30.9985 10.9785 31.0137 11.0302C31.0288 11.0818 31.0587 11.1289 31.1003 11.167C31.1418 11.205 31.1937 11.2325 31.2507 11.2468C31.3077 11.2612 31.3679 11.2618 31.4253 11.2486C32.2745 10.9815 33.074 10.5996 33.7962 10.1159C34.614 9.62843 35.5501 9.32202 36.337 8.79278C36.6764 8.5653 36.3781 8.06856 35.9975 8.27283C34.7538 8.88966 33.5761 9.60923 32.4796 10.4223C31.451 11.2161 30.2012 11.815 29.26 12.6785C29.2113 12.7266 29.1807 12.7874 29.1729 12.8522C29.1651 12.917 29.1803 12.9823 29.2165 13.0388C29.2526 13.0952 29.3077 13.1398 29.3738 13.166C29.4399 13.1922 29.5135 13.1987 29.584 13.1845C30.5715 13.0546 31.4973 12.4789 32.3922 12.1075C33.5082 11.6432 34.3209 10.789 35.4163 10.3155L34.9535 9.90232C33.6625 11.7918 29.9903 11.7593 29.3269 14.127C29.2806 14.2987 29.4246 14.5355 29.6509 14.5123C29.9226 14.5037 30.1826 14.4102 30.3863 14.2477C31.0543 13.7616 31.7686 13.3297 32.5208 12.9571C33.8425 12.2561 35.0923 11.3694 36.5633 10.9005L36.1467 10.5291C35.9975 11.4575 34.0894 11.8893 33.3128 12.3535C32.1299 13.0731 30.8235 13.7834 30.1292 14.9533C30.0916 15.0109 30.0762 15.0782 30.0856 15.1446C30.0949 15.2109 30.1284 15.2726 30.1808 15.3199C30.2332 15.3672 30.3016 15.3974 30.3751 15.4059C30.4486 15.4143 30.5231 15.4005 30.5869 15.3665C32.7711 14.1009 35.1095 13.0666 37.5559 12.2839L37.2319 11.7779C35.7867 12.7899 34.0688 13.4631 32.5362 14.3637C31.4253 15.0183 30.2218 15.6636 29.7075 16.8242C29.6929 16.876 29.6936 16.9303 29.7095 16.9818C29.7253 17.0332 29.7558 17.0801 29.7979 17.1176C29.8401 17.1551 29.8923 17.1821 29.9495 17.1958C30.0067 17.2095 30.0669 17.2094 30.1241 17.1956C31.343 16.8474 32.5465 15.9839 33.6265 15.3619C34.9123 14.6237 36.1981 13.867 37.4839 13.152L37.0776 12.6878C35.8048 13.7159 34.4272 14.633 32.9631 15.4269C31.9344 16.0211 30.9727 16.671 30.5561 17.7481C30.5415 17.7999 30.5422 17.8542 30.5581 17.9056C30.574 17.9571 30.6045 18.0039 30.6466 18.0415C30.6887 18.079 30.7409 18.1059 30.7981 18.1196C30.8553 18.1333 30.9155 18.1333 30.9727 18.1195C32.0682 17.8595 33.0711 16.8707 33.9763 16.2625C35.3406 15.3881 36.8303 14.6853 38.4045 14.1734L38.0805 13.6627C36.6867 14.9069 34.7477 15.334 33.1791 16.3461C32.1505 17.0285 30.6384 17.8827 30.4018 19.1315C30.3658 19.3451 30.5509 19.5958 30.8184 19.5029C31.9442 19.1102 33.0036 18.5773 33.966 17.9199C35.2929 17.1214 36.7741 16.5271 38.0805 15.7379C37.9468 15.5801 37.813 15.4176 37.6742 15.2736C35.8895 16.6989 32.9373 17.7295 31.8727 19.7629C31.836 19.8212 31.8214 19.8889 31.8314 19.9554C31.8413 20.0219 31.8752 20.0836 31.9277 20.1311C31.9803 20.1785 32.0487 20.2091 32.1224 20.218C32.1961 20.227 32.271 20.2139 32.3356 20.1807C34.5266 19.294 36.1364 17.4417 38.5382 16.8892L38.2142 16.3832C36.9696 17.7759 34.8917 18.2402 33.9454 19.9022C33.907 19.9543 33.8873 20.0159 33.8888 20.0785C33.8904 20.1411 33.9131 20.2017 33.954 20.2523C33.9949 20.3029 34.052 20.3409 34.1176 20.3613C34.1832 20.3817 34.2541 20.3835 34.3209 20.3664C34.8294 20.27 35.3118 20.0838 35.7404 19.8186C36.5703 19.398 37.4292 19.0259 38.3119 18.7044C38.1988 18.5373 38.0908 18.3702 37.9828 18.1984C37.273 18.9737 36.2187 19.3915 35.6324 20.2689C35.6015 20.3152 35.5848 20.3681 35.5839 20.4221C35.583 20.4761 35.5979 20.5294 35.6271 20.5765C35.6564 20.6236 35.6989 20.663 35.7504 20.6905C35.8019 20.718 35.8605 20.7327 35.9204 20.7332C36.8564 20.7332 37.5302 20.2689 38.3839 19.9625C38.2502 19.8883 38.1113 19.8186 37.9725 19.749C38.0856 20.2504 37.0364 20.631 36.9438 21.1928C36.8924 21.5781 37.5662 21.5735 37.6176 21.1928C37.669 20.8121 38.3016 20.6403 38.4714 20.3618C38.5517 20.2478 38.6046 20.12 38.6267 19.9864C38.6489 19.8529 38.6397 19.7167 38.5999 19.5865C38.576 19.5096 38.5192 19.4444 38.4421 19.4053C38.3649 19.3661 38.2737 19.3562 38.1885 19.3776C37.4222 19.6329 36.7381 20.1018 35.8998 20.125L36.193 20.5893C36.7433 19.7676 37.7668 19.3729 38.4354 18.6441C38.6257 18.4398 38.4354 18.0034 38.1113 18.1334C37.4736 18.3748 36.8513 18.6487 36.229 18.9226C35.6066 19.1965 34.8609 19.6979 34.1254 19.7954L34.506 20.2597C35.4112 18.6766 37.4684 18.2077 38.6668 16.8614C38.7164 16.8131 38.7474 16.7517 38.7553 16.6862C38.7632 16.6207 38.7475 16.5547 38.7106 16.4979C38.6737 16.4411 38.6174 16.3966 38.5503 16.3709C38.4831 16.3453 38.4085 16.3398 38.3376 16.3553C35.8689 16.9217 34.2231 18.7973 31.9756 19.7072L32.4333 20.1204C32.9836 19.0712 34.1048 18.4723 35.0923 17.7991C36.0798 17.126 37.1804 16.5225 38.1319 15.7657C38.4148 15.5383 38.0393 15.0972 37.7256 15.3015C36.6147 15.97 35.4575 16.555 34.2797 17.1214C33.1019 17.6877 31.9704 18.6116 30.5972 19.0062L31.0087 19.3822C31.2401 18.1566 33.0659 17.1585 34.146 16.5643C35.6221 15.7565 37.2576 15.3015 38.5125 14.1873C38.744 13.983 38.5125 13.5699 38.1885 13.6813C36.811 14.1366 35.4905 14.7217 34.2488 15.4269C33.7345 15.7379 33.2202 16.0954 32.7059 16.4436C32.1916 16.7917 31.3327 17.4881 30.7618 17.6227L31.1733 17.9941C31.6259 16.8474 32.9579 16.2532 34.0174 15.6172C35.2651 14.9151 36.4391 14.1117 37.525 13.217C37.5695 13.163 37.593 13.0972 37.5919 13.0298C37.5908 12.9625 37.5651 12.8973 37.5188 12.8445C37.4726 12.7916 37.4083 12.754 37.336 12.7374C37.2637 12.7209 37.1873 12.7263 37.1187 12.7528C35.9307 13.4074 34.7683 14.0945 33.5957 14.763C33.0196 15.0879 32.4539 15.4176 31.8624 15.7193C31.2537 16.1161 30.6024 16.4567 29.9183 16.736L30.3298 17.1121C30.8441 15.905 32.495 15.2133 33.642 14.5448C34.974 13.7695 36.4244 13.2078 37.6793 12.3303C37.9519 12.1446 37.6793 11.7315 37.3553 11.8243C34.8502 12.62 32.4562 13.6763 30.2218 14.9719C30.3761 15.1065 30.5304 15.2458 30.6795 15.3851C31.4047 14.1734 32.9682 13.282 34.2797 12.6553C35.1026 12.2653 36.5941 11.7825 36.7484 10.7983C36.7844 10.5941 36.6044 10.3341 36.337 10.4269C35.2192 10.8305 34.1535 11.3426 33.1585 11.9543C32.603 12.2653 32.0322 12.5532 31.4716 12.8503C31.0447 13.0824 30.1189 13.8995 29.6303 13.9552L29.9543 14.3359C30.5458 12.2236 34.2848 12.0518 35.5141 10.2598C35.7044 9.98125 35.3443 9.72128 35.0563 9.84198C34.1717 10.2227 33.5134 10.868 32.6802 11.3276C31.847 11.7872 30.4069 12.516 29.3886 12.6507L29.7126 13.1567C30.5406 12.4 31.703 11.8104 32.6288 11.1326C33.7881 10.2817 35.0213 9.51636 36.3164 8.84384L35.9769 8.32389C35.2878 8.78814 34.4803 9.0574 33.75 9.4613C32.9745 9.97849 32.125 10.3986 31.2247 10.7101L31.6413 11.0862C32.1556 9.54486 34.5677 8.89491 36.0078 8.22176L35.6015 7.75751C34.2797 8.686 32.5156 8.86242 31.1475 9.78163L31.6053 10.1994C32.1366 9.67096 32.7377 9.20323 33.3951 8.80671C34.016 8.25543 34.745 7.81308 35.5449 7.50218C35.4369 7.33505 35.3289 7.16328 35.2158 6.99615C34.3209 7.63217 33.3025 8.3471 32.1299 8.50959C32.2379 8.67671 32.351 8.84385 32.459 9.01563C33.0542 8.3752 33.7468 7.81407 34.5163 7.34897C35.0599 7.10922 35.5337 6.75784 35.8998 6.32299C35.939 6.27049 35.9592 6.20832 35.9576 6.14503C35.9561 6.08174 35.9328 6.02044 35.8911 5.96955C35.8494 5.91866 35.7913 5.88068 35.7247 5.86084C35.6581 5.841 35.5863 5.84027 35.5192 5.85875C34.557 6.12553 33.65 6.53332 32.8345 7.06579L33.2408 7.53003C33.9145 6.97758 34.7117 6.55976 35.3855 6.00731C35.6221 5.81233 35.3855 5.38058 35.0615 5.50128C34.5214 5.70555 34.0328 5.99338 33.5185 6.22086L34.0328 6.56441C34.2694 5.99339 34.9535 5.72877 35.4009 5.31559C35.5861 5.14382 35.4729 4.76312 35.1643 4.79562C34.5393 4.90742 33.9384 5.10965 33.3848 5.3945L33.7911 5.85875C34.0853 5.53215 34.4536 5.26621 34.8712 5.07882C34.9482 5.0388 35.0045 4.97279 35.0277 4.8953C35.0508 4.81782 35.0389 4.7352 34.9946 4.66563C34.9503 4.59607 34.8771 4.54525 34.7913 4.52435C34.7055 4.50346 34.6139 4.5142 34.5369 4.55422" fill="black"/>
<path d="M2.96277 11.4111C2.99363 11.374 3.02964 11.3415 3.06564 11.3044C3.31765 11.0583 2.99363 10.6358 2.65933 10.8401C2.07035 11.153 1.59362 11.6123 1.28611 12.1632C1.15239 12.3814 1.3684 12.7017 1.66156 12.6275C2.79819 12.2607 3.67767 11.3508 4.88117 11.1744L4.55715 10.6683C3.58509 11.5968 2.10901 12.0611 1.51241 13.2867C1.47973 13.3451 1.46832 13.4114 1.47981 13.4761C1.4913 13.5407 1.52509 13.6005 1.57638 13.6468C1.62768 13.6931 1.69385 13.7236 1.76548 13.7339C1.8371 13.7443 1.91052 13.734 1.97529 13.7045C2.77275 13.3368 3.54094 12.9196 4.27427 12.4557C5.04689 12.0962 5.84005 11.7739 6.65041 11.4901L6.23895 11.0258C5.62178 11.6433 4.69601 12.0054 3.98626 12.53C3.21551 13.0495 2.58004 13.715 2.12444 14.4798C2.09339 14.5264 2.07665 14.5797 2.07595 14.6341C2.07525 14.6885 2.09062 14.7421 2.12047 14.7894C2.15032 14.8367 2.19358 14.8759 2.2458 14.9031C2.29802 14.9303 2.35732 14.9444 2.4176 14.944C3.30222 14.9162 4.01197 14.3312 4.66001 13.8438C5.89287 12.9276 7.25802 12.167 8.71794 11.5829L8.3785 11.0583C6.96106 11.8611 5.60689 12.7515 4.32571 13.7231C3.53366 14.373 2.60275 15.3108 2.39703 16.2904C2.38247 16.3421 2.38316 16.3964 2.39904 16.4479C2.41491 16.4994 2.44541 16.5462 2.48751 16.5837C2.52962 16.6213 2.58187 16.6482 2.63907 16.6619C2.69627 16.6756 2.75645 16.6755 2.81362 16.6618C3.75996 16.4389 4.552 15.5151 5.28233 14.9626C6.51963 14.0882 7.84959 13.3262 9.25283 12.6878C9.64371 12.4975 9.30426 12.0007 8.91338 12.1632C7.31677 12.9138 5.87602 13.908 4.65487 15.1019C3.67253 15.97 2.46903 17.0981 2.24787 18.3516C2.22741 18.4122 2.22822 18.4769 2.2502 18.5371C2.27218 18.5972 2.31425 18.6497 2.37063 18.6873C2.427 18.725 2.49492 18.746 2.56503 18.7474C2.63515 18.7488 2.70402 18.7305 2.76219 18.6951C3.67528 18.1225 4.52448 17.4711 5.29776 16.75C6.46472 15.886 7.72017 15.1243 9.0471 14.4752L8.63566 14.0109C6.40354 15.6033 4.17655 17.1724 2.91134 19.5354C2.87979 19.5976 2.87215 19.6674 2.88964 19.7339C2.90712 19.8004 2.94874 19.8597 3.00785 19.9024C3.06697 19.9451 3.1402 19.9687 3.21591 19.9695C3.29161 19.9703 3.36544 19.9483 3.42566 19.9068C5.2235 18.3774 7.17614 17.0035 9.25797 15.8029C9.12425 15.6451 8.99053 15.4826 8.85167 15.3387C7.62686 16.2345 6.46404 17.1973 5.36976 18.2216C4.56743 18.9737 3.60052 19.7443 3.31251 20.8028C3.25079 21.0396 3.54909 21.3089 3.82682 21.1417C5.54977 20.0554 7.19557 18.8762 8.88767 17.7527C8.75395 17.5949 8.61508 17.437 8.48136 17.2885C7.19558 18.347 5.71949 19.2894 4.66001 20.5382C4.34627 20.9142 3.48223 22.1399 4.1817 22.5298C4.54686 22.7341 4.88631 22.2095 4.516 22.0052C4.59315 22.0424 5.03031 21.0767 5.03031 21.1046C5.37371 20.6568 5.77611 20.2484 6.22867 19.8883C7.09271 19.1176 8.06476 18.4445 8.95967 17.7063C9.2374 17.4742 8.86195 17.0239 8.55337 17.2421C6.86127 18.3655 5.21033 19.5633 3.49252 20.6311L4.00683 20.9746C4.27428 19.9579 5.29262 19.2151 6.06409 18.4955C7.09982 17.5294 8.20268 16.6238 9.36598 15.7843C9.66428 15.5661 9.27341 15.1158 8.95453 15.3201C6.82592 16.5419 4.82855 17.9408 2.98849 19.4983L3.5028 19.8697C4.74744 17.5485 6.93842 16.0257 9.12425 14.4612C9.4277 14.2477 9.03682 13.8066 8.71794 13.997C7.56037 14.5879 6.44394 15.2421 5.3749 15.9561C4.34627 16.685 3.5388 17.5995 2.43303 18.217L2.94734 18.5605C3.17364 17.2746 4.45429 16.2068 5.43663 15.3108C6.55049 14.2461 7.85873 13.362 9.30426 12.6971C9.19625 12.5253 9.07797 12.3489 8.96482 12.1725C7.80323 12.7324 6.67843 13.3525 5.59606 14.0295C5.22576 14.2616 4.87602 14.4937 4.53143 14.7769C4.01711 15.153 3.32279 15.919 2.68504 16.0722L3.10164 16.4482C3.29708 15.4919 4.23827 14.6516 5.0046 14.0202C6.19684 13.1302 7.45467 12.3144 8.76938 11.5783C8.80754 11.5581 8.84094 11.5314 8.86766 11.4997C8.89439 11.4679 8.91392 11.4317 8.92514 11.3931C8.93636 11.3545 8.93906 11.3143 8.93307 11.2748C8.92709 11.2353 8.91253 11.1972 8.89024 11.1628C8.86795 11.1283 8.83836 11.0982 8.80317 11.0741C8.76797 11.0499 8.72786 11.0323 8.68511 11.0222C8.64237 11.012 8.59783 11.0096 8.55405 11.015C8.51026 11.0204 8.46809 11.0335 8.42993 11.0537C7.29399 11.4666 6.21801 12.0029 5.22575 12.6507C4.45428 13.2078 3.51823 14.2941 2.46903 14.3312L2.75705 14.7955C3.63652 13.166 5.50863 12.7157 6.7687 11.4669C6.81317 11.4128 6.83666 11.347 6.83554 11.2796C6.83442 11.2123 6.80875 11.1471 6.7625 11.0943C6.71624 11.0414 6.65198 11.0038 6.57965 10.9872C6.50733 10.9707 6.43097 10.9761 6.36238 11.0026C5.57034 11.3369 4.74744 11.5875 3.98626 11.9682C3.22507 12.3489 2.52046 12.8967 1.68727 13.2171L2.14501 13.6302C2.71076 12.4603 4.15598 12.0286 5.08175 11.1326C5.13051 11.0845 5.16102 11.0237 5.16885 10.9589C5.17668 10.8941 5.16142 10.8288 5.12529 10.7723C5.08917 10.7159 5.03405 10.6714 4.96795 10.6451C4.90185 10.6189 4.82821 10.6124 4.75773 10.6266C3.52337 10.8076 2.70047 11.7082 1.53298 12.0796L1.91357 12.5439C2.17047 12.0869 2.56428 11.7041 3.05021 11.439L2.6439 10.9748L2.5359 11.0769C2.24274 11.3647 2.72104 11.7965 3.0142 11.5086" fill="black"/>
<path d="M5.9254 4.56815C5.97738 4.50388 6.01575 4.43148 6.03855 4.35461C6.05422 4.29099 6.04701 4.22451 6.01797 4.16484C5.98893 4.10518 5.93957 4.05543 5.87706 4.02281C5.81455 3.9902 5.74215 3.97643 5.67037 3.9835C5.5986 3.99057 5.53119 4.01811 5.47794 4.06213C4.80449 4.60542 4.21773 5.23036 3.73442 5.91911C3.70287 5.98123 3.69523 6.0511 3.71272 6.11759C3.73021 6.18408 3.77181 6.24338 3.83093 6.28607C3.89005 6.32876 3.96329 6.35239 4.03899 6.35319C4.1147 6.354 4.18852 6.33192 4.24873 6.2905C4.62925 5.95154 5.07105 5.67365 5.5551 5.46879L5.14364 5.09275C4.86591 5.7102 4.15102 6.11874 3.69842 6.62013C3.27791 7.12056 2.90132 7.64986 2.57207 8.20321C2.36635 8.52354 2.8138 8.77422 3.08639 8.56995C4.2796 7.72967 5.51395 6.93581 6.68658 6.0816L6.17227 5.71484C5.1025 7.10758 3.35383 7.96643 2.57207 9.58665C2.53289 9.63915 2.51269 9.70132 2.51424 9.76461C2.5158 9.8279 2.53903 9.8892 2.58075 9.94009C2.62246 9.99098 2.68061 10.029 2.74721 10.0488C2.81381 10.0686 2.88559 10.0694 2.95267 10.0509C4.5419 9.72128 5.61681 8.19392 7.01575 7.53004L6.60944 7.0658C5.72482 7.91537 4.76305 8.67209 4.10473 9.68878C3.94015 9.93948 4.27959 10.283 4.56247 10.1066C5.4728 9.54486 6.34199 8.93207 7.24718 8.37497L6.73287 8.03142C6.50143 8.62566 5.94083 9.01099 5.51909 9.48916C5.28765 9.7445 5.57053 10.153 5.9254 9.95341C6.41001 9.64299 6.92673 9.37558 7.46834 9.1549L7.08775 8.69066C6.9386 8.98313 6.70201 9.2199 6.57343 9.51701C6.53425 9.56952 6.51405 9.63169 6.5156 9.69497C6.51716 9.75826 6.54039 9.81957 6.58211 9.87046C6.62382 9.92134 6.68198 9.95932 6.74857 9.97916C6.81517 9.99901 6.88695 9.99974 6.95403 9.98126C7.18033 9.95341 7.63292 9.73985 7.61235 9.88841C7.59995 9.93319 7.59892 9.97993 7.60933 10.0251C7.61974 10.0703 7.64133 10.1128 7.67249 10.1494C7.70364 10.186 7.74355 10.2158 7.78925 10.2365C7.83494 10.2572 7.88524 10.2684 7.93637 10.2691H8.54326C8.83642 10.5569 9.30958 10.1298 9.01643 9.84199C8.72327 9.55416 8.38382 9.68414 7.93637 9.68414L8.26038 10.0648C8.44039 8.93206 7.59692 9.31739 6.77402 9.41488L7.15461 9.87913C7.30376 9.58201 7.54035 9.34524 7.66893 9.04812C7.78207 8.82993 7.59692 8.50961 7.28833 8.6071C6.69532 8.84122 6.13012 9.12897 5.60138 9.46595L6.00769 9.9302C6.52201 9.35454 7.11861 8.9135 7.39634 8.20321C7.41681 8.14266 7.41599 8.07787 7.39401 8.01775C7.37203 7.95764 7.32996 7.90515 7.27358 7.86749C7.21721 7.82983 7.14929 7.80886 7.07918 7.80746C7.00906 7.80606 6.94019 7.82429 6.88203 7.85965C5.97683 8.42139 5.10764 9.02956 4.19731 9.5913L4.66019 10.0045C5.28765 9.02955 6.20313 8.31463 7.06203 7.50684C7.10792 7.45248 7.13237 7.38583 7.13148 7.3175C7.13059 7.24917 7.10441 7.18307 7.05711 7.12971C7.00982 7.07635 6.94412 7.03878 6.87046 7.023C6.7968 7.00721 6.71941 7.01411 6.65059 7.04259C5.30823 7.68789 4.25388 9.1874 2.74694 9.50309L3.12753 9.96733C3.90929 8.34712 5.65796 7.50219 6.72773 6.09553C6.96431 5.78912 6.47572 5.5245 6.21342 5.72412C5.04078 6.57833 3.80128 7.37685 2.61322 8.21713L3.12753 8.58388C3.56707 7.83609 4.11729 7.14578 4.76305 6.53192C5.1881 6.19991 5.52999 5.79003 5.76597 5.32952C5.78177 5.27806 5.78216 5.22371 5.76709 5.17206C5.75202 5.12042 5.72204 5.07331 5.6802 5.03555C5.63836 4.99778 5.58616 4.97071 5.52894 4.95711C5.47172 4.94351 5.41153 4.94385 5.35451 4.95812C4.76218 5.1985 4.21954 5.52818 3.74986 5.93304L4.26417 6.2998C4.71767 5.65549 5.2681 5.07114 5.89968 4.56351L5.33908 4.2664L5.2928 4.33603C5.06136 4.66565 5.64253 4.97205 5.87397 4.64244" fill="black"/>
<path d="M10.0499 11.6804C10.0499 12.0425 9.48932 12.3025 9.32989 12.6089C9.2907 12.6614 9.2705 12.7236 9.27206 12.7869C9.27361 12.8501 9.29684 12.9114 9.33856 12.9623C9.38028 13.0132 9.43843 13.0512 9.50503 13.071C9.57162 13.0909 9.6434 13.0916 9.71048 13.0731C10.4305 12.8967 10.8574 12.3211 11.5517 12.1029C11.4437 11.9357 11.3306 11.7686 11.2226 11.5968C10.6184 12.1964 10.1111 12.8701 9.71562 13.5977C9.678 13.6554 9.66266 13.7226 9.672 13.789C9.68135 13.8553 9.71485 13.917 9.76725 13.9643C9.81965 14.0116 9.88797 14.0418 9.96148 14.0503C10.035 14.0587 10.1095 14.0449 10.1734 14.0109C11.1351 13.5467 11.9529 12.8967 12.8581 12.3489L12.4003 11.9357C11.9426 12.6414 11.2431 13.166 10.7854 13.8716C10.7486 13.93 10.7341 13.9976 10.7441 14.0641C10.754 14.1306 10.7879 14.1923 10.8404 14.2398C10.893 14.2872 10.9614 14.3178 11.0351 14.3268C11.1087 14.3358 11.1836 14.3226 11.2483 14.2895C12.1123 13.7974 12.7192 12.8967 13.6964 12.5903L13.285 12.2143C13.0125 12.7434 12.6241 13.2172 12.1432 13.607C11.9272 13.8113 12.1432 14.2338 12.4723 14.1177C13.177 13.8624 13.6296 13.3192 14.3136 13.0499L13.7993 12.7853C13.7898 12.9835 13.7262 13.1764 13.6141 13.347C13.5833 13.3933 13.5666 13.4462 13.5656 13.5002C13.5647 13.5542 13.5796 13.6075 13.6089 13.6546C13.6381 13.7017 13.6807 13.7411 13.7322 13.7686C13.7837 13.7961 13.8423 13.8108 13.9021 13.8113C14.2268 13.7938 14.5447 13.7197 14.8382 13.5931L14.4216 13.3842C14.4398 13.6124 14.5329 13.8306 14.689 14.0109C14.9153 14.3405 15.4965 14.0388 15.2702 13.7045L15.0696 13.2403C15.0589 13.2014 15.0397 13.165 15.013 13.133C14.9863 13.1011 14.9527 13.0743 14.9143 13.0544C14.8759 13.0345 14.8334 13.0217 14.7894 13.017C14.7454 13.0122 14.7007 13.0155 14.6582 13.0267C14.418 13.1253 14.1634 13.1926 13.9021 13.2263L14.1953 13.6906C14.3593 13.4322 14.4544 13.1429 14.473 12.8457C14.471 12.7922 14.4537 12.7401 14.4229 12.6944C14.3921 12.6488 14.3487 12.611 14.297 12.5849C14.2453 12.5588 14.187 12.5451 14.1277 12.5452C14.0685 12.5454 14.0103 12.5593 13.9587 12.5857C13.3261 12.8364 12.9301 13.361 12.2769 13.5931L12.6061 14.0991C13.1621 13.6318 13.6081 13.0681 13.9176 12.4418C13.9334 12.3903 13.9338 12.336 13.9187 12.2843C13.9036 12.2327 13.8736 12.1856 13.8318 12.1478C13.79 12.11 13.7378 12.0829 13.6805 12.0693C13.6233 12.0557 13.5631 12.0561 13.5061 12.0704C12.4312 12.4093 11.8295 13.3006 10.8934 13.8299L11.3563 14.243C11.8089 13.542 12.5083 13.0128 12.9661 12.3071C13.1255 12.0518 12.7912 11.7175 12.5032 11.8893C11.598 12.4371 10.7802 13.0824 9.81848 13.5513L10.2814 13.9691C10.647 13.2918 11.1199 12.6663 11.6854 12.1121C11.886 11.8986 11.6854 11.4947 11.3563 11.6015C10.6722 11.815 10.2042 12.4046 9.52018 12.5717L9.89563 13.036C10.1322 12.5439 10.662 12.3489 10.7083 11.7779C10.7391 11.3879 10.0705 11.3879 10.0345 11.7779" fill="black"/>
<path d="M12.3954 16.1929C12.4326 16.1849 12.4713 16.1845 12.5086 16.1918C12.546 16.199 12.5811 16.2136 12.6114 16.2347C12.6114 16.2347 12.6423 16.3089 12.6371 16.2811C12.6371 16.4111 12.6063 16.5225 12.4468 16.5411C12.412 16.5518 12.3739 16.5501 12.3405 16.5363C12.307 16.5224 12.2806 16.4976 12.2668 16.4668C12.2668 16.4389 12.236 16.3925 12.2668 16.3693C12.3076 16.3504 12.3456 16.327 12.38 16.2996C12.2874 16.3368 12.272 16.3507 12.3285 16.3321C12.2771 16.3321 12.4263 16.3321 12.4108 16.3321C12.4614 16.3376 12.5103 16.3518 12.5548 16.3739C12.5034 16.3507 12.5548 16.1929 12.5086 16.2764C12.4961 16.3145 12.4922 16.3545 12.4972 16.394C12.5021 16.4335 12.5158 16.4716 12.5373 16.5063C12.5589 16.5409 12.588 16.5713 12.6228 16.5956C12.6576 16.6199 12.6975 16.6377 12.74 16.6478C12.8265 16.6668 12.9178 16.6552 12.9952 16.6155C13.0726 16.5759 13.1303 16.511 13.1566 16.4343C13.4035 15.8911 12.4468 15.5661 12.0148 15.789C11.8828 15.8493 11.7719 15.9416 11.6947 16.0556C11.6175 16.1696 11.577 16.3007 11.5776 16.4343C11.5877 16.5843 11.6461 16.7284 11.7457 16.8488C11.8453 16.9692 11.9818 17.0607 12.1383 17.1121C12.2706 17.1471 12.41 17.1549 12.5461 17.1348C12.6822 17.1147 12.8116 17.0672 12.9247 16.9959C13.0377 16.9246 13.1316 16.8312 13.1994 16.7228C13.2671 16.6143 13.307 16.4935 13.316 16.3693C13.3214 16.2588 13.3014 16.1486 13.2571 16.0455C13.2128 15.9424 13.1453 15.8487 13.0589 15.7704C12.9443 15.6787 12.8067 15.6134 12.658 15.5803C12.5093 15.5471 12.3539 15.5471 12.2051 15.5801C12.1197 15.6018 12.0472 15.6528 12.003 15.7222C11.9587 15.7916 11.9464 15.8739 11.9685 15.9515C11.9959 16.0276 12.0538 16.0917 12.1309 16.1313C12.208 16.1708 12.2987 16.1828 12.3851 16.165" fill="black"/>
<path d="M17.2146 17.8549L17.5078 17.7945L17.2146 17.3303C16.8827 17.6836 16.6138 18.0815 16.4174 18.5095C16.4016 18.5609 16.4012 18.6153 16.4163 18.6669C16.4314 18.7186 16.4613 18.7657 16.5032 18.8035C16.545 18.8412 16.5972 18.8683 16.6544 18.8819C16.7117 18.8955 16.7719 18.8951 16.8289 18.8809C17.4203 18.723 17.8215 18.3238 18.3718 18.087L17.8575 17.7481C17.7443 17.9756 17.6261 18.2124 17.5078 18.4352C17.4255 18.593 17.4769 18.8484 17.7084 18.8994C17.9398 18.9505 18.9941 18.853 18.9993 18.7462C18.9993 18.8263 19.0345 18.903 19.0972 18.9596C19.1599 19.0162 19.2449 19.048 19.3336 19.048C19.8993 19.1037 20.3159 18.8112 20.8045 18.5838L20.3416 18.4723C20.3714 18.5168 20.3972 18.5634 20.4188 18.6116C20.4649 18.6807 20.5389 18.731 20.6253 18.7518C20.7116 18.7726 20.8036 18.7623 20.8817 18.723C21.3043 18.5266 21.7387 18.3515 22.1829 18.1984L21.7663 17.827C21.6958 18.1335 21.5942 18.4334 21.4628 18.723C21.439 18.8006 21.4499 18.8835 21.4932 18.9539C21.5365 19.0242 21.6087 19.0764 21.6943 19.0991C22.9955 19.438 24.2658 18.8809 25.4231 18.3888C25.7625 18.2402 25.5156 17.7063 25.1608 17.8317C24.6697 18.0275 24.1997 18.2637 23.7567 18.5373C23.6881 18.576 23.6371 18.6355 23.6128 18.7051C23.5884 18.7747 23.5925 18.8499 23.6241 18.917C23.6557 18.9842 23.7129 19.039 23.7853 19.0715C23.8577 19.104 23.9405 19.1122 24.019 19.0944C24.739 18.918 25.3408 18.528 26.0402 18.2913C25.9271 18.1241 25.8191 17.957 25.7111 17.7853C25.2935 18.0702 24.9184 18.4025 24.595 18.7741C24.4047 19.0016 24.7184 19.2755 24.9756 19.2383C25.5184 19.0983 26.0375 18.8921 26.5185 18.6255C26.3848 18.463 26.2511 18.3052 26.1122 18.1613C25.8914 18.3412 25.6947 18.5437 25.5259 18.7648C25.4949 18.8115 25.4781 18.8647 25.4774 18.9191C25.4767 18.9735 25.4921 19.0271 25.5219 19.0744C25.5518 19.1217 25.5951 19.1609 25.6473 19.1881C25.6995 19.2153 25.7588 19.2294 25.8191 19.2291C26.0342 19.2207 26.2498 19.2332 26.462 19.2662C26.8837 19.3544 27.0586 18.7694 26.6368 18.6812C26.3677 18.6331 26.0933 18.6128 25.8191 18.6209C25.9117 18.7741 26.0094 18.9273 26.1071 19.0851C26.247 18.9134 26.4093 18.7576 26.5906 18.6209C26.8734 18.3795 26.5083 17.9802 26.1791 18.1566C25.7413 18.398 25.2689 18.5839 24.775 18.7091L25.1556 19.1733C25.4541 18.8452 25.8001 18.5548 26.1842 18.3099C26.4465 18.1242 26.1585 17.697 25.8551 17.7992C25.1607 18.0359 24.5539 18.4259 23.8338 18.6023L24.091 19.1548C24.4834 18.9074 24.9 18.693 25.3356 18.5141C25.2482 18.3284 25.1608 18.1427 25.0785 17.957C24.0961 18.3748 22.9801 18.8855 21.8691 18.607L22.1057 18.9784C22.2378 18.6874 22.3394 18.3858 22.4092 18.0777C22.4233 18.0264 22.4226 17.9727 22.4069 17.9217C22.3912 17.8708 22.3612 17.8244 22.3198 17.787C22.2784 17.7496 22.227 17.7225 22.1705 17.7084C22.1141 17.6943 22.0546 17.6936 21.9977 17.7063C21.4986 17.8755 21.0109 18.0708 20.5371 18.2913L20.9948 18.3981C20.9948 18.3516 20.9434 18.3052 20.9228 18.2588C20.8759 18.1904 20.8015 18.1411 20.7152 18.1212C20.6289 18.1013 20.5374 18.1124 20.4599 18.152C20.1281 18.3687 19.7367 18.4988 19.3284 18.528L19.6627 18.8298C19.6936 17.7899 18.4798 18.477 17.8832 18.3981L18.0838 18.8623C18.2477 18.5945 18.387 18.315 18.5004 18.0267C18.5193 17.9664 18.5174 17.9024 18.4948 17.8432C18.4722 17.784 18.43 17.7325 18.374 17.6955C18.318 17.6586 18.2507 17.6381 18.1814 17.6367C18.112 17.6353 18.0439 17.6531 17.9861 17.6878C17.5493 17.9616 17.0903 18.2053 16.6129 18.4166L17.0243 18.788C17.2111 18.4143 17.4571 18.0672 17.7546 17.7574C17.7855 17.7111 17.8022 17.6583 17.8031 17.6042C17.804 17.5502 17.7891 17.497 17.7599 17.4498C17.7306 17.4027 17.6881 17.3634 17.6366 17.3359C17.5851 17.3084 17.5265 17.2936 17.4666 17.2932C17.3049 17.2937 17.1447 17.3205 16.9935 17.3721C16.5871 17.5021 16.762 18.0917 17.1735 17.9617" fill="black"/>
<path d="M6.00266 12.8828L6.85128 12.7946L6.93356 14.4426H6.45525L6.00266 12.8828ZM6.2701 14.8744H7.87991L8.12163 14.6794L8.32736 12.4742L8.05991 12.2421L5.6735 12.4789L5.46777 12.7482L6.03866 14.7166L6.2701 14.8744Z" fill="black"/>
<path d="M3.78603 18.1984L5.59127 18.0545L5.85871 16.3229L3.354 16.8382L3.38486 16.9775L3.78603 18.1984Z" fill="black"/>
<path d="M35.1848 5.84483C35.1848 5.07882 34.5008 4.9999 33.9916 5.23202C33.9916 5.23202 33.2304 6.23015 33.9916 6.62476C34.7528 7.01936 35.1848 6.62476 35.1848 5.85875" fill="black"/>
<path d="M33.9763 9.16884L33.9197 11.1929H33.6728L33.7345 9.24312L33.9763 9.16884ZM33.0453 8.96457C33.0453 9.16419 32.9631 11.4576 32.9631 11.4576C32.9541 11.4992 32.956 11.5421 32.9686 11.5829C32.9811 11.6237 33.004 11.6614 33.0354 11.6929C33.0668 11.7244 33.1059 11.7489 33.1496 11.7644C33.1932 11.78 33.2403 11.7862 33.2871 11.7825C33.6037 11.7907 33.9195 11.8139 34.2334 11.8522C34.2821 11.862 34.3326 11.8613 34.3808 11.85C34.4291 11.8387 34.4737 11.8171 34.5109 11.7872C34.5481 11.7572 34.5768 11.7197 34.5948 11.6777C34.6127 11.6357 34.6193 11.5905 34.614 11.5458C34.614 11.179 34.6912 9.17348 34.6912 8.7603C34.6952 8.71068 34.6858 8.66092 34.6638 8.61531C34.6417 8.5697 34.6077 8.52962 34.5647 8.49854C34.5216 8.46745 34.4709 8.4463 34.4167 8.43691C34.3626 8.42751 34.3067 8.43016 34.254 8.44462L33.3077 8.65816C33.3077 8.65816 33.0453 8.75566 33.0453 8.95529" fill="black"/>
<path d="M30.8696 13.5421C30.8696 13.5421 31.1062 16.1047 31.3428 16.1743C31.5794 16.244 32.9989 15.6776 32.9989 15.6776L32.8446 13.3285L30.8696 13.5421Z" fill="black"/>
<path d="M36.2444 16.1047L36.0232 16.0768L36.1518 14.4984H36.5787L36.2444 16.1047ZM35.1437 14.4984H35.4472L35.3238 15.9933L35.1437 15.9701V14.4984ZM34.794 13.867C34.7473 13.8651 34.7006 13.8719 34.6569 13.887C34.6132 13.9021 34.5735 13.9252 34.5401 13.9549C34.5068 13.9845 34.4807 14.0201 34.4633 14.0593C34.4459 14.0985 34.4377 14.1405 34.4391 14.1827V16.2486C34.4391 16.2486 34.506 16.5597 34.7477 16.5597C34.9895 16.5597 36.1569 16.7732 36.481 16.7732C36.569 16.7765 36.6558 16.7532 36.7276 16.7069C36.7993 16.6607 36.8519 16.5941 36.877 16.5179C36.877 16.5179 37.345 14.5866 37.345 14.2384C37.351 14.1485 37.3186 14.06 37.2545 13.9909C37.1904 13.9219 37.0995 13.8775 37.0004 13.867H34.794Z" fill="black"/>
<path d="M40.5283 10.9701L41.1249 12.1307L41.6392 12.0518L41.809 10.6637L40.5283 10.9701Z" fill="black"/>
<path d="M42.0715 16.685C42.1892 16.6841 42.3041 16.6517 42.4015 16.592C42.4989 16.5323 42.5746 16.4479 42.619 16.3494C42.6633 16.2509 42.6744 16.1428 42.6508 16.0386C42.6272 15.9345 42.57 15.8389 42.4864 15.7641C42.4027 15.6892 42.2964 15.6384 42.1808 15.618C42.0653 15.5976 41.9456 15.6085 41.8368 15.6494C41.7281 15.6903 41.6353 15.7593 41.5699 15.8478C41.5046 15.9362 41.4697 16.0402 41.4697 16.1465C41.4697 16.2176 41.4853 16.288 41.5156 16.3536C41.5459 16.4193 41.5903 16.4789 41.6463 16.5289C41.7022 16.579 41.7686 16.6186 41.8416 16.6454C41.9146 16.6721 41.9927 16.6856 42.0715 16.685Z" fill="black"/>
<path d="M43.3828 16.2208C43.3818 16.3688 43.4295 16.5138 43.5199 16.6373C43.6102 16.7608 43.7392 16.8573 43.8904 16.9146C44.0416 16.9719 44.2083 16.9874 44.3692 16.959C44.5302 16.9307 44.6782 16.8599 44.7945 16.7556C44.9109 16.6512 44.9902 16.5181 45.0226 16.3729C45.055 16.2278 45.0389 16.0773 44.9764 15.9405C44.9139 15.8036 44.8077 15.6866 44.6714 15.6043C44.5352 15.5219 44.3749 15.478 44.2109 15.478C43.9921 15.478 43.7823 15.5561 43.6272 15.6952C43.472 15.8344 43.3842 16.0233 43.3828 16.2208Z" fill="black"/>
<path d="M46.124 16.4157C46.124 16.5075 46.1542 16.5973 46.2107 16.6736C46.2672 16.75 46.3476 16.8095 46.4415 16.8446C46.5355 16.8798 46.6389 16.889 46.7387 16.8711C46.8384 16.8531 46.9301 16.8089 47.002 16.744C47.0739 16.6791 47.1229 16.5964 47.1428 16.5063C47.1626 16.4162 47.1524 16.3229 47.1135 16.2381C47.0746 16.1532 47.0087 16.0807 46.9241 16.0297C46.8395 15.9787 46.7401 15.9515 46.6383 15.9515C46.5019 15.9515 46.3711 16.0004 46.2747 16.0875C46.1782 16.1745 46.124 16.2926 46.124 16.4157Z" fill="black"/>
<path d="M3.17378 31.2669H3.10693H2.82405C2.30974 31.2669 1.47654 31.2066 1.46112 30.5381C1.4354 29.0896 3.05035 28.7739 3.9144 28.76C3.97943 28.7552 4.0448 28.7552 4.10984 28.76C4.28985 30.2317 4.32585 30.6866 4.33099 30.9095V31.0348C3.96324 31.168 3.56998 31.2342 3.17378 31.2298V31.2669ZM5.18475 27.5762V27.4926C5.18475 27.3069 4.90702 27.1259 4.60872 27.1259C4.31042 27.1259 4.00183 27.2651 4.00698 27.5344V27.7479C3.79967 27.7385 3.59196 27.7385 3.38465 27.7479C2.97679 27.744 2.57227 27.8146 2.19551 27.9557C1.81874 28.0967 1.47753 28.3052 1.1925 28.5686C0.907468 28.8319 0.684519 29.1447 0.537099 29.488C0.389679 29.8313 0.320846 30.198 0.334767 30.5659C0.360482 32.0608 1.51769 32.3904 2.64404 32.3718C3.24856 32.3247 3.84847 32.2378 4.439 32.1119C4.49557 32.3811 4.75787 32.3997 4.95331 32.395C5.56535 32.395 5.63734 32.1397 5.6322 31.9633C5.60501 31.1858 5.52427 30.4105 5.39047 29.6421C5.24647 28.124 5.18989 27.7154 5.18475 27.5762Z" fill="black"/>
<path d="M9.62329 27.1212H9.46899C9.19628 27.1196 8.92991 27.1954 8.70749 27.3378C8.48508 27.4803 8.31788 27.6822 8.22949 27.9151C8.20424 27.8002 8.18877 27.6838 8.18321 27.5669C8.18321 27.4462 8.18321 27.3301 8.18321 27.214C8.18057 27.116 8.17026 27.0183 8.15235 26.9216V26.8984C8.14589 26.8312 8.12477 26.7659 8.09019 26.7061C8.05562 26.6463 8.00827 26.5934 7.9509 26.5502C7.89352 26.507 7.82725 26.4746 7.75589 26.4546C7.68454 26.4347 7.60952 26.4277 7.53517 26.4341C7.45534 26.4321 7.37593 26.445 7.30187 26.472C7.2278 26.4989 7.16069 26.5394 7.10471 26.5908C7.04873 26.6422 7.00509 26.7034 6.9765 26.7707C6.94792 26.838 6.935 26.9099 6.93857 26.9819C6.99514 27.8129 7.10315 29.6467 7.12886 30.6959C7.12886 30.9651 7.12886 31.1601 7.12886 31.3133V31.3737C7.12869 31.4375 7.14308 31.5006 7.17115 31.5592C7.19922 31.6177 7.24036 31.6704 7.292 31.714C7.34364 31.7576 7.40467 31.7911 7.47128 31.8124C7.5379 31.8337 7.60867 31.8424 7.67918 31.8379C8.32722 31.8379 8.38893 31.2298 8.37865 30.5195C8.37865 30.3106 8.37865 30.0877 8.35293 29.8649C8.35293 29.0478 8.42493 28.2772 9.33012 28.2632C9.38155 28.2632 9.43299 28.2632 9.49985 28.2632C9.52038 28.2649 9.54103 28.2649 9.56156 28.2632C11.1559 28.24 9.9113 31.6383 10.9862 31.6197C11.0734 31.6294 11.1619 31.621 11.2451 31.5953C11.3282 31.5697 11.4038 31.5273 11.4661 31.4715C11.5285 31.4156 11.5761 31.3477 11.6052 31.2729C11.6343 31.198 11.6442 31.1182 11.6342 31.0394C11.444 28.4954 11.5108 27.2187 9.61814 27.1444" fill="black"/>
<path d="M14.1595 25.2828C14.1337 25.137 14.0569 25.0024 13.9403 24.8989C13.8237 24.7953 13.6734 24.7281 13.5115 24.7072C13.1772 24.7072 12.8172 24.8 12.8223 25.1714C12.8223 25.3274 12.8902 25.4772 13.0115 25.5883C13.1327 25.6995 13.2975 25.7632 13.4704 25.7656C13.5835 25.7656 14.1647 25.7006 14.1595 25.2782" fill="black"/>
<path d="M14.3909 27.8826V27.7897C14.3909 27.4973 14.2109 27.1305 13.8097 27.1352C13.1514 27.1352 13.1514 27.7155 13.1566 28.1704L13.2131 30.9559C13.2131 30.993 13.2131 31.0163 13.2131 31.0395V31.1091C13.2131 31.5084 13.3057 31.8658 13.8355 31.8612C13.9383 31.8612 14.0155 31.773 14.0669 31.773C14.4012 31.6384 14.4578 31.3087 14.4526 30.9606L14.4063 28.7415C14.4063 28.2772 14.4063 28.0869 14.4063 27.8873" fill="black"/>
<path d="M23.9523 29.7674C23.9523 28.8807 23.6386 26.8984 22.1368 26.9263C21.3344 26.9263 21.0464 27.2327 20.7327 27.8548C20.6073 28.1388 20.5176 28.4347 20.4653 28.7368C20.4138 28.0358 20.0024 26.7731 18.9635 26.787C18.1868 26.787 17.7085 27.5576 17.3897 28.1797L17.2508 27.1445C17.2045 26.8288 16.9885 25.8028 16.4587 25.8121C16.3234 25.8232 16.1961 25.875 16.0973 25.9591C15.9984 26.0433 15.9337 26.155 15.9136 26.2763C15.9268 26.5269 15.9751 26.7749 16.0576 27.0145C16.2718 28.0093 16.4297 29.0134 16.5307 30.0228L16.5616 30.2874C16.6233 30.7795 16.6645 31.5594 17.1016 31.5548C17.2444 31.5653 17.3874 31.5363 17.5114 31.4716C17.6355 31.4069 17.7347 31.3096 17.796 31.1927C17.8937 30.241 17.9811 27.9987 18.7269 27.9894C18.7656 27.9799 18.8064 27.9799 18.8452 27.9894H18.8709C19.3852 27.9894 19.4109 29.1407 19.4212 29.7814V29.8742C19.4212 30.4267 19.4881 31.4062 20.1361 31.3923C20.7841 31.3784 20.8356 30.7981 21.0104 30.2595L21.0567 30.1063C21.2522 29.5075 21.6225 28.008 22.1162 27.9987C22.1162 27.9987 22.1573 27.9987 22.1831 27.9987C22.6034 28.4836 22.8202 29.0871 22.7951 29.7025V29.8789C22.7951 29.9717 22.7951 30.0692 22.7951 30.1713C22.7951 30.5799 22.8774 31.0581 23.3094 31.0534C23.9934 31.0534 23.9832 30.501 23.9729 29.8835L23.9523 29.7674Z" fill="black"/>
<path d="M27.7425 30.032H27.6757C27.614 30.032 27.506 30.032 27.3928 30.032C26.8785 30.032 26.0453 29.9717 26.0299 29.3078C26.0042 27.8594 27.614 27.5437 28.4832 27.5297C28.5479 27.5204 28.6139 27.5204 28.6786 27.5297C28.8586 29.0014 28.8946 29.4564 28.8998 29.6746V29.8046C28.5312 29.9351 28.1385 30.0012 27.7425 29.9995V30.032ZM29.7535 26.3413V26.2624C29.7535 26.0767 29.4758 25.891 29.1775 25.8956C28.8792 25.9002 28.5706 26.0349 28.5757 26.3041V26.513C28.442 26.513 28.262 26.513 27.9534 26.513C27.5455 26.5097 27.1411 26.5808 26.7644 26.722C26.3877 26.8633 26.0465 27.0717 25.7612 27.3349C25.4759 27.598 25.2524 27.9105 25.1041 28.2535C24.9559 28.5965 24.8859 28.963 24.8984 29.331C24.9293 30.8259 26.0865 31.1601 27.2128 31.1416C27.8172 31.0909 28.4169 31.0025 29.0078 30.877C29.0643 31.1462 29.3215 31.1648 29.5221 31.1648C30.129 31.1648 30.2061 30.9095 30.201 30.733C30.1742 29.9555 30.0935 29.1802 29.9592 28.4118C29.8152 26.8937 29.7587 26.4852 29.7535 26.3413Z" fill="black"/>
<path d="M33.8115 34.071H33.7703C33.487 34.0743 33.2065 34.0211 32.9486 33.9151C32.6908 33.8092 32.4621 33.6531 32.2788 33.4582C32.2569 33.4182 32.2273 33.382 32.1914 33.3514L32.1399 33.2585C32.0576 33.0845 32.0073 32.8994 31.9908 32.7107C31.9858 32.6097 32.0088 32.5092 32.0576 32.4182C32.608 31.4387 33.4309 30.8723 34.3258 30.8584H34.3669C34.8064 30.8363 35.2382 30.9693 35.5712 31.2291C35.9041 31.489 36.1123 31.8554 36.1516 32.2511C36.1516 32.9707 35.2618 34.0338 33.8115 34.0617V34.071ZM33.2508 27.4694C33.2359 27.0611 33.3858 26.6619 33.6726 26.3459C33.7464 26.2743 33.8355 26.2169 33.9345 26.177C34.0334 26.1371 34.1403 26.1156 34.2486 26.1138C34.6086 26.1138 34.8812 26.6338 34.8864 26.9727C34.838 27.2152 34.7088 27.4387 34.5161 27.6133C34.3646 27.8122 34.1378 27.9542 33.8783 28.0126C33.7989 28.015 33.7197 28.0033 33.6453 27.978C33.5709 27.9526 33.5028 27.9143 33.4449 27.8651C33.387 27.8159 33.3406 27.7568 33.3081 27.6913C33.2757 27.6257 33.258 27.5551 33.256 27.4833L33.2508 27.4694ZM34.5418 29.7163V28.955C35.6424 28.3468 36.1773 27.7062 36.1619 27.0005C36.1441 26.6229 36.0164 26.2562 35.7916 25.9374L35.951 25.8213C36.0704 25.763 36.1721 25.6792 36.2474 25.5772C36.3227 25.4753 36.3692 25.3583 36.383 25.2364C36.383 25.0414 36.1876 24.6607 35.8687 24.6607C35.5723 24.7109 35.2988 24.8384 35.0818 25.0275C35.007 25.0834 34.9279 25.1346 34.8452 25.1807C34.7699 25.1749 34.6965 25.156 34.6292 25.125C34.4672 25.0597 34.2922 25.025 34.1149 25.0228C32.9217 25.046 32.1348 25.9513 32.0062 27.4555C32.0312 27.7841 32.1488 28.1016 32.3477 28.3778C32.5466 28.654 32.8203 28.8798 33.1428 29.0339H33.1789C33.2457 29.0339 33.2714 29.0339 33.2869 29.4053V29.8695C32.3564 30.1471 31.5772 30.7327 31.1062 31.5083L30.9467 31.7869C30.8455 32.0638 30.7968 32.3542 30.8027 32.6457C30.8468 33.2673 31.1446 33.8519 31.6386 34.2867C32.1326 34.7215 32.7877 34.9755 33.4771 34.9995H33.5132C34.1439 35.0091 34.7681 34.8818 35.3329 34.628C35.8977 34.3743 36.3866 34.0018 36.7585 33.5417C37.0885 33.0928 37.2671 32.567 37.2728 32.0283C37.2496 31.4162 36.9594 30.8371 36.4653 30.4174C36.2148 30.1878 35.9149 30.0067 35.5842 29.8854C35.2534 29.7641 34.8987 29.705 34.5418 29.7117" fill="black"/>
<path d="M42.4159 27.1676C42.4159 26.4898 41.7421 26.4666 41.2226 26.4713C40.7839 26.5035 40.3507 26.5814 39.9317 26.7034L39.7517 26.8102V26.4248C39.7517 25.9606 39.7106 25.5846 39.2014 25.5938H39.0985C39.0185 25.5873 38.9378 25.5961 38.8618 25.6196C38.7857 25.6431 38.7161 25.6809 38.6573 25.7304C38.5986 25.78 38.5521 25.8401 38.5209 25.907C38.4897 25.9738 38.4744 26.0459 38.4762 26.1184C38.4762 26.1649 38.4762 26.2809 38.5071 26.3877C38.5122 26.4697 38.5122 26.5518 38.5071 26.6337C38.5071 27.0423 38.5071 27.3951 38.5071 27.7108C38.5071 28.565 38.6511 29.2521 38.6665 30.0692C38.6744 30.1929 38.6744 30.3169 38.6665 30.4406C38.6584 30.5534 38.6584 30.6666 38.6665 30.7795C38.6698 30.869 38.6945 30.9568 38.7389 31.037C38.7833 31.1171 38.8463 31.1876 38.9237 31.2437H39.1705C39.9574 31.2437 39.9523 30.7516 39.9369 30.1759C39.9214 29.6003 39.798 29.0107 39.7877 28.4025C39.7774 27.7944 40.7032 27.5855 41.3307 27.5762C41.4649 27.5776 41.5989 27.5869 41.7318 27.604C42.0044 27.604 42.4313 27.4972 42.4261 27.1955" fill="black"/>
<path d="M44.8127 30.6124H44.7458H44.4681C43.9538 30.6124 43.1154 30.552 43.1052 29.8835C43.0743 28.435 44.6892 28.1194 45.5533 28.1054C45.6182 28.0978 45.6839 28.0978 45.7487 28.1054C45.9339 29.5771 45.9699 30.0321 45.975 30.2549V30.3802C45.6048 30.5111 45.2103 30.5773 44.8127 30.5752V30.6124ZM46.8288 26.9216V26.838C46.8288 26.6523 46.5459 26.4666 46.2476 26.4713C45.9493 26.4759 45.6459 26.6106 45.651 26.8798V27.0934C45.4438 27.0814 45.2359 27.0814 45.0287 27.0934C44.6208 27.0894 44.2163 27.1601 43.8395 27.3011C43.4628 27.4421 43.1216 27.6506 42.8365 27.914C42.5515 28.1774 42.3286 28.4901 42.1811 28.8334C42.0337 29.1767 41.9649 29.5434 41.9788 29.9113C42.0097 31.4016 43.1669 31.7358 44.2932 31.7173C44.8958 31.6682 45.4938 31.5814 46.083 31.4573C46.1448 31.7219 46.4019 31.7451 46.5974 31.7405C47.2042 31.7405 47.2762 31.4851 47.2762 31.3087C47.2469 30.5313 47.1662 29.7562 47.0345 28.9875C46.8905 27.4694 46.8339 27.0609 46.8288 26.9216Z" fill="black"/>
<path d="M52.5014 30.4777L51.1077 30.5845C50.9305 30.5992 50.7519 30.5809 50.5829 30.5308C50.4139 30.4807 50.2581 30.3999 50.125 30.2933C49.992 30.1867 49.8846 30.0566 49.8095 29.9111C49.7343 29.7655 49.693 29.6076 49.6882 29.4471C49.6882 28.8065 50.2333 28.1426 51.5397 28.1194H51.5911C51.9041 28.113 52.2159 28.157 52.5117 28.2494C52.5553 28.9916 52.5553 29.7355 52.5117 30.4777H52.5014ZM53.6535 25.1436C53.6535 24.7118 53.5867 24.4333 53.0929 24.4379C52.5992 24.4426 52.522 24.9022 52.5323 25.4175V25.7239C52.5323 26.1881 52.5323 26.6524 52.5323 27.1166L52.4912 27.0934C52.1944 27.0064 51.8812 26.9748 51.5705 27.0006C50.3053 27.0006 48.5309 27.7944 48.5669 29.605C48.5978 31.1138 50.1099 31.6384 51.3597 31.6198C51.7286 31.6214 52.0952 31.5681 52.4449 31.4619C52.4037 32.0701 52.414 32.4554 52.4192 32.7711C52.4243 33.0868 52.6095 33.189 52.8306 33.1843C53.3861 33.1843 53.5918 33.1472 53.5764 32.228C53.5198 29.6096 53.7049 27.4462 53.6586 25.1436" fill="black"/>
<path d="M33.9192 0.895984C33.4821 1.41594 32.8906 1.82447 32.6695 2.48834C32.652 2.54846 32.6549 2.61193 32.6778 2.67055C32.7007 2.72917 32.7425 2.78026 32.7978 2.81723C32.8532 2.8542 32.9195 2.87535 32.9883 2.87797C33.0571 2.88058 33.1252 2.86454 33.1838 2.83189C33.6981 2.59513 33.9912 2.14017 34.4901 1.9034L33.9758 1.55985C33.8935 1.97303 33.5129 2.26087 33.3072 2.62763C33.268 2.68013 33.2478 2.7423 33.2494 2.80559C33.2509 2.86888 33.2742 2.93018 33.3159 2.98107C33.3576 3.03195 33.4157 3.06993 33.4823 3.08977C33.5489 3.10962 33.6207 3.11035 33.6878 3.09187C34.3513 2.99438 34.8707 2.53013 35.3799 2.16338L34.9016 1.73627C34.615 1.9443 34.4051 2.226 34.2998 2.54406C34.279 2.62154 34.292 2.70328 34.336 2.77239C34.38 2.8415 34.4518 2.89271 34.5364 2.91546C34.917 3.05937 35.2667 2.77155 35.5908 2.63227L35.0765 2.37228L35.025 2.46978C34.7987 2.80404 35.3799 3.11044 35.6062 2.77619C35.6846 2.65197 35.7336 2.51444 35.7502 2.37228C35.7862 2.12159 35.4416 2.02411 35.2359 2.10767C35.1227 2.15874 34.8296 2.38157 34.7216 2.3305C34.7987 2.45585 34.8759 2.58119 34.9582 2.70654C35.0317 2.48859 35.1814 2.29803 35.385 2.16338C35.7142 1.9034 35.241 1.4995 34.9067 1.73627C34.52 2.09237 34.0409 2.35569 33.5129 2.50228L33.8935 2.96653C34.125 2.54871 34.5313 2.22837 34.629 1.75484C34.6495 1.69429 34.6486 1.6295 34.6267 1.56939C34.6047 1.50927 34.5626 1.45678 34.5062 1.41912C34.4499 1.38147 34.382 1.3605 34.3118 1.3591C34.2417 1.3577 34.1728 1.37594 34.1147 1.4113C33.6004 1.64807 33.3072 2.10303 32.8032 2.3398C32.9729 2.45121 33.1375 2.56727 33.3175 2.68333C33.5078 2.10767 34.1095 1.69913 34.5004 1.23489C34.7627 0.923844 34.1815 0.622082 33.9192 0.928485" fill="black"/>
<path d="M10.0811 15.2366C10.1698 15.237 10.2572 15.2167 10.3347 15.1777C10.4122 15.1387 10.4772 15.0822 10.5234 15.0137L9.94733 14.7073C9.7383 15.0434 9.50642 15.3674 9.25301 15.6776C9.073 15.9236 9.43816 16.2672 9.71589 16.0908C10.2771 15.7652 10.8116 15.4037 11.3154 15.0091C11.6394 14.7352 11.1714 14.3359 10.8422 14.5773C10.3559 14.8881 9.94612 15.2865 9.63875 15.7472C9.59957 15.7997 9.57936 15.8619 9.58091 15.9252C9.58246 15.9885 9.6057 16.0498 9.64741 16.1007C9.68913 16.1516 9.74729 16.1895 9.81389 16.2094C9.88049 16.2292 9.95226 16.23 10.0193 16.2115C10.9091 16.0211 11.4697 15.3062 12.1589 14.8187L11.6446 14.452C11.192 15.2923 10.3845 15.9004 9.80333 16.6664C9.57188 16.9636 10.0605 17.2468 10.3176 17.0332C11.0685 16.439 11.8606 15.8911 12.5446 15.2319L12.0663 14.8048C11.3308 15.529 10.5234 16.1976 10.2199 17.1539C10.2041 17.2054 10.2037 17.2597 10.2188 17.3114C10.2339 17.363 10.2639 17.4101 10.3057 17.4479C10.3475 17.4856 10.3997 17.5127 10.4569 17.5263C10.5142 17.5399 10.5744 17.5396 10.6314 17.5253C12.0406 17.0611 12.6886 15.8587 13.7173 14.958L13.1567 14.6609C12.6423 15.8076 11.2177 16.3554 10.6622 17.4928C10.6269 17.5507 10.6133 17.6174 10.6234 17.6828C10.6335 17.7483 10.6667 17.809 10.7182 17.856C10.7697 17.903 10.8366 17.9337 10.9091 17.9436C10.9815 17.9534 11.0554 17.9418 11.12 17.9106C12.4675 17.3117 13.3727 16.1929 14.0773 15.0323C14.0996 14.9979 14.1141 14.9598 14.1201 14.9203C14.1261 14.8807 14.1234 14.8405 14.1122 14.8019C14.101 14.7634 14.0814 14.7272 14.0547 14.6954C14.028 14.6636 13.9946 14.6369 13.9564 14.6168C13.9182 14.5967 13.8761 14.5835 13.8323 14.5781C13.7885 14.5727 13.744 14.5752 13.7012 14.5853C13.6585 14.5954 13.6184 14.6131 13.5832 14.6372C13.548 14.6613 13.5184 14.6914 13.4961 14.7259C13.1001 15.2691 12.8224 15.8726 12.38 16.3879C11.9836 16.7642 11.6382 17.1819 11.3514 17.6321C11.2434 17.841 11.4234 18.1938 11.732 18.0963C13.0435 17.6042 13.5938 16.5272 14.5607 15.6683L14.0001 15.3712C13.707 16.1418 13.0692 16.7639 12.7761 17.516C12.6681 17.7946 13.0229 17.9803 13.2904 17.8596C14.0053 17.5624 14.2419 16.9311 14.7356 16.4297L14.175 16.1326C13.9916 16.6562 13.7611 17.1655 13.4858 17.6553C13.4705 17.7069 13.4705 17.7612 13.4857 17.8128C13.5008 17.8645 13.5307 17.9116 13.5723 17.9496C13.6138 17.9877 13.6657 18.0152 13.7227 18.0295C13.7797 18.0438 13.8399 18.0445 13.8973 18.0313C14.2686 17.8761 14.6051 17.6605 14.8899 17.3953L14.283 17.0611C14.2316 17.321 14.1133 17.5624 14.0516 17.8224C13.959 18.2031 14.607 18.3656 14.6996 17.9803C14.7613 17.7249 14.8796 17.4835 14.931 17.2235C14.95 17.1587 14.9449 17.09 14.9164 17.028C14.888 16.966 14.8378 16.9142 14.7736 16.8804C14.7093 16.8467 14.6346 16.8329 14.5608 16.8412C14.4871 16.8495 14.4184 16.8795 14.3653 16.9264C14.1658 17.1167 13.9308 17.2739 13.671 17.3907L14.0876 17.7667C14.3642 17.2775 14.5947 16.7681 14.7767 16.244C14.8487 15.9654 14.4476 15.7055 14.2161 15.9469C13.7738 16.4111 13.5321 17.0239 12.9046 17.2839L13.419 17.6274C13.7121 16.8568 14.3499 16.2347 14.643 15.4826C14.6603 15.4186 14.6542 15.3513 14.6258 15.2907C14.5973 15.2301 14.548 15.1793 14.4851 15.146C14.4222 15.1126 14.349 15.0985 14.2765 15.1056C14.204 15.1127 14.1359 15.1407 14.0824 15.1855C13.2287 15.9469 12.7041 17.0425 11.5468 17.4603L11.9274 17.9245C12.2349 17.4469 12.6025 17.0029 13.0229 16.6015C13.4395 16.1372 13.7018 15.5337 14.0516 15.0184L13.4704 14.712C12.8172 15.789 12.0046 16.8196 10.7548 17.3721L11.2177 17.7899C11.7937 16.6061 13.2184 16.0211 13.7893 14.8095C13.9281 14.5123 13.4498 14.3174 13.2287 14.5123C12.3235 15.3108 11.7166 16.5179 10.4616 16.9264L10.8782 17.2978C11.1611 16.439 11.9069 15.8587 12.5549 15.218C12.8429 14.9302 12.3749 14.503 12.0766 14.7909C11.3977 15.4501 10.6005 15.9933 9.85476 16.5875L10.3691 16.9589C10.9554 16.1883 11.7526 15.5894 12.2052 14.7445C12.2367 14.6823 12.2444 14.6125 12.2269 14.546C12.2094 14.4795 12.1678 14.4202 12.1087 14.3775C12.0495 14.3348 11.9763 14.3112 11.9006 14.3104C11.8249 14.3096 11.7511 14.3316 11.6909 14.3731C11.0994 14.7955 10.6057 15.4501 9.84447 15.6126L10.2251 16.0769C10.5042 15.6626 10.8776 15.3066 11.3206 15.0323L10.8474 14.6006C10.3846 14.9603 9.89485 15.2907 9.38159 15.5894L9.83933 16.0072C10.0929 15.6981 10.3231 15.3739 10.5285 15.0369C10.5735 14.968 10.5863 14.8857 10.5642 14.8082C10.542 14.7308 10.4866 14.6644 10.4102 14.6238C10.3338 14.5831 10.2427 14.5715 10.1568 14.5916C10.071 14.6116 9.99749 14.6616 9.95248 14.7305L10.0862 14.6516C9.65932 14.6841 9.65418 15.2923 10.0862 15.2598" fill="black"/>
<path d="M40.9912 9.54953C41.0683 9.64702 40.0243 11.4576 40.0243 11.8708C40.0254 11.9246 40.0421 11.9773 40.0726 12.0236C40.103 12.0699 40.1463 12.1083 40.1982 12.1349C40.25 12.1616 40.3086 12.1757 40.3683 12.1758C40.428 12.1758 40.4867 12.1619 40.5386 12.1354C41.2278 11.7779 41.6855 11.1744 42.3747 10.8216L41.917 10.4037C41.4026 11.3322 40.2403 11.7965 40.0397 12.8967C40.0273 12.9421 40.0265 12.9895 40.0371 13.0352C40.0478 13.081 40.0698 13.124 40.1014 13.161C40.1331 13.198 40.1735 13.2281 40.2198 13.2491C40.2661 13.2701 40.3171 13.2813 40.3689 13.2821C41.2381 13.2449 41.9118 12.6043 42.6061 12.205C42.6832 12.1644 42.7392 12.0978 42.7619 12.0199C42.7846 11.9419 42.772 11.8591 42.727 11.7895C42.682 11.7199 42.6082 11.6694 42.5219 11.6489C42.4356 11.6284 42.3438 11.6398 42.2667 11.6804C41.6482 11.9851 41.1093 12.4059 40.6861 12.9144C40.2629 13.4229 39.9653 14.0073 39.8134 14.6284C39.7976 14.6798 39.7972 14.7342 39.8123 14.7858C39.8274 14.8375 39.8573 14.8846 39.8992 14.9224C39.941 14.9601 39.9932 14.9872 40.0504 15.0008C40.1077 15.0144 40.1678 15.014 40.2249 14.9998C41.1146 14.8605 41.7678 14.1038 42.4519 13.6581L42.1124 13.1335C41.0576 13.8005 40.2765 14.7635 39.8906 15.8726C39.8753 15.9242 39.8752 15.9785 39.8904 16.0301C39.9056 16.0817 39.9354 16.1289 39.977 16.1669C40.0186 16.2049 40.0705 16.2325 40.1275 16.2468C40.1845 16.2611 40.2447 16.2617 40.302 16.2486C41.4284 15.9143 42.0353 14.958 43.0639 14.4891L42.5496 14.1456C42.097 15.3665 40.5952 15.8261 40.3946 17.2003C40.3934 17.2549 40.4087 17.3088 40.4388 17.3561C40.4689 17.4035 40.5127 17.4426 40.5655 17.4693C40.6183 17.496 40.6781 17.5093 40.7386 17.5077C40.7991 17.5061 40.8579 17.4897 40.9089 17.4603C41.9954 16.7295 42.9497 15.8509 43.7376 14.8559L43.2233 14.4845C42.4056 15.7797 41.0323 16.8475 40.7392 18.3656C40.7187 18.4261 40.7195 18.4909 40.7415 18.551C40.7635 18.6111 40.8056 18.6636 40.8619 18.7013C40.9183 18.7389 40.9862 18.7599 41.0563 18.7613C41.1265 18.7627 41.1953 18.7445 41.2535 18.7091C42.2821 18.1984 42.7964 17.2699 43.6193 16.5829L43.0587 16.2904C42.7964 17.4603 41.701 18.2541 41.5878 19.4844C41.5891 19.5441 41.6097 19.6021 41.6471 19.6514C41.6845 19.7007 41.737 19.739 41.7982 19.7617C41.8594 19.7844 41.9266 19.7904 41.9916 19.7791C42.0565 19.7678 42.1164 19.7396 42.1638 19.6979C43.7942 18.3052 43.7839 15.984 45.5377 14.7166L44.972 14.4195C44.6428 15.7101 43.429 16.6757 43.1359 18.0174C43.1154 18.0779 43.1162 18.1427 43.1382 18.2028C43.1602 18.2629 43.2023 18.3154 43.2586 18.3531C43.315 18.3907 43.3829 18.4117 43.453 18.4131C43.5232 18.4145 43.592 18.3963 43.6502 18.3609C44.3156 17.9862 44.8882 17.4915 45.332 16.9078C46.0212 16.1372 46.875 15.4826 47.5487 14.7166C47.8213 14.4195 47.3687 13.9924 47.0755 14.2848C46.1858 15.1715 45.0543 16.165 44.8434 17.3953C44.8297 17.4467 44.8308 17.5005 44.8465 17.5515C44.8622 17.6024 44.8921 17.6489 44.9333 17.6866C44.9745 17.7242 45.0256 17.7518 45.0819 17.7666C45.1382 17.7814 45.1977 17.7831 45.2549 17.7713C46.6692 17.5346 47.4664 16.035 48.315 15.1298L47.7544 14.8373C47.4201 15.6497 46.6435 16.2068 46.3761 17.0517C46.3638 17.0968 46.3628 17.1437 46.3732 17.1891C46.3836 17.2345 46.4051 17.2773 46.4362 17.3142C46.4672 17.3512 46.507 17.3814 46.5527 17.4026C46.5984 17.4239 46.6487 17.4356 46.7001 17.4371C47.6773 17.4371 48.0682 16.5086 48.8602 16.1465L48.4025 15.7333C48.1042 16.295 47.6413 16.6943 47.5898 17.3396C47.5898 17.5949 47.883 17.6831 48.1042 17.5996C48.5156 17.4417 49.2511 16.7918 49.1636 17.5438C49.1276 17.892 49.5545 18.087 49.8374 18.1845C50.2437 18.3238 50.4186 17.7203 50.0174 17.5996C49.6162 17.4788 50.0945 16.6293 49.5031 16.4854C48.9116 16.3414 48.3459 16.8568 47.7699 17.075L48.2842 17.3396C48.3202 16.8753 48.7985 16.4529 49.0042 16.0397C49.041 15.9813 49.0555 15.9137 49.0455 15.8472C49.0356 15.7807 49.0017 15.719 48.9492 15.6715C48.8966 15.6241 48.8282 15.5935 48.7545 15.5845C48.6809 15.5756 48.606 15.5887 48.5413 15.6219C47.955 15.8772 47.3841 16.8428 46.7206 16.8289L47.0447 17.2142C47.307 16.3832 48.0733 15.8215 48.423 14.9951C48.4387 14.9315 48.4315 14.865 48.4024 14.8054C48.3734 14.7457 48.324 14.696 48.2615 14.6633C48.199 14.6307 48.1266 14.617 48.0549 14.624C47.9831 14.6311 47.9157 14.6586 47.8624 14.7027C47.0961 15.5151 46.3503 16.9728 45.0954 17.1817L45.512 17.5578C45.7074 16.425 46.7515 15.5337 47.5693 14.7166L47.0961 14.2848C46.5201 14.9208 45.8669 15.4826 45.2549 16.0861C44.6428 16.6896 44.1542 17.451 43.3313 17.8363L43.8456 18.1799C44.1337 16.8289 45.3474 15.8865 45.6817 14.582C45.699 14.518 45.6929 14.4507 45.6645 14.39C45.636 14.3294 45.5867 14.2787 45.5238 14.2453C45.4609 14.212 45.3877 14.1978 45.3152 14.2049C45.2427 14.212 45.1746 14.2401 45.1211 14.2848C43.3519 15.5847 43.3776 17.892 41.7472 19.2708L42.3233 19.4844C42.4261 18.347 43.5216 17.5578 43.7685 16.4482C43.7842 16.3846 43.777 16.3181 43.7479 16.2585C43.7189 16.1988 43.6695 16.149 43.607 16.1164C43.5445 16.0838 43.4721 16.0701 43.4003 16.0771C43.3285 16.0842 43.2611 16.1117 43.2079 16.1557C42.4158 16.801 41.9273 17.7063 40.9758 18.1845L41.4901 18.528C41.7678 17.075 43.1205 16.0304 43.9074 14.7909C44.0925 14.503 43.6193 14.1456 43.393 14.4241C42.6457 15.3832 41.7383 16.232 40.7032 16.9403L41.2175 17.2003C41.3975 15.9886 42.9302 15.4408 43.3519 14.3034C43.4548 14.0341 43.105 13.8392 42.8376 13.9645C41.8758 14.4055 41.2946 15.3572 40.2352 15.6636L40.6518 16.035C40.9828 15.0745 41.6552 14.2391 42.565 13.6581C42.9096 13.426 42.565 12.906 42.2256 13.1335C41.5724 13.5467 40.9706 14.2895 40.1683 14.4148L40.5797 14.7909C40.7102 14.246 40.9694 13.7329 41.3395 13.2867C41.7096 12.8404 42.182 12.4715 42.7244 12.205L42.385 11.6804C41.8295 11.9961 41.1712 12.646 40.4872 12.6785C40.59 12.8039 40.698 12.9339 40.8112 13.0592C40.9912 12.0657 42.1484 11.5876 42.6164 10.7101C42.651 10.6519 42.6638 10.5851 42.6529 10.5198C42.642 10.4544 42.608 10.394 42.5559 10.3475C42.5039 10.301 42.4366 10.271 42.364 10.2619C42.2915 10.2528 42.2177 10.2651 42.1535 10.297C41.4592 10.6498 41.0066 11.2533 40.3175 11.6108L40.8318 11.8708C40.8318 11.2255 42.169 9.80487 41.7061 9.2292C41.4541 8.91351 40.8678 9.2292 41.1249 9.53561" fill="black"/>
<path d="M45.7901 11.6943C45.1318 12.0704 44.3551 13.4306 45.7386 13.2171L45.3272 13.0035C45.4455 13.4306 45.1523 13.7834 45.3272 14.2152C45.406 14.3785 45.53 14.5208 45.6872 14.6284C46.0627 14.9116 46.0575 15.023 45.9238 15.5569C45.8261 15.9376 46.4741 16.1 46.5718 15.7147C46.6695 15.3294 46.8393 14.6005 46.3558 14.2941C45.9907 14.062 45.8724 13.8856 45.9804 13.5003C46.0447 13.2891 46.0447 13.0661 45.9804 12.855C45.9541 12.7794 45.897 12.7157 45.8205 12.6769C45.7441 12.6381 45.6541 12.6271 45.5689 12.646L45.6409 12.7389C45.6957 12.6426 45.765 12.5535 45.8467 12.4743C45.9252 12.38 46.0209 12.2984 46.1295 12.2329C46.4947 12.024 46.1604 11.4947 45.7952 11.7083" fill="black"/>
<path d="M42.8633 18.3888C42.8221 18.6998 42.4261 19.0202 42.3489 19.3498C42.3348 19.4011 42.3356 19.4548 42.3512 19.5058C42.3669 19.5567 42.3969 19.6031 42.4383 19.6405C42.4797 19.6779 42.5311 19.705 42.5876 19.7191C42.644 19.7332 42.7036 19.734 42.7604 19.7212C43.4856 19.6283 43.9742 19.2291 44.6016 18.9273L44.1439 18.5141C43.7222 19.0991 43.2901 19.5401 43.2541 20.2597C43.2555 20.3402 43.2918 20.4169 43.3554 20.4734C43.4189 20.5298 43.5044 20.5615 43.5936 20.5615C44.9154 20.5893 45.5531 19.3776 46.7463 19.0991L46.3657 18.6349C46.0829 19.1455 45.5994 19.5169 45.296 20.0276C45.2653 20.0681 45.246 20.1148 45.2398 20.1636C45.2336 20.2123 45.2407 20.2617 45.2605 20.3075C45.2803 20.3532 45.3121 20.3939 45.3532 20.4261C45.3944 20.4582 45.4436 20.4808 45.4965 20.4918C46.6897 20.645 47.5178 19.5401 48.5824 19.2476L48.2018 18.7834C47.8624 19.2848 47.3687 19.5494 47.3892 20.1761C47.3898 20.2228 47.4022 20.2687 47.4255 20.3104C47.4487 20.3521 47.4822 20.3884 47.5234 20.4166C47.5646 20.4448 47.6124 20.4642 47.6631 20.4732C47.7138 20.4822 47.7661 20.4806 47.8161 20.4686C48.4607 20.1847 49.0768 19.8507 49.6573 19.4705L49.143 19.127C49.0864 19.4334 48.9733 19.7165 48.9116 20.0276C48.8986 20.0792 48.9004 20.1329 48.9168 20.1837C48.9332 20.2345 48.9637 20.2807 49.0055 20.3179C49.0472 20.355 49.0987 20.382 49.1552 20.3962C49.2116 20.4104 49.2712 20.4114 49.3282 20.399C49.8111 20.2792 50.2758 20.1061 50.7117 19.8837L50.1974 19.6237C50.1641 19.777 50.1641 19.9346 50.1974 20.0879C50.2 20.168 50.2368 20.2441 50.3 20.3003C50.3632 20.3565 50.4481 20.3885 50.5368 20.3897H50.6911C50.7798 20.3897 50.8648 20.3579 50.9275 20.3013C50.9902 20.2447 51.0254 20.168 51.0254 20.0879C51.0254 20.0079 50.9902 19.9312 50.9275 19.8746C50.8648 19.818 50.7798 19.7862 50.6911 19.7862H50.5368C50.65 19.8837 50.758 19.9858 50.8711 20.0879C50.8378 19.9346 50.8378 19.777 50.8711 19.6237C50.902 19.3683 50.5728 19.2802 50.3568 19.3591C49.9709 19.5576 49.5599 19.7135 49.1327 19.8233L49.5442 20.1947C49.6059 19.8883 49.7191 19.6051 49.7756 19.2987C49.7961 19.2382 49.7953 19.1734 49.7733 19.1133C49.7513 19.0531 49.7093 19.0007 49.6529 18.963C49.5965 18.9253 49.5286 18.9044 49.4585 18.903C49.3884 18.9016 49.3195 18.9198 49.2613 18.9552C48.731 19.3073 48.1684 19.6179 47.5795 19.8837L48.0064 20.1761C48.0064 19.8047 48.5207 19.4008 48.7264 19.0852C48.7656 19.0327 48.7858 18.9705 48.7843 18.9072C48.7827 18.8439 48.7595 18.7826 48.7178 18.7317C48.676 18.6808 48.6179 18.6429 48.5513 18.623C48.4847 18.6032 48.4129 18.6024 48.3458 18.6209C47.5127 18.8484 46.4789 19.9765 45.6097 19.8651C45.6817 20.0137 45.7434 20.1622 45.8103 20.3293C46.124 19.828 46.6023 19.4612 46.8852 18.9366C46.9244 18.8841 46.9446 18.8219 46.943 18.7586C46.9415 18.6953 46.9182 18.6341 46.8765 18.5832C46.8348 18.5323 46.7766 18.4943 46.71 18.4745C46.6434 18.4546 46.5717 18.4539 46.5046 18.4724C45.4143 18.7277 44.6788 19.9347 43.5319 19.9115L43.8662 20.2179C43.8919 19.633 44.3342 19.2337 44.6634 18.7788C44.8536 18.5095 44.4885 18.2263 44.2005 18.3609C43.6347 18.6348 43.1719 19.0109 42.5187 19.0945L42.9353 19.4658C43.0536 19.0016 43.4239 18.8066 43.4804 18.347C43.5319 17.9617 42.8581 17.9663 42.8118 18.347" fill="black"/>
<path d="M34.3773 0.98419C34.5437 1.16397 34.6869 1.36021 34.8042 1.56914C34.9534 1.84769 35.118 2.21908 35.118 2.21908L35.478 2.81797L32.855 2.98045L33.3693 2.30265C33.3693 2.30265 33.5236 2.01018 33.7448 1.68521C33.9296 1.43337 34.1415 1.19856 34.3773 0.98419ZM36.6969 3.2265L35.9666 2.01017C35.8605 1.72738 35.7227 1.45515 35.5551 1.19774C35.2825 0.798488 34.7734 0.0324918 34.7734 0.0324918C34.5444 -0.0108306 34.308 -0.0108306 34.0791 0.0324918C33.8939 0.111414 33.5647 0.849559 33.3487 1.10025C33.2407 1.23488 32.9013 1.5645 32.9013 1.5645L32.6595 2.02874C32.6595 2.02874 31.6823 2.95723 31.6309 3.24506C31.5795 3.5329 31.9909 3.83467 31.9909 3.83467C31.9909 3.83467 36.2083 3.55147 36.5323 3.55147C36.8563 3.55147 36.6969 3.25436 36.6969 3.25436" fill="black"/>
<path d="M17.9501 20.4361L17.549 20.4779V20.1715L17.9964 20.1158L17.9501 20.4361ZM17.6055 21.1835L17.5695 20.7471L17.9244 20.71L17.8884 21.1742L17.6055 21.1835ZM16.7415 20.8353L17.2558 20.7796L17.2918 21.2114L16.8289 21.2578L16.7415 20.8353ZM16.15 20.3107L16.4638 21.5317C16.476 21.5788 16.5067 21.6202 16.5502 21.6484C16.5937 21.6766 16.6471 21.6896 16.7004 21.6849L18.1199 21.5456C18.171 21.5394 18.2183 21.5176 18.2538 21.4839C18.2894 21.4501 18.3111 21.4064 18.3153 21.3599L18.4387 19.9069C18.4414 19.8777 18.4368 19.8484 18.4252 19.8211C18.4137 19.7937 18.3954 19.7691 18.3719 19.749C18.3468 19.7289 18.3175 19.7135 18.2857 19.7039C18.2538 19.6944 18.2202 19.6907 18.1867 19.6933L16.3043 19.9301C16.2464 19.937 16.194 19.9643 16.1583 20.0061C16.1227 20.0478 16.1067 20.1006 16.114 20.1529C16.1188 20.1807 16.1293 20.2075 16.1449 20.2318C16.1373 20.2577 16.1373 20.2849 16.1449 20.3107" fill="black"/>
<path d="M12.2309 15.7193L12.3338 16.295L11.7012 16.3461C11.7105 16.2079 11.764 16.0751 11.8553 15.9638C11.9466 15.8526 12.0717 15.7676 12.2155 15.7193H12.2309ZM13.2441 16.2161L12.6321 16.2672L12.5292 15.6776C12.6964 15.687 12.8558 15.7443 12.9844 15.8411C13.113 15.938 13.2039 16.0693 13.2441 16.2161ZM12.7812 17.061L12.6887 16.5503L13.2595 16.5039C13.2404 16.6263 13.1862 16.7421 13.1023 16.8398C13.0185 16.9375 12.9078 17.0138 12.7812 17.061ZM11.7218 16.6339L12.3646 16.5782L12.4624 17.1167C12.3011 17.1172 12.1436 17.0729 12.0111 16.9899C11.8786 16.9068 11.7776 16.789 11.7218 16.6525V16.6339ZM12.4726 17.581C12.8005 17.5801 13.1153 17.4653 13.3519 17.2604C13.5884 17.0555 13.7285 16.7763 13.743 16.4807C13.7708 16.4675 13.7938 16.4473 13.8093 16.4226C13.8248 16.3979 13.8321 16.3698 13.8304 16.3414C13.8288 16.3143 13.8181 16.2882 13.7997 16.2667C13.7814 16.2452 13.7562 16.2291 13.7276 16.2207C13.6836 16.0056 13.5726 15.8063 13.4077 15.646C13.2428 15.4857 13.0306 15.3712 12.7962 15.3158C12.5617 15.2604 12.3147 15.2665 12.0839 15.3333C11.8531 15.4 11.6482 15.5248 11.4931 15.6929C11.338 15.861 11.2392 16.0655 11.2082 16.2824C11.1772 16.4994 11.2154 16.7198 11.3181 16.9179C11.4209 17.116 11.5841 17.2836 11.7885 17.401C11.993 17.5185 12.2303 17.5809 12.4726 17.581Z" fill="black"/>
<path d="M19.7451 19.9486L19.9046 21.2299L24.3225 21.3738L24.2454 20.3804L19.7451 19.9486Z" fill="black"/>
<path d="M28.1487 19.8744L27.8658 18.7648L27.7733 18.607L26.1634 16.9218L25.6491 16.8336L23.2267 18.0128L21.9358 16.8104L21.4215 16.7593L19.4517 17.957L17.667 16.5643H17.0961L15.6303 17.9245C15.6303 17.8828 15.6303 17.8456 15.6303 17.8131C15.6303 17.7064 15.6303 17.4417 15.6303 17.0936C15.6046 16.2161 15.5634 14.8327 15.548 14.4102L15.6509 14.5727C15.7049 14.6593 15.7948 14.7231 15.9008 14.7501C16.0069 14.777 16.1204 14.765 16.2166 14.7166C16.3116 14.667 16.3814 14.5858 16.4111 14.4905C16.4409 14.3951 16.4283 14.2931 16.376 14.2059C16.376 14.2059 15.9183 13.4771 15.4349 12.7343C15.1931 12.3629 14.9463 11.9869 14.7405 11.699C14.6377 11.5505 14.5502 11.4251 14.4731 11.3276L14.3599 11.1976L14.2982 11.1326C14.2603 11.1025 14.2189 11.076 14.1748 11.0537C14.0659 11.0064 13.9458 10.9841 13.8251 10.9887C13.7268 10.9893 13.6288 10.9971 13.5319 11.0119C13.5319 10.9748 13.5319 10.933 13.5319 10.8866C13.5628 10.5291 13.6193 9.89311 13.6862 9.18746C16.0404 10.3248 18.6592 10.9436 21.3289 10.9934L21.2055 11.2766C21.2055 11.2766 21.1592 11.4483 21.3238 11.4483C21.4883 11.4483 21.4266 11.3973 21.4112 11.3648C21.4286 11.3911 21.4536 11.4128 21.4834 11.4274C21.5133 11.4421 21.5469 11.4494 21.5809 11.4483L21.6272 11.3415C21.6272 11.3415 21.6992 11.5087 21.8638 11.4669L21.7558 11.0027C22.4888 10.9969 23.2206 10.9489 23.9468 10.8587C23.9351 10.8727 23.9273 10.8889 23.9239 10.906C23.9205 10.9232 23.9216 10.9408 23.9271 10.9575C23.9326 10.9742 23.9423 10.9895 23.9556 11.0022C23.9688 11.0149 23.9852 11.0246 24.0033 11.0305C24.1113 11.0677 24.1216 11.0305 24.1165 10.9794C24.1232 11.0093 24.138 11.0372 24.1596 11.0607C24.1811 11.0842 24.2087 11.1025 24.2399 11.1141L24.3325 11.0305C24.3325 11.0305 24.3325 11.2116 24.4971 11.2301L24.5948 10.7659C25.7266 10.588 26.8385 10.3192 27.9173 9.96274L28.267 19.7444C28.2718 19.7917 28.2915 19.8368 28.3236 19.8744H28.1487ZM26.9966 18.9459L15.9337 18.8066C15.8967 18.7973 15.8576 18.7973 15.8206 18.8066L17.4047 17.335L19.1328 18.6952L19.6471 18.7231L21.5912 17.5392L22.8564 18.7184L23.3707 18.7881L25.7777 17.6182L27.0275 18.9273L26.9966 18.9459ZM15.044 13.9181H14.9411C14.9051 13.8578 14.864 13.7742 14.8177 13.6813L14.1285 12.4511L13.8816 11.9497L14.1954 12.414C14.4885 12.855 15.1211 13.8392 15.1211 13.8392L15.044 13.9181ZM10.1014 18.2635C10.1118 18.2144 10.1118 18.164 10.1014 18.1149C10.0528 17.7311 10.0271 17.3452 10.0243 16.9589C10.0243 16.5365 9.98828 15.7705 9.95227 15.1019C9.95227 14.9998 9.95227 14.907 9.95227 14.8095C10.2034 14.757 10.4609 14.7336 10.7186 14.7398H11.0529C11.5364 14.763 11.9221 14.763 12.2718 14.763C12.6216 14.763 12.9353 14.763 13.3005 14.7863H13.5885C13.9407 14.792 14.2929 14.7765 14.6428 14.7398H14.7045V14.8095C14.7045 15.2737 14.7405 15.9422 14.7611 16.5504C14.7611 16.8521 14.7611 17.1353 14.7611 17.3628C14.7611 17.5903 14.7611 17.7574 14.7611 17.8271C14.7611 17.8967 14.7611 18.0824 14.7611 18.2495L10.1014 18.2635ZM9.90084 13.8856V13.2728C9.90084 12.9803 9.90084 12.4418 9.86998 11.9358H10.0448L10.1374 14.0435L9.91113 14.0713C9.91113 13.9878 9.91113 13.9274 9.91113 13.9042L9.90084 13.8856ZM11.1712 14.0249H11.1095H10.7289H10.5283L10.4306 11.9172H10.7186H10.8575L11.1043 13.9645C11.1091 13.9909 11.1196 14.0161 11.1352 14.0388L11.1712 14.0249ZM9.80827 10.9423C9.90005 10.9534 9.99339 10.9388 10.0757 10.9005C10.1237 10.8767 10.166 10.8447 10.2002 10.8061C10.2344 10.7676 10.2599 10.7234 10.2752 10.676C10.2905 10.6285 10.2952 10.5789 10.2893 10.5298C10.2833 10.4807 10.2666 10.4331 10.2403 10.3898V10.362C10.1991 10.297 10.1014 10.1299 10.0037 9.95346L9.87512 9.70276C9.83912 9.62384 9.81341 9.55884 9.80827 9.54027C9.78717 9.46959 9.75785 9.40112 9.72083 9.336L10.1014 6.91265C11.0233 7.70586 12.0513 8.39206 13.1616 8.95533L13.2953 9.02032C13.2542 9.48456 13.2182 9.91167 13.1822 10.2691C13.1822 10.5338 13.141 10.7566 13.1256 10.9191C13.1256 10.998 13.1256 11.0584 13.1256 11.1048C12.9844 11.1261 12.8418 11.1385 12.6987 11.1419C12.1844 11.1419 11.7781 11.2023 11.4026 11.1976C11.3118 11.2024 11.2208 11.2024 11.13 11.1976C11.0066 11.1976 10.8832 11.1976 10.7546 11.1976C10.4538 11.2002 10.1533 11.2172 9.85455 11.2487C9.85455 11.1373 9.85455 11.0444 9.85455 10.9748L9.80827 10.9423ZM12.1741 12.1308C12.1741 12.0565 12.1741 11.9915 12.1741 11.9404C12.3284 11.9404 12.4827 11.9172 12.637 11.9172C12.6419 11.9626 12.6505 12.0076 12.6627 12.0518C12.7296 12.3443 12.889 12.8689 13.0382 13.3285C13.1513 13.6813 13.2542 13.9877 13.2953 14.1131C13.0639 14.1131 12.8427 14.1131 12.6267 14.1131C12.6267 14.1131 12.5958 13.9924 12.5547 13.8067C12.4878 13.5235 12.385 13.0918 12.3027 12.7018C12.2667 12.5068 12.2255 12.3165 12.1998 12.1679L12.1741 12.1308ZM11.3512 12.0054H11.4386H11.7575C11.7553 12.0301 11.7553 12.055 11.7575 12.0797C11.8038 12.3954 11.9169 12.92 12.0198 13.3749C12.0918 13.7138 12.1638 14.011 12.1947 14.1363H11.5415C11.5574 14.1182 11.5688 14.0972 11.575 14.0748C11.5812 14.0524 11.5821 14.0291 11.5775 14.0063L11.3512 12.0054ZM13.4496 11.8847C13.537 12.0797 13.8405 12.6879 14.1285 13.2496C14.2982 13.5792 14.4525 13.8949 14.5554 14.0945C14.2807 14.1273 14.0043 14.1474 13.7273 14.1549C13.7299 14.1348 13.7299 14.1146 13.7273 14.0945C13.7273 14.0945 13.6862 13.9692 13.6193 13.7788C13.5268 13.4864 13.3827 13.05 13.2645 12.66C13.2079 12.465 13.1513 12.2793 13.1153 12.1354C13.0967 12.0761 13.0829 12.0155 13.0742 11.9544C13.0717 11.9468 13.0717 11.9387 13.0742 11.9311L13.4702 11.8801L13.4496 11.8847ZM51.5757 20.6497L51.0048 18.4213L50.5522 18.1938L49.0761 18.6302L48.0732 17.8039H47.6258L46.7411 18.4074L45.8565 17.841H45.4451L44.6222 18.4027L43.6758 17.7946L43.2181 17.8364L42.2563 18.7416L42.1586 18.9691C42.1586 18.9691 42.1586 19.4333 42.1895 19.9719L41.3923 20.0369C41.3666 19.893 41.3306 19.7073 41.2894 19.4844C41.0683 18.2217 40.6774 15.8076 40.3328 13.7139C40.1631 12.6647 40.0036 11.6944 39.8853 10.9841C39.8442 10.7566 39.8133 10.557 39.7825 10.3852L39.9059 10.362H39.9882C40.5754 10.26 41.1558 10.1282 41.7266 9.96738L42.5341 9.78632L42.6112 14.4752L42.9866 14.8466L44.7816 14.9998L45.2342 14.6238V11.7919L46.3657 12.0565L46.2886 14.6934L46.7 15.0787H49.2716L49.6162 17.5253C49.6243 17.5738 49.643 17.6203 49.6713 17.6621C49.6997 17.7038 49.737 17.7401 49.7811 17.7687C49.8252 17.7972 49.8752 17.8175 49.9281 17.8284C49.9811 17.8392 50.0359 17.8403 50.0893 17.8317C50.1432 17.8244 50.1949 17.8074 50.2414 17.7819C50.2879 17.7564 50.3284 17.7228 50.3605 17.6831C50.3925 17.6434 50.4155 17.5983 50.4281 17.5505C50.4407 17.5027 50.4427 17.4531 50.4339 17.4046L49.9196 14.5448L49.5082 14.2292H47.0446L47.1115 12.0426L47.5641 12.1354L47.132 9.04354L44.9102 10.6452V5.53848H47.4818L46.088 4.8189L47.4818 4.09931H44.9102V3.9879C44.9089 3.95423 44.8931 3.92235 44.8662 3.89897C44.8394 3.87558 44.8035 3.86253 44.7662 3.86256C44.7294 3.86256 44.694 3.87576 44.668 3.89926C44.642 3.92277 44.6273 3.95465 44.6273 3.9879V10.8216L43.8507 11.439L44.3239 11.5551V14.1224L43.3518 14.0388L43.2798 9.51707L43.6244 9.43814L43.1101 7.97113L40.8883 7.27477L38.1521 9.20601L38.8156 10.0834C38.8156 10.2181 38.8773 10.4223 38.9236 10.6777C39.1293 11.8708 39.5048 14.2059 39.8442 16.2904C40.0139 17.3303 40.1785 18.3099 40.3071 19.0527C40.3688 19.4241 40.4254 19.7351 40.4717 19.9812C40.4717 19.9812 40.4717 20.0137 40.4717 20.0322L39.0676 20.139L38.3835 11.9544L38.2035 11.6758L36.9229 10.8819L37.3549 8.41216L37.2623 8.11505L36.2697 7.02407C36.2697 7.02407 36.568 4.61927 36.568 4.2618C36.568 3.90433 36.1257 3.84863 36.1257 3.84863L32.5255 4.06218C32.4196 4.08098 32.3238 4.13158 32.2538 4.20575C32.1837 4.27993 32.1435 4.37332 32.1398 4.47072C32.1398 4.80962 32.4329 7.3444 32.4329 7.3444L31.1729 8.35645L31.034 8.59785L30.7408 11.1884L29.3162 11.9544L29.1156 12.2793L29.1876 19.8651H28.7144C28.7456 19.8277 28.7619 19.7819 28.7607 19.7351L28.2876 6.49482V6.46697C28.2317 6.16148 28.1241 5.86555 27.9687 5.58955C27.8278 5.32645 27.644 5.08389 27.4235 4.86996C27.1577 4.61667 26.8326 4.42002 26.472 4.2943H26.4463C26.1205 4.02578 25.7112 3.85401 25.2737 3.8022C25.0564 3.77672 24.836 3.81898 24.6489 3.92198C24.4619 4.02497 24.3194 4.18253 24.2451 4.36858C24.2571 4.60463 24.3719 4.82683 24.5646 4.98682C24.7572 5.1468 25.0121 5.23161 25.2737 5.22279C25.4909 5.24266 25.7101 5.21015 25.9089 5.12859C26.1077 5.04703 26.2789 4.91935 26.4052 4.75855C26.6461 4.86104 26.864 5.00267 27.0481 5.17637C27.3134 5.43284 27.5166 5.73642 27.6447 6.06772C27.6961 6.20235 27.7321 6.31841 27.7527 6.39733V6.49019L27.8658 9.68883C26.8506 10.0315 25.8043 10.294 24.7388 10.4734C24.8597 10.3339 24.9537 10.177 25.0165 10.0092C25.0515 10.0066 25.0852 9.99633 25.1147 9.97934C25.1443 9.96236 25.1688 9.93914 25.1863 9.91168H25.4434L25.2171 9.8049C25.2136 9.74445 25.1903 9.6863 25.1502 9.63777C25.1131 9.60533 25.0648 9.58534 25.0133 9.58112C24.9619 9.57689 24.9104 9.58869 24.8674 9.61455C24.8331 9.59957 24.7968 9.58865 24.7594 9.58207H24.6976C24.1833 9.531 24.2451 10.5106 24.2451 10.5106L24.1885 10.5616C23.3869 10.675 22.5773 10.7355 21.7661 10.7427C21.8586 10.4409 21.9821 9.86061 21.5449 9.84204C21.4929 9.83283 21.4392 9.83443 21.3879 9.84672C21.3366 9.85901 21.2891 9.88167 21.249 9.91298C21.2088 9.94429 21.1771 9.98343 21.1562 10.0274C21.1353 10.0715 21.1258 10.1192 21.1283 10.167L20.8146 10.3666H21.1489C21.1771 10.4886 21.2167 10.6082 21.2672 10.7241C20.2069 10.707 19.151 10.5966 18.1144 10.3945C18.2938 10.3736 18.4678 10.3249 18.6287 10.2506C18.7882 10.2088 18.9373 10.1252 18.9219 9.96738L18.7162 10.037C18.7162 10.037 18.9785 9.86525 18.8036 9.82347C18.6287 9.78169 18.5825 9.96274 18.5825 9.96274C18.5825 9.96274 18.6442 9.7399 18.5002 9.77704C18.3562 9.81418 18.3562 9.88846 18.2842 9.95346C18.1953 9.71145 18.087 9.47561 17.9601 9.24781C17.9391 9.20519 17.9048 9.16897 17.8615 9.14356C17.8181 9.11815 17.7675 9.10463 17.7158 9.10463C17.6642 9.10463 17.6136 9.11815 17.5702 9.14356C17.5268 9.16897 17.4926 9.20519 17.4715 9.24781C17.4715 9.24781 17.3378 9.37315 17.2967 9.41958C17.3687 9.41958 17.5333 9.37315 17.5847 9.47064C17.6927 9.66098 17.3275 9.82811 17.6207 10.2088C17.6503 10.2494 17.6888 10.2842 17.7338 10.3109C16.3147 10.0087 14.9453 9.54048 13.6605 8.91818C13.6913 8.57 13.7222 8.20326 13.7582 7.85507L14.4011 7.79472C14.4282 7.7924 14.4544 7.78525 14.4784 7.77371C14.5024 7.76216 14.5236 7.74643 14.5409 7.72744C14.5581 7.70844 14.571 7.68656 14.5787 7.66304C14.5865 7.63953 14.5891 7.61486 14.5862 7.59045C14.5798 7.54071 14.5519 7.49527 14.5085 7.46399C14.4652 7.4327 14.41 7.41809 14.3548 7.42331L13.7891 7.47439V7.3769L14.3342 7.32583C14.3613 7.32351 14.3876 7.31636 14.4116 7.30481C14.4356 7.29327 14.4568 7.27755 14.474 7.25856C14.4912 7.23956 14.5041 7.21767 14.5119 7.19415C14.5197 7.17064 14.5222 7.14596 14.5194 7.12156C14.5175 7.09688 14.5101 7.07282 14.4975 7.05085C14.4849 7.02887 14.4675 7.00947 14.4463 6.99381C14.4251 6.97815 14.4005 6.96658 14.3742 6.9598C14.3479 6.95303 14.3202 6.95121 14.2931 6.95443L13.8251 6.99621C13.8251 6.90801 13.8251 6.82444 13.8251 6.74552L15.2703 6.48089C15.3202 6.46704 15.3627 6.43694 15.3895 6.39643C15.4162 6.35591 15.4254 6.30787 15.4151 6.26162C15.4049 6.21537 15.376 6.17421 15.334 6.1461C15.292 6.11799 15.24 6.10495 15.188 6.1095L13.8611 6.35555C13.8611 6.32306 13.8611 6.2952 13.8611 6.26735C13.8971 5.86345 13.9176 5.60811 13.9176 5.60811C13.92 5.58372 13.917 5.55916 13.9089 5.53581C13.9007 5.51247 13.8875 5.4908 13.8701 5.47204C13.8527 5.45329 13.8313 5.43783 13.8073 5.42652C13.7832 5.41522 13.7569 5.4083 13.7299 5.40616C13.7029 5.40403 13.6757 5.40672 13.6498 5.41408C13.6239 5.42145 13.5999 5.43333 13.5792 5.44906C13.5584 5.4648 13.5413 5.48408 13.5287 5.50579C13.5162 5.52751 13.5085 5.55124 13.5062 5.57562L13.429 6.43447L12.6318 6.5784C12.5774 6.58848 12.5296 6.61754 12.4988 6.65927C12.468 6.70099 12.4566 6.752 12.4673 6.80123C12.4728 6.82543 12.4835 6.8484 12.499 6.86879C12.5144 6.88919 12.5342 6.9066 12.5572 6.92001C12.5802 6.93341 12.6059 6.94254 12.6329 6.94685C12.6598 6.95117 12.6874 6.95058 12.7141 6.94514L13.393 6.8198C13.393 6.88944 13.393 6.96371 13.393 7.03335L12.7759 7.0937C12.7213 7.09863 12.6711 7.12292 12.6364 7.16123C12.6017 7.19953 12.5852 7.24872 12.5907 7.29797C12.5962 7.34722 12.6231 7.39249 12.6655 7.42384C12.7079 7.45518 12.7624 7.47002 12.817 7.46509L13.357 7.41403C13.357 7.44653 13.357 7.47902 13.357 7.51152L12.8427 7.5626C12.8156 7.56492 12.7894 7.57206 12.7654 7.58361C12.7414 7.59515 12.7202 7.61087 12.7029 7.62986C12.6857 7.64886 12.6728 7.67076 12.6651 7.69427C12.6573 7.71778 12.6547 7.74246 12.6576 7.76686C12.664 7.8166 12.6919 7.86203 12.7353 7.89331C12.7786 7.92459 12.8338 7.93921 12.889 7.93399L13.3313 7.89221C13.3313 8.03148 13.3313 8.17075 13.2953 8.31002C13.2593 8.4493 13.2696 8.58394 13.2542 8.72321C13.2457 8.72124 13.2369 8.72124 13.2285 8.72321C12.4342 8.31653 11.6789 7.85066 10.9706 7.33047C10.7135 7.13549 10.518 6.97765 10.3843 6.86623L10.2351 6.73624L10.1991 6.70374C10.1854 6.68934 10.1677 6.67838 10.1479 6.67187C10.1281 6.66537 10.1068 6.66355 10.086 6.66659C10.1188 6.46513 10.1377 6.26201 10.1426 6.05843C10.1504 5.98277 10.1504 5.90662 10.1426 5.83095C10.1328 5.79122 10.119 5.75237 10.1014 5.71489C10.0787 5.6611 10.0372 5.61547 9.98313 5.5849L9.78769 5.45492L9.35053 5.15316L9.11394 4.98602L8.74363 5.0696C8.55958 5.46255 8.41499 5.86962 8.31161 6.28592L8.19332 6.90336C8.02874 6.63874 7.84359 6.36484 7.67901 6.06772C7.54231 5.84247 7.43364 5.60426 7.35499 5.35743C7.31899 5.25994 7.28813 5.16244 7.2367 5.05102C7.17998 4.93252 7.1111 4.81905 7.03097 4.71212C6.92987 4.58242 6.83714 4.44756 6.75324 4.30823C6.59895 4.05754 6.43436 3.76506 6.30578 3.53758L6.15664 3.2544L6.09492 3.14761C6.09492 3.14761 5.67318 2.70658 5.34916 3.14761C5.02514 3.58865 4.95828 3.82541 4.61369 4.2943C4.2001 4.84483 3.85514 5.43491 3.58507 6.0538C3.45228 6.31871 3.27917 6.56559 3.07075 6.7873C2.78612 7.09054 2.52817 7.41341 2.29928 7.75294C2.05241 8.13362 1.92897 8.33788 1.78497 8.51894C1.62951 8.76185 1.45775 8.99595 1.27065 9.21994C1.07431 9.45768 0.902169 9.71095 0.756339 9.97666C0.690907 10.0802 0.65387 10.1964 0.64833 10.3156C0.639463 10.4141 0.67431 10.5117 0.745203 10.587C0.816095 10.6623 0.917227 10.7091 1.02635 10.7171C1.13547 10.7251 1.24365 10.6937 1.32709 10.6297C1.41052 10.5657 1.46237 10.4744 1.47123 10.3759C1.58939 10.117 1.75069 9.87591 1.94955 9.66098C2.23242 9.3128 2.37643 9.11317 2.51529 8.90891C2.65416 8.70464 2.77245 8.50037 3.02961 8.12898C3.23905 7.82168 3.47282 7.52844 3.72907 7.25154C3.99301 6.97242 4.20966 6.65952 4.37197 6.32305C4.61281 5.75271 4.92514 5.2091 5.30287 4.70284C5.44688 4.50321 5.5806 4.30359 5.6989 4.12253C5.80176 4.29895 5.91491 4.49393 6.02292 4.67034C6.12219 4.82992 6.23033 4.98486 6.34693 5.13458C6.393 5.19448 6.43262 5.25822 6.46523 5.32493C6.50637 5.42242 6.54751 5.54776 6.61437 5.72882C6.69773 5.96594 6.80804 6.19463 6.94353 6.41126C7.1544 6.76409 7.36527 7.07977 7.54528 7.36296C7.70415 7.60187 7.84173 7.85181 7.95673 8.1104C8.03101 8.28002 8.12225 8.44318 8.22932 8.59785C8.38876 8.84855 8.57905 9.10389 8.74363 9.31744C8.82078 9.42422 8.8825 9.51707 8.92879 9.59135C8.94778 9.61984 8.96495 9.64929 8.98022 9.67955V9.70276C9.01304 9.80747 9.05429 9.90988 9.10365 10.0092C9.16537 10.1345 9.23737 10.2691 9.30423 10.3852L8.93908 10.3388C8.64077 10.3109 8.26532 10.2738 7.91045 10.2738H7.43728C5.89434 10.3341 1.44552 10.5755 1.44552 10.5755C1.38733 10.5787 1.33054 10.5929 1.27881 10.6172C1.22708 10.6414 1.18156 10.6752 1.14521 10.7164C1.10885 10.7575 1.08246 10.8051 1.06775 10.856C1.05303 10.9069 1.05032 10.96 1.05978 11.0119C1.0611 11.0274 1.0611 11.0429 1.05978 11.0584C1.10093 11.2812 1.26551 12.2608 1.32209 13.2218C1.39409 14.3499 1.46095 15.1066 1.53295 15.6219C1.56381 15.8587 1.62038 16.36 1.68725 17.0146C1.75411 17.6692 1.84669 18.4399 1.94955 19.2569C2.05241 20.074 2.13985 20.5568 2.22214 20.9468C2.30443 21.3368 2.36614 21.6199 2.433 22.0749C2.49986 22.5299 2.53587 22.9431 2.5513 23.2402C2.5513 23.3887 2.5513 23.5094 2.5513 23.5884V23.7137C2.5513 23.8134 2.59519 23.9091 2.67332 23.9796C2.75144 24.0501 2.8574 24.0897 2.96789 24.0897C3.07838 24.0897 3.18434 24.0501 3.26247 23.9796C3.34059 23.9091 3.38448 23.8134 3.38448 23.7137C3.37552 23.1328 3.32743 22.553 3.24048 21.9774C3.16847 21.5132 3.09647 21.1882 3.02447 20.8075C2.95246 20.4268 2.85988 19.9765 2.75702 19.1687C2.65416 18.361 2.57187 17.581 2.49986 16.9403C2.42786 16.2997 2.37643 15.8029 2.34043 15.5476C2.27357 15.0602 2.2067 14.3174 2.1347 13.1985C2.09355 12.4697 1.99069 11.7501 1.92383 11.3183H2.38671L5.59603 11.1512L7.07725 11.0816H7.59157C7.73043 11.0816 7.8333 11.0816 7.87959 11.0816C8.18409 11.0853 8.48807 11.1055 8.78992 11.1419H8.92879C8.92879 11.699 8.98536 12.8643 8.98536 13.3192V13.9645C8.98536 13.9645 8.98536 14.1038 9.01108 14.3266C9.01108 14.6609 9.05737 15.1855 9.08308 15.6962C9.1088 16.2068 9.12423 16.7129 9.12423 17.0054C9.12764 17.4165 9.15511 17.8271 9.20651 18.2356C9.21061 18.2724 9.22103 18.3084 9.23738 18.3424L9.17052 18.3702L4.80399 20.775C4.73797 20.8147 4.68499 20.8697 4.65061 20.9342C4.61623 20.9988 4.6017 21.0704 4.60855 21.1418L4.87085 23.203C4.89349 23.2933 4.95221 23.3728 5.03576 23.4265C5.11932 23.4801 5.22185 23.504 5.32373 23.4937C5.42561 23.4833 5.51969 23.4394 5.58796 23.3704C5.65623 23.3013 5.6939 23.212 5.69376 23.1195L5.46746 21.295L5.69376 21.165L14.8537 20.2644C14.8537 20.4176 14.8794 20.5615 14.8897 20.6915C14.9205 20.9468 14.9411 21.1557 14.9411 21.2857C14.9411 21.3854 14.985 21.4811 15.0631 21.5516C15.1413 21.6221 15.2472 21.6617 15.3577 21.6617C15.4682 21.6617 15.5742 21.6221 15.6523 21.5516C15.7304 21.4811 15.7743 21.3854 15.7743 21.2857C15.7743 21.0861 15.7434 20.8725 15.7177 20.6218C15.692 20.3711 15.6714 20.0972 15.6714 19.7862C15.6714 19.6098 15.6714 19.4101 15.6714 19.2152C15.6968 19.2586 15.7344 19.2952 15.7805 19.3213C15.8265 19.3474 15.8794 19.362 15.9337 19.3637L26.9966 19.503C27.0699 19.5035 27.141 19.4805 27.1972 19.438L27.4287 20.3386L27.8453 20.6265L29.4808 20.58C29.5254 20.5944 29.5723 20.6023 29.6196 20.6033C29.7301 20.6033 29.8361 20.5636 29.9142 20.4931C29.9923 20.4226 30.0362 20.327 30.0362 20.2272L29.9591 12.465L31.3323 11.7222L31.5329 11.439L31.8312 8.80677L33.1273 7.76686L33.2661 7.45117L32.9884 4.77247L35.704 4.61463L35.4365 7.0937L35.5291 7.36761L36.5114 8.44931L36.0691 10.9887L36.244 11.3555L37.5812 12.1772L38.2755 20.5336C38.2872 20.6317 38.3402 20.722 38.4234 20.7859C38.5066 20.8498 38.6139 20.8825 38.723 20.8772C39.1344 20.8772 42.1226 20.6172 42.1226 20.6172C42.1226 20.6172 42.1226 20.7565 42.1226 20.8215C42.1226 21.0582 42.1226 21.2393 42.1226 21.2857C42.1226 21.3694 42.1595 21.4497 42.2251 21.5089C42.2906 21.5681 42.3796 21.6014 42.4723 21.6014C42.5651 21.6014 42.654 21.5681 42.7196 21.5089C42.7852 21.4497 42.8221 21.3694 42.8221 21.2857C42.8221 21.2253 42.8221 21.0489 42.8221 20.8215C42.8221 20.594 42.8221 20.4315 42.8221 20.2133C42.8221 19.749 42.7912 19.2337 42.7861 19.0016L43.4392 18.3888L44.3033 18.9459L44.2467 21.2671C44.246 21.2958 44.2516 21.3243 44.2631 21.351C44.2747 21.3777 44.2919 21.4021 44.3139 21.4228C44.3358 21.4435 44.3621 21.4601 44.3912 21.4716C44.4203 21.4831 44.4516 21.4894 44.4833 21.49C44.5148 21.4906 44.5461 21.4855 44.5754 21.4751C44.6047 21.4646 44.6314 21.449 44.6539 21.4291C44.6764 21.4092 44.6943 21.3854 44.7065 21.3592C44.7188 21.333 44.725 21.3048 44.725 21.2764L44.7867 18.9552L45.5839 18.4074L46.4634 18.9737H46.5303L46.4737 21.2532C46.4687 21.2842 46.4711 21.3158 46.4808 21.3459C46.4905 21.376 46.5072 21.4038 46.5299 21.4276C46.5526 21.4513 46.5807 21.4703 46.6123 21.4834C46.6438 21.4964 46.6782 21.5031 46.7129 21.5031C46.7476 21.5031 46.7819 21.4964 46.8135 21.4834C46.845 21.4703 46.8731 21.4513 46.8958 21.4276C46.9185 21.4038 46.9353 21.376 46.945 21.3459C46.9547 21.3158 46.9571 21.2842 46.952 21.2532L47.0137 18.8716L47.7389 18.3749L48.5875 19.0712L48.5258 21.5503C48.5251 21.579 48.5307 21.6075 48.5422 21.6342C48.5538 21.6609 48.571 21.6853 48.593 21.706C48.6149 21.7267 48.6412 21.7432 48.6703 21.7548C48.6994 21.7663 48.7307 21.7725 48.7624 21.7731C48.7936 21.7744 48.8248 21.7699 48.8541 21.76C48.8834 21.7501 48.9102 21.7349 48.9327 21.7153C48.9553 21.6958 48.9733 21.6724 48.9856 21.6464C48.9978 21.6204 49.0042 21.5925 49.0041 21.5642L49.0658 19.2012L50.3259 18.8252L50.8402 20.7193C50.8505 20.7593 50.8695 20.7971 50.896 20.8305C50.9226 20.8639 50.9562 20.8922 50.9949 20.9138C51.0336 20.9354 51.0767 20.9498 51.1217 20.9563C51.1667 20.9627 51.2126 20.9611 51.2568 20.9514C51.3018 20.9426 51.3443 20.9259 51.3821 20.9023C51.4199 20.8786 51.4521 20.8484 51.4769 20.8135C51.5018 20.7785 51.5187 20.7395 51.5269 20.6987C51.535 20.6578 51.5341 20.6159 51.5243 20.5754" fill="black"/>
 </g>
</svg>
