<svg width="54" height="35" viewBox="0 0 54 35" fill="none" xmlns="http://www.w3.org/2000/svg">
<g id="Logo">
<path id="Vector" d="M34.5214 4.56818C34.0485 4.776 33.6322 5.07563 33.3025 5.44561C33.258 5.49969 33.2345 5.56548 33.2357 5.63283C33.2368 5.70018 33.2625 5.76532 33.3087 5.81817C33.355 5.87102 33.4192 5.90864 33.4915 5.92521C33.5639 5.94178 33.6402 5.93639 33.7088 5.90985C34.1556 5.67026 34.6416 5.49631 35.1489 5.39453C35.0666 5.22276 34.9895 5.05099 34.9123 4.87458C34.3466 5.39453 33.6625 5.68237 33.3694 6.3973C33.2562 6.66657 33.6214 6.86155 33.8837 6.73621C34.3466 6.53194 34.7786 6.27196 35.2569 6.07697L34.9329 5.57095C34.254 6.1234 33.4619 6.53657 32.783 7.08903C32.7372 7.14338 32.7127 7.21003 32.7136 7.27836C32.7145 7.3467 32.7407 7.41279 32.788 7.46615C32.8353 7.51952 32.901 7.55708 32.9746 7.57287C33.0483 7.58865 33.1257 7.58175 33.1945 7.55327C33.9614 7.04936 34.8144 6.66202 35.7198 6.40658L35.3392 5.94234C34.9946 6.44837 34.2849 6.66657 33.7705 7.01011C33.1312 7.45501 32.5435 7.95742 32.0167 8.50962C31.9686 8.55859 31.9388 8.62003 31.9317 8.68517C31.9245 8.7503 31.9402 8.81583 31.9767 8.87241C32.0132 8.92899 32.0685 8.97373 32.1348 9.00028C32.2011 9.02684 32.2749 9.03384 32.3459 9.02029C33.6265 8.84388 34.7272 8.05001 35.7146 7.349C35.9821 7.15866 35.7146 6.75013 35.3855 6.84298C34.5698 7.13056 33.8265 7.56314 33.1996 8.11502C32.4487 8.69068 31.6567 9.09921 31.0447 9.81879C30.8441 10.0556 31.2401 10.413 31.5076 10.232C32.9065 9.30349 34.722 9.09922 36.0952 8.11037C36.409 7.88753 36.013 7.48364 35.6889 7.64613C34.0483 8.41213 31.6258 9.10851 31.0138 10.8726C30.9985 10.9242 30.9985 10.9786 31.0137 11.0302C31.0288 11.0818 31.0587 11.129 31.1003 11.167C31.1418 11.205 31.1937 11.2325 31.2507 11.2469C31.3077 11.2612 31.3679 11.2618 31.4253 11.2487C32.2745 10.9816 33.074 10.5996 33.7962 10.1159C34.614 9.62846 35.5501 9.32205 36.337 8.79281C36.6764 8.56533 36.3781 8.06859 35.9975 8.27286C34.7538 8.88969 33.5761 9.60926 32.4796 10.4223C31.451 11.2162 30.2012 11.8151 29.26 12.6785C29.2113 12.7266 29.1807 12.7875 29.1729 12.8522C29.1651 12.917 29.1803 12.9824 29.2165 13.0388C29.2526 13.0952 29.3077 13.1398 29.3738 13.166C29.4399 13.1922 29.5135 13.1987 29.584 13.1846C30.5715 13.0546 31.4973 12.4789 32.3922 12.1075C33.5082 11.6433 34.3209 10.7891 35.4163 10.3155L34.9535 9.90235C33.6625 11.7918 29.9903 11.7593 29.3269 14.127C29.2806 14.2988 29.4246 14.5355 29.6509 14.5123C29.9226 14.5037 30.1826 14.4102 30.3863 14.2477C31.0543 13.7616 31.7686 13.3298 32.5208 12.9571C33.8425 12.2561 35.0923 11.3694 36.5633 10.9005L36.1467 10.5291C35.9975 11.4576 34.0894 11.8893 33.3128 12.3536C32.1299 13.0732 30.8235 13.7834 30.1292 14.9533C30.0916 15.011 30.0762 15.0783 30.0856 15.1446C30.0949 15.211 30.1284 15.2726 30.1808 15.3199C30.2332 15.3672 30.3016 15.3975 30.3751 15.4059C30.4486 15.4143 30.5231 15.4005 30.5869 15.3665C32.7711 14.101 35.1095 13.0666 37.5559 12.2839L37.2319 11.7779C35.7867 12.79 34.0688 13.4631 32.5362 14.3638C31.4253 15.0183 30.2218 15.6636 29.7075 16.8243C29.6929 16.876 29.6936 16.9304 29.7095 16.9818C29.7253 17.0333 29.7558 17.0801 29.7979 17.1176C29.8401 17.1552 29.8923 17.1821 29.9495 17.1958C30.0067 17.2095 30.0669 17.2094 30.1241 17.1957C31.343 16.8475 32.5465 15.984 33.6265 15.3619C34.9123 14.6237 36.1981 13.867 37.4839 13.1521L37.0776 12.6878C35.8048 13.7159 34.4272 14.633 32.9631 15.4269C31.9344 16.0211 30.9727 16.6711 30.5561 17.7481C30.5415 17.7999 30.5422 17.8542 30.5581 17.9057C30.574 17.9571 30.6045 18.0039 30.6466 18.0415C30.6887 18.079 30.7409 18.106 30.7981 18.1196C30.8553 18.1333 30.9155 18.1333 30.9727 18.1195C32.0682 17.8595 33.0711 16.8707 33.9763 16.2625C35.3406 15.3881 36.8303 14.6853 38.4045 14.1734L38.0805 13.6627C36.6867 14.9069 34.7477 15.334 33.1791 16.3461C32.1505 17.0285 30.6384 17.8827 30.4018 19.1316C30.3658 19.3451 30.5509 19.5958 30.8184 19.503C31.9442 19.1102 33.0036 18.5773 33.966 17.9199C35.2929 17.1214 36.7741 16.5271 38.0805 15.7379C37.9468 15.5801 37.813 15.4176 37.6742 15.2737C35.8895 16.6989 32.9373 17.7295 31.8727 19.7629C31.836 19.8213 31.8214 19.8889 31.8314 19.9554C31.8413 20.0219 31.8752 20.0836 31.9277 20.1311C31.9803 20.1785 32.0487 20.2091 32.1224 20.2181C32.1961 20.2271 32.271 20.2139 32.3356 20.1808C34.5266 19.2941 36.1364 17.4417 38.5382 16.8893L38.2142 16.3832C36.9696 17.776 34.8917 18.2402 33.9454 19.9022C33.907 19.9544 33.8873 20.0159 33.8888 20.0785C33.8904 20.1411 33.9131 20.2018 33.954 20.2523C33.9949 20.3029 34.052 20.341 34.1176 20.3614C34.1832 20.3818 34.2541 20.3835 34.3209 20.3665C34.8294 20.27 35.3118 20.0839 35.7404 19.8186C36.5703 19.3981 37.4292 19.0259 38.3119 18.7045C38.1988 18.5373 38.0908 18.3702 37.9828 18.1984C37.273 18.9737 36.2187 19.3915 35.6324 20.269C35.6015 20.3153 35.5848 20.3681 35.5839 20.4221C35.583 20.4761 35.5979 20.5294 35.6271 20.5765C35.6564 20.6237 35.6989 20.663 35.7504 20.6905C35.8019 20.718 35.8605 20.7327 35.9204 20.7332C36.8564 20.7332 37.5302 20.269 38.3839 19.9626C38.2502 19.8883 38.1113 19.8187 37.9725 19.749C38.0856 20.2504 37.0364 20.6311 36.9438 21.1928C36.8924 21.5781 37.5662 21.5735 37.6176 21.1928C37.669 20.8121 38.3016 20.6404 38.4714 20.3618C38.5517 20.2479 38.6046 20.12 38.6267 19.9865C38.6489 19.8529 38.6397 19.7167 38.5999 19.5865C38.576 19.5096 38.5192 19.4445 38.4421 19.4053C38.3649 19.3661 38.2737 19.3562 38.1885 19.3776C37.4222 19.6329 36.7381 20.1018 35.8998 20.1251L36.193 20.5893C36.7433 19.7676 37.7668 19.373 38.4354 18.6441C38.6257 18.4398 38.4354 18.0034 38.1113 18.1334C37.4736 18.3748 36.8513 18.6488 36.229 18.9227C35.6066 19.1966 34.8609 19.698 34.1254 19.7954L34.506 20.2597C35.4112 18.6766 37.4684 18.2077 38.6668 16.8614C38.7164 16.8131 38.7474 16.7517 38.7553 16.6862C38.7632 16.6208 38.7475 16.5547 38.7106 16.498C38.6737 16.4412 38.6174 16.3966 38.5503 16.371C38.4831 16.3453 38.4085 16.3398 38.3376 16.3554C35.8689 16.9218 34.2231 18.7973 31.9756 19.7072L32.4333 20.1204C32.9836 19.0712 34.1048 18.4723 35.0923 17.7992C36.0798 17.126 37.1804 16.5225 38.1319 15.7658C38.4148 15.5383 38.0393 15.0973 37.7256 15.3015C36.6147 15.97 35.4575 16.555 34.2797 17.1214C33.1019 17.6878 31.9704 18.6116 30.5972 19.0062L31.0087 19.3823C31.2401 18.1566 33.0659 17.1585 34.146 16.5643C35.6221 15.7565 37.2576 15.3015 38.5125 14.1873C38.744 13.9831 38.5125 13.5699 38.1885 13.6813C36.811 14.1367 35.4905 14.7218 34.2488 15.4269C33.7345 15.7379 33.2202 16.0954 32.7059 16.4436C32.1916 16.7918 31.3327 17.4881 30.7618 17.6228L31.1733 17.9942C31.6259 16.8475 32.9579 16.2532 34.0174 15.6172C35.2651 14.9151 36.4391 14.1117 37.525 13.2171C37.5695 13.163 37.593 13.0972 37.5919 13.0298C37.5908 12.9625 37.5651 12.8974 37.5188 12.8445C37.4726 12.7917 37.4083 12.754 37.336 12.7375C37.2637 12.7209 37.1873 12.7263 37.1187 12.7528C35.9307 13.4074 34.7683 14.0945 33.5957 14.763C33.0196 15.088 32.4539 15.4176 31.8624 15.7194C31.2537 16.1161 30.6024 16.4567 29.9183 16.7361L30.3298 17.1121C30.8441 15.905 32.495 15.2133 33.642 14.5448C34.974 13.7695 36.4244 13.2078 37.6793 12.3304C37.9519 12.1447 37.6793 11.7315 37.3553 11.8243C34.8502 12.62 32.4562 13.6763 30.2218 14.9719C30.3761 15.1066 30.5304 15.2458 30.6795 15.3851C31.4047 14.1734 32.9682 13.2821 34.2797 12.6553C35.1026 12.2654 36.5941 11.7826 36.7484 10.7984C36.7844 10.5941 36.6044 10.3341 36.337 10.427C35.2192 10.8305 34.1535 11.3426 33.1585 11.9543C32.603 12.2654 32.0322 12.5532 31.4716 12.8503C31.0447 13.0824 30.1189 13.8995 29.6303 13.9552L29.9543 14.3359C30.5458 12.2236 34.2848 12.0518 35.5141 10.2598C35.7044 9.98128 35.3443 9.72131 35.0563 9.84201C34.1717 10.2227 33.5134 10.868 32.6802 11.3276C31.847 11.7872 30.4069 12.5161 29.3886 12.6507L29.7126 13.1567C30.5406 12.4 31.703 11.8104 32.6288 11.1326C33.7881 10.2818 35.0213 9.51639 36.3164 8.84387L35.9769 8.32392C35.2878 8.78817 34.4803 9.05743 33.75 9.46133C32.9745 9.97852 32.125 10.3986 31.2247 10.7102L31.6413 11.0862C32.1556 9.54489 34.5677 8.89494 36.0078 8.22179L35.6015 7.75754C34.2797 8.68603 32.5156 8.86245 31.1475 9.78166L31.6053 10.1995C32.1366 9.67099 32.7377 9.20326 33.3951 8.80674C34.016 8.25546 34.745 7.81311 35.5449 7.50221C35.4369 7.33508 35.3289 7.16331 35.2158 6.99619C34.3209 7.6322 33.3025 8.34713 32.1299 8.50962C32.2379 8.67674 32.351 8.84389 32.459 9.01566C33.0542 8.37523 33.7468 7.8141 34.5163 7.349C35.0599 7.10925 35.5337 6.75787 35.8998 6.32302C35.939 6.27052 35.9592 6.20835 35.9576 6.14506C35.9561 6.08177 35.9328 6.02047 35.8911 5.96958C35.8494 5.9187 35.7913 5.88072 35.7247 5.86087C35.6581 5.84103 35.5863 5.8403 35.5192 5.85878C34.557 6.12556 33.65 6.53335 32.8345 7.06582L33.2408 7.53006C33.9145 6.97761 34.7117 6.55979 35.3855 6.00734C35.6221 5.81236 35.3855 5.38061 35.0615 5.50131C34.5214 5.70558 34.0328 5.99341 33.5185 6.22089L34.0328 6.56444C34.2694 5.99342 34.9535 5.7288 35.4009 5.31562C35.5861 5.14385 35.4729 4.76315 35.1643 4.79565C34.5393 4.90745 33.9384 5.10968 33.3848 5.39453L33.7911 5.85878C34.0853 5.53218 34.4536 5.26624 34.8712 5.07885C34.9482 5.03883 35.0045 4.97282 35.0277 4.89533C35.0508 4.81785 35.0389 4.73523 34.9946 4.66566C34.9503 4.5961 34.8771 4.54528 34.7913 4.52438C34.7055 4.50349 34.6139 4.51423 34.5369 4.55425" fill="white"/>
<path id="Vector_2" d="M2.96277 11.4111C2.99363 11.374 3.02964 11.3415 3.06564 11.3044C3.31765 11.0583 2.99363 10.6358 2.65933 10.8401C2.07035 11.153 1.59362 11.6123 1.28611 12.1632C1.15239 12.3814 1.3684 12.7017 1.66156 12.6275C2.79819 12.2607 3.67767 11.3508 4.88117 11.1744L4.55715 10.6683C3.58509 11.5968 2.10901 12.0611 1.51241 13.2867C1.47973 13.3451 1.46832 13.4114 1.47981 13.4761C1.4913 13.5407 1.52509 13.6005 1.57638 13.6468C1.62768 13.6931 1.69385 13.7236 1.76548 13.7339C1.8371 13.7443 1.91052 13.734 1.97529 13.7045C2.77275 13.3368 3.54094 12.9196 4.27427 12.4557C5.04689 12.0962 5.84005 11.7739 6.65041 11.4901L6.23895 11.0258C5.62178 11.6433 4.69601 12.0054 3.98626 12.53C3.21551 13.0495 2.58004 13.715 2.12444 14.4798C2.09339 14.5264 2.07665 14.5797 2.07595 14.6341C2.07525 14.6885 2.09062 14.7421 2.12047 14.7894C2.15032 14.8367 2.19358 14.8759 2.2458 14.9031C2.29802 14.9303 2.35732 14.9444 2.4176 14.944C3.30222 14.9162 4.01197 14.3312 4.66001 13.8438C5.89287 12.9276 7.25802 12.167 8.71794 11.5829L8.3785 11.0583C6.96106 11.8611 5.60689 12.7515 4.32571 13.7231C3.53366 14.373 2.60275 15.3108 2.39703 16.2904C2.38247 16.3421 2.38316 16.3964 2.39904 16.4479C2.41491 16.4994 2.44541 16.5462 2.48751 16.5837C2.52962 16.6213 2.58187 16.6482 2.63907 16.6619C2.69627 16.6756 2.75645 16.6755 2.81362 16.6618C3.75996 16.4389 4.552 15.5151 5.28233 14.9626C6.51963 14.0882 7.84959 13.3262 9.25283 12.6878C9.64371 12.4975 9.30426 12.0007 8.91338 12.1632C7.31677 12.9138 5.87602 13.908 4.65487 15.1019C3.67253 15.97 2.46903 17.0981 2.24787 18.3516C2.22741 18.4122 2.22822 18.4769 2.2502 18.5371C2.27218 18.5972 2.31425 18.6497 2.37063 18.6873C2.427 18.725 2.49492 18.746 2.56503 18.7474C2.63515 18.7488 2.70402 18.7305 2.76219 18.6951C3.67528 18.1225 4.52448 17.4711 5.29776 16.75C6.46472 15.886 7.72017 15.1243 9.0471 14.4752L8.63566 14.0109C6.40354 15.6033 4.17655 17.1724 2.91134 19.5354C2.87979 19.5976 2.87215 19.6674 2.88964 19.7339C2.90712 19.8004 2.94874 19.8597 3.00785 19.9024C3.06697 19.9451 3.1402 19.9687 3.21591 19.9695C3.29161 19.9703 3.36544 19.9483 3.42566 19.9068C5.2235 18.3774 7.17614 17.0035 9.25797 15.8029C9.12425 15.6451 8.99053 15.4826 8.85167 15.3387C7.62686 16.2345 6.46404 17.1973 5.36976 18.2216C4.56743 18.9737 3.60052 19.7443 3.31251 20.8028C3.25079 21.0396 3.54909 21.3089 3.82682 21.1417C5.54977 20.0554 7.19557 18.8762 8.88767 17.7527C8.75395 17.5949 8.61508 17.437 8.48136 17.2885C7.19558 18.347 5.71949 19.2894 4.66001 20.5382C4.34627 20.9142 3.48223 22.1399 4.1817 22.5298C4.54686 22.7341 4.88631 22.2095 4.516 22.0052C4.59315 22.0424 5.03031 21.0767 5.03031 21.1046C5.37371 20.6568 5.77611 20.2484 6.22867 19.8883C7.09271 19.1176 8.06476 18.4445 8.95967 17.7063C9.2374 17.4742 8.86195 17.0239 8.55337 17.2421C6.86127 18.3655 5.21033 19.5633 3.49252 20.6311L4.00683 20.9746C4.27428 19.9579 5.29262 19.2151 6.06409 18.4955C7.09982 17.5294 8.20268 16.6238 9.36598 15.7843C9.66428 15.5661 9.27341 15.1158 8.95453 15.3201C6.82592 16.5419 4.82855 17.9408 2.98849 19.4983L3.5028 19.8697C4.74744 17.5485 6.93842 16.0257 9.12425 14.4612C9.4277 14.2477 9.03682 13.8066 8.71794 13.997C7.56037 14.5879 6.44394 15.2421 5.3749 15.9561C4.34627 16.685 3.5388 17.5995 2.43303 18.217L2.94734 18.5605C3.17364 17.2746 4.45429 16.2068 5.43663 15.3108C6.55049 14.2461 7.85873 13.362 9.30426 12.6971C9.19625 12.5253 9.07797 12.3489 8.96482 12.1725C7.80323 12.7324 6.67843 13.3525 5.59606 14.0295C5.22576 14.2616 4.87602 14.4937 4.53143 14.7769C4.01711 15.153 3.32279 15.919 2.68504 16.0722L3.10164 16.4482C3.29708 15.4919 4.23827 14.6516 5.0046 14.0202C6.19684 13.1302 7.45467 12.3144 8.76938 11.5783C8.80754 11.5581 8.84094 11.5314 8.86766 11.4997C8.89439 11.4679 8.91392 11.4317 8.92514 11.3931C8.93636 11.3545 8.93906 11.3143 8.93307 11.2748C8.92709 11.2353 8.91253 11.1972 8.89024 11.1628C8.86795 11.1283 8.83836 11.0982 8.80317 11.0741C8.76797 11.0499 8.72786 11.0323 8.68511 11.0222C8.64237 11.012 8.59783 11.0096 8.55405 11.015C8.51026 11.0204 8.46809 11.0335 8.42993 11.0537C7.29399 11.4666 6.21801 12.0029 5.22575 12.6507C4.45428 13.2078 3.51823 14.2941 2.46903 14.3312L2.75705 14.7955C3.63652 13.166 5.50863 12.7157 6.7687 11.4669C6.81317 11.4128 6.83666 11.347 6.83554 11.2796C6.83442 11.2123 6.80875 11.1471 6.7625 11.0943C6.71624 11.0414 6.65198 11.0038 6.57965 10.9872C6.50733 10.9707 6.43097 10.9761 6.36238 11.0026C5.57034 11.3369 4.74744 11.5875 3.98626 11.9682C3.22507 12.3489 2.52046 12.8967 1.68727 13.2171L2.14501 13.6302C2.71076 12.4603 4.15598 12.0286 5.08175 11.1326C5.13051 11.0845 5.16102 11.0237 5.16885 10.9589C5.17668 10.8941 5.16142 10.8288 5.12529 10.7723C5.08917 10.7159 5.03405 10.6714 4.96795 10.6451C4.90185 10.6189 4.82821 10.6124 4.75773 10.6266C3.52337 10.8076 2.70047 11.7082 1.53298 12.0796L1.91357 12.5439C2.17047 12.0869 2.56428 11.7041 3.05021 11.439L2.6439 10.9748L2.5359 11.0769C2.24274 11.3647 2.72104 11.7965 3.0142 11.5086" fill="white"/>
<path id="Vector_3" d="M5.9254 4.56817C5.97738 4.50389 6.01575 4.43149 6.03855 4.35462C6.05422 4.291 6.04701 4.22452 6.01797 4.16486C5.98893 4.10519 5.93957 4.05544 5.87706 4.02283C5.81455 3.99022 5.74215 3.97644 5.67037 3.98351C5.5986 3.99058 5.53119 4.01813 5.47794 4.06214C4.80449 4.60543 4.21773 5.23037 3.73442 5.91913C3.70287 5.98125 3.69523 6.05111 3.71272 6.1176C3.73021 6.18409 3.77181 6.24339 3.83093 6.28608C3.89005 6.32877 3.96329 6.3524 4.03899 6.35321C4.1147 6.35401 4.18852 6.33194 4.24873 6.29052C4.62925 5.95155 5.07105 5.67367 5.5551 5.46881L5.14364 5.09277C4.86591 5.71022 4.15102 6.11876 3.69842 6.62014C3.27791 7.12058 2.90132 7.64988 2.57207 8.20322C2.36635 8.52355 2.8138 8.77423 3.08639 8.56997C4.2796 7.72968 5.51395 6.93583 6.68658 6.08162L6.17227 5.71486C5.1025 7.10759 3.35383 7.96645 2.57207 9.58666C2.53289 9.63917 2.51269 9.70133 2.51424 9.76462C2.5158 9.82791 2.53903 9.88922 2.58075 9.9401C2.62246 9.99099 2.68061 10.029 2.74721 10.0488C2.81381 10.0687 2.88559 10.0694 2.95267 10.0509C4.5419 9.7213 5.61681 8.19393 7.01575 7.53006L6.60944 7.06581C5.72482 7.91538 4.76305 8.6721 4.10473 9.6888C3.94015 9.93949 4.27959 10.283 4.56247 10.1066C5.4728 9.54488 6.34199 8.93208 7.24718 8.37499L6.73287 8.03144C6.50143 8.62567 5.94083 9.011 5.51909 9.48918C5.28765 9.74451 5.57053 10.153 5.9254 9.95342C6.41001 9.643 6.92673 9.37559 7.46834 9.15492L7.08775 8.69067C6.9386 8.98315 6.70201 9.21991 6.57343 9.51703C6.53425 9.56953 6.51405 9.6317 6.5156 9.69499C6.51716 9.75828 6.54039 9.81958 6.58211 9.87047C6.62382 9.92136 6.68198 9.95934 6.74857 9.97918C6.81517 9.99902 6.88695 9.99975 6.95403 9.98128C7.18033 9.95342 7.63292 9.73986 7.61235 9.88842C7.59995 9.9332 7.59892 9.97995 7.60933 10.0251C7.61974 10.0703 7.64133 10.1128 7.67249 10.1494C7.70364 10.186 7.74355 10.2158 7.78925 10.2365C7.83494 10.2572 7.88524 10.2684 7.93637 10.2691H8.54326C8.83642 10.5569 9.30958 10.1298 9.01643 9.84201C8.72327 9.55418 8.38382 9.68415 7.93637 9.68415L8.26038 10.0648C8.44039 8.93208 7.59692 9.3174 6.77402 9.4149L7.15461 9.87914C7.30376 9.58202 7.54035 9.34525 7.66893 9.04814C7.78207 8.82994 7.59692 8.50962 7.28833 8.60711C6.69532 8.84123 6.13012 9.12899 5.60138 9.46597L6.00769 9.93022C6.52201 9.35455 7.11861 8.91352 7.39634 8.20322C7.41681 8.14267 7.41599 8.07788 7.39401 8.01777C7.37203 7.95765 7.32996 7.90516 7.27358 7.8675C7.21721 7.82985 7.14929 7.80888 7.07918 7.80748C7.00906 7.80607 6.94019 7.8243 6.88203 7.85967C5.97683 8.42141 5.10764 9.02957 4.19731 9.59131L4.66019 10.0045C5.28765 9.02957 6.20313 8.31464 7.06203 7.50685C7.10792 7.4525 7.13237 7.38585 7.13148 7.31752C7.13059 7.24918 7.10441 7.18309 7.05711 7.12972C7.00982 7.07636 6.94412 7.0388 6.87046 7.02301C6.7968 7.00723 6.71941 7.01413 6.65059 7.04261C5.30823 7.68791 4.25388 9.18742 2.74694 9.5031L3.12753 9.96735C3.90929 8.34713 5.65796 7.50221 6.72773 6.09554C6.96431 5.78914 6.47572 5.52451 6.21342 5.72414C5.04078 6.57835 3.80128 7.37686 2.61322 8.21715L3.12753 8.58389C3.56707 7.83611 4.11729 7.14579 4.76305 6.53193C5.1881 6.19992 5.52999 5.79004 5.76597 5.32954C5.78177 5.27807 5.78216 5.22373 5.76709 5.17208C5.75202 5.12043 5.72204 5.07333 5.6802 5.03556C5.63836 4.99779 5.58616 4.97073 5.52894 4.95713C5.47172 4.94353 5.41153 4.94387 5.35451 4.95813C4.76218 5.19851 4.21954 5.5282 3.74986 5.93305L4.26417 6.29981C4.71767 5.6555 5.2681 5.07115 5.89968 4.56352L5.33908 4.26641L5.2928 4.33605C5.06136 4.66566 5.64253 4.97207 5.87397 4.64245" fill="white"/>
<path id="Vector_4" d="M10.0499 11.6804C10.0499 12.0425 9.48932 12.3025 9.32989 12.6089C9.2907 12.6614 9.2705 12.7236 9.27206 12.7869C9.27361 12.8502 9.29684 12.9115 9.33856 12.9623C9.38028 13.0132 9.43843 13.0512 9.50503 13.0711C9.57162 13.0909 9.6434 13.0916 9.71048 13.0732C10.4305 12.8967 10.8574 12.3211 11.5517 12.1029C11.4437 11.9358 11.3306 11.7686 11.2226 11.5969C10.6184 12.1964 10.1111 12.8701 9.71562 13.5978C9.678 13.6554 9.66266 13.7226 9.672 13.789C9.68135 13.8554 9.71485 13.917 9.76725 13.9643C9.81965 14.0116 9.88797 14.0419 9.96148 14.0503C10.035 14.0587 10.1095 14.0449 10.1734 14.0109C11.1351 13.5467 11.9529 12.8967 12.8581 12.3489L12.4003 11.9357C11.9426 12.6414 11.2431 13.166 10.7854 13.8717C10.7486 13.93 10.7341 13.9976 10.7441 14.0641C10.754 14.1306 10.7879 14.1923 10.8404 14.2398C10.893 14.2873 10.9614 14.3178 11.0351 14.3268C11.1087 14.3358 11.1836 14.3227 11.2483 14.2895C12.1123 13.7974 12.7192 12.8967 13.6964 12.5903L13.285 12.2143C13.0125 12.7434 12.6241 13.2172 12.1432 13.607C11.9272 13.8113 12.1432 14.2338 12.4723 14.1177C13.177 13.8624 13.6296 13.3192 14.3136 13.0499L13.7993 12.7853C13.7898 12.9835 13.7262 13.1765 13.6141 13.3471C13.5833 13.3934 13.5666 13.4462 13.5656 13.5002C13.5647 13.5542 13.5796 13.6075 13.6089 13.6546C13.6381 13.7018 13.6807 13.7411 13.7322 13.7686C13.7837 13.7961 13.8423 13.8108 13.9021 13.8113C14.2268 13.7938 14.5447 13.7197 14.8382 13.5931L14.4216 13.3842C14.4398 13.6124 14.5329 13.8306 14.689 14.0109C14.9153 14.3405 15.4965 14.0388 15.2702 13.7045L15.0696 13.2403C15.0589 13.2014 15.0397 13.165 15.013 13.133C14.9863 13.1011 14.9527 13.0744 14.9143 13.0544C14.8759 13.0345 14.8334 13.0218 14.7894 13.017C14.7454 13.0122 14.7007 13.0155 14.6582 13.0267C14.418 13.1254 14.1634 13.1926 13.9021 13.2263L14.1953 13.6906C14.3593 13.4322 14.4544 13.143 14.473 12.8457C14.471 12.7922 14.4537 12.7401 14.4229 12.6945C14.3921 12.6488 14.3487 12.611 14.297 12.5849C14.2453 12.5588 14.187 12.5451 14.1277 12.5453C14.0685 12.5454 14.0103 12.5593 13.9587 12.5857C13.3261 12.8364 12.9301 13.361 12.2769 13.5931L12.6061 14.0991C13.1621 13.6318 13.6081 13.0681 13.9176 12.4418C13.9334 12.3903 13.9338 12.336 13.9187 12.2843C13.9036 12.2327 13.8736 12.1856 13.8318 12.1478C13.79 12.11 13.7378 12.083 13.6805 12.0694C13.6233 12.0558 13.5631 12.0561 13.5061 12.0704C12.4312 12.4093 11.8295 13.3006 10.8934 13.8299L11.3563 14.243C11.8089 13.542 12.5083 13.0128 12.9661 12.3071C13.1255 12.0518 12.7912 11.7175 12.5032 11.8893C11.598 12.4371 10.7802 13.0824 9.81848 13.5513L10.2814 13.9691C10.647 13.2919 11.1199 12.6663 11.6854 12.1122C11.886 11.8986 11.6854 11.4947 11.3563 11.6015C10.6722 11.815 10.2042 12.4046 9.52018 12.5718L9.89563 13.036C10.1322 12.5439 10.662 12.3489 10.7083 11.7779C10.7391 11.3879 10.0705 11.3879 10.0345 11.7779" fill="white"/>
<path id="Vector_5" d="M12.3954 16.1929C12.4326 16.1849 12.4713 16.1845 12.5086 16.1918C12.546 16.199 12.5811 16.2137 12.6114 16.2347C12.6114 16.2347 12.6423 16.3089 12.6371 16.2811C12.6371 16.4111 12.6063 16.5225 12.4468 16.5411C12.412 16.5518 12.3739 16.5501 12.3405 16.5363C12.307 16.5225 12.2806 16.4976 12.2668 16.4668C12.2668 16.4389 12.236 16.3925 12.2668 16.3693C12.3076 16.3504 12.3456 16.327 12.38 16.2997C12.2874 16.3368 12.272 16.3507 12.3285 16.3322C12.2771 16.3322 12.4263 16.3322 12.4108 16.3322C12.4614 16.3376 12.5103 16.3518 12.5548 16.3739C12.5034 16.3507 12.5548 16.1929 12.5086 16.2764C12.4961 16.3145 12.4922 16.3545 12.4972 16.394C12.5021 16.4335 12.5158 16.4717 12.5373 16.5063C12.5589 16.5409 12.588 16.5713 12.6228 16.5956C12.6576 16.6199 12.6975 16.6377 12.74 16.6478C12.8265 16.6668 12.9178 16.6552 12.9952 16.6156C13.0726 16.5759 13.1303 16.5111 13.1566 16.4343C13.4035 15.8911 12.4468 15.5662 12.0148 15.789C11.8828 15.8493 11.7719 15.9416 11.6947 16.0556C11.6175 16.1696 11.577 16.3007 11.5776 16.4343C11.5877 16.5843 11.6461 16.7284 11.7457 16.8488C11.8453 16.9692 11.9818 17.0608 12.1383 17.1121C12.2706 17.1471 12.41 17.1549 12.5461 17.1348C12.6822 17.1147 12.8116 17.0672 12.9247 16.9959C13.0377 16.9246 13.1316 16.8313 13.1994 16.7228C13.2671 16.6143 13.307 16.4935 13.316 16.3693C13.3214 16.2588 13.3014 16.1486 13.2571 16.0455C13.2128 15.9424 13.1453 15.8487 13.0589 15.7704C12.9443 15.6787 12.8067 15.6134 12.658 15.5803C12.5093 15.5471 12.3539 15.5471 12.2051 15.5801C12.1197 15.6018 12.0472 15.6528 12.003 15.7223C11.9587 15.7917 11.9464 15.8739 11.9685 15.9515C11.9959 16.0276 12.0538 16.0918 12.1309 16.1313C12.208 16.1708 12.2987 16.1829 12.3851 16.165" fill="white"/>
<path id="Vector_6" d="M17.2146 17.8549L17.5078 17.7945L17.2146 17.3303C16.8827 17.6836 16.6138 18.0815 16.4174 18.5095C16.4016 18.5609 16.4012 18.6153 16.4163 18.6669C16.4314 18.7186 16.4613 18.7657 16.5032 18.8035C16.545 18.8412 16.5972 18.8683 16.6544 18.8819C16.7117 18.8955 16.7719 18.8951 16.8289 18.8809C17.4203 18.723 17.8215 18.3238 18.3718 18.087L17.8575 17.7481C17.7443 17.9756 17.6261 18.2124 17.5078 18.4352C17.4255 18.593 17.4769 18.8484 17.7084 18.8994C17.9398 18.9505 18.9941 18.853 18.9993 18.7462C18.9993 18.8263 19.0345 18.903 19.0972 18.9596C19.1599 19.0162 19.2449 19.048 19.3336 19.048C19.8993 19.1037 20.3159 18.8112 20.8045 18.5838L20.3416 18.4723C20.3714 18.5168 20.3972 18.5634 20.4188 18.6116C20.4649 18.6807 20.5389 18.731 20.6253 18.7518C20.7116 18.7726 20.8036 18.7623 20.8817 18.723C21.3043 18.5266 21.7387 18.3515 22.1829 18.1984L21.7663 17.827C21.6958 18.1335 21.5942 18.4334 21.4628 18.723C21.439 18.8006 21.4499 18.8835 21.4932 18.9539C21.5365 19.0242 21.6087 19.0764 21.6943 19.0991C22.9955 19.438 24.2658 18.8809 25.4231 18.3888C25.7625 18.2402 25.5156 17.7063 25.1608 17.8317C24.6697 18.0275 24.1997 18.2637 23.7567 18.5373C23.6881 18.576 23.6371 18.6355 23.6128 18.7051C23.5884 18.7747 23.5925 18.8499 23.6241 18.917C23.6557 18.9842 23.7129 19.039 23.7853 19.0715C23.8577 19.104 23.9405 19.1122 24.019 19.0944C24.739 18.918 25.3408 18.528 26.0402 18.2913C25.9271 18.1241 25.8191 17.957 25.7111 17.7853C25.2935 18.0702 24.9184 18.4025 24.595 18.7741C24.4047 19.0016 24.7184 19.2755 24.9756 19.2383C25.5184 19.0983 26.0375 18.8921 26.5185 18.6255C26.3848 18.463 26.2511 18.3052 26.1122 18.1613C25.8914 18.3412 25.6947 18.5437 25.5259 18.7648C25.4949 18.8115 25.4781 18.8647 25.4774 18.9191C25.4767 18.9735 25.4921 19.0271 25.5219 19.0744C25.5518 19.1217 25.5951 19.1609 25.6473 19.1881C25.6995 19.2153 25.7588 19.2294 25.8191 19.2291C26.0342 19.2207 26.2498 19.2332 26.462 19.2662C26.8837 19.3544 27.0586 18.7694 26.6368 18.6812C26.3677 18.6331 26.0933 18.6128 25.8191 18.6209C25.9117 18.7741 26.0094 18.9273 26.1071 19.0851C26.247 18.9134 26.4093 18.7576 26.5906 18.6209C26.8734 18.3795 26.5083 17.9802 26.1791 18.1566C25.7413 18.398 25.2689 18.5839 24.775 18.7091L25.1556 19.1733C25.4541 18.8452 25.8001 18.5548 26.1842 18.3099C26.4465 18.1242 26.1585 17.697 25.8551 17.7992C25.1607 18.0359 24.5539 18.4259 23.8338 18.6023L24.091 19.1548C24.4834 18.9074 24.9 18.693 25.3356 18.5141C25.2482 18.3284 25.1608 18.1427 25.0785 17.957C24.0961 18.3748 22.9801 18.8855 21.8691 18.607L22.1057 18.9784C22.2378 18.6874 22.3394 18.3858 22.4092 18.0777C22.4233 18.0264 22.4226 17.9727 22.4069 17.9217C22.3912 17.8708 22.3612 17.8244 22.3198 17.787C22.2784 17.7496 22.227 17.7225 22.1705 17.7084C22.1141 17.6943 22.0546 17.6936 21.9977 17.7063C21.4986 17.8755 21.0109 18.0708 20.5371 18.2913L20.9948 18.3981C20.9948 18.3516 20.9434 18.3052 20.9228 18.2588C20.8759 18.1904 20.8015 18.1411 20.7152 18.1212C20.6289 18.1013 20.5374 18.1124 20.4599 18.152C20.1281 18.3687 19.7367 18.4988 19.3284 18.528L19.6627 18.8298C19.6936 17.7899 18.4798 18.477 17.8832 18.3981L18.0838 18.8623C18.2477 18.5945 18.387 18.315 18.5004 18.0267C18.5193 17.9664 18.5174 17.9024 18.4948 17.8432C18.4722 17.784 18.43 17.7325 18.374 17.6955C18.318 17.6586 18.2507 17.6381 18.1814 17.6367C18.112 17.6353 18.0439 17.6531 17.9861 17.6878C17.5493 17.9616 17.0903 18.2053 16.6129 18.4166L17.0243 18.788C17.2111 18.4143 17.4571 18.0672 17.7546 17.7574C17.7855 17.7111 17.8022 17.6583 17.8031 17.6042C17.804 17.5502 17.7891 17.497 17.7599 17.4498C17.7306 17.4027 17.6881 17.3634 17.6366 17.3359C17.5851 17.3084 17.5265 17.2936 17.4666 17.2932C17.3049 17.2937 17.1447 17.3205 16.9935 17.3721C16.5871 17.5021 16.762 18.0917 17.1735 17.9617" fill="white"/>
<path id="Vector_7" d="M6.00266 12.8828L6.85128 12.7946L6.93356 14.4427H6.45525L6.00266 12.8828ZM6.2701 14.8744H7.87991L8.12163 14.6794L8.32736 12.4743L8.05991 12.2422L5.6735 12.4789L5.46777 12.7482L6.03866 14.7166L6.2701 14.8744Z" fill="white"/>
<path id="Vector_8" d="M3.78603 18.1984L5.59127 18.0545L5.85871 16.3229L3.354 16.8382L3.38486 16.9775L3.78603 18.1984Z" fill="white"/>
<path id="Vector_9" d="M35.1848 5.84486C35.1848 5.07885 34.5008 4.99993 33.9916 5.23205C33.9916 5.23205 33.2304 6.23018 33.9916 6.62479C34.7528 7.0194 35.1848 6.62479 35.1848 5.85878" fill="white"/>
<path id="Vector_10" d="M33.9763 9.16885L33.9197 11.193H33.6728L33.7345 9.24313L33.9763 9.16885ZM33.0453 8.96458C33.0453 9.16421 32.9631 11.4576 32.9631 11.4576C32.9541 11.4992 32.956 11.5421 32.9686 11.5829C32.9811 11.6238 33.004 11.6614 33.0354 11.6929C33.0668 11.7244 33.1059 11.7489 33.1496 11.7645C33.1932 11.78 33.2403 11.7862 33.2871 11.7826C33.6037 11.7907 33.9195 11.814 34.2334 11.8522C34.2821 11.862 34.3326 11.8613 34.3808 11.85C34.4291 11.8387 34.4737 11.8172 34.5109 11.7872C34.5481 11.7573 34.5768 11.7197 34.5948 11.6777C34.6127 11.6358 34.6193 11.5905 34.614 11.5458C34.614 11.179 34.6912 9.17349 34.6912 8.76031C34.6952 8.71069 34.6858 8.66093 34.6638 8.61532C34.6417 8.56971 34.6077 8.52964 34.5647 8.49855C34.5216 8.46747 34.4709 8.44632 34.4167 8.43692C34.3626 8.42753 34.3067 8.43017 34.254 8.44463L33.3077 8.65818C33.3077 8.65818 33.0453 8.75568 33.0453 8.9553" fill="white"/>
<path id="Vector_11" d="M30.8696 13.542C30.8696 13.542 31.1062 16.1047 31.3428 16.1743C31.5794 16.2439 32.9989 15.6776 32.9989 15.6776L32.8446 13.3285L30.8696 13.542Z" fill="white"/>
<path id="Vector_12" d="M36.2444 16.1047L36.0232 16.0768L36.1518 14.4984H36.5787L36.2444 16.1047ZM35.1437 14.4984H35.4472L35.3238 15.9933L35.1437 15.97V14.4984ZM34.794 13.867C34.7473 13.8651 34.7006 13.8719 34.6569 13.887C34.6132 13.9021 34.5735 13.9252 34.5401 13.9548C34.5068 13.9845 34.4807 14.02 34.4633 14.0592C34.4459 14.0985 34.4377 14.1405 34.4391 14.1827V16.2486C34.4391 16.2486 34.506 16.5596 34.7477 16.5596C34.9895 16.5596 36.1569 16.7732 36.481 16.7732C36.569 16.7765 36.6558 16.7532 36.7276 16.7069C36.7993 16.6607 36.8519 16.5941 36.877 16.5178C36.877 16.5178 37.345 14.5866 37.345 14.2384C37.351 14.1485 37.3186 14.0599 37.2545 13.9909C37.1904 13.9218 37.0995 13.8775 37.0004 13.867H34.794Z" fill="white"/>
<path id="Vector_13" d="M40.5283 10.9701L41.1249 12.1307L41.6392 12.0518L41.809 10.6637L40.5283 10.9701Z" fill="white"/>
<path id="Vector_14" d="M42.0715 16.685C42.1892 16.6841 42.3041 16.6517 42.4015 16.592C42.4989 16.5322 42.5746 16.4478 42.619 16.3493C42.6633 16.2509 42.6744 16.1427 42.6508 16.0386C42.6272 15.9344 42.57 15.8389 42.4864 15.764C42.4027 15.6892 42.2964 15.6384 42.1808 15.618C42.0653 15.5975 41.9456 15.6085 41.8368 15.6494C41.7281 15.6903 41.6353 15.7593 41.5699 15.8478C41.5046 15.9362 41.4697 16.0401 41.4697 16.1464C41.4697 16.2176 41.4853 16.288 41.5156 16.3536C41.5459 16.4193 41.5903 16.4788 41.6463 16.5289C41.7022 16.579 41.7686 16.6185 41.8416 16.6453C41.9146 16.6721 41.9927 16.6856 42.0715 16.685Z" fill="white"/>
<path id="Vector_15" d="M43.3828 16.2207C43.3818 16.3688 43.4295 16.5137 43.5199 16.6373C43.6102 16.7608 43.7392 16.8573 43.8904 16.9146C44.0416 16.9719 44.2083 16.9873 44.3692 16.959C44.5302 16.9307 44.6782 16.8599 44.7945 16.7555C44.9109 16.6512 44.9902 16.518 45.0226 16.3729C45.055 16.2278 45.0389 16.0773 44.9764 15.9404C44.9139 15.8036 44.8077 15.6866 44.6714 15.6042C44.5352 15.5219 44.3749 15.478 44.2109 15.478C43.9921 15.4779 43.7823 15.5561 43.6272 15.6952C43.472 15.8344 43.3842 16.0233 43.3828 16.2207Z" fill="white"/>
<path id="Vector_16" d="M46.124 16.4157C46.124 16.5075 46.1542 16.5973 46.2107 16.6736C46.2672 16.75 46.3476 16.8095 46.4415 16.8446C46.5355 16.8798 46.6389 16.889 46.7387 16.871C46.8384 16.8531 46.9301 16.8089 47.002 16.744C47.0739 16.6791 47.1229 16.5963 47.1428 16.5063C47.1626 16.4162 47.1524 16.3229 47.1135 16.2381C47.0746 16.1532 47.0087 16.0807 46.9241 16.0297C46.8395 15.9787 46.7401 15.9515 46.6383 15.9515C46.5019 15.9515 46.3711 16.0004 46.2747 16.0874C46.1782 16.1745 46.124 16.2926 46.124 16.4157Z" fill="white"/>
<path id="Vector_17" d="M3.17378 31.2669H3.10693H2.82405C2.30974 31.2669 1.47654 31.2066 1.46112 30.5381C1.4354 29.0896 3.05035 28.7739 3.9144 28.76C3.97943 28.7552 4.0448 28.7552 4.10984 28.76C4.28985 30.2317 4.32585 30.6866 4.33099 30.9095V31.0348C3.96324 31.168 3.56998 31.2342 3.17378 31.2298V31.2669ZM5.18475 27.5762V27.4926C5.18475 27.3069 4.90702 27.1259 4.60872 27.1259C4.31042 27.1259 4.00183 27.2651 4.00698 27.5344V27.7479C3.79967 27.7385 3.59196 27.7385 3.38465 27.7479C2.97679 27.744 2.57227 27.8146 2.19551 27.9557C1.81874 28.0967 1.47753 28.3052 1.1925 28.5686C0.907468 28.8319 0.684519 29.1447 0.537099 29.488C0.389679 29.8313 0.320846 30.198 0.334767 30.5659C0.360482 32.0608 1.51769 32.3904 2.64404 32.3718C3.24856 32.3247 3.84847 32.2378 4.439 32.1119C4.49557 32.3811 4.75787 32.3997 4.95331 32.395C5.56535 32.395 5.63734 32.1397 5.6322 31.9633C5.60501 31.1858 5.52427 30.4105 5.39047 29.6421C5.24647 28.124 5.18989 27.7154 5.18475 27.5762Z" fill="white"/>
<path id="Vector_18" d="M9.62329 27.1212H9.46899C9.19628 27.1196 8.92991 27.1954 8.70749 27.3378C8.48508 27.4803 8.31788 27.6822 8.22949 27.9151C8.20424 27.8003 8.18877 27.6839 8.18321 27.5669C8.18321 27.4462 8.18321 27.3301 8.18321 27.2141C8.18057 27.116 8.17026 27.0183 8.15235 26.9216V26.8984C8.14589 26.8312 8.12477 26.7659 8.09019 26.7061C8.05562 26.6464 8.00827 26.5934 7.9509 26.5502C7.89352 26.5071 7.82725 26.4746 7.75589 26.4547C7.68454 26.4347 7.60952 26.4278 7.53517 26.4341C7.45534 26.4322 7.37593 26.445 7.30187 26.472C7.2278 26.4989 7.16069 26.5394 7.10471 26.5908C7.04873 26.6422 7.00509 26.7034 6.9765 26.7707C6.94792 26.838 6.935 26.9099 6.93857 26.982C6.99514 27.813 7.10315 29.6467 7.12886 30.6959C7.12886 30.9652 7.12886 31.1602 7.12886 31.3134V31.3737C7.12869 31.4375 7.14308 31.5007 7.17115 31.5592C7.19922 31.6178 7.24036 31.6705 7.292 31.714C7.34364 31.7576 7.40467 31.7911 7.47128 31.8124C7.5379 31.8337 7.60867 31.8424 7.67918 31.838C8.32722 31.838 8.38893 31.2298 8.37865 30.5195C8.37865 30.3106 8.37865 30.0878 8.35293 29.8649C8.35293 29.0478 8.42493 28.2772 9.33012 28.2633C9.38155 28.2633 9.43299 28.2633 9.49985 28.2633C9.52038 28.2649 9.54103 28.2649 9.56156 28.2633C11.1559 28.2401 9.9113 31.6383 10.9862 31.6198C11.0734 31.6294 11.1619 31.6211 11.2451 31.5954C11.3282 31.5697 11.4038 31.5273 11.4661 31.4715C11.5285 31.4156 11.5761 31.3477 11.6052 31.2729C11.6343 31.1981 11.6442 31.1183 11.6342 31.0395C11.444 28.4954 11.5108 27.2187 9.61814 27.1444" fill="white"/>
<path id="Vector_19" d="M14.1595 25.2828C14.1337 25.137 14.0569 25.0024 13.9403 24.8989C13.8237 24.7953 13.6734 24.7281 13.5115 24.7072C13.1772 24.7072 12.8172 24.8 12.8223 25.1714C12.8223 25.3274 12.8902 25.4772 13.0115 25.5883C13.1327 25.6995 13.2975 25.7632 13.4704 25.7656C13.5835 25.7656 14.1647 25.7006 14.1595 25.2782" fill="white"/>
<path id="Vector_20" d="M14.3909 27.8826V27.7897C14.3909 27.4973 14.2109 27.1305 13.8097 27.1352C13.1514 27.1352 13.1514 27.7155 13.1566 28.1704L13.2131 30.9559C13.2131 30.993 13.2131 31.0162 13.2131 31.0395V31.1091C13.2131 31.5084 13.3057 31.8658 13.8355 31.8612C13.9383 31.8612 14.0155 31.773 14.0669 31.773C14.4012 31.6383 14.4578 31.3087 14.4526 30.9605L14.4063 28.7414C14.4063 28.2772 14.4063 28.0869 14.4063 27.8872" fill="white"/>
<path id="Vector_21" d="M23.9523 29.7674C23.9523 28.8807 23.6386 26.8984 22.1368 26.9262C21.3344 26.9262 21.0464 27.2326 20.7327 27.8547C20.6073 28.1388 20.5176 28.4347 20.4653 28.7368C20.4138 28.0358 20.0024 26.7731 18.9635 26.787C18.1868 26.787 17.7085 27.5576 17.3897 28.1797L17.2508 27.1444C17.2045 26.8288 16.9885 25.8028 16.4587 25.8121C16.3234 25.8232 16.1961 25.875 16.0973 25.9591C15.9984 26.0433 15.9337 26.155 15.9136 26.2763C15.9268 26.5269 15.9751 26.7749 16.0576 27.0145C16.2718 28.0093 16.4297 29.0134 16.5307 30.0228L16.5616 30.2874C16.6233 30.7795 16.6645 31.5594 17.1016 31.5548C17.2444 31.5653 17.3874 31.5363 17.5114 31.4716C17.6355 31.4069 17.7347 31.3096 17.796 31.1927C17.8937 30.241 17.9811 27.9987 18.7269 27.9894C18.7656 27.9799 18.8064 27.9799 18.8452 27.9894H18.8709C19.3852 27.9894 19.4109 29.1407 19.4212 29.7814V29.8742C19.4212 30.4267 19.4881 31.4062 20.1361 31.3923C20.7841 31.3784 20.8356 30.7981 21.0104 30.2595L21.0567 30.1063C21.2522 29.5075 21.6225 28.0079 22.1162 27.9987C22.1162 27.9987 22.1573 27.9987 22.1831 27.9987C22.6034 28.4836 22.8202 29.0871 22.7951 29.7024V29.8788C22.7951 29.9717 22.7951 30.0692 22.7951 30.1713C22.7951 30.5799 22.8774 31.058 23.3094 31.0534C23.9934 31.0534 23.9832 30.5009 23.9729 29.8835L23.9523 29.7674Z" fill="white"/>
<path id="Vector_22" d="M27.7425 30.032H27.6757C27.614 30.032 27.506 30.032 27.3928 30.032C26.8785 30.032 26.0453 29.9717 26.0299 29.3078C26.0042 27.8594 27.614 27.5437 28.4832 27.5297C28.5479 27.5204 28.6139 27.5204 28.6786 27.5297C28.8586 29.0014 28.8946 29.4564 28.8998 29.6746V29.8046C28.5312 29.9351 28.1385 30.0013 27.7425 29.9995V30.032ZM29.7535 26.3413V26.2624C29.7535 26.0767 29.4758 25.891 29.1775 25.8956C28.8792 25.9003 28.5706 26.0349 28.5757 26.3041V26.513C28.442 26.513 28.262 26.513 27.9534 26.513C27.5455 26.5098 27.1411 26.5808 26.7644 26.7221C26.3877 26.8633 26.0465 27.0717 25.7612 27.3349C25.4759 27.598 25.2524 27.9105 25.1041 28.2535C24.9559 28.5965 24.8859 28.963 24.8984 29.331C24.9293 30.8259 26.0865 31.1602 27.2128 31.1416C27.8172 31.0909 28.4169 31.0025 29.0078 30.877C29.0643 31.1462 29.3215 31.1648 29.5221 31.1648C30.129 31.1648 30.2061 30.9095 30.201 30.7331C30.1742 29.9555 30.0935 29.1802 29.9592 28.4118C29.8152 26.8937 29.7587 26.4852 29.7535 26.3413Z" fill="white"/>
<path id="Vector_23" d="M33.8115 34.071H33.7703C33.487 34.0743 33.2065 34.0211 32.9486 33.9151C32.6908 33.8092 32.4621 33.6532 32.2788 33.4582C32.2569 33.4182 32.2273 33.382 32.1914 33.3514L32.1399 33.2586C32.0576 33.0845 32.0073 32.8994 31.9908 32.7107C31.9858 32.6097 32.0088 32.5092 32.0576 32.4183C32.608 31.4387 33.4309 30.8723 34.3258 30.8584H34.3669C34.8064 30.8363 35.2382 30.9693 35.5712 31.2291C35.9041 31.489 36.1123 31.8554 36.1516 32.2511C36.1516 32.9707 35.2618 34.0338 33.8115 34.0617V34.071ZM33.2508 27.4694C33.2359 27.0612 33.3858 26.6619 33.6726 26.3459C33.7464 26.2743 33.8355 26.2169 33.9345 26.177C34.0334 26.1371 34.1403 26.1156 34.2486 26.1138C34.6086 26.1138 34.8812 26.6338 34.8864 26.9727C34.838 27.2152 34.7088 27.4387 34.5161 27.6133C34.3646 27.8122 34.1378 27.9542 33.8783 28.0126C33.7989 28.0151 33.7197 28.0033 33.6453 27.978C33.5709 27.9527 33.5028 27.9143 33.4449 27.8651C33.387 27.8159 33.3406 27.7568 33.3081 27.6913C33.2757 27.6257 33.258 27.5551 33.256 27.4833L33.2508 27.4694ZM34.5418 29.7164V28.955C35.6424 28.3468 36.1773 27.7062 36.1619 27.0005C36.1441 26.6229 36.0164 26.2562 35.7916 25.9374L35.951 25.8213C36.0704 25.763 36.1721 25.6792 36.2474 25.5772C36.3227 25.4753 36.3692 25.3583 36.383 25.2364C36.383 25.0414 36.1876 24.6607 35.8687 24.6607C35.5723 24.7109 35.2988 24.8384 35.0818 25.0275C35.007 25.0835 34.9279 25.1346 34.8452 25.1807C34.7699 25.175 34.6965 25.156 34.6292 25.125C34.4672 25.0598 34.2922 25.025 34.1149 25.0228C32.9217 25.046 32.1348 25.9513 32.0062 27.4555C32.0312 27.7841 32.1488 28.1016 32.3477 28.3778C32.5466 28.654 32.8203 28.8799 33.1428 29.0339H33.1789C33.2457 29.0339 33.2714 29.0339 33.2869 29.4053V29.8696C32.3564 30.1471 31.5772 30.7327 31.1062 31.5083L30.9467 31.7869C30.8455 32.0638 30.7968 32.3542 30.8027 32.6458C30.8468 33.2673 31.1446 33.852 31.6386 34.2867C32.1326 34.7215 32.7877 34.9755 33.4771 34.9995H33.5132C34.1439 35.0092 34.7681 34.8818 35.3329 34.6281C35.8977 34.3744 36.3866 34.0018 36.7585 33.5417C37.0885 33.0928 37.2671 32.5671 37.2728 32.0283C37.2496 31.4162 36.9594 30.8372 36.4653 30.4174C36.2148 30.1878 35.9149 30.0068 35.5842 29.8854C35.2534 29.7641 34.8987 29.705 34.5418 29.7117" fill="white"/>
<path id="Vector_24" d="M42.4159 27.1676C42.4159 26.4898 41.7421 26.4666 41.2226 26.4713C40.7839 26.5035 40.3507 26.5814 39.9317 26.7034L39.7517 26.8102V26.4249C39.7517 25.9606 39.7106 25.5846 39.2014 25.5939H39.0985C39.0185 25.5873 38.9378 25.5961 38.8618 25.6196C38.7857 25.6432 38.7161 25.6809 38.6573 25.7304C38.5986 25.78 38.5521 25.8401 38.5209 25.907C38.4897 25.9739 38.4744 26.0459 38.4762 26.1185C38.4762 26.1649 38.4762 26.2809 38.5071 26.3877C38.5122 26.4697 38.5122 26.5518 38.5071 26.6338C38.5071 27.0423 38.5071 27.3951 38.5071 27.7108C38.5071 28.565 38.6511 29.2521 38.6665 30.0692C38.6744 30.1929 38.6744 30.3169 38.6665 30.4406C38.6584 30.5534 38.6584 30.6666 38.6665 30.7795C38.6698 30.869 38.6945 30.9569 38.7389 31.037C38.7833 31.1171 38.8463 31.1876 38.9237 31.2437H39.1705C39.9574 31.2437 39.9523 30.7516 39.9369 30.176C39.9214 29.6003 39.798 29.0107 39.7877 28.4025C39.7774 27.7944 40.7032 27.5855 41.3307 27.5762C41.4649 27.5776 41.5989 27.5869 41.7318 27.604C42.0044 27.604 42.4313 27.4973 42.4261 27.1955" fill="white"/>
<path id="Vector_25" d="M44.8127 30.6124H44.7458H44.4681C43.9538 30.6124 43.1154 30.552 43.1052 29.8835C43.0743 28.4351 44.6892 28.1194 45.5533 28.1054C45.6182 28.0979 45.6839 28.0979 45.7487 28.1054C45.9339 29.5771 45.9699 30.0321 45.975 30.2549V30.3802C45.6048 30.5111 45.2103 30.5773 44.8127 30.5752V30.6124ZM46.8288 26.9216V26.838C46.8288 26.6524 46.5459 26.4666 46.2476 26.4713C45.9493 26.4759 45.6459 26.6106 45.651 26.8798V27.0934C45.4438 27.0814 45.2359 27.0814 45.0287 27.0934C44.6208 27.0894 44.2163 27.1601 43.8395 27.3011C43.4628 27.4422 43.1216 27.6507 42.8365 27.914C42.5515 28.1774 42.3286 28.4901 42.1811 28.8334C42.0337 29.1767 41.9649 29.5434 41.9788 29.9114C42.0097 31.4016 43.1669 31.7358 44.2932 31.7173C44.8958 31.6683 45.4938 31.5814 46.083 31.4573C46.1448 31.7219 46.4019 31.7451 46.5974 31.7405C47.2042 31.7405 47.2762 31.4852 47.2762 31.3087C47.2469 30.5313 47.1662 29.7562 47.0345 28.9875C46.8905 27.4694 46.8339 27.0609 46.8288 26.9216Z" fill="white"/>
<path id="Vector_26" d="M52.5014 30.4777L51.1077 30.5845C50.9305 30.5992 50.7519 30.5809 50.5829 30.5308C50.4139 30.4807 50.2581 30.3999 50.125 30.2933C49.992 30.1867 49.8846 30.0566 49.8095 29.9111C49.7343 29.7655 49.693 29.6076 49.6882 29.4471C49.6882 28.8064 50.2333 28.1426 51.5397 28.1194H51.5911C51.9041 28.113 52.2159 28.157 52.5117 28.2494C52.5553 28.9916 52.5553 29.7355 52.5117 30.4777H52.5014ZM53.6535 25.1436C53.6535 24.7118 53.5867 24.4333 53.0929 24.4379C52.5992 24.4426 52.522 24.9021 52.5323 25.4175V25.7239C52.5323 26.1881 52.5323 26.6524 52.5323 27.1166L52.4912 27.0934C52.1944 27.0064 51.8812 26.9748 51.5705 27.0005C50.3053 27.0005 48.5309 27.7944 48.5669 29.6049C48.5978 31.1137 50.1099 31.6383 51.3597 31.6198C51.7286 31.6214 52.0952 31.5681 52.4449 31.4619C52.4037 32.0701 52.414 32.4554 52.4192 32.7711C52.4243 33.0868 52.6095 33.1889 52.8306 33.1843C53.3861 33.1843 53.5918 33.1472 53.5764 32.2279C53.5198 29.6096 53.7049 27.4462 53.6586 25.1436" fill="white"/>
<path id="Vector_27" d="M33.9192 0.895984C33.4821 1.41594 32.8906 1.82447 32.6695 2.48834C32.652 2.54846 32.6549 2.61193 32.6778 2.67055C32.7007 2.72917 32.7425 2.78026 32.7978 2.81723C32.8532 2.8542 32.9195 2.87535 32.9883 2.87797C33.0571 2.88058 33.1252 2.86454 33.1838 2.83189C33.6981 2.59513 33.9912 2.14017 34.4901 1.9034L33.9758 1.55985C33.8935 1.97303 33.5129 2.26087 33.3072 2.62763C33.268 2.68013 33.2478 2.7423 33.2494 2.80559C33.2509 2.86888 33.2742 2.93018 33.3159 2.98107C33.3576 3.03195 33.4157 3.06993 33.4823 3.08977C33.5489 3.10962 33.6207 3.11035 33.6878 3.09187C34.3513 2.99438 34.8707 2.53013 35.3799 2.16338L34.9016 1.73627C34.615 1.9443 34.4051 2.226 34.2998 2.54406C34.279 2.62154 34.292 2.70328 34.336 2.77239C34.38 2.8415 34.4518 2.89271 34.5364 2.91546C34.917 3.05937 35.2667 2.77155 35.5908 2.63227L35.0765 2.37228L35.025 2.46978C34.7987 2.80404 35.3799 3.11044 35.6062 2.77619C35.6846 2.65197 35.7336 2.51444 35.7502 2.37228C35.7862 2.12159 35.4416 2.02411 35.2359 2.10767C35.1227 2.15874 34.8296 2.38157 34.7216 2.3305C34.7987 2.45585 34.8759 2.58119 34.9582 2.70654C35.0317 2.48859 35.1814 2.29803 35.385 2.16338C35.7142 1.9034 35.241 1.4995 34.9067 1.73627C34.52 2.09237 34.0409 2.35569 33.5129 2.50228L33.8935 2.96653C34.125 2.54871 34.5313 2.22837 34.629 1.75484C34.6495 1.69429 34.6486 1.6295 34.6267 1.56939C34.6047 1.50927 34.5626 1.45678 34.5062 1.41912C34.4499 1.38147 34.382 1.3605 34.3118 1.3591C34.2417 1.3577 34.1728 1.37594 34.1147 1.4113C33.6004 1.64807 33.3072 2.10303 32.8032 2.3398C32.9729 2.45121 33.1375 2.56727 33.3175 2.68333C33.5078 2.10767 34.1095 1.69913 34.5004 1.23489C34.7627 0.923844 34.1815 0.622082 33.9192 0.928485" fill="white"/>
<path id="Vector_28" d="M10.0811 15.2365C10.1698 15.237 10.2572 15.2167 10.3347 15.1777C10.4122 15.1386 10.4772 15.0821 10.5234 15.0137L9.94733 14.7073C9.7383 15.0433 9.50642 15.3674 9.25301 15.6776C9.073 15.9236 9.43816 16.2672 9.71589 16.0907C10.2771 15.7652 10.8116 15.4037 11.3154 15.009C11.6394 14.7351 11.1714 14.3359 10.8422 14.5773C10.3559 14.8881 9.94612 15.2864 9.63875 15.7472C9.59957 15.7997 9.57936 15.8619 9.58091 15.9252C9.58246 15.9885 9.6057 16.0498 9.64741 16.1007C9.68913 16.1515 9.74729 16.1895 9.81389 16.2093C9.88049 16.2292 9.95226 16.2299 10.0193 16.2115C10.9091 16.0211 11.4697 15.3062 12.1589 14.8187L11.6446 14.452C11.192 15.2922 10.3845 15.9004 9.80333 16.6664C9.57188 16.9635 10.0605 17.2467 10.3176 17.0332C11.0685 16.4389 11.8606 15.8911 12.5446 15.2319L12.0663 14.8048C11.3308 15.529 10.5234 16.1975 10.2199 17.1539C10.2041 17.2053 10.2037 17.2597 10.2188 17.3113C10.2339 17.363 10.2639 17.4101 10.3057 17.4478C10.3475 17.4856 10.3997 17.5127 10.4569 17.5263C10.5142 17.5399 10.5744 17.5395 10.6314 17.5253C12.0406 17.061 12.6886 15.8586 13.7173 14.958L13.1567 14.6609C12.6423 15.8076 11.2177 16.3554 10.6622 17.4928C10.6269 17.5507 10.6133 17.6173 10.6234 17.6828C10.6335 17.7482 10.6667 17.809 10.7182 17.856C10.7697 17.903 10.8366 17.9337 10.9091 17.9435C10.9815 17.9534 11.0554 17.9418 11.12 17.9106C12.4675 17.3117 13.3727 16.1929 14.0773 15.0323C14.0996 14.9978 14.1141 14.9598 14.1201 14.9202C14.1261 14.8807 14.1234 14.8405 14.1122 14.8019C14.101 14.7633 14.0814 14.7271 14.0547 14.6954C14.028 14.6636 13.9946 14.6369 13.9564 14.6168C13.9182 14.5966 13.8761 14.5835 13.8323 14.5781C13.7885 14.5727 13.744 14.5751 13.7012 14.5853C13.6585 14.5954 13.6184 14.613 13.5832 14.6371C13.548 14.6613 13.5184 14.6914 13.4961 14.7259C13.1001 15.269 12.8224 15.8725 12.38 16.3879C11.9836 16.7642 11.6382 17.1819 11.3514 17.632C11.2434 17.841 11.4234 18.1938 11.732 18.0963C13.0435 17.6042 13.5938 16.5271 14.5607 15.6683L14.0001 15.3712C13.707 16.1418 13.0692 16.7639 12.7761 17.516C12.6681 17.7945 13.0229 17.9802 13.2904 17.8595C14.0053 17.5624 14.2419 16.931 14.7356 16.4297L14.175 16.1325C13.9916 16.6562 13.7611 17.1655 13.4858 17.6553C13.4705 17.7069 13.4705 17.7612 13.4857 17.8128C13.5008 17.8644 13.5307 17.9116 13.5723 17.9496C13.6138 17.9876 13.6657 18.0152 13.7227 18.0295C13.7797 18.0438 13.8399 18.0444 13.8973 18.0313C14.2686 17.8761 14.6051 17.6605 14.8899 17.3953L14.283 17.061C14.2316 17.321 14.1133 17.5624 14.0516 17.8224C13.959 18.2031 14.607 18.3656 14.6996 17.9802C14.7613 17.7249 14.8796 17.4835 14.931 17.2235C14.95 17.1586 14.9449 17.0899 14.9164 17.028C14.888 16.966 14.8378 16.9141 14.7736 16.8804C14.7093 16.8467 14.6346 16.8329 14.5608 16.8412C14.4871 16.8495 14.4184 16.8794 14.3653 16.9264C14.1658 17.1167 13.9308 17.2738 13.671 17.3906L14.0876 17.7667C14.3642 17.2774 14.5947 16.7681 14.7767 16.2439C14.8487 15.9654 14.4476 15.7054 14.2161 15.9468C13.7738 16.4111 13.5321 17.0239 12.9046 17.2839L13.419 17.6274C13.7121 16.8568 14.3499 16.2347 14.643 15.4826C14.6603 15.4186 14.6542 15.3513 14.6258 15.2907C14.5973 15.23 14.548 15.1793 14.4851 15.1459C14.4222 15.1126 14.349 15.0984 14.2765 15.1056C14.204 15.1127 14.1359 15.1407 14.0824 15.1855C13.2287 15.9468 12.7041 17.0424 11.5468 17.4603L11.9274 17.9245C12.2349 17.4469 12.6025 17.0029 13.0229 16.6014C13.4395 16.1372 13.7018 15.5337 14.0516 15.0183L13.4704 14.7119C12.8172 15.789 12.0046 16.8196 10.7548 17.3721L11.2177 17.7899C11.7937 16.6061 13.2184 16.0211 13.7893 14.8094C13.9281 14.5123 13.4498 14.3173 13.2287 14.5123C12.3235 15.3108 11.7166 16.5178 10.4616 16.9264L10.8782 17.2978C11.1611 16.4389 11.9069 15.8586 12.5549 15.218C12.8429 14.9301 12.3749 14.503 12.0766 14.7909C11.3977 15.4501 10.6005 15.9933 9.85476 16.5875L10.3691 16.9589C10.9554 16.1882 11.7526 15.5894 12.2052 14.7444C12.2367 14.6823 12.2444 14.6125 12.2269 14.546C12.2094 14.4795 12.1678 14.4202 12.1087 14.3775C12.0495 14.3348 11.9763 14.3112 11.9006 14.3104C11.8249 14.3095 11.7511 14.3316 11.6909 14.373C11.0994 14.7955 10.6057 15.4501 9.84447 15.6126L10.2251 16.0768C10.5042 15.6626 10.8776 15.3066 11.3206 15.0323L10.8474 14.6005C10.3846 14.9602 9.89485 15.2906 9.38159 15.5894L9.83933 16.0072C10.0929 15.6981 10.3231 15.3739 10.5285 15.0369C10.5735 14.968 10.5863 14.8857 10.5642 14.8082C10.542 14.7307 10.4866 14.6644 10.4102 14.6237C10.3338 14.5831 10.2427 14.5715 10.1568 14.5915C10.071 14.6116 9.99749 14.6616 9.95248 14.7305L10.0862 14.6516C9.65932 14.6841 9.65418 15.2922 10.0862 15.2597" fill="white"/>
<path id="Vector_29" d="M40.9912 9.54953C41.0683 9.64702 40.0243 11.4576 40.0243 11.8708C40.0254 11.9246 40.0421 11.9773 40.0726 12.0236C40.103 12.0699 40.1463 12.1083 40.1982 12.1349C40.25 12.1616 40.3086 12.1757 40.3683 12.1758C40.428 12.1758 40.4867 12.1619 40.5386 12.1354C41.2278 11.7779 41.6855 11.1744 42.3747 10.8216L41.917 10.4037C41.4026 11.3322 40.2403 11.7965 40.0397 12.8967C40.0273 12.9421 40.0265 12.9895 40.0371 13.0352C40.0478 13.081 40.0698 13.124 40.1014 13.161C40.1331 13.198 40.1735 13.2281 40.2198 13.2491C40.2661 13.2701 40.3171 13.2813 40.3689 13.2821C41.2381 13.2449 41.9118 12.6043 42.6061 12.205C42.6832 12.1644 42.7392 12.0978 42.7619 12.0199C42.7846 11.9419 42.772 11.8591 42.727 11.7895C42.682 11.7199 42.6082 11.6694 42.5219 11.6489C42.4356 11.6284 42.3438 11.6398 42.2667 11.6804C41.6482 11.9851 41.1093 12.4059 40.6861 12.9144C40.2629 13.4229 39.9653 14.0073 39.8134 14.6284C39.7976 14.6798 39.7972 14.7342 39.8123 14.7858C39.8274 14.8375 39.8573 14.8846 39.8992 14.9224C39.941 14.9601 39.9932 14.9872 40.0504 15.0008C40.1077 15.0144 40.1678 15.014 40.2249 14.9998C41.1146 14.8605 41.7678 14.1038 42.4519 13.6581L42.1124 13.1335C41.0576 13.8005 40.2765 14.7635 39.8906 15.8726C39.8753 15.9242 39.8752 15.9785 39.8904 16.0301C39.9056 16.0817 39.9354 16.1289 39.977 16.1669C40.0186 16.2049 40.0705 16.2325 40.1275 16.2468C40.1845 16.2611 40.2447 16.2617 40.302 16.2486C41.4284 15.9143 42.0353 14.958 43.0639 14.4891L42.5496 14.1456C42.097 15.3665 40.5952 15.8261 40.3946 17.2003C40.3934 17.2549 40.4087 17.3088 40.4388 17.3561C40.4689 17.4035 40.5127 17.4426 40.5655 17.4693C40.6183 17.496 40.6781 17.5093 40.7386 17.5077C40.7991 17.5061 40.8579 17.4897 40.9089 17.4603C41.9954 16.7295 42.9497 15.8509 43.7376 14.8559L43.2233 14.4845C42.4056 15.7797 41.0323 16.8475 40.7392 18.3656C40.7187 18.4261 40.7195 18.4909 40.7415 18.551C40.7635 18.6111 40.8056 18.6636 40.8619 18.7013C40.9183 18.7389 40.9862 18.7599 41.0563 18.7613C41.1265 18.7627 41.1953 18.7445 41.2535 18.7091C42.2821 18.1984 42.7964 17.2699 43.6193 16.5829L43.0587 16.2904C42.7964 17.4603 41.701 18.2541 41.5878 19.4844C41.5891 19.5441 41.6097 19.6021 41.6471 19.6514C41.6845 19.7007 41.737 19.739 41.7982 19.7617C41.8594 19.7844 41.9266 19.7904 41.9916 19.7791C42.0565 19.7678 42.1164 19.7396 42.1638 19.6979C43.7942 18.3052 43.7839 15.984 45.5377 14.7166L44.972 14.4195C44.6428 15.7101 43.429 16.6757 43.1359 18.0174C43.1154 18.0779 43.1162 18.1427 43.1382 18.2028C43.1602 18.2629 43.2023 18.3154 43.2586 18.3531C43.315 18.3907 43.3829 18.4117 43.453 18.4131C43.5232 18.4145 43.592 18.3963 43.6502 18.3609C44.3156 17.9862 44.8882 17.4915 45.332 16.9078C46.0212 16.1372 46.875 15.4826 47.5487 14.7166C47.8213 14.4195 47.3687 13.9924 47.0755 14.2848C46.1858 15.1715 45.0543 16.165 44.8434 17.3953C44.8297 17.4467 44.8308 17.5005 44.8465 17.5515C44.8622 17.6024 44.8921 17.6489 44.9333 17.6866C44.9745 17.7242 45.0256 17.7518 45.0819 17.7666C45.1382 17.7814 45.1977 17.7831 45.2549 17.7713C46.6692 17.5346 47.4664 16.035 48.315 15.1298L47.7544 14.8373C47.4201 15.6497 46.6435 16.2068 46.3761 17.0517C46.3638 17.0968 46.3628 17.1437 46.3732 17.1891C46.3836 17.2345 46.4051 17.2773 46.4362 17.3142C46.4672 17.3512 46.507 17.3814 46.5527 17.4026C46.5984 17.4239 46.6487 17.4356 46.7001 17.4371C47.6773 17.4371 48.0682 16.5086 48.8602 16.1465L48.4025 15.7333C48.1042 16.295 47.6413 16.6943 47.5898 17.3396C47.5898 17.5949 47.883 17.6831 48.1042 17.5996C48.5156 17.4417 49.2511 16.7918 49.1636 17.5438C49.1276 17.892 49.5545 18.087 49.8374 18.1845C50.2437 18.3238 50.4186 17.7203 50.0174 17.5996C49.6162 17.4788 50.0945 16.6293 49.5031 16.4854C48.9116 16.3414 48.3459 16.8568 47.7699 17.075L48.2842 17.3396C48.3202 16.8753 48.7985 16.4529 49.0042 16.0397C49.041 15.9813 49.0555 15.9137 49.0455 15.8472C49.0356 15.7807 49.0017 15.719 48.9492 15.6715C48.8966 15.6241 48.8282 15.5935 48.7545 15.5845C48.6809 15.5756 48.606 15.5887 48.5413 15.6219C47.955 15.8772 47.3841 16.8428 46.7206 16.8289L47.0447 17.2142C47.307 16.3832 48.0733 15.8215 48.423 14.9951C48.4387 14.9315 48.4315 14.865 48.4024 14.8054C48.3734 14.7457 48.324 14.696 48.2615 14.6633C48.199 14.6307 48.1266 14.617 48.0549 14.624C47.9831 14.6311 47.9157 14.6586 47.8624 14.7027C47.0961 15.5151 46.3503 16.9728 45.0954 17.1817L45.512 17.5578C45.7074 16.425 46.7515 15.5337 47.5693 14.7166L47.0961 14.2848C46.5201 14.9208 45.8669 15.4826 45.2549 16.0861C44.6428 16.6896 44.1542 17.451 43.3313 17.8363L43.8456 18.1799C44.1337 16.8289 45.3474 15.8865 45.6817 14.582C45.699 14.518 45.6929 14.4507 45.6645 14.39C45.636 14.3294 45.5867 14.2787 45.5238 14.2453C45.4609 14.212 45.3877 14.1978 45.3152 14.2049C45.2427 14.212 45.1746 14.2401 45.1211 14.2848C43.3519 15.5847 43.3776 17.892 41.7472 19.2708L42.3233 19.4844C42.4261 18.347 43.5216 17.5578 43.7685 16.4482C43.7842 16.3846 43.777 16.3181 43.7479 16.2585C43.7189 16.1988 43.6695 16.149 43.607 16.1164C43.5445 16.0838 43.4721 16.0701 43.4003 16.0771C43.3285 16.0842 43.2611 16.1117 43.2079 16.1557C42.4158 16.801 41.9273 17.7063 40.9758 18.1845L41.4901 18.528C41.7678 17.075 43.1205 16.0304 43.9074 14.7909C44.0925 14.503 43.6193 14.1456 43.393 14.4241C42.6457 15.3832 41.7383 16.232 40.7032 16.9403L41.2175 17.2003C41.3975 15.9886 42.9302 15.4408 43.3519 14.3034C43.4548 14.0341 43.105 13.8392 42.8376 13.9645C41.8758 14.4055 41.2946 15.3572 40.2352 15.6636L40.6518 16.035C40.9828 15.0745 41.6552 14.2391 42.565 13.6581C42.9096 13.426 42.565 12.906 42.2256 13.1335C41.5724 13.5467 40.9706 14.2895 40.1683 14.4148L40.5797 14.7909C40.7102 14.246 40.9694 13.7329 41.3395 13.2867C41.7096 12.8404 42.182 12.4715 42.7244 12.205L42.385 11.6804C41.8295 11.9961 41.1712 12.646 40.4872 12.6785C40.59 12.8039 40.698 12.9339 40.8112 13.0592C40.9912 12.0657 42.1484 11.5876 42.6164 10.7101C42.651 10.6519 42.6638 10.5851 42.6529 10.5198C42.642 10.4544 42.608 10.394 42.5559 10.3475C42.5039 10.301 42.4366 10.271 42.364 10.2619C42.2915 10.2528 42.2177 10.2651 42.1535 10.297C41.4592 10.6498 41.0066 11.2533 40.3175 11.6108L40.8318 11.8708C40.8318 11.2255 42.169 9.80487 41.7061 9.2292C41.4541 8.91351 40.8678 9.2292 41.1249 9.53561" fill="white"/>
<path id="Vector_30" d="M45.7901 11.6943C45.1318 12.0704 44.3551 13.4306 45.7386 13.2171L45.3272 13.0035C45.4455 13.4306 45.1523 13.7834 45.3272 14.2152C45.406 14.3785 45.53 14.5207 45.6872 14.6284C46.0627 14.9116 46.0575 15.023 45.9238 15.5569C45.8261 15.9375 46.4741 16.1 46.5718 15.7147C46.6695 15.3294 46.8393 14.6005 46.3558 14.2941C45.9907 14.062 45.8724 13.8856 45.9804 13.5002C46.0447 13.2891 46.0447 13.0661 45.9804 12.8549C45.9541 12.7794 45.897 12.7157 45.8205 12.6769C45.7441 12.6381 45.6541 12.627 45.5689 12.646L45.6409 12.7389C45.6957 12.6426 45.765 12.5535 45.8467 12.4743C45.9252 12.38 46.0209 12.2984 46.1295 12.2329C46.4947 12.0239 46.1604 11.4947 45.7952 11.7083" fill="white"/>
<path id="Vector_31" d="M42.8633 18.3888C42.8221 18.6998 42.4261 19.0201 42.3489 19.3497C42.3348 19.4011 42.3356 19.4548 42.3512 19.5057C42.3669 19.5567 42.3969 19.6031 42.4383 19.6405C42.4797 19.6779 42.5311 19.705 42.5876 19.7191C42.644 19.7332 42.7036 19.7339 42.7604 19.7212C43.4856 19.6283 43.9742 19.229 44.6016 18.9273L44.1439 18.5141C43.7222 19.0991 43.2901 19.5401 43.2541 20.2597C43.2555 20.3401 43.2918 20.4169 43.3554 20.4733C43.4189 20.5298 43.5044 20.5614 43.5936 20.5614C44.9154 20.5893 45.5531 19.3776 46.7463 19.0991L46.3657 18.6348C46.0829 19.1455 45.5994 19.5169 45.296 20.0276C45.2653 20.0681 45.246 20.1148 45.2398 20.1635C45.2336 20.2123 45.2407 20.2617 45.2605 20.3075C45.2803 20.3532 45.3121 20.3939 45.3532 20.426C45.3944 20.4581 45.4436 20.4807 45.4965 20.4918C46.6897 20.645 47.5178 19.5401 48.5824 19.2476L48.2018 18.7834C47.8624 19.2848 47.3687 19.5494 47.3892 20.1761C47.3898 20.2228 47.4022 20.2687 47.4255 20.3104C47.4487 20.352 47.4822 20.3884 47.5234 20.4166C47.5646 20.4448 47.6124 20.4641 47.6631 20.4732C47.7138 20.4822 47.7661 20.4806 47.8161 20.4686C48.4607 20.1846 49.0768 19.8507 49.6573 19.4705L49.143 19.1269C49.0864 19.4333 48.9733 19.7165 48.9116 20.0276C48.8986 20.0792 48.9004 20.1329 48.9168 20.1837C48.9332 20.2345 48.9637 20.2806 49.0055 20.3178C49.0472 20.355 49.0987 20.382 49.1552 20.3962C49.2116 20.4104 49.2712 20.4113 49.3282 20.3989C49.8111 20.2792 50.2758 20.1061 50.7117 19.8836L50.1974 19.6237C50.1641 19.7769 50.1641 19.9346 50.1974 20.0879C50.2 20.168 50.2368 20.2441 50.3 20.3003C50.3632 20.3565 50.4481 20.3885 50.5368 20.3897H50.6911C50.7798 20.3897 50.8648 20.3579 50.9275 20.3013C50.9902 20.2447 51.0254 20.1679 51.0254 20.0879C51.0254 20.0079 50.9902 19.9311 50.9275 19.8745C50.8648 19.8179 50.7798 19.7861 50.6911 19.7861H50.5368C50.65 19.8836 50.758 19.9858 50.8711 20.0879C50.8378 19.9346 50.8378 19.7769 50.8711 19.6237C50.902 19.3683 50.5728 19.2801 50.3568 19.359C49.9709 19.5576 49.5599 19.7135 49.1327 19.8233L49.5442 20.1947C49.6059 19.8883 49.7191 19.6051 49.7756 19.2987C49.7961 19.2381 49.7953 19.1734 49.7733 19.1132C49.7513 19.0531 49.7093 19.0006 49.6529 18.963C49.5965 18.9253 49.5286 18.9043 49.4585 18.9029C49.3884 18.9015 49.3195 18.9198 49.2613 18.9551C48.731 19.3073 48.1684 19.6179 47.5795 19.8836L48.0064 20.1761C48.0064 19.8047 48.5207 19.4008 48.7264 19.0851C48.7656 19.0326 48.7858 18.9705 48.7843 18.9072C48.7827 18.8439 48.7595 18.7826 48.7178 18.7317C48.676 18.6808 48.6179 18.6428 48.5513 18.623C48.4847 18.6032 48.4129 18.6024 48.3458 18.6209C47.5127 18.8484 46.4789 19.9765 45.6097 19.8651C45.6817 20.0136 45.7434 20.1622 45.8103 20.3293C46.124 19.8279 46.6023 19.4612 46.8852 18.9366C46.9244 18.8841 46.9446 18.8219 46.943 18.7586C46.9415 18.6953 46.9182 18.634 46.8765 18.5831C46.8348 18.5323 46.7766 18.4943 46.71 18.4744C46.6434 18.4546 46.5717 18.4539 46.5046 18.4723C45.4143 18.7277 44.6788 19.9347 43.5319 19.9115L43.8662 20.2179C43.8919 19.6329 44.3342 19.2337 44.6634 18.7787C44.8536 18.5095 44.4885 18.2263 44.2005 18.3609C43.6347 18.6348 43.1719 19.0109 42.5187 19.0944L42.9353 19.4658C43.0536 19.0016 43.4239 18.8066 43.4804 18.347C43.5319 17.9617 42.8581 17.9663 42.8118 18.347" fill="white"/>
<path id="Vector_32" d="M34.3773 0.98419C34.5437 1.16397 34.6869 1.36021 34.8042 1.56914C34.9534 1.84769 35.118 2.21908 35.118 2.21908L35.478 2.81797L32.855 2.98045L33.3693 2.30265C33.3693 2.30265 33.5236 2.01018 33.7448 1.68521C33.9296 1.43337 34.1415 1.19856 34.3773 0.98419ZM36.6969 3.2265L35.9666 2.01017C35.8605 1.72738 35.7227 1.45515 35.5551 1.19774C35.2825 0.798488 34.7734 0.0324918 34.7734 0.0324918C34.5444 -0.0108306 34.308 -0.0108306 34.0791 0.0324918C33.8939 0.111414 33.5647 0.849559 33.3487 1.10025C33.2407 1.23488 32.9013 1.5645 32.9013 1.5645L32.6595 2.02874C32.6595 2.02874 31.6823 2.95723 31.6309 3.24506C31.5795 3.5329 31.9909 3.83467 31.9909 3.83467C31.9909 3.83467 36.2083 3.55147 36.5323 3.55147C36.8563 3.55147 36.6969 3.25436 36.6969 3.25436" fill="white"/>
<path id="Vector_33" d="M17.9501 20.4361L17.549 20.4779V20.1715L17.9964 20.1158L17.9501 20.4361ZM17.6055 21.1835L17.5695 20.7471L17.9244 20.71L17.8884 21.1742L17.6055 21.1835ZM16.7415 20.8353L17.2558 20.7796L17.2918 21.2114L16.8289 21.2578L16.7415 20.8353ZM16.15 20.3107L16.4638 21.5317C16.476 21.5788 16.5067 21.6202 16.5502 21.6484C16.5937 21.6766 16.6471 21.6896 16.7004 21.6849L18.1199 21.5456C18.171 21.5394 18.2183 21.5176 18.2538 21.4839C18.2894 21.4501 18.3111 21.4064 18.3153 21.3599L18.4387 19.9069C18.4414 19.8777 18.4368 19.8484 18.4252 19.8211C18.4137 19.7937 18.3954 19.7691 18.3719 19.749C18.3468 19.7289 18.3175 19.7135 18.2857 19.7039C18.2538 19.6944 18.2202 19.6907 18.1867 19.6933L16.3043 19.9301C16.2464 19.937 16.194 19.9643 16.1583 20.0061C16.1227 20.0478 16.1067 20.1006 16.114 20.1529C16.1188 20.1807 16.1293 20.2075 16.1449 20.2318C16.1373 20.2577 16.1373 20.2849 16.1449 20.3107" fill="white"/>
<path id="Vector_34" d="M12.2309 15.7193L12.3338 16.295L11.7012 16.3461C11.7105 16.2079 11.764 16.0751 11.8553 15.9638C11.9466 15.8526 12.0717 15.7676 12.2155 15.7193H12.2309ZM13.2441 16.2161L12.6321 16.2672L12.5292 15.6776C12.6964 15.687 12.8558 15.7443 12.9844 15.8411C13.113 15.938 13.2039 16.0693 13.2441 16.2161ZM12.7812 17.061L12.6887 16.5503L13.2595 16.5039C13.2404 16.6263 13.1862 16.7421 13.1023 16.8398C13.0185 16.9375 12.9078 17.0138 12.7812 17.061ZM11.7218 16.6339L12.3646 16.5782L12.4624 17.1167C12.3011 17.1172 12.1436 17.0729 12.0111 16.9899C11.8786 16.9068 11.7776 16.789 11.7218 16.6525V16.6339ZM12.4726 17.581C12.8005 17.5801 13.1153 17.4653 13.3519 17.2604C13.5884 17.0555 13.7285 16.7763 13.743 16.4807C13.7708 16.4675 13.7938 16.4473 13.8093 16.4226C13.8248 16.3979 13.8321 16.3698 13.8304 16.3414C13.8288 16.3143 13.8181 16.2882 13.7997 16.2667C13.7814 16.2452 13.7562 16.2291 13.7276 16.2207C13.6836 16.0056 13.5726 15.8063 13.4077 15.646C13.2428 15.4857 13.0306 15.3712 12.7962 15.3158C12.5617 15.2604 12.3147 15.2665 12.0839 15.3333C11.8531 15.4 11.6482 15.5248 11.4931 15.6929C11.338 15.861 11.2392 16.0655 11.2082 16.2824C11.1772 16.4994 11.2154 16.7198 11.3181 16.9179C11.4209 17.116 11.5841 17.2836 11.7885 17.401C11.993 17.5185 12.2303 17.5809 12.4726 17.581Z" fill="white"/>
<path id="Vector_35" d="M19.7451 19.9486L19.9046 21.2299L24.3225 21.3739L24.2454 20.3804L19.7451 19.9486Z" fill="white"/>
<path id="Vector_36" d="M28.1487 19.8744L27.8658 18.7648L27.7733 18.607L26.1634 16.9218L25.6491 16.8336L23.2267 18.0127L21.9358 16.8103L21.4215 16.7593L19.4517 17.957L17.667 16.5643H17.0961L15.6303 17.9245C15.6303 17.8827 15.6303 17.8456 15.6303 17.8131C15.6303 17.7063 15.6303 17.4417 15.6303 17.0935C15.6046 16.2161 15.5634 14.8327 15.548 14.4102L15.6509 14.5727C15.7049 14.6593 15.7948 14.7231 15.9008 14.75C16.0069 14.777 16.1204 14.765 16.2166 14.7166C16.3116 14.6669 16.3814 14.5858 16.4111 14.4904C16.4409 14.3951 16.4283 14.293 16.376 14.2059C16.376 14.2059 15.9183 13.477 15.4349 12.7343C15.1931 12.3629 14.9463 11.9868 14.7405 11.699C14.6377 11.5504 14.5502 11.4251 14.4731 11.3276L14.3599 11.1976L14.2982 11.1326C14.2603 11.1025 14.2189 11.076 14.1748 11.0537C14.0659 11.0064 13.9458 10.9841 13.8251 10.9887C13.7268 10.9893 13.6288 10.9971 13.5319 11.0119C13.5319 10.9748 13.5319 10.933 13.5319 10.8866C13.5628 10.5291 13.6193 9.89308 13.6862 9.18742C16.0404 10.3248 18.6592 10.9436 21.3289 10.9933L21.2055 11.2765C21.2055 11.2765 21.1592 11.4483 21.3238 11.4483C21.4883 11.4483 21.4266 11.3972 21.4112 11.3647C21.4286 11.3911 21.4536 11.4127 21.4834 11.4274C21.5133 11.4421 21.5469 11.4493 21.5809 11.4483L21.6272 11.3415C21.6272 11.3415 21.6992 11.5087 21.8638 11.4669L21.7558 11.0026C22.4888 10.9969 23.2206 10.9488 23.9468 10.8587C23.9351 10.8726 23.9273 10.8888 23.9239 10.906C23.9205 10.9231 23.9216 10.9408 23.9271 10.9575C23.9326 10.9742 23.9423 10.9895 23.9556 11.0022C23.9688 11.0148 23.9852 11.0245 24.0033 11.0305C24.1113 11.0676 24.1216 11.0305 24.1165 10.9794C24.1232 11.0093 24.138 11.0372 24.1596 11.0606C24.1811 11.0841 24.2087 11.1025 24.2399 11.114L24.3325 11.0305C24.3325 11.0305 24.3325 11.2115 24.4971 11.2301L24.5948 10.7659C25.7266 10.588 26.8385 10.3192 27.9173 9.96271L28.267 19.7444C28.2718 19.7917 28.2915 19.8367 28.3236 19.8744H28.1487ZM26.9966 18.9459L15.9337 18.8066C15.8967 18.7973 15.8576 18.7973 15.8206 18.8066L17.4047 17.3349L19.1328 18.6952L19.6471 18.723L21.5912 17.5392L22.8564 18.7184L23.3707 18.788L25.7777 17.6181L27.0275 18.9273L26.9966 18.9459ZM15.044 13.9181H14.9411C14.9051 13.8577 14.864 13.7742 14.8177 13.6813L14.1285 12.4511L13.8816 11.9497L14.1954 12.4139C14.4885 12.855 15.1211 13.8392 15.1211 13.8392L15.044 13.9181ZM10.1014 18.2634C10.1118 18.2143 10.1118 18.1639 10.1014 18.1149C10.0528 17.7311 10.0271 17.3452 10.0243 16.9589C10.0243 16.5364 9.98828 15.7704 9.95227 15.1019C9.95227 14.9998 9.95227 14.9069 9.95227 14.8094C10.2034 14.757 10.4609 14.7336 10.7186 14.7398H11.0529C11.5364 14.763 11.9221 14.763 12.2718 14.763C12.6216 14.763 12.9353 14.763 13.3005 14.7862H13.5885C13.9407 14.792 14.2929 14.7765 14.6428 14.7398H14.7045V14.8094C14.7045 15.2737 14.7405 15.9422 14.7611 16.5504C14.7611 16.8521 14.7611 17.1353 14.7611 17.3628C14.7611 17.5903 14.7611 17.7574 14.7611 17.827C14.7611 17.8967 14.7611 18.0824 14.7611 18.2495L10.1014 18.2634ZM9.90084 13.8856V13.2728C9.90084 12.9803 9.90084 12.4418 9.86998 11.9358H10.0448L10.1374 14.0434L9.91113 14.0713C9.91113 13.9877 9.91113 13.9274 9.91113 13.9042L9.90084 13.8856ZM11.1712 14.0249H11.1095H10.7289H10.5283L10.4306 11.9172H10.7186H10.8575L11.1043 13.9645C11.1091 13.9908 11.1196 14.0161 11.1352 14.0388L11.1712 14.0249ZM9.80827 10.9423C9.90005 10.9534 9.99339 10.9388 10.0757 10.9005C10.1237 10.8767 10.166 10.8446 10.2002 10.8061C10.2344 10.7676 10.2599 10.7233 10.2752 10.6759C10.2905 10.6285 10.2952 10.5788 10.2893 10.5297C10.2833 10.4806 10.2666 10.4331 10.2403 10.3898V10.362C10.1991 10.297 10.1014 10.1298 10.0037 9.95343L9.87512 9.70273C9.83912 9.62381 9.81341 9.55881 9.80827 9.54024C9.78717 9.46956 9.75785 9.40109 9.72083 9.33597L10.1014 6.91262C11.0233 7.70583 12.0513 8.39202 13.1616 8.9553L13.2953 9.02029C13.2542 9.48453 13.2182 9.91164 13.1822 10.2691C13.1822 10.5337 13.141 10.7566 13.1256 10.9191C13.1256 10.998 13.1256 11.0583 13.1256 11.1048C12.9844 11.1261 12.8418 11.1385 12.6987 11.1419C12.1844 11.1419 11.7781 11.2022 11.4026 11.1976C11.3118 11.2023 11.2208 11.2023 11.13 11.1976C11.0066 11.1976 10.8832 11.1976 10.7546 11.1976C10.4538 11.2001 10.1533 11.2172 9.85455 11.2487C9.85455 11.1373 9.85455 11.0444 9.85455 10.9748L9.80827 10.9423ZM12.1741 12.1307C12.1741 12.0565 12.1741 11.9915 12.1741 11.9404C12.3284 11.9404 12.4827 11.9172 12.637 11.9172C12.6419 11.9626 12.6505 12.0076 12.6627 12.0518C12.7296 12.3443 12.889 12.8689 13.0382 13.3285C13.1513 13.6813 13.2542 13.9877 13.2953 14.1131C13.0639 14.1131 12.8427 14.1131 12.6267 14.1131C12.6267 14.1131 12.5958 13.9924 12.5547 13.8067C12.4878 13.5235 12.385 13.0917 12.3027 12.7018C12.2667 12.5068 12.2255 12.3164 12.1998 12.1679L12.1741 12.1307ZM11.3512 12.0054H11.4386H11.7575C11.7553 12.0301 11.7553 12.0549 11.7575 12.0797C11.8038 12.3954 11.9169 12.92 12.0198 13.3749C12.0918 13.7138 12.1638 14.0109 12.1947 14.1363H11.5415C11.5574 14.1182 11.5688 14.0972 11.575 14.0748C11.5812 14.0524 11.5821 14.029 11.5775 14.0063L11.3512 12.0054ZM13.4496 11.8847C13.537 12.0797 13.8405 12.6878 14.1285 13.2496C14.2982 13.5792 14.4525 13.8949 14.5554 14.0945C14.2807 14.1273 14.0043 14.1474 13.7273 14.1548C13.7299 14.1348 13.7299 14.1145 13.7273 14.0945C13.7273 14.0945 13.6862 13.9691 13.6193 13.7788C13.5268 13.4863 13.3827 13.0499 13.2645 12.66C13.2079 12.465 13.1513 12.2793 13.1153 12.1354C13.0967 12.076 13.0829 12.0155 13.0742 11.9543C13.0717 11.9467 13.0717 11.9387 13.0742 11.9311L13.4702 11.88L13.4496 11.8847ZM51.5757 20.6497L51.0048 18.4213L50.5522 18.1938L49.0761 18.6302L48.0732 17.8038H47.6258L46.7411 18.4073L45.8565 17.841H45.4451L44.6222 18.4027L43.6758 17.7945L43.2181 17.8363L42.2563 18.7416L42.1586 18.9691C42.1586 18.9691 42.1586 19.4333 42.1895 19.9718L41.3923 20.0368C41.3666 19.8929 41.3306 19.7072 41.2894 19.4844C41.0683 18.2216 40.6774 15.8076 40.3328 13.7138C40.1631 12.6646 40.0036 11.6943 39.8853 10.9841C39.8442 10.7566 39.8133 10.5569 39.7825 10.3852L39.9059 10.362H39.9882C40.5754 10.26 41.1558 10.1282 41.7266 9.96735L42.5341 9.78629L42.6112 14.4752L42.9866 14.8466L44.7816 14.9998L45.2342 14.6237V11.7918L46.3657 12.0565L46.2886 14.6934L46.7 15.0787H49.2716L49.6162 17.5253C49.6243 17.5737 49.643 17.6202 49.6713 17.662C49.6997 17.7038 49.737 17.7401 49.7811 17.7686C49.8252 17.7972 49.8752 17.8175 49.9281 17.8283C49.9811 17.8391 50.0359 17.8403 50.0893 17.8317C50.1432 17.8243 50.1949 17.8074 50.2414 17.7819C50.2879 17.7564 50.3284 17.7228 50.3605 17.6831C50.3925 17.6434 50.4155 17.5983 50.4281 17.5505C50.4407 17.5027 50.4427 17.4531 50.4339 17.4046L49.9196 14.5448L49.5082 14.2291H47.0446L47.1115 12.0425L47.5641 12.1354L47.132 9.04351L44.9102 10.6451V5.53845H47.4818L46.088 4.81887L47.4818 4.09928H44.9102V3.98787C44.9089 3.9542 44.8931 3.92232 44.8662 3.89894C44.8394 3.87555 44.8035 3.8625 44.7662 3.86253C44.7294 3.86253 44.694 3.87573 44.668 3.89923C44.642 3.92274 44.6273 3.95462 44.6273 3.98787V10.8216L43.8507 11.439L44.3239 11.5551V14.1224L43.3518 14.0388L43.2798 9.51704L43.6244 9.43811L43.1101 7.9711L40.8883 7.27473L38.1521 9.20598L38.8156 10.0834C38.8156 10.218 38.8773 10.4223 38.9236 10.6776C39.1293 11.8708 39.5048 14.2059 39.8442 16.2904C40.0139 17.3303 40.1785 18.3099 40.3071 19.0526C40.3688 19.424 40.4254 19.7351 40.4717 19.9811C40.4717 19.9811 40.4717 20.0136 40.4717 20.0322L39.0676 20.139L38.3835 11.9543L38.2035 11.6758L36.9229 10.8819L37.3549 8.41213L37.2623 8.11502L36.2697 7.02404C36.2697 7.02404 36.568 4.61924 36.568 4.26177C36.568 3.9043 36.1257 3.8486 36.1257 3.8486L32.5255 4.06215C32.4196 4.08095 32.3238 4.13155 32.2538 4.20572C32.1837 4.2799 32.1435 4.37329 32.1398 4.47069C32.1398 4.80959 32.4329 7.34437 32.4329 7.34437L31.1729 8.35642L31.034 8.59782L30.7408 11.1883L29.3162 11.9543L29.1156 12.2793L29.1876 19.8651H28.7144C28.7456 19.8276 28.7619 19.7819 28.7607 19.7351L28.2876 6.49479V6.46694C28.2317 6.16145 28.1241 5.86552 27.9687 5.58952C27.8278 5.32642 27.644 5.08386 27.4235 4.86993C27.1577 4.61664 26.8326 4.41999 26.472 4.29427H26.4463C26.1205 4.02575 25.7112 3.85398 25.2737 3.80217C25.0564 3.77669 24.836 3.81895 24.6489 3.92194C24.4619 4.02494 24.3194 4.1825 24.2451 4.36855C24.2571 4.6046 24.3719 4.8268 24.5646 4.98679C24.7572 5.14677 25.0121 5.23158 25.2737 5.22276C25.4909 5.24263 25.7101 5.21012 25.9089 5.12856C26.1077 5.047 26.2789 4.91932 26.4052 4.75852C26.6461 4.86101 26.864 5.00264 27.0481 5.17633C27.3134 5.43281 27.5166 5.73639 27.6447 6.06769C27.6961 6.20232 27.7321 6.31838 27.7527 6.3973V6.49016L27.8658 9.6888C26.8506 10.0314 25.8043 10.2939 24.7388 10.4734C24.8597 10.3339 24.9537 10.1769 25.0165 10.0091C25.0515 10.0065 25.0852 9.9963 25.1147 9.97931C25.1443 9.96233 25.1688 9.93911 25.1863 9.91165H25.4434L25.2171 9.80487C25.2136 9.74442 25.1903 9.68627 25.1502 9.63774C25.1131 9.6053 25.0648 9.58531 25.0133 9.58109C24.9619 9.57686 24.9104 9.58866 24.8674 9.61452C24.8331 9.59954 24.7968 9.58862 24.7594 9.58204H24.6976C24.1833 9.53097 24.2451 10.5105 24.2451 10.5105L24.1885 10.5616C23.3869 10.6749 22.5773 10.7354 21.7661 10.7427C21.8586 10.4409 21.9821 9.86058 21.5449 9.84201C21.4929 9.8328 21.4392 9.8344 21.3879 9.84669C21.3366 9.85898 21.2891 9.88164 21.249 9.91295C21.2088 9.94426 21.1771 9.9834 21.1562 10.0274C21.1353 10.0714 21.1258 10.1191 21.1283 10.167L20.8146 10.3666H21.1489C21.1771 10.4885 21.2167 10.6081 21.2672 10.7241C20.2069 10.707 19.151 10.5966 18.1144 10.3945C18.2938 10.3736 18.4678 10.3249 18.6287 10.2505C18.7882 10.2088 18.9373 10.1252 18.9219 9.96735L18.7162 10.037C18.7162 10.037 18.9785 9.86522 18.8036 9.82344C18.6287 9.78166 18.5825 9.96271 18.5825 9.96271C18.5825 9.96271 18.6442 9.73987 18.5002 9.77701C18.3562 9.81415 18.3562 9.88843 18.2842 9.95343C18.1953 9.71141 18.087 9.47558 17.9601 9.24778C17.9391 9.20516 17.9048 9.16894 17.8615 9.14353C17.8181 9.11812 17.7675 9.1046 17.7158 9.1046C17.6642 9.1046 17.6136 9.11812 17.5702 9.14353C17.5268 9.16894 17.4926 9.20516 17.4715 9.24778C17.4715 9.24778 17.3378 9.37312 17.2967 9.41955C17.3687 9.41955 17.5333 9.37312 17.5847 9.47061C17.6927 9.66095 17.3275 9.82808 17.6207 10.2088C17.6503 10.2494 17.6888 10.2842 17.7338 10.3109C16.3147 10.0087 14.9453 9.54045 13.6605 8.91815C13.6913 8.56997 13.7222 8.20323 13.7582 7.85504L14.4011 7.79469C14.4282 7.79237 14.4544 7.78522 14.4784 7.77368C14.5024 7.76213 14.5236 7.7464 14.5409 7.72741C14.5581 7.70841 14.571 7.68653 14.5787 7.66301C14.5865 7.6395 14.5891 7.61483 14.5862 7.59042C14.5798 7.54068 14.5519 7.49524 14.5085 7.46396C14.4652 7.43267 14.41 7.41806 14.3548 7.42328L13.7891 7.47436V7.37687L14.3342 7.32579C14.3613 7.32347 14.3876 7.31633 14.4116 7.30478C14.4356 7.29324 14.4568 7.27752 14.474 7.25853C14.4912 7.23953 14.5041 7.21763 14.5119 7.19412C14.5197 7.17061 14.5222 7.14593 14.5194 7.12153C14.5175 7.09685 14.5101 7.07279 14.4975 7.05081C14.4849 7.02884 14.4675 7.00944 14.4463 6.99378C14.4251 6.97812 14.4005 6.96655 14.3742 6.95977C14.3479 6.953 14.3202 6.95118 14.2931 6.9544L13.8251 6.99618C13.8251 6.90798 13.8251 6.82441 13.8251 6.74549L15.2703 6.48086C15.3202 6.46701 15.3627 6.43691 15.3895 6.3964C15.4162 6.35588 15.4254 6.30784 15.4151 6.26159C15.4049 6.21534 15.376 6.17417 15.334 6.14607C15.292 6.11796 15.24 6.10492 15.188 6.10947L13.8611 6.35552C13.8611 6.32303 13.8611 6.29517 13.8611 6.26732C13.8971 5.86342 13.9176 5.60808 13.9176 5.60808C13.92 5.58369 13.917 5.55913 13.9089 5.53578C13.9007 5.51244 13.8875 5.49077 13.8701 5.47201C13.8527 5.45326 13.8313 5.4378 13.8073 5.42649C13.7832 5.41519 13.7569 5.40827 13.7299 5.40613C13.7029 5.404 13.6757 5.40669 13.6498 5.41405C13.6239 5.42141 13.5999 5.4333 13.5792 5.44903C13.5584 5.46477 13.5413 5.48405 13.5287 5.50576C13.5162 5.52747 13.5085 5.55121 13.5062 5.57559L13.429 6.43444L12.6318 6.57837C12.5774 6.58845 12.5296 6.61751 12.4988 6.65924C12.468 6.70096 12.4566 6.75197 12.4673 6.80119C12.4728 6.8254 12.4835 6.84837 12.499 6.86876C12.5144 6.88916 12.5342 6.90657 12.5572 6.91998C12.5802 6.93338 12.6059 6.94251 12.6329 6.94682C12.6598 6.95114 12.6874 6.95055 12.7141 6.94511L13.393 6.81977C13.393 6.88941 13.393 6.96368 13.393 7.03332L12.7759 7.09367C12.7213 7.0986 12.6711 7.12289 12.6364 7.16119C12.6017 7.1995 12.5852 7.24869 12.5907 7.29794C12.5962 7.34719 12.6231 7.39246 12.6655 7.42381C12.7079 7.45515 12.7624 7.46999 12.817 7.46506L13.357 7.414C13.357 7.4465 13.357 7.47899 13.357 7.51149L12.8427 7.56256C12.8156 7.56488 12.7894 7.57203 12.7654 7.58358C12.7414 7.59512 12.7202 7.61084 12.7029 7.62983C12.6857 7.64883 12.6728 7.67072 12.6651 7.69424C12.6573 7.71775 12.6547 7.74243 12.6576 7.76683C12.664 7.81657 12.6919 7.862 12.7353 7.89328C12.7786 7.92456 12.8338 7.93918 12.889 7.93396L13.3313 7.89218C13.3313 8.03145 13.3313 8.17072 13.2953 8.30999C13.2593 8.44927 13.2696 8.58391 13.2542 8.72318C13.2457 8.72121 13.2369 8.72121 13.2285 8.72318C12.4342 8.31649 11.6789 7.85063 10.9706 7.33044C10.7135 7.13546 10.518 6.97761 10.3843 6.8662L10.2351 6.73621L10.1991 6.70371C10.1854 6.68931 10.1677 6.67835 10.1479 6.67184C10.1281 6.66534 10.1068 6.66352 10.086 6.66656C10.1188 6.4651 10.1377 6.26198 10.1426 6.0584C10.1504 5.98274 10.1504 5.90658 10.1426 5.83092C10.1328 5.79119 10.119 5.75234 10.1014 5.71486C10.0787 5.66107 10.0372 5.61544 9.98313 5.58487L9.78769 5.45489L9.35053 5.15313L9.11394 4.98599L8.74363 5.06957C8.55958 5.46252 8.41499 5.86959 8.31161 6.28589L8.19332 6.90333C8.02874 6.63871 7.84359 6.36481 7.67901 6.06769C7.54231 5.84244 7.43364 5.60423 7.35499 5.3574C7.31899 5.25991 7.28813 5.16241 7.2367 5.05099C7.17998 4.93249 7.1111 4.81902 7.03097 4.71209C6.92987 4.58239 6.83714 4.44753 6.75324 4.3082C6.59895 4.05751 6.43436 3.76503 6.30578 3.53755L6.15664 3.25437L6.09492 3.14758C6.09492 3.14758 5.67318 2.70655 5.34916 3.14758C5.02514 3.58862 4.95828 3.82538 4.61369 4.29427C4.2001 4.8448 3.85514 5.43488 3.58507 6.05377C3.45228 6.31868 3.27917 6.56556 3.07075 6.78727C2.78612 7.09051 2.52817 7.41338 2.29928 7.75291C2.05241 8.13359 1.92897 8.33785 1.78497 8.51891C1.62951 8.76182 1.45775 8.99592 1.27065 9.21991C1.07431 9.45765 0.902169 9.71092 0.756339 9.97663C0.690907 10.0802 0.65387 10.1964 0.64833 10.3155C0.639463 10.414 0.67431 10.5117 0.745203 10.587C0.816095 10.6623 0.917227 10.7091 1.02635 10.7171C1.13547 10.7251 1.24365 10.6937 1.32709 10.6297C1.41052 10.5657 1.46237 10.4744 1.47123 10.3759C1.58939 10.117 1.75069 9.87588 1.94955 9.66095C2.23242 9.31277 2.37643 9.11314 2.51529 8.90887C2.65416 8.70461 2.77245 8.50034 3.02961 8.12894C3.23905 7.82165 3.47282 7.52841 3.72907 7.25151C3.99301 6.97239 4.20966 6.65949 4.37197 6.32302C4.61281 5.75268 4.92514 5.20907 5.30287 4.70281C5.44688 4.50318 5.5806 4.30356 5.6989 4.1225C5.80176 4.29892 5.91491 4.4939 6.02292 4.67031C6.12219 4.82989 6.23033 4.98483 6.34693 5.13455C6.393 5.19445 6.43262 5.25819 6.46523 5.3249C6.50637 5.42239 6.54751 5.54773 6.61437 5.72879C6.69773 5.96591 6.80804 6.1946 6.94353 6.41123C7.1544 6.76406 7.36527 7.07974 7.54528 7.36293C7.70415 7.60184 7.84173 7.85178 7.95673 8.11037C8.03101 8.27999 8.12225 8.44314 8.22932 8.59782C8.38876 8.84852 8.57905 9.10386 8.74363 9.31741C8.82078 9.42419 8.8825 9.51704 8.92879 9.59132C8.94778 9.61981 8.96495 9.64926 8.98022 9.67952V9.70273C9.01304 9.80744 9.05429 9.90985 9.10365 10.0091C9.16537 10.1345 9.23737 10.2691 9.30423 10.3852L8.93908 10.3387C8.64077 10.3109 8.26532 10.2738 7.91045 10.2738H7.43728C5.89434 10.3341 1.44552 10.5755 1.44552 10.5755C1.38733 10.5787 1.33054 10.5929 1.27881 10.6172C1.22708 10.6414 1.18156 10.6752 1.14521 10.7163C1.10885 10.7575 1.08246 10.805 1.06775 10.8559C1.05303 10.9068 1.05032 10.96 1.05978 11.0119C1.0611 11.0274 1.0611 11.0429 1.05978 11.0583C1.10093 11.2812 1.26551 12.2607 1.32209 13.2217C1.39409 14.3498 1.46095 15.1066 1.53295 15.6219C1.56381 15.8586 1.62038 16.36 1.68725 17.0146C1.75411 17.6692 1.84669 18.4398 1.94955 19.2569C2.05241 20.074 2.13985 20.5568 2.22214 20.9468C2.30443 21.3367 2.36614 21.6199 2.433 22.0749C2.49986 22.5298 2.53587 22.943 2.5513 23.2401C2.5513 23.3887 2.5513 23.5094 2.5513 23.5883V23.7137C2.5513 23.8134 2.59519 23.9091 2.67332 23.9796C2.75144 24.0501 2.8574 24.0897 2.96789 24.0897C3.07838 24.0897 3.18434 24.0501 3.26247 23.9796C3.34059 23.9091 3.38448 23.8134 3.38448 23.7137C3.37552 23.1328 3.32743 22.553 3.24048 21.9774C3.16847 21.5131 3.09647 21.1882 3.02447 20.8075C2.95246 20.4268 2.85988 19.9765 2.75702 19.1687C2.65416 18.3609 2.57187 17.581 2.49986 16.9403C2.42786 16.2997 2.37643 15.8029 2.34043 15.5476C2.27357 15.0601 2.2067 14.3173 2.1347 13.1985C2.09355 12.4696 1.99069 11.7501 1.92383 11.3183H2.38671L5.59603 11.1512L7.07725 11.0815H7.59157C7.73043 11.0815 7.8333 11.0815 7.87959 11.0815C8.18409 11.0853 8.48807 11.1055 8.78992 11.1419H8.92879C8.92879 11.699 8.98536 12.8642 8.98536 13.3192V13.9645C8.98536 13.9645 8.98536 14.1038 9.01108 14.3266C9.01108 14.6609 9.05737 15.1855 9.08308 15.6961C9.1088 16.2068 9.12423 16.7128 9.12423 17.0053C9.12764 17.4164 9.15511 17.8271 9.20651 18.2356C9.21061 18.2724 9.22103 18.3084 9.23738 18.3424L9.17052 18.3702L4.80399 20.775C4.73797 20.8147 4.68499 20.8697 4.65061 20.9342C4.61623 20.9987 4.6017 21.0704 4.60855 21.1418L4.87085 23.203C4.89349 23.2933 4.95221 23.3728 5.03576 23.4264C5.11932 23.4801 5.22185 23.504 5.32373 23.4936C5.42561 23.4833 5.51969 23.4394 5.58796 23.3704C5.65623 23.3013 5.6939 23.212 5.69376 23.1194L5.46746 21.2949L5.69376 21.165L14.8537 20.2643C14.8537 20.4175 14.8794 20.5614 14.8897 20.6914C14.9205 20.9468 14.9411 21.1557 14.9411 21.2857C14.9411 21.3854 14.985 21.481 15.0631 21.5516C15.1413 21.6221 15.2472 21.6617 15.3577 21.6617C15.4682 21.6617 15.5742 21.6221 15.6523 21.5516C15.7304 21.481 15.7743 21.3854 15.7743 21.2857C15.7743 21.086 15.7434 20.8725 15.7177 20.6218C15.692 20.3711 15.6714 20.0972 15.6714 19.7861C15.6714 19.6097 15.6714 19.4101 15.6714 19.2151C15.6968 19.2586 15.7344 19.2952 15.7805 19.3213C15.8265 19.3473 15.8794 19.362 15.9337 19.3637L26.9966 19.503C27.0699 19.5035 27.141 19.4804 27.1972 19.438L27.4287 20.3386L27.8453 20.6264L29.4808 20.58C29.5254 20.5944 29.5723 20.6023 29.6196 20.6032C29.7301 20.6032 29.8361 20.5636 29.9142 20.4931C29.9923 20.4226 30.0362 20.3269 30.0362 20.2272L29.9591 12.465L31.3323 11.7222L31.5329 11.439L31.8312 8.80674L33.1273 7.76683L33.2661 7.45114L32.9884 4.77244L35.704 4.6146L35.4365 7.09367L35.5291 7.36758L36.5114 8.44928L36.0691 10.9887L36.244 11.3554L37.5812 12.1772L38.2755 20.5336C38.2872 20.6317 38.3402 20.722 38.4234 20.7859C38.5066 20.8498 38.6139 20.8824 38.723 20.8771C39.1344 20.8771 42.1226 20.6172 42.1226 20.6172C42.1226 20.6172 42.1226 20.7564 42.1226 20.8214C42.1226 21.0582 42.1226 21.2392 42.1226 21.2857C42.1226 21.3694 42.1595 21.4497 42.2251 21.5089C42.2906 21.5681 42.3796 21.6014 42.4723 21.6014C42.5651 21.6014 42.654 21.5681 42.7196 21.5089C42.7852 21.4497 42.8221 21.3694 42.8221 21.2857C42.8221 21.2253 42.8221 21.0489 42.8221 20.8214C42.8221 20.5939 42.8221 20.4315 42.8221 20.2133C42.8221 19.749 42.7912 19.2337 42.7861 19.0016L43.4392 18.3888L44.3033 18.9459L44.2467 21.2671C44.246 21.2957 44.2516 21.3242 44.2631 21.351C44.2747 21.3777 44.2919 21.4021 44.3139 21.4228C44.3358 21.4434 44.3621 21.46 44.3912 21.4716C44.4203 21.4831 44.4516 21.4893 44.4833 21.4899C44.5148 21.4906 44.5461 21.4855 44.5754 21.475C44.6047 21.4646 44.6314 21.4489 44.6539 21.429C44.6764 21.4092 44.6943 21.3854 44.7065 21.3592C44.7188 21.333 44.725 21.3048 44.725 21.2764L44.7867 18.9551L45.5839 18.4073L46.4634 18.9737H46.5303L46.4737 21.2532C46.4687 21.2842 46.4711 21.3158 46.4808 21.3459C46.4905 21.376 46.5072 21.4038 46.5299 21.4275C46.5526 21.4512 46.5807 21.4703 46.6123 21.4833C46.6438 21.4964 46.6782 21.5031 46.7129 21.5031C46.7476 21.5031 46.7819 21.4964 46.8135 21.4833C46.845 21.4703 46.8731 21.4512 46.8958 21.4275C46.9185 21.4038 46.9353 21.376 46.945 21.3459C46.9547 21.3158 46.9571 21.2842 46.952 21.2532L47.0137 18.8716L47.7389 18.3748L48.5875 19.0712L48.5258 21.5503C48.5251 21.5789 48.5307 21.6074 48.5422 21.6341C48.5538 21.6609 48.571 21.6853 48.593 21.7059C48.6149 21.7266 48.6412 21.7432 48.6703 21.7547C48.6994 21.7663 48.7307 21.7725 48.7624 21.7731C48.7936 21.7744 48.8248 21.7699 48.8541 21.76C48.8834 21.75 48.9102 21.7348 48.9327 21.7153C48.9553 21.6958 48.9733 21.6723 48.9856 21.6464C48.9978 21.6204 49.0042 21.5925 49.0041 21.5642L49.0658 19.2012L50.3259 18.8252L50.8402 20.7193C50.8505 20.7593 50.8695 20.7971 50.896 20.8305C50.9226 20.8638 50.9562 20.8922 50.9949 20.9137C51.0336 20.9353 51.0767 20.9498 51.1217 20.9562C51.1667 20.9627 51.2126 20.9611 51.2568 20.9514C51.3018 20.9426 51.3443 20.9259 51.3821 20.9022C51.4199 20.8785 51.4521 20.8484 51.4769 20.8134C51.5018 20.7785 51.5187 20.7395 51.5269 20.6987C51.535 20.6578 51.5341 20.6159 51.5243 20.5754" fill="white"/>
</g>
</svg>
