<svg width="25" height="26" viewBox="0 0 25 26" fill="none" xmlns="http://www.w3.org/2000/svg">
<rect y="0.5" width="25" height="25" fill="#D9D9D9"/>
<g clip-path="url(#clip0_2021_436)">
<path d="M20.4894 9.47001C20.411 11.1578 19.2217 13.4693 16.9215 16.404C14.5429 19.4679 12.5297 21.0006 10.8833 21.0006C9.86405 21.0006 9.00095 20.066 8.29535 18.196L6.88415 13.0542C6.36055 11.1835 5.79845 10.2489 5.19785 10.2489C5.06695 10.2489 4.60985 10.5215 3.82515 11.0667L3.00195 10.0152C3.85735 9.26835 4.70645 8.51522 5.55065 7.75583C6.70075 6.76904 7.56315 6.24957 8.13855 6.19811C9.49795 6.06807 10.3345 6.99018 10.6481 8.96376C10.9876 11.0931 11.2235 12.4179 11.3537 12.9366C11.7457 14.7023 12.1769 15.5855 12.6473 15.5855C13.0134 15.5855 13.5622 15.0138 14.2944 13.8713C15.0266 12.7287 15.4186 11.8587 15.4704 11.2614C15.5747 10.2746 15.1827 9.78086 14.2944 9.78086C13.8765 9.78086 13.4446 9.87196 13.0008 10.0535C13.8632 7.2746 15.5103 5.92481 17.9414 6.0027C19.7446 6.05485 20.5937 7.21063 20.4894 9.47001Z" fill="black"/>
</g>
<defs>
<clipPath id="clip0_2021_436">
<rect width="17.5" height="15" fill="white" transform="translate(3 6)"/>
</clipPath>
</defs>
</svg>
