<svg width="25" height="26" viewBox="0 0 25 26" fill="none" xmlns="http://www.w3.org/2000/svg">
<rect y="0.5" width="25" height="25" fill="#D9D9D9"/>
<path fill-rule="evenodd" clip-rule="evenodd" d="M18.899 8.6782C19.1212 8.90185 19.2808 9.17994 19.3617 9.48464C19.6612 10.6093 19.6612 12.9545 19.6612 12.9545C19.6612 12.9545 19.6612 15.2998 19.3617 16.4245C19.2808 16.7292 19.1212 17.0072 18.899 17.2309C18.6767 17.4545 18.3997 17.6159 18.0955 17.6988C16.9758 17.9999 12.5 17.9999 12.5 17.9999C12.5 17.9999 8.0243 17.9999 6.90456 17.6988C6.60038 17.6159 6.32332 17.4545 6.10111 17.2309C5.87889 17.0072 5.71931 16.7292 5.63833 16.4245C5.33887 15.2998 5.33887 12.9545 5.33887 12.9545C5.33887 12.9545 5.33887 10.6093 5.63833 9.48464C5.71931 9.17994 5.87889 8.90185 6.10111 8.6782C6.32332 8.45456 6.60038 8.2932 6.90456 8.21027C8.0243 7.90918 12.5 7.90918 12.5 7.90918C12.5 7.90918 16.9758 7.90918 18.0955 8.21027C18.3997 8.2932 18.6767 8.45456 18.899 8.6782ZM11.0353 10.8249V15.0841L14.7786 12.9545L11.0353 10.8249Z" fill="black"/>
</svg>
