<svg width="110" height="108" viewBox="0 0 110 108" fill="none" xmlns="http://www.w3.org/2000/svg">
<path fill-rule="evenodd" clip-rule="evenodd" d="M87.9349 31.9464C88.2622 31.8414 88.6928 32.0514 89.1234 32.6287C89.1234 32.6287 89.1234 32.6287 108.588 51.9789C109.725 53.1336 109.725 54.8831 108.588 55.7404C108.588 55.7404 108.588 55.7404 89.1234 75.3879C88.6928 75.9653 88.2622 76.1053 87.9349 75.9303C87.6076 75.7553 87.4009 75.248 87.4009 74.5132V33.2061C87.4009 32.4888 87.6076 32.0514 87.9349 31.9464Z" fill="white"/>
<path fill-rule="evenodd" clip-rule="evenodd" d="M54.0234 0H55.4178L56.76 0.553633C56.76 0.553633 56.76 0.553631 77.0321 20.5535C77.9036 21.6954 77.6073 22.5604 76.1605 22.5604C76.1605 22.5604 76.1605 22.5604 67.7589 22.5604C66.3121 22.5604 65.1617 23.7023 65.1617 25.1383C65.1617 25.1383 65.1617 25.1383 65.1617 39.9825C65.1617 41.4185 63.9938 42.5603 62.2507 42.5603C62.2507 42.5603 62.2507 42.5603 47.4868 42.5603C46.04 42.5603 44.8722 41.4185 44.8722 39.9825C44.8722 39.9825 44.8722 39.9825 44.8722 25.1383C44.8722 23.7023 43.7217 22.5604 42.2575 22.5604H33.2807C31.8339 22.5604 31.5376 21.6954 32.4091 20.5535C32.4091 20.5535 32.4091 20.5535 52.6986 0.553633L54.0234 0Z" fill="white"/>
<path fill-rule="evenodd" clip-rule="evenodd" d="M22.21 31.2303C22.5745 31.4046 22.8002 31.91 22.8002 32.6419V74.6415C22.8002 75.3734 22.5745 75.8091 22.21 75.9485C21.8628 76.0879 21.3594 75.9485 20.7693 75.5128C20.7693 75.5128 20.7693 75.5128 0.859238 55.367C-0.286413 54.5131 -0.286413 52.7703 0.859238 51.6202C0.859238 51.6202 0.85924 51.6201 20.7693 31.7706C21.3594 31.1955 21.8628 31.0561 22.21 31.2303Z" fill="white"/>
<path fill-rule="evenodd" clip-rule="evenodd" d="M47.5833 64.6006C47.5833 64.6006 47.5833 64.6006 62.1454 64.6006C63.8646 64.6006 65.0165 65.7397 65.0165 67.1722C65.0165 67.1722 65.0165 67.1722 65.0165 82.8435C65.0165 84.5521 66.1512 85.6912 67.5782 85.6912H75.2977C76.7247 85.6912 77.292 86.5369 76.1573 87.3999C76.1573 87.3999 76.1573 87.3999 56.7297 107.058C56.1452 107.628 55.4403 107.921 54.7182 107.921C54.0133 107.921 53.2912 107.628 52.7238 107.058C52.7238 107.058 52.7238 107.058 33.2962 87.3999C32.1443 86.5369 32.7117 85.6912 34.1387 85.6912C34.1387 85.6912 34.1387 85.6912 42.4255 85.6912C43.8697 85.6912 45.0044 84.5521 45.0044 82.8435C45.0044 82.8435 45.0044 82.8435 45.0044 67.1722C45.0044 65.7397 46.1563 64.6006 47.5833 64.6006Z" fill="white"/>
</svg>
