<svg width="95" height="79" viewBox="0 0 95 79" fill="none" xmlns="http://www.w3.org/2000/svg">
<circle cx="44.8813" cy="16.8305" r="14.8305" stroke="white" stroke-width="4"/>
<circle cx="18.5137" cy="20.7576" r="10.9034" stroke="white" stroke-width="4"/>
<circle cx="44.8815" cy="16.8305" r="8.0983" stroke="white" stroke-width="4"/>
<circle cx="18.5" cy="20.7814" r="4.5" stroke="white" stroke-width="4"/>
<circle cx="53.2962" cy="46.5645" r="5.29322" stroke="white" stroke-width="4"/>
<path d="M2 34.5389H56.1017C61.194 34.5389 65.322 38.667 65.322 43.7593V76.5423H11.2203C6.12809 76.5423 2 72.4142 2 67.322V34.5389Z" stroke="white" stroke-width="4"/>
<rect x="9.85449" y="61.4678" width="28.539" height="7.22034" stroke="white" stroke-width="4"/>
<rect x="-2" y="2" width="10.5864" height="7.22034" transform="matrix(-1 0 0 1 56.5898 59.4678)" stroke="white" stroke-width="4"/>
<rect x="65.9561" y="46.8813" width="9.46441" height="16.1966" stroke="white" stroke-width="4"/>
<path d="M76.0544 63.5137L92.251 72.839V37.0386L76.0544 45.9199V63.5137Z" stroke="white" stroke-width="4"/>
</svg>
